<?xml version="1.0" encoding="utf-8" standalone="no"?>
<!DOCTYPE svg PUBLIC "-//W3C//DTD SVG 1.1//EN"
  "http://www.w3.org/Graphics/SVG/1.1/DTD/svg11.dtd">
<!-- Created with matplotlib (http://matplotlib.org/) -->
<svg height="396pt" version="1.1" viewBox="0 0 576 396" width="576pt" xmlns="http://www.w3.org/2000/svg" xmlns:xlink="http://www.w3.org/1999/xlink">
 <defs>
  <style type="text/css">
*{stroke-linecap:butt;stroke-linejoin:round;}
  </style>
 </defs>
 <g id="figure_1">
  <g id="patch_1">
   <path d="M 0 396 
L 576 396 
L 576 0 
L 0 0 
z
" style="fill:#ffffff;"/>
  </g>
  <g id="axes_1">
   <g id="patch_2">
    <path d="M 72 352.44 
L 518.4 352.44 
L 518.4 47.52 
L 72 47.52 
z
" style="fill:#eaeaf2;"/>
   </g>
   <g id="matplotlib.axis_1">
    <g id="xtick_1">
     <g id="line2d_1">
      <path clip-path="url(#pba0587e7aa)" d="M 99.47888 352.44 
L 99.47888 47.52 
" style="fill:none;stroke:#ffffff;stroke-linecap:round;"/>
     </g>
     <g id="line2d_2"/>
     <g id="text_1">
      <!-- −3 -->
      <defs>
       <path d="M 52.828125 31.203125 
L 5.5625 31.203125 
L 5.5625 39.40625 
L 52.828125 39.40625 
z
" id="ArialMT-2212"/>
       <path d="M 4.203125 18.890625 
L 12.984375 20.0625 
Q 14.5 12.59375 18.140625 9.296875 
Q 21.78125 6 27 6 
Q 33.203125 6 37.46875 10.296875 
Q 41.75 14.59375 41.75 20.953125 
Q 41.75 27 37.796875 30.921875 
Q 33.84375 34.859375 27.734375 34.859375 
Q 25.25 34.859375 21.53125 33.890625 
L 22.515625 41.609375 
Q 23.390625 41.5 23.921875 41.5 
Q 29.546875 41.5 34.03125 44.421875 
Q 38.53125 47.359375 38.53125 53.46875 
Q 38.53125 58.296875 35.25 61.46875 
Q 31.984375 64.65625 26.8125 64.65625 
Q 21.6875 64.65625 18.265625 61.421875 
Q 14.84375 58.203125 13.875 51.765625 
L 5.078125 53.328125 
Q 6.6875 62.15625 12.390625 67.015625 
Q 18.109375 71.875 26.609375 71.875 
Q 32.46875 71.875 37.390625 69.359375 
Q 42.328125 66.84375 44.9375 62.5 
Q 47.5625 58.15625 47.5625 53.265625 
Q 47.5625 48.640625 45.0625 44.828125 
Q 42.578125 41.015625 37.703125 38.765625 
Q 44.046875 37.3125 47.5625 32.6875 
Q 51.078125 28.078125 51.078125 21.140625 
Q 51.078125 11.765625 44.234375 5.25 
Q 37.40625 -1.265625 26.953125 -1.265625 
Q 17.53125 -1.265625 11.296875 4.34375 
Q 5.078125 9.96875 4.203125 18.890625 
z
" id="ArialMT-33"/>
      </defs>
      <g style="fill:#262626;" transform="translate(93.778099 366.597813)scale(0.1 -0.1)">
       <use xlink:href="#ArialMT-2212"/>
       <use x="58.398438" xlink:href="#ArialMT-33"/>
      </g>
     </g>
    </g>
    <g id="xtick_2">
     <g id="line2d_3">
      <path clip-path="url(#pba0587e7aa)" d="M 164.719253 352.44 
L 164.719253 47.52 
" style="fill:none;stroke:#ffffff;stroke-linecap:round;"/>
     </g>
     <g id="line2d_4"/>
     <g id="text_2">
      <!-- −2 -->
      <defs>
       <path d="M 50.34375 8.453125 
L 50.34375 0 
L 3.03125 0 
Q 2.9375 3.171875 4.046875 6.109375 
Q 5.859375 10.9375 9.828125 15.625 
Q 13.8125 20.3125 21.34375 26.46875 
Q 33.015625 36.03125 37.109375 41.625 
Q 41.21875 47.21875 41.21875 52.203125 
Q 41.21875 57.421875 37.46875 61 
Q 33.734375 64.59375 27.734375 64.59375 
Q 21.390625 64.59375 17.578125 60.78125 
Q 13.765625 56.984375 13.71875 50.25 
L 4.6875 51.171875 
Q 5.609375 61.28125 11.65625 66.578125 
Q 17.71875 71.875 27.9375 71.875 
Q 38.234375 71.875 44.234375 66.15625 
Q 50.25 60.453125 50.25 52 
Q 50.25 47.703125 48.484375 43.546875 
Q 46.734375 39.40625 42.65625 34.8125 
Q 38.578125 30.21875 29.109375 22.21875 
Q 21.1875 15.578125 18.9375 13.203125 
Q 16.703125 10.84375 15.234375 8.453125 
z
" id="ArialMT-32"/>
      </defs>
      <g style="fill:#262626;" transform="translate(159.018472 366.597813)scale(0.1 -0.1)">
       <use xlink:href="#ArialMT-2212"/>
       <use x="58.398438" xlink:href="#ArialMT-32"/>
      </g>
     </g>
    </g>
    <g id="xtick_3">
     <g id="line2d_5">
      <path clip-path="url(#pba0587e7aa)" d="M 229.959627 352.44 
L 229.959627 47.52 
" style="fill:none;stroke:#ffffff;stroke-linecap:round;"/>
     </g>
     <g id="line2d_6"/>
     <g id="text_3">
      <!-- −1 -->
      <defs>
       <path d="M 37.25 0 
L 28.46875 0 
L 28.46875 56 
Q 25.296875 52.984375 20.140625 49.953125 
Q 14.984375 46.921875 10.890625 45.40625 
L 10.890625 53.90625 
Q 18.265625 57.375 23.78125 62.296875 
Q 29.296875 67.234375 31.59375 71.875 
L 37.25 71.875 
z
" id="ArialMT-31"/>
      </defs>
      <g style="fill:#262626;" transform="translate(224.258845 366.597813)scale(0.1 -0.1)">
       <use xlink:href="#ArialMT-2212"/>
       <use x="58.398438" xlink:href="#ArialMT-31"/>
      </g>
     </g>
    </g>
    <g id="xtick_4">
     <g id="line2d_7">
      <path clip-path="url(#pba0587e7aa)" d="M 295.2 352.44 
L 295.2 47.52 
" style="fill:none;stroke:#ffffff;stroke-linecap:round;"/>
     </g>
     <g id="line2d_8"/>
     <g id="text_4">
      <!-- 0 -->
      <defs>
       <path d="M 4.15625 35.296875 
Q 4.15625 48 6.765625 55.734375 
Q 9.375 63.484375 14.515625 67.671875 
Q 19.671875 71.875 27.484375 71.875 
Q 33.25 71.875 37.59375 69.546875 
Q 41.9375 67.234375 44.765625 62.859375 
Q 47.609375 58.5 49.21875 52.21875 
Q 50.828125 45.953125 50.828125 35.296875 
Q 50.828125 22.703125 48.234375 14.96875 
Q 45.65625 7.234375 40.5 3 
Q 35.359375 -1.21875 27.484375 -1.21875 
Q 17.140625 -1.21875 11.234375 6.203125 
Q 4.15625 15.140625 4.15625 35.296875 
z
M 13.1875 35.296875 
Q 13.1875 17.671875 17.3125 11.828125 
Q 21.4375 6 27.484375 6 
Q 33.546875 6 37.671875 11.859375 
Q 41.796875 17.71875 41.796875 35.296875 
Q 41.796875 52.984375 37.671875 58.78125 
Q 33.546875 64.59375 27.390625 64.59375 
Q 21.34375 64.59375 17.71875 59.46875 
Q 13.1875 52.9375 13.1875 35.296875 
z
" id="ArialMT-30"/>
      </defs>
      <g style="fill:#262626;" transform="translate(292.419531 366.597813)scale(0.1 -0.1)">
       <use xlink:href="#ArialMT-30"/>
      </g>
     </g>
    </g>
    <g id="xtick_5">
     <g id="line2d_9">
      <path clip-path="url(#pba0587e7aa)" d="M 360.440373 352.44 
L 360.440373 47.52 
" style="fill:none;stroke:#ffffff;stroke-linecap:round;"/>
     </g>
     <g id="line2d_10"/>
     <g id="text_5">
      <!-- 1 -->
      <g style="fill:#262626;" transform="translate(357.659905 366.597813)scale(0.1 -0.1)">
       <use xlink:href="#ArialMT-31"/>
      </g>
     </g>
    </g>
    <g id="xtick_6">
     <g id="line2d_11">
      <path clip-path="url(#pba0587e7aa)" d="M 425.680747 352.44 
L 425.680747 47.52 
" style="fill:none;stroke:#ffffff;stroke-linecap:round;"/>
     </g>
     <g id="line2d_12"/>
     <g id="text_6">
      <!-- 2 -->
      <g style="fill:#262626;" transform="translate(422.900278 366.597813)scale(0.1 -0.1)">
       <use xlink:href="#ArialMT-32"/>
      </g>
     </g>
    </g>
    <g id="xtick_7">
     <g id="line2d_13">
      <path clip-path="url(#pba0587e7aa)" d="M 490.92112 352.44 
L 490.92112 47.52 
" style="fill:none;stroke:#ffffff;stroke-linecap:round;"/>
     </g>
     <g id="line2d_14"/>
     <g id="text_7">
      <!-- 3 -->
      <g style="fill:#262626;" transform="translate(488.140651 366.597813)scale(0.1 -0.1)">
       <use xlink:href="#ArialMT-33"/>
      </g>
     </g>
    </g>
    <g id="text_8">
     <!-- Journal Phase, $\delta$ [radians] -->
     <defs>
      <path d="M 2.875 20.3125 
L 11.421875 21.484375 
Q 11.765625 13.28125 14.5 10.25 
Q 17.234375 7.234375 22.078125 7.234375 
Q 25.640625 7.234375 28.21875 8.859375 
Q 30.8125 10.5 31.78125 13.296875 
Q 32.765625 16.109375 32.765625 22.265625 
L 32.765625 71.578125 
L 42.234375 71.578125 
L 42.234375 22.796875 
Q 42.234375 13.8125 40.0625 8.875 
Q 37.890625 3.953125 33.171875 1.359375 
Q 28.46875 -1.21875 22.125 -1.21875 
Q 12.703125 -1.21875 7.6875 4.203125 
Q 2.6875 9.625 2.875 20.3125 
z
" id="ArialMT-4a"/>
      <path d="M 3.328125 25.921875 
Q 3.328125 40.328125 11.328125 47.265625 
Q 18.015625 53.03125 27.640625 53.03125 
Q 38.328125 53.03125 45.109375 46.015625 
Q 51.90625 39.015625 51.90625 26.65625 
Q 51.90625 16.65625 48.90625 10.90625 
Q 45.90625 5.171875 40.15625 2 
Q 34.421875 -1.171875 27.640625 -1.171875 
Q 16.75 -1.171875 10.03125 5.8125 
Q 3.328125 12.796875 3.328125 25.921875 
z
M 12.359375 25.921875 
Q 12.359375 15.96875 16.703125 11.015625 
Q 21.046875 6.0625 27.640625 6.0625 
Q 34.1875 6.0625 38.53125 11.03125 
Q 42.875 16.015625 42.875 26.21875 
Q 42.875 35.84375 38.5 40.796875 
Q 34.125 45.75 27.640625 45.75 
Q 21.046875 45.75 16.703125 40.8125 
Q 12.359375 35.890625 12.359375 25.921875 
z
" id="ArialMT-6f"/>
      <path d="M 40.578125 0 
L 40.578125 7.625 
Q 34.515625 -1.171875 24.125 -1.171875 
Q 19.53125 -1.171875 15.546875 0.578125 
Q 11.578125 2.34375 9.640625 5 
Q 7.71875 7.671875 6.9375 11.53125 
Q 6.390625 14.109375 6.390625 19.734375 
L 6.390625 51.859375 
L 15.1875 51.859375 
L 15.1875 23.09375 
Q 15.1875 16.21875 15.71875 13.8125 
Q 16.546875 10.359375 19.234375 8.375 
Q 21.921875 6.390625 25.875 6.390625 
Q 29.828125 6.390625 33.296875 8.421875 
Q 36.765625 10.453125 38.203125 13.9375 
Q 39.65625 17.4375 39.65625 24.078125 
L 39.65625 51.859375 
L 48.4375 51.859375 
L 48.4375 0 
z
" id="ArialMT-75"/>
      <path d="M 6.5 0 
L 6.5 51.859375 
L 14.40625 51.859375 
L 14.40625 44 
Q 17.4375 49.515625 20 51.265625 
Q 22.5625 53.03125 25.640625 53.03125 
Q 30.078125 53.03125 34.671875 50.203125 
L 31.640625 42.046875 
Q 28.421875 43.953125 25.203125 43.953125 
Q 22.3125 43.953125 20.015625 42.21875 
Q 17.71875 40.484375 16.75 37.40625 
Q 15.28125 32.71875 15.28125 27.15625 
L 15.28125 0 
z
" id="ArialMT-72"/>
      <path d="M 6.59375 0 
L 6.59375 51.859375 
L 14.5 51.859375 
L 14.5 44.484375 
Q 20.21875 53.03125 31 53.03125 
Q 35.6875 53.03125 39.625 51.34375 
Q 43.5625 49.65625 45.515625 46.921875 
Q 47.46875 44.1875 48.25 40.4375 
Q 48.734375 37.984375 48.734375 31.890625 
L 48.734375 0 
L 39.9375 0 
L 39.9375 31.546875 
Q 39.9375 36.921875 38.90625 39.578125 
Q 37.890625 42.234375 35.28125 43.8125 
Q 32.671875 45.40625 29.15625 45.40625 
Q 23.53125 45.40625 19.453125 41.84375 
Q 15.375 38.28125 15.375 28.328125 
L 15.375 0 
z
" id="ArialMT-6e"/>
      <path d="M 40.4375 6.390625 
Q 35.546875 2.25 31.03125 0.53125 
Q 26.515625 -1.171875 21.34375 -1.171875 
Q 12.796875 -1.171875 8.203125 3 
Q 3.609375 7.171875 3.609375 13.671875 
Q 3.609375 17.484375 5.34375 20.625 
Q 7.078125 23.78125 9.890625 25.6875 
Q 12.703125 27.59375 16.21875 28.5625 
Q 18.796875 29.25 24.03125 29.890625 
Q 34.671875 31.15625 39.703125 32.90625 
Q 39.75 34.71875 39.75 35.203125 
Q 39.75 40.578125 37.25 42.78125 
Q 33.890625 45.75 27.25 45.75 
Q 21.046875 45.75 18.09375 43.578125 
Q 15.140625 41.40625 13.71875 35.890625 
L 5.125 37.0625 
Q 6.296875 42.578125 8.984375 45.96875 
Q 11.671875 49.359375 16.75 51.1875 
Q 21.828125 53.03125 28.515625 53.03125 
Q 35.15625 53.03125 39.296875 51.46875 
Q 43.453125 49.90625 45.40625 47.53125 
Q 47.359375 45.171875 48.140625 41.546875 
Q 48.578125 39.3125 48.578125 33.453125 
L 48.578125 21.734375 
Q 48.578125 9.46875 49.140625 6.21875 
Q 49.703125 2.984375 51.375 0 
L 42.1875 0 
Q 40.828125 2.734375 40.4375 6.390625 
z
M 39.703125 26.03125 
Q 34.90625 24.078125 25.34375 22.703125 
Q 19.921875 21.921875 17.671875 20.9375 
Q 15.4375 19.96875 14.203125 18.09375 
Q 12.984375 16.21875 12.984375 13.921875 
Q 12.984375 10.40625 15.640625 8.0625 
Q 18.3125 5.71875 23.4375 5.71875 
Q 28.515625 5.71875 32.46875 7.9375 
Q 36.421875 10.15625 38.28125 14.015625 
Q 39.703125 17 39.703125 22.796875 
z
" id="ArialMT-61"/>
      <path d="M 6.390625 0 
L 6.390625 71.578125 
L 15.1875 71.578125 
L 15.1875 0 
z
" id="ArialMT-6c"/>
      <path id="ArialMT-20"/>
      <path d="M 7.71875 0 
L 7.71875 71.578125 
L 34.71875 71.578125 
Q 41.84375 71.578125 45.609375 70.90625 
Q 50.875 70.015625 54.4375 67.546875 
Q 58.015625 65.09375 60.1875 60.640625 
Q 62.359375 56.203125 62.359375 50.875 
Q 62.359375 41.75 56.546875 35.421875 
Q 50.734375 29.109375 35.546875 29.109375 
L 17.1875 29.109375 
L 17.1875 0 
z
M 17.1875 37.546875 
L 35.6875 37.546875 
Q 44.875 37.546875 48.734375 40.96875 
Q 52.59375 44.390625 52.59375 50.59375 
Q 52.59375 55.078125 50.3125 58.265625 
Q 48.046875 61.46875 44.34375 62.5 
Q 41.9375 63.140625 35.5 63.140625 
L 17.1875 63.140625 
z
" id="ArialMT-50"/>
      <path d="M 6.59375 0 
L 6.59375 71.578125 
L 15.375 71.578125 
L 15.375 45.90625 
Q 21.53125 53.03125 30.90625 53.03125 
Q 36.671875 53.03125 40.921875 50.75 
Q 45.171875 48.484375 47 44.484375 
Q 48.828125 40.484375 48.828125 32.859375 
L 48.828125 0 
L 40.046875 0 
L 40.046875 32.859375 
Q 40.046875 39.453125 37.1875 42.453125 
Q 34.328125 45.453125 29.109375 45.453125 
Q 25.203125 45.453125 21.75 43.421875 
Q 18.3125 41.40625 16.84375 37.9375 
Q 15.375 34.46875 15.375 28.375 
L 15.375 0 
z
" id="ArialMT-68"/>
      <path d="M 3.078125 15.484375 
L 11.765625 16.84375 
Q 12.5 11.625 15.84375 8.84375 
Q 19.1875 6.0625 25.203125 6.0625 
Q 31.25 6.0625 34.171875 8.515625 
Q 37.109375 10.984375 37.109375 14.3125 
Q 37.109375 17.28125 34.515625 19 
Q 32.71875 20.171875 25.53125 21.96875 
Q 15.875 24.421875 12.140625 26.203125 
Q 8.40625 27.984375 6.46875 31.125 
Q 4.546875 34.28125 4.546875 38.09375 
Q 4.546875 41.546875 6.125 44.5 
Q 7.71875 47.46875 10.453125 49.421875 
Q 12.5 50.921875 16.03125 51.96875 
Q 19.578125 53.03125 23.640625 53.03125 
Q 29.734375 53.03125 34.34375 51.265625 
Q 38.96875 49.515625 41.15625 46.5 
Q 43.359375 43.5 44.1875 38.484375 
L 35.59375 37.3125 
Q 35.015625 41.3125 32.203125 43.546875 
Q 29.390625 45.796875 24.265625 45.796875 
Q 18.21875 45.796875 15.625 43.796875 
Q 13.03125 41.796875 13.03125 39.109375 
Q 13.03125 37.40625 14.109375 36.03125 
Q 15.1875 34.625 17.484375 33.6875 
Q 18.796875 33.203125 25.25 31.453125 
Q 34.578125 28.953125 38.25 27.359375 
Q 41.9375 25.78125 44.03125 22.75 
Q 46.140625 19.734375 46.140625 15.234375 
Q 46.140625 10.84375 43.578125 6.953125 
Q 41.015625 3.078125 36.171875 0.953125 
Q 31.34375 -1.171875 25.25 -1.171875 
Q 15.140625 -1.171875 9.84375 3.03125 
Q 4.546875 7.234375 3.078125 15.484375 
z
" id="ArialMT-73"/>
      <path d="M 42.09375 16.703125 
L 51.171875 15.578125 
Q 49.03125 7.625 43.21875 3.21875 
Q 37.40625 -1.171875 28.375 -1.171875 
Q 17 -1.171875 10.328125 5.828125 
Q 3.65625 12.84375 3.65625 25.484375 
Q 3.65625 38.578125 10.390625 45.796875 
Q 17.140625 53.03125 27.875 53.03125 
Q 38.28125 53.03125 44.875 45.953125 
Q 51.46875 38.875 51.46875 26.03125 
Q 51.46875 25.25 51.421875 23.6875 
L 12.75 23.6875 
Q 13.234375 15.140625 17.578125 10.59375 
Q 21.921875 6.0625 28.421875 6.0625 
Q 33.25 6.0625 36.671875 8.59375 
Q 40.09375 11.140625 42.09375 16.703125 
z
M 13.234375 30.90625 
L 42.1875 30.90625 
Q 41.609375 37.453125 38.875 40.71875 
Q 34.671875 45.796875 27.984375 45.796875 
Q 21.921875 45.796875 17.796875 41.75 
Q 13.671875 37.703125 13.234375 30.90625 
z
" id="ArialMT-65"/>
      <path d="M 8.890625 0 
L 8.890625 10.015625 
L 18.890625 10.015625 
L 18.890625 0 
Q 18.890625 -5.515625 16.9375 -8.90625 
Q 14.984375 -12.3125 10.75 -14.15625 
L 8.296875 -10.40625 
Q 11.078125 -9.1875 12.390625 -6.8125 
Q 13.71875 -4.4375 13.875 0 
z
" id="ArialMT-2c"/>
      <path d="M 54.25 63.328125 
Q 49.953125 66.75 38.28125 66.75 
Q 25.921875 66.75 24.8125 61.03125 
Q 23.921875 56.546875 36.375 54.203125 
Q 46.140625 52.390625 50.828125 46.921875 
Q 56.5 40.328125 53.859375 26.8125 
Q 51.3125 13.875 43.171875 6.25 
Q 34.96875 -1.421875 23.25 -1.421875 
Q 11.578125 -1.421875 6.34375 6.25 
Q 1.125 13.875 3.765625 27.296875 
Q 5.671875 37.25 13.921875 45.3125 
Q 17.140625 48.4375 21.140625 50.203125 
Q 14.265625 54.046875 15.625 60.9375 
Q 18.21875 74.21875 39.75 74.21875 
Q 50.53125 74.21875 55.71875 70.796875 
z
M 27.390625 47.75 
Q 23.828125 46.34375 20.40625 42.78125 
Q 15.140625 37.25 13.234375 27.296875 
Q 11.28125 17.390625 14.359375 11.8125 
Q 17.484375 6.203125 24.75 6.203125 
Q 31.9375 6.203125 37.203125 11.859375 
Q 42.53125 17.53125 44.34375 26.8125 
Q 46.1875 36.53125 42.671875 41.21875 
Q 38.921875 46.234375 32.859375 46.78125 
Q 29.78125 47.078125 27.390625 47.75 
z
" id="DejaVuSans-Oblique-3b4"/>
      <path d="M 6.78125 -19.875 
L 6.78125 71.578125 
L 26.171875 71.578125 
L 26.171875 64.3125 
L 15.578125 64.3125 
L 15.578125 -12.59375 
L 26.171875 -12.59375 
L 26.171875 -19.875 
z
" id="ArialMT-5b"/>
      <path d="M 40.234375 0 
L 40.234375 6.546875 
Q 35.296875 -1.171875 25.734375 -1.171875 
Q 19.53125 -1.171875 14.328125 2.25 
Q 9.125 5.671875 6.265625 11.796875 
Q 3.421875 17.921875 3.421875 25.875 
Q 3.421875 33.640625 6 39.96875 
Q 8.59375 46.296875 13.765625 49.65625 
Q 18.953125 53.03125 25.34375 53.03125 
Q 30.03125 53.03125 33.6875 51.046875 
Q 37.359375 49.078125 39.65625 45.90625 
L 39.65625 71.578125 
L 48.390625 71.578125 
L 48.390625 0 
z
M 12.453125 25.875 
Q 12.453125 15.921875 16.640625 10.984375 
Q 20.84375 6.0625 26.5625 6.0625 
Q 32.328125 6.0625 36.34375 10.765625 
Q 40.375 15.484375 40.375 25.140625 
Q 40.375 35.796875 36.265625 40.765625 
Q 32.171875 45.75 26.171875 45.75 
Q 20.3125 45.75 16.375 40.96875 
Q 12.453125 36.1875 12.453125 25.875 
z
" id="ArialMT-64"/>
      <path d="M 6.640625 61.46875 
L 6.640625 71.578125 
L 15.4375 71.578125 
L 15.4375 61.46875 
z
M 6.640625 0 
L 6.640625 51.859375 
L 15.4375 51.859375 
L 15.4375 0 
z
" id="ArialMT-69"/>
      <path d="M 21.296875 -19.875 
L 1.90625 -19.875 
L 1.90625 -12.59375 
L 12.5 -12.59375 
L 12.5 64.3125 
L 1.90625 64.3125 
L 1.90625 71.578125 
L 21.296875 71.578125 
z
" id="ArialMT-5d"/>
     </defs>
     <g style="fill:#262626;" transform="translate(230.96 380.835312)scale(0.11 -0.11)">
      <use transform="translate(0 0.78125)" xlink:href="#ArialMT-4a"/>
      <use transform="translate(50 0.78125)" xlink:href="#ArialMT-6f"/>
      <use transform="translate(105.615234 0.78125)" xlink:href="#ArialMT-75"/>
      <use transform="translate(161.230469 0.78125)" xlink:href="#ArialMT-72"/>
      <use transform="translate(194.53125 0.78125)" xlink:href="#ArialMT-6e"/>
      <use transform="translate(250.146484 0.78125)" xlink:href="#ArialMT-61"/>
      <use transform="translate(305.761719 0.78125)" xlink:href="#ArialMT-6c"/>
      <use transform="translate(327.978516 0.78125)" xlink:href="#ArialMT-20"/>
      <use transform="translate(355.761719 0.78125)" xlink:href="#ArialMT-50"/>
      <use transform="translate(422.460938 0.78125)" xlink:href="#ArialMT-68"/>
      <use transform="translate(478.076172 0.78125)" xlink:href="#ArialMT-61"/>
      <use transform="translate(533.691406 0.78125)" xlink:href="#ArialMT-73"/>
      <use transform="translate(583.691406 0.78125)" xlink:href="#ArialMT-65"/>
      <use transform="translate(639.306641 0.78125)" xlink:href="#ArialMT-2c"/>
      <use transform="translate(667.089844 0.78125)" xlink:href="#ArialMT-20"/>
      <use transform="translate(694.873047 0.78125)" xlink:href="#DejaVuSans-Oblique-3b4"/>
      <use transform="translate(756.054688 0.78125)" xlink:href="#ArialMT-20"/>
      <use transform="translate(783.837891 0.78125)" xlink:href="#ArialMT-5b"/>
      <use transform="translate(811.621094 0.78125)" xlink:href="#ArialMT-72"/>
      <use transform="translate(844.921875 0.78125)" xlink:href="#ArialMT-61"/>
      <use transform="translate(900.537109 0.78125)" xlink:href="#ArialMT-64"/>
      <use transform="translate(956.152344 0.78125)" xlink:href="#ArialMT-69"/>
      <use transform="translate(978.369141 0.78125)" xlink:href="#ArialMT-61"/>
      <use transform="translate(1033.984375 0.78125)" xlink:href="#ArialMT-6e"/>
      <use transform="translate(1089.599609 0.78125)" xlink:href="#ArialMT-73"/>
      <use transform="translate(1139.599609 0.78125)" xlink:href="#ArialMT-5d"/>
     </g>
    </g>
   </g>
   <g id="matplotlib.axis_2">
    <g id="ytick_1">
     <g id="line2d_15">
      <path clip-path="url(#pba0587e7aa)" d="M 72 346.038246 
L 518.4 346.038246 
" style="fill:none;stroke:#ffffff;stroke-linecap:round;"/>
     </g>
     <g id="line2d_16"/>
     <g id="text_9">
      <!-- 0.03 -->
      <defs>
       <path d="M 9.078125 0 
L 9.078125 10.015625 
L 19.09375 10.015625 
L 19.09375 0 
z
" id="ArialMT-2e"/>
      </defs>
      <g style="fill:#262626;" transform="translate(45.539062 349.617152)scale(0.1 -0.1)">
       <use xlink:href="#ArialMT-30"/>
       <use x="55.615234" xlink:href="#ArialMT-2e"/>
       <use x="83.398438" xlink:href="#ArialMT-30"/>
       <use x="139.013672" xlink:href="#ArialMT-33"/>
      </g>
     </g>
    </g>
    <g id="ytick_2">
     <g id="line2d_17">
      <path clip-path="url(#pba0587e7aa)" d="M 72 283.884854 
L 518.4 283.884854 
" style="fill:none;stroke:#ffffff;stroke-linecap:round;"/>
     </g>
     <g id="line2d_18"/>
     <g id="text_10">
      <!-- 0.04 -->
      <defs>
       <path d="M 32.328125 0 
L 32.328125 17.140625 
L 1.265625 17.140625 
L 1.265625 25.203125 
L 33.9375 71.578125 
L 41.109375 71.578125 
L 41.109375 25.203125 
L 50.78125 25.203125 
L 50.78125 17.140625 
L 41.109375 17.140625 
L 41.109375 0 
z
M 32.328125 25.203125 
L 32.328125 57.46875 
L 9.90625 25.203125 
z
" id="ArialMT-34"/>
      </defs>
      <g style="fill:#262626;" transform="translate(45.539062 287.46376)scale(0.1 -0.1)">
       <use xlink:href="#ArialMT-30"/>
       <use x="55.615234" xlink:href="#ArialMT-2e"/>
       <use x="83.398438" xlink:href="#ArialMT-30"/>
       <use x="139.013672" xlink:href="#ArialMT-34"/>
      </g>
     </g>
    </g>
    <g id="ytick_3">
     <g id="line2d_19">
      <path clip-path="url(#pba0587e7aa)" d="M 72 221.731461 
L 518.4 221.731461 
" style="fill:none;stroke:#ffffff;stroke-linecap:round;"/>
     </g>
     <g id="line2d_20"/>
     <g id="text_11">
      <!-- 0.05 -->
      <defs>
       <path d="M 4.15625 18.75 
L 13.375 19.53125 
Q 14.40625 12.796875 18.140625 9.390625 
Q 21.875 6 27.15625 6 
Q 33.5 6 37.890625 10.78125 
Q 42.28125 15.578125 42.28125 23.484375 
Q 42.28125 31 38.0625 35.34375 
Q 33.84375 39.703125 27 39.703125 
Q 22.75 39.703125 19.328125 37.765625 
Q 15.921875 35.84375 13.96875 32.765625 
L 5.71875 33.84375 
L 12.640625 70.609375 
L 48.25 70.609375 
L 48.25 62.203125 
L 19.671875 62.203125 
L 15.828125 42.96875 
Q 22.265625 47.46875 29.34375 47.46875 
Q 38.71875 47.46875 45.15625 40.96875 
Q 51.609375 34.46875 51.609375 24.265625 
Q 51.609375 14.546875 45.953125 7.46875 
Q 39.0625 -1.21875 27.15625 -1.21875 
Q 17.390625 -1.21875 11.203125 4.25 
Q 5.03125 9.71875 4.15625 18.75 
z
" id="ArialMT-35"/>
      </defs>
      <g style="fill:#262626;" transform="translate(45.539062 225.310368)scale(0.1 -0.1)">
       <use xlink:href="#ArialMT-30"/>
       <use x="55.615234" xlink:href="#ArialMT-2e"/>
       <use x="83.398438" xlink:href="#ArialMT-30"/>
       <use x="139.013672" xlink:href="#ArialMT-35"/>
      </g>
     </g>
    </g>
    <g id="ytick_4">
     <g id="line2d_21">
      <path clip-path="url(#pba0587e7aa)" d="M 72 159.578069 
L 518.4 159.578069 
" style="fill:none;stroke:#ffffff;stroke-linecap:round;"/>
     </g>
     <g id="line2d_22"/>
     <g id="text_12">
      <!-- 0.06 -->
      <defs>
       <path d="M 49.75 54.046875 
L 41.015625 53.375 
Q 39.84375 58.546875 37.703125 60.890625 
Q 34.125 64.65625 28.90625 64.65625 
Q 24.703125 64.65625 21.53125 62.3125 
Q 17.390625 59.28125 14.984375 53.46875 
Q 12.59375 47.65625 12.5 36.921875 
Q 15.671875 41.75 20.265625 44.09375 
Q 24.859375 46.4375 29.890625 46.4375 
Q 38.671875 46.4375 44.84375 39.96875 
Q 51.03125 33.5 51.03125 23.25 
Q 51.03125 16.5 48.125 10.71875 
Q 45.21875 4.9375 40.140625 1.859375 
Q 35.0625 -1.21875 28.609375 -1.21875 
Q 17.625 -1.21875 10.6875 6.859375 
Q 3.765625 14.9375 3.765625 33.5 
Q 3.765625 54.25 11.421875 63.671875 
Q 18.109375 71.875 29.4375 71.875 
Q 37.890625 71.875 43.28125 67.140625 
Q 48.6875 62.40625 49.75 54.046875 
z
M 13.875 23.1875 
Q 13.875 18.65625 15.796875 14.5 
Q 17.71875 10.359375 21.1875 8.171875 
Q 24.65625 6 28.46875 6 
Q 34.03125 6 38.03125 10.484375 
Q 42.046875 14.984375 42.046875 22.703125 
Q 42.046875 30.125 38.078125 34.390625 
Q 34.125 38.671875 28.125 38.671875 
Q 22.171875 38.671875 18.015625 34.390625 
Q 13.875 30.125 13.875 23.1875 
z
" id="ArialMT-36"/>
      </defs>
      <g style="fill:#262626;" transform="translate(45.539062 163.156975)scale(0.1 -0.1)">
       <use xlink:href="#ArialMT-30"/>
       <use x="55.615234" xlink:href="#ArialMT-2e"/>
       <use x="83.398438" xlink:href="#ArialMT-30"/>
       <use x="139.013672" xlink:href="#ArialMT-36"/>
      </g>
     </g>
    </g>
    <g id="ytick_5">
     <g id="line2d_23">
      <path clip-path="url(#pba0587e7aa)" d="M 72 97.424676 
L 518.4 97.424676 
" style="fill:none;stroke:#ffffff;stroke-linecap:round;"/>
     </g>
     <g id="line2d_24"/>
     <g id="text_13">
      <!-- 0.07 -->
      <defs>
       <path d="M 4.734375 62.203125 
L 4.734375 70.65625 
L 51.078125 70.65625 
L 51.078125 63.8125 
Q 44.234375 56.546875 37.515625 44.484375 
Q 30.8125 32.421875 27.15625 19.671875 
Q 24.515625 10.6875 23.78125 0 
L 14.75 0 
Q 14.890625 8.453125 18.0625 20.40625 
Q 21.234375 32.375 27.171875 43.484375 
Q 33.109375 54.59375 39.796875 62.203125 
z
" id="ArialMT-37"/>
      </defs>
      <g style="fill:#262626;" transform="translate(45.539062 101.003583)scale(0.1 -0.1)">
       <use xlink:href="#ArialMT-30"/>
       <use x="55.615234" xlink:href="#ArialMT-2e"/>
       <use x="83.398438" xlink:href="#ArialMT-30"/>
       <use x="139.013672" xlink:href="#ArialMT-37"/>
      </g>
     </g>
    </g>
    <g id="text_14">
     <!-- Smoothed Average Sentiment Score, $\overline{\Sigma}$ [dimensionless] -->
     <defs>
      <path d="M 4.5 23 
L 13.421875 23.78125 
Q 14.0625 18.40625 16.375 14.96875 
Q 18.703125 11.53125 23.578125 9.40625 
Q 28.46875 7.28125 34.578125 7.28125 
Q 39.984375 7.28125 44.140625 8.890625 
Q 48.296875 10.5 50.3125 13.296875 
Q 52.34375 16.109375 52.34375 19.4375 
Q 52.34375 22.796875 50.390625 25.3125 
Q 48.4375 27.828125 43.953125 29.546875 
Q 41.0625 30.671875 31.203125 33.03125 
Q 21.34375 35.40625 17.390625 37.5 
Q 12.25 40.1875 9.734375 44.15625 
Q 7.234375 48.140625 7.234375 53.078125 
Q 7.234375 58.5 10.296875 63.203125 
Q 13.375 67.921875 19.28125 70.359375 
Q 25.203125 72.796875 32.421875 72.796875 
Q 40.375 72.796875 46.453125 70.234375 
Q 52.546875 67.671875 55.8125 62.6875 
Q 59.078125 57.71875 59.328125 51.421875 
L 50.25 50.734375 
Q 49.515625 57.515625 45.28125 60.984375 
Q 41.0625 64.453125 32.8125 64.453125 
Q 24.21875 64.453125 20.28125 61.296875 
Q 16.359375 58.15625 16.359375 53.71875 
Q 16.359375 49.859375 19.140625 47.359375 
Q 21.875 44.875 33.421875 42.265625 
Q 44.96875 39.65625 49.265625 37.703125 
Q 55.515625 34.8125 58.484375 30.390625 
Q 61.46875 25.984375 61.46875 20.21875 
Q 61.46875 14.5 58.203125 9.4375 
Q 54.9375 4.390625 48.796875 1.578125 
Q 42.671875 -1.21875 35.015625 -1.21875 
Q 25.296875 -1.21875 18.71875 1.609375 
Q 12.15625 4.4375 8.421875 10.125 
Q 4.6875 15.828125 4.5 23 
z
" id="ArialMT-53"/>
      <path d="M 6.59375 0 
L 6.59375 51.859375 
L 14.453125 51.859375 
L 14.453125 44.578125 
Q 16.890625 48.390625 20.9375 50.703125 
Q 25 53.03125 30.171875 53.03125 
Q 35.9375 53.03125 39.625 50.640625 
Q 43.3125 48.25 44.828125 43.953125 
Q 50.984375 53.03125 60.84375 53.03125 
Q 68.5625 53.03125 72.703125 48.75 
Q 76.859375 44.484375 76.859375 35.59375 
L 76.859375 0 
L 68.109375 0 
L 68.109375 32.671875 
Q 68.109375 37.9375 67.25 40.25 
Q 66.40625 42.578125 64.15625 43.984375 
Q 61.921875 45.40625 58.890625 45.40625 
Q 53.421875 45.40625 49.796875 41.765625 
Q 46.1875 38.140625 46.1875 30.125 
L 46.1875 0 
L 37.40625 0 
L 37.40625 33.6875 
Q 37.40625 39.546875 35.25 42.46875 
Q 33.109375 45.40625 28.21875 45.40625 
Q 24.515625 45.40625 21.359375 43.453125 
Q 18.21875 41.5 16.796875 37.734375 
Q 15.375 33.984375 15.375 26.90625 
L 15.375 0 
z
" id="ArialMT-6d"/>
      <path d="M 25.78125 7.859375 
L 27.046875 0.09375 
Q 23.34375 -0.6875 20.40625 -0.6875 
Q 15.625 -0.6875 12.984375 0.828125 
Q 10.359375 2.34375 9.28125 4.8125 
Q 8.203125 7.28125 8.203125 15.1875 
L 8.203125 45.015625 
L 1.765625 45.015625 
L 1.765625 51.859375 
L 8.203125 51.859375 
L 8.203125 64.703125 
L 16.9375 69.96875 
L 16.9375 51.859375 
L 25.78125 51.859375 
L 25.78125 45.015625 
L 16.9375 45.015625 
L 16.9375 14.703125 
Q 16.9375 10.9375 17.40625 9.859375 
Q 17.875 8.796875 18.921875 8.15625 
Q 19.96875 7.515625 21.921875 7.515625 
Q 23.390625 7.515625 25.78125 7.859375 
z
" id="ArialMT-74"/>
      <path d="M -0.140625 0 
L 27.34375 71.578125 
L 37.546875 71.578125 
L 66.84375 0 
L 56.0625 0 
L 47.703125 21.6875 
L 17.78125 21.6875 
L 9.90625 0 
z
M 20.515625 29.390625 
L 44.78125 29.390625 
L 37.3125 49.21875 
Q 33.890625 58.25 32.234375 64.0625 
Q 30.859375 57.171875 28.375 50.390625 
z
" id="ArialMT-41"/>
      <path d="M 21 0 
L 1.265625 51.859375 
L 10.546875 51.859375 
L 21.6875 20.796875 
Q 23.484375 15.765625 25 10.359375 
Q 26.171875 14.453125 28.265625 20.21875 
L 39.796875 51.859375 
L 48.828125 51.859375 
L 29.203125 0 
z
" id="ArialMT-76"/>
      <path d="M 4.984375 -4.296875 
L 13.53125 -5.5625 
Q 14.0625 -9.515625 16.5 -11.328125 
Q 19.78125 -13.765625 25.4375 -13.765625 
Q 31.546875 -13.765625 34.859375 -11.328125 
Q 38.1875 -8.890625 39.359375 -4.5 
Q 40.046875 -1.8125 39.984375 6.78125 
Q 34.234375 0 25.640625 0 
Q 14.9375 0 9.078125 7.71875 
Q 3.21875 15.4375 3.21875 26.21875 
Q 3.21875 33.640625 5.90625 39.90625 
Q 8.59375 46.1875 13.6875 49.609375 
Q 18.796875 53.03125 25.6875 53.03125 
Q 34.859375 53.03125 40.828125 45.609375 
L 40.828125 51.859375 
L 48.921875 51.859375 
L 48.921875 7.03125 
Q 48.921875 -5.078125 46.453125 -10.125 
Q 44 -15.1875 38.640625 -18.109375 
Q 33.296875 -21.046875 25.484375 -21.046875 
Q 16.21875 -21.046875 10.5 -16.875 
Q 4.78125 -12.703125 4.984375 -4.296875 
z
M 12.25 26.859375 
Q 12.25 16.65625 16.296875 11.96875 
Q 20.359375 7.28125 26.46875 7.28125 
Q 32.515625 7.28125 36.609375 11.9375 
Q 40.71875 16.609375 40.71875 26.5625 
Q 40.71875 36.078125 36.5 40.90625 
Q 32.28125 45.75 26.3125 45.75 
Q 20.453125 45.75 16.34375 40.984375 
Q 12.25 36.234375 12.25 26.859375 
z
" id="ArialMT-67"/>
      <path d="M 40.4375 19 
L 49.078125 17.875 
Q 47.65625 8.9375 41.8125 3.875 
Q 35.984375 -1.171875 27.484375 -1.171875 
Q 16.84375 -1.171875 10.375 5.78125 
Q 3.90625 12.75 3.90625 25.734375 
Q 3.90625 34.125 6.6875 40.421875 
Q 9.46875 46.734375 15.15625 49.875 
Q 20.84375 53.03125 27.546875 53.03125 
Q 35.984375 53.03125 41.359375 48.75 
Q 46.734375 44.484375 48.25 36.625 
L 39.703125 35.296875 
Q 38.484375 40.53125 35.375 43.15625 
Q 32.28125 45.796875 27.875 45.796875 
Q 21.234375 45.796875 17.078125 41.03125 
Q 12.9375 36.28125 12.9375 25.984375 
Q 12.9375 15.53125 16.9375 10.796875 
Q 20.953125 6.0625 27.390625 6.0625 
Q 32.5625 6.0625 36.03125 9.234375 
Q 39.5 12.40625 40.4375 19 
z
" id="ArialMT-63"/>
      <path d="M 21.140625 8.296875 
L 56.78125 8.296875 
L 56.78125 0 
L 9.8125 0 
L 9.8125 8.296875 
L 33.203125 38.765625 
L 9.8125 64.59375 
L 9.8125 72.90625 
L 55.90625 72.90625 
L 55.90625 64.59375 
L 21.140625 64.59375 
L 44.53125 38.96875 
z
" id="DejaVuSans-3a3"/>
     </defs>
     <g style="fill:#262626;" transform="translate(39.119062 335.225)rotate(-90)scale(0.11 -0.11)">
      <use transform="translate(0 0.34375)" xlink:href="#ArialMT-53"/>
      <use transform="translate(66.699219 0.34375)" xlink:href="#ArialMT-6d"/>
      <use transform="translate(150 0.34375)" xlink:href="#ArialMT-6f"/>
      <use transform="translate(205.615234 0.34375)" xlink:href="#ArialMT-6f"/>
      <use transform="translate(261.230469 0.34375)" xlink:href="#ArialMT-74"/>
      <use transform="translate(289.013672 0.34375)" xlink:href="#ArialMT-68"/>
      <use transform="translate(344.628906 0.34375)" xlink:href="#ArialMT-65"/>
      <use transform="translate(400.244141 0.34375)" xlink:href="#ArialMT-64"/>
      <use transform="translate(455.859375 0.34375)" xlink:href="#ArialMT-20"/>
      <use transform="translate(483.642578 0.34375)" xlink:href="#ArialMT-41"/>
      <use transform="translate(550.341797 0.34375)" xlink:href="#ArialMT-76"/>
      <use transform="translate(600.341797 0.34375)" xlink:href="#ArialMT-65"/>
      <use transform="translate(655.957031 0.34375)" xlink:href="#ArialMT-72"/>
      <use transform="translate(689.257812 0.34375)" xlink:href="#ArialMT-61"/>
      <use transform="translate(744.873047 0.34375)" xlink:href="#ArialMT-67"/>
      <use transform="translate(800.488281 0.34375)" xlink:href="#ArialMT-65"/>
      <use transform="translate(856.103516 0.34375)" xlink:href="#ArialMT-20"/>
      <use transform="translate(883.886719 0.34375)" xlink:href="#ArialMT-53"/>
      <use transform="translate(950.585938 0.34375)" xlink:href="#ArialMT-65"/>
      <use transform="translate(1006.201172 0.34375)" xlink:href="#ArialMT-6e"/>
      <use transform="translate(1061.816406 0.34375)" xlink:href="#ArialMT-74"/>
      <use transform="translate(1089.599609 0.34375)" xlink:href="#ArialMT-69"/>
      <use transform="translate(1111.816406 0.34375)" xlink:href="#ArialMT-6d"/>
      <use transform="translate(1195.117188 0.34375)" xlink:href="#ArialMT-65"/>
      <use transform="translate(1250.732422 0.34375)" xlink:href="#ArialMT-6e"/>
      <use transform="translate(1306.347656 0.34375)" xlink:href="#ArialMT-74"/>
      <use transform="translate(1334.130859 0.34375)" xlink:href="#ArialMT-20"/>
      <use transform="translate(1361.914062 0.34375)" xlink:href="#ArialMT-53"/>
      <use transform="translate(1428.613281 0.34375)" xlink:href="#ArialMT-63"/>
      <use transform="translate(1478.613281 0.34375)" xlink:href="#ArialMT-6f"/>
      <use transform="translate(1534.228516 0.34375)" xlink:href="#ArialMT-72"/>
      <use transform="translate(1567.529297 0.34375)" xlink:href="#ArialMT-65"/>
      <use transform="translate(1623.144531 0.34375)" xlink:href="#ArialMT-2c"/>
      <use transform="translate(1650.927734 0.34375)" xlink:href="#ArialMT-20"/>
      <use transform="translate(1678.710938 0.84375)" xlink:href="#DejaVuSans-3a3"/>
      <use transform="translate(1741.894531 0.34375)" xlink:href="#ArialMT-20"/>
      <use transform="translate(1769.677734 0.34375)" xlink:href="#ArialMT-5b"/>
      <use transform="translate(1797.460938 0.34375)" xlink:href="#ArialMT-64"/>
      <use transform="translate(1853.076172 0.34375)" xlink:href="#ArialMT-69"/>
      <use transform="translate(1875.292969 0.34375)" xlink:href="#ArialMT-6d"/>
      <use transform="translate(1958.59375 0.34375)" xlink:href="#ArialMT-65"/>
      <use transform="translate(2014.208984 0.34375)" xlink:href="#ArialMT-6e"/>
      <use transform="translate(2069.824219 0.34375)" xlink:href="#ArialMT-73"/>
      <use transform="translate(2119.824219 0.34375)" xlink:href="#ArialMT-69"/>
      <use transform="translate(2142.041016 0.34375)" xlink:href="#ArialMT-6f"/>
      <use transform="translate(2197.65625 0.34375)" xlink:href="#ArialMT-6e"/>
      <use transform="translate(2253.271484 0.34375)" xlink:href="#ArialMT-6c"/>
      <use transform="translate(2275.488281 0.34375)" xlink:href="#ArialMT-65"/>
      <use transform="translate(2331.103516 0.34375)" xlink:href="#ArialMT-73"/>
      <use transform="translate(2381.103516 0.34375)" xlink:href="#ArialMT-73"/>
      <use transform="translate(2431.103516 0.34375)" xlink:href="#ArialMT-5d"/>
      <path d="M 1678.710938 85.5 
L 1678.710938 91.75 
L 1741.894531 91.75 
L 1741.894531 85.5 
L 1678.710938 85.5 
z
"/>
     </g>
    </g>
   </g>
   <g id="line2d_25">
    <path clip-path="url(#pba0587e7aa)" d="M 92.290909 252.690588 
L 96.390083 261.116263 
L 100.489256 239.016067 
L 104.58843 260.242504 
L 108.687603 247.835052 
L 112.786777 234.296033 
L 116.88595 182.463766 
L 120.985124 185.179573 
L 125.084298 164.678269 
L 129.183471 173.932648 
L 133.282645 176.76431 
L 137.381818 138.156994 
L 141.480992 143.196927 
L 145.580165 191.890528 
L 149.679339 209.062897 
L 153.778512 236.154213 
L 157.877686 242.663441 
L 161.97686 249.356208 
L 166.076033 297.953848 
L 170.175207 338.58 
L 174.27438 308.405736 
L 178.373554 310.421588 
L 182.472727 313.045261 
L 186.571901 299.367077 
L 190.671074 322.221891 
L 194.770248 286.094451 
L 198.869421 286.949772 
L 202.968595 275.141126 
L 207.067769 268.601782 
L 211.166942 243.968005 
L 215.266116 189.434553 
L 219.365289 116.964592 
L 223.464463 150.691192 
L 227.563636 91.491835 
L 231.66281 120.389614 
L 235.761983 101.774282 
L 239.861157 107.482538 
L 243.960331 183.970871 
L 248.059504 220.153113 
L 252.158678 202.088179 
L 256.257851 239.120755 
L 260.357025 220.947527 
L 264.456198 217.696594 
L 268.555372 203.390788 
L 272.654545 164.407846 
L 276.753719 186.980356 
L 280.852893 155.979379 
L 284.952066 123.99266 
L 289.05124 109.970122 
L 293.150413 91.230943 
L 297.249587 73.530131 
L 301.34876 73.580989 
L 305.447934 61.38 
L 309.547107 79.829502 
L 313.646281 86.766191 
L 317.745455 110.440143 
L 321.844628 127.189766 
L 325.943802 133.363871 
L 330.042975 143.72399 
L 334.142149 129.863896 
L 338.241322 149.267254 
L 342.340496 147.70722 
L 346.439669 154.877239 
L 350.538843 142.023649 
L 354.638017 154.286099 
L 358.73719 167.104264 
L 362.836364 172.687998 
L 366.935537 142.541024 
L 371.034711 165.287663 
L 375.133884 163.964458 
L 379.233058 172.48489 
L 383.332231 199.657876 
L 387.431405 195.752669 
L 391.530579 201.598416 
L 395.629752 212.036733 
L 399.728926 213.117239 
L 403.828099 205.612438 
L 407.927273 200.248751 
L 412.026446 184.878671 
L 416.12562 184.933753 
L 420.224793 171.133171 
L 424.323967 168.35374 
L 428.42314 142.614292 
L 432.522314 179.744977 
L 436.621488 167.547943 
L 440.720661 161.71313 
L 444.819835 142.52339 
L 448.919008 155.033346 
L 453.018182 136.414938 
L 457.117355 135.41201 
L 461.216529 110.676263 
L 465.315702 135.865786 
L 469.414876 175.151534 
L 473.51405 170.277141 
L 477.613223 172.846104 
L 481.712397 210.013808 
L 485.81157 201.107087 
L 489.910744 227.865872 
L 494.009917 226.215966 
L 498.109091 218.25419 
" style="fill:none;stroke:#008000;stroke-linecap:round;stroke-width:1.75;"/>
    <defs>
     <path d="M 0 3.5 
C 0.928211 3.5 1.81853 3.131218 2.474874 2.474874 
C 3.131218 1.81853 3.5 0.928211 3.5 0 
C 3.5 -0.928211 3.131218 -1.81853 2.474874 -2.474874 
C 1.81853 -3.131218 0.928211 -3.5 0 -3.5 
C -0.928211 -3.5 -1.81853 -3.131218 -2.474874 -2.474874 
C -3.131218 -1.81853 -3.5 -0.928211 -3.5 0 
C -3.5 0.928211 -3.131218 1.81853 -2.474874 2.474874 
C -1.81853 3.131218 -0.928211 3.5 0 3.5 
z
" id="m205e6ee177"/>
    </defs>
    <g clip-path="url(#pba0587e7aa)">
     <use style="fill:#008000;" x="92.290909" xlink:href="#m205e6ee177" y="252.690588"/>
     <use style="fill:#008000;" x="96.390083" xlink:href="#m205e6ee177" y="261.116263"/>
     <use style="fill:#008000;" x="100.489256" xlink:href="#m205e6ee177" y="239.016067"/>
     <use style="fill:#008000;" x="104.58843" xlink:href="#m205e6ee177" y="260.242504"/>
     <use style="fill:#008000;" x="108.687603" xlink:href="#m205e6ee177" y="247.835052"/>
     <use style="fill:#008000;" x="112.786777" xlink:href="#m205e6ee177" y="234.296033"/>
     <use style="fill:#008000;" x="116.88595" xlink:href="#m205e6ee177" y="182.463766"/>
     <use style="fill:#008000;" x="120.985124" xlink:href="#m205e6ee177" y="185.179573"/>
     <use style="fill:#008000;" x="125.084298" xlink:href="#m205e6ee177" y="164.678269"/>
     <use style="fill:#008000;" x="129.183471" xlink:href="#m205e6ee177" y="173.932648"/>
     <use style="fill:#008000;" x="133.282645" xlink:href="#m205e6ee177" y="176.76431"/>
     <use style="fill:#008000;" x="137.381818" xlink:href="#m205e6ee177" y="138.156994"/>
     <use style="fill:#008000;" x="141.480992" xlink:href="#m205e6ee177" y="143.196927"/>
     <use style="fill:#008000;" x="145.580165" xlink:href="#m205e6ee177" y="191.890528"/>
     <use style="fill:#008000;" x="149.679339" xlink:href="#m205e6ee177" y="209.062897"/>
     <use style="fill:#008000;" x="153.778512" xlink:href="#m205e6ee177" y="236.154213"/>
     <use style="fill:#008000;" x="157.877686" xlink:href="#m205e6ee177" y="242.663441"/>
     <use style="fill:#008000;" x="161.97686" xlink:href="#m205e6ee177" y="249.356208"/>
     <use style="fill:#008000;" x="166.076033" xlink:href="#m205e6ee177" y="297.953848"/>
     <use style="fill:#008000;" x="170.175207" xlink:href="#m205e6ee177" y="338.58"/>
     <use style="fill:#008000;" x="174.27438" xlink:href="#m205e6ee177" y="308.405736"/>
     <use style="fill:#008000;" x="178.373554" xlink:href="#m205e6ee177" y="310.421588"/>
     <use style="fill:#008000;" x="182.472727" xlink:href="#m205e6ee177" y="313.045261"/>
     <use style="fill:#008000;" x="186.571901" xlink:href="#m205e6ee177" y="299.367077"/>
     <use style="fill:#008000;" x="190.671074" xlink:href="#m205e6ee177" y="322.221891"/>
     <use style="fill:#008000;" x="194.770248" xlink:href="#m205e6ee177" y="286.094451"/>
     <use style="fill:#008000;" x="198.869421" xlink:href="#m205e6ee177" y="286.949772"/>
     <use style="fill:#008000;" x="202.968595" xlink:href="#m205e6ee177" y="275.141126"/>
     <use style="fill:#008000;" x="207.067769" xlink:href="#m205e6ee177" y="268.601782"/>
     <use style="fill:#008000;" x="211.166942" xlink:href="#m205e6ee177" y="243.968005"/>
     <use style="fill:#008000;" x="215.266116" xlink:href="#m205e6ee177" y="189.434553"/>
     <use style="fill:#008000;" x="219.365289" xlink:href="#m205e6ee177" y="116.964592"/>
     <use style="fill:#008000;" x="223.464463" xlink:href="#m205e6ee177" y="150.691192"/>
     <use style="fill:#008000;" x="227.563636" xlink:href="#m205e6ee177" y="91.491835"/>
     <use style="fill:#008000;" x="231.66281" xlink:href="#m205e6ee177" y="120.389614"/>
     <use style="fill:#008000;" x="235.761983" xlink:href="#m205e6ee177" y="101.774282"/>
     <use style="fill:#008000;" x="239.861157" xlink:href="#m205e6ee177" y="107.482538"/>
     <use style="fill:#008000;" x="243.960331" xlink:href="#m205e6ee177" y="183.970871"/>
     <use style="fill:#008000;" x="248.059504" xlink:href="#m205e6ee177" y="220.153113"/>
     <use style="fill:#008000;" x="252.158678" xlink:href="#m205e6ee177" y="202.088179"/>
     <use style="fill:#008000;" x="256.257851" xlink:href="#m205e6ee177" y="239.120755"/>
     <use style="fill:#008000;" x="260.357025" xlink:href="#m205e6ee177" y="220.947527"/>
     <use style="fill:#008000;" x="264.456198" xlink:href="#m205e6ee177" y="217.696594"/>
     <use style="fill:#008000;" x="268.555372" xlink:href="#m205e6ee177" y="203.390788"/>
     <use style="fill:#008000;" x="272.654545" xlink:href="#m205e6ee177" y="164.407846"/>
     <use style="fill:#008000;" x="276.753719" xlink:href="#m205e6ee177" y="186.980356"/>
     <use style="fill:#008000;" x="280.852893" xlink:href="#m205e6ee177" y="155.979379"/>
     <use style="fill:#008000;" x="284.952066" xlink:href="#m205e6ee177" y="123.99266"/>
     <use style="fill:#008000;" x="289.05124" xlink:href="#m205e6ee177" y="109.970122"/>
     <use style="fill:#008000;" x="293.150413" xlink:href="#m205e6ee177" y="91.230943"/>
     <use style="fill:#008000;" x="297.249587" xlink:href="#m205e6ee177" y="73.530131"/>
     <use style="fill:#008000;" x="301.34876" xlink:href="#m205e6ee177" y="73.580989"/>
     <use style="fill:#008000;" x="305.447934" xlink:href="#m205e6ee177" y="61.38"/>
     <use style="fill:#008000;" x="309.547107" xlink:href="#m205e6ee177" y="79.829502"/>
     <use style="fill:#008000;" x="313.646281" xlink:href="#m205e6ee177" y="86.766191"/>
     <use style="fill:#008000;" x="317.745455" xlink:href="#m205e6ee177" y="110.440143"/>
     <use style="fill:#008000;" x="321.844628" xlink:href="#m205e6ee177" y="127.189766"/>
     <use style="fill:#008000;" x="325.943802" xlink:href="#m205e6ee177" y="133.363871"/>
     <use style="fill:#008000;" x="330.042975" xlink:href="#m205e6ee177" y="143.72399"/>
     <use style="fill:#008000;" x="334.142149" xlink:href="#m205e6ee177" y="129.863896"/>
     <use style="fill:#008000;" x="338.241322" xlink:href="#m205e6ee177" y="149.267254"/>
     <use style="fill:#008000;" x="342.340496" xlink:href="#m205e6ee177" y="147.70722"/>
     <use style="fill:#008000;" x="346.439669" xlink:href="#m205e6ee177" y="154.877239"/>
     <use style="fill:#008000;" x="350.538843" xlink:href="#m205e6ee177" y="142.023649"/>
     <use style="fill:#008000;" x="354.638017" xlink:href="#m205e6ee177" y="154.286099"/>
     <use style="fill:#008000;" x="358.73719" xlink:href="#m205e6ee177" y="167.104264"/>
     <use style="fill:#008000;" x="362.836364" xlink:href="#m205e6ee177" y="172.687998"/>
     <use style="fill:#008000;" x="366.935537" xlink:href="#m205e6ee177" y="142.541024"/>
     <use style="fill:#008000;" x="371.034711" xlink:href="#m205e6ee177" y="165.287663"/>
     <use style="fill:#008000;" x="375.133884" xlink:href="#m205e6ee177" y="163.964458"/>
     <use style="fill:#008000;" x="379.233058" xlink:href="#m205e6ee177" y="172.48489"/>
     <use style="fill:#008000;" x="383.332231" xlink:href="#m205e6ee177" y="199.657876"/>
     <use style="fill:#008000;" x="387.431405" xlink:href="#m205e6ee177" y="195.752669"/>
     <use style="fill:#008000;" x="391.530579" xlink:href="#m205e6ee177" y="201.598416"/>
     <use style="fill:#008000;" x="395.629752" xlink:href="#m205e6ee177" y="212.036733"/>
     <use style="fill:#008000;" x="399.728926" xlink:href="#m205e6ee177" y="213.117239"/>
     <use style="fill:#008000;" x="403.828099" xlink:href="#m205e6ee177" y="205.612438"/>
     <use style="fill:#008000;" x="407.927273" xlink:href="#m205e6ee177" y="200.248751"/>
     <use style="fill:#008000;" x="412.026446" xlink:href="#m205e6ee177" y="184.878671"/>
     <use style="fill:#008000;" x="416.12562" xlink:href="#m205e6ee177" y="184.933753"/>
     <use style="fill:#008000;" x="420.224793" xlink:href="#m205e6ee177" y="171.133171"/>
     <use style="fill:#008000;" x="424.323967" xlink:href="#m205e6ee177" y="168.35374"/>
     <use style="fill:#008000;" x="428.42314" xlink:href="#m205e6ee177" y="142.614292"/>
     <use style="fill:#008000;" x="432.522314" xlink:href="#m205e6ee177" y="179.744977"/>
     <use style="fill:#008000;" x="436.621488" xlink:href="#m205e6ee177" y="167.547943"/>
     <use style="fill:#008000;" x="440.720661" xlink:href="#m205e6ee177" y="161.71313"/>
     <use style="fill:#008000;" x="444.819835" xlink:href="#m205e6ee177" y="142.52339"/>
     <use style="fill:#008000;" x="448.919008" xlink:href="#m205e6ee177" y="155.033346"/>
     <use style="fill:#008000;" x="453.018182" xlink:href="#m205e6ee177" y="136.414938"/>
     <use style="fill:#008000;" x="457.117355" xlink:href="#m205e6ee177" y="135.41201"/>
     <use style="fill:#008000;" x="461.216529" xlink:href="#m205e6ee177" y="110.676263"/>
     <use style="fill:#008000;" x="465.315702" xlink:href="#m205e6ee177" y="135.865786"/>
     <use style="fill:#008000;" x="469.414876" xlink:href="#m205e6ee177" y="175.151534"/>
     <use style="fill:#008000;" x="473.51405" xlink:href="#m205e6ee177" y="170.277141"/>
     <use style="fill:#008000;" x="477.613223" xlink:href="#m205e6ee177" y="172.846104"/>
     <use style="fill:#008000;" x="481.712397" xlink:href="#m205e6ee177" y="210.013808"/>
     <use style="fill:#008000;" x="485.81157" xlink:href="#m205e6ee177" y="201.107087"/>
     <use style="fill:#008000;" x="489.910744" xlink:href="#m205e6ee177" y="227.865872"/>
     <use style="fill:#008000;" x="494.009917" xlink:href="#m205e6ee177" y="226.215966"/>
     <use style="fill:#008000;" x="498.109091" xlink:href="#m205e6ee177" y="218.25419"/>
    </g>
   </g>
   <g id="patch_3">
    <path d="M 72 352.44 
L 72 47.52 
" style="fill:none;"/>
   </g>
   <g id="patch_4">
    <path d="M 518.4 352.44 
L 518.4 47.52 
" style="fill:none;"/>
   </g>
   <g id="patch_5">
    <path d="M 72 352.44 
L 518.4 352.44 
" style="fill:none;"/>
   </g>
   <g id="patch_6">
    <path d="M 72 47.52 
L 518.4 47.52 
" style="fill:none;"/>
   </g>
   <g id="legend_1">
    <g id="line2d_26">
     <path d="M 456.948437 60.177812 
L 476.948437 60.177812 
" style="fill:none;stroke:#008000;stroke-linecap:round;stroke-width:1.75;"/>
    </g>
    <g id="line2d_27">
     <g>
      <use style="fill:#008000;" x="466.948437" xlink:href="#m205e6ee177" y="60.177812"/>
     </g>
    </g>
    <g id="text_15">
     <!-- comp -->
     <defs>
      <path d="M 6.59375 -19.875 
L 6.59375 51.859375 
L 14.59375 51.859375 
L 14.59375 45.125 
Q 17.4375 49.078125 21 51.046875 
Q 24.5625 53.03125 29.640625 53.03125 
Q 36.28125 53.03125 41.359375 49.609375 
Q 46.4375 46.1875 49.015625 39.953125 
Q 51.609375 33.734375 51.609375 26.3125 
Q 51.609375 18.359375 48.75 11.984375 
Q 45.90625 5.609375 40.453125 2.21875 
Q 35.015625 -1.171875 29 -1.171875 
Q 24.609375 -1.171875 21.109375 0.6875 
Q 17.625 2.546875 15.375 5.375 
L 15.375 -19.875 
z
M 14.546875 25.640625 
Q 14.546875 15.625 18.59375 10.84375 
Q 22.65625 6.0625 28.421875 6.0625 
Q 34.28125 6.0625 38.453125 11.015625 
Q 42.625 15.96875 42.625 26.375 
Q 42.625 36.28125 38.546875 41.203125 
Q 34.46875 46.140625 28.8125 46.140625 
Q 23.1875 46.140625 18.859375 40.890625 
Q 14.546875 35.640625 14.546875 25.640625 
z
" id="ArialMT-70"/>
     </defs>
     <g style="fill:#262626;" transform="translate(484.948437 63.677812)scale(0.1 -0.1)">
      <use xlink:href="#ArialMT-63"/>
      <use x="50" xlink:href="#ArialMT-6f"/>
      <use x="105.615234" xlink:href="#ArialMT-6d"/>
      <use x="188.916016" xlink:href="#ArialMT-70"/>
     </g>
    </g>
   </g>
  </g>
 </g>
 <defs>
  <clipPath id="pba0587e7aa">
   <rect height="304.92" width="446.4" x="72" y="47.52"/>
  </clipPath>
 </defs>
</svg>
