<?xml version="1.0" encoding="utf-8" standalone="no"?>
<!DOCTYPE svg PUBLIC "-//W3C//DTD SVG 1.1//EN"
  "http://www.w3.org/Graphics/SVG/1.1/DTD/svg11.dtd">
<!-- Created with matplotlib (http://matplotlib.org/) -->
<svg height="396pt" version="1.1" viewBox="0 0 576 396" width="576pt" xmlns="http://www.w3.org/2000/svg" xmlns:xlink="http://www.w3.org/1999/xlink">
 <defs>
  <style type="text/css">
*{stroke-linecap:butt;stroke-linejoin:round;}
  </style>
 </defs>
 <g id="figure_1">
  <g id="patch_1">
   <path d="M 0 396 
L 576 396 
L 576 0 
L 0 0 
z
" style="fill:#ffffff;"/>
  </g>
  <g id="axes_1">
   <g id="patch_2">
    <path d="M 72 352.44 
L 518.4 352.44 
L 518.4 47.52 
L 72 47.52 
z
" style="fill:#eaeaf2;"/>
   </g>
   <g id="matplotlib.axis_1">
    <g id="xtick_1">
     <g id="line2d_1">
      <path clip-path="url(#p026296f5b9)" d="M 99.47888 352.44 
L 99.47888 47.52 
" style="fill:none;stroke:#ffffff;stroke-linecap:round;"/>
     </g>
     <g id="line2d_2"/>
     <g id="text_1">
      <!-- −3 -->
      <defs>
       <path d="M 52.828125 31.203125 
L 5.5625 31.203125 
L 5.5625 39.40625 
L 52.828125 39.40625 
z
" id="ArialMT-2212"/>
       <path d="M 4.203125 18.890625 
L 12.984375 20.0625 
Q 14.5 12.59375 18.140625 9.296875 
Q 21.78125 6 27 6 
Q 33.203125 6 37.46875 10.296875 
Q 41.75 14.59375 41.75 20.953125 
Q 41.75 27 37.796875 30.921875 
Q 33.84375 34.859375 27.734375 34.859375 
Q 25.25 34.859375 21.53125 33.890625 
L 22.515625 41.609375 
Q 23.390625 41.5 23.921875 41.5 
Q 29.546875 41.5 34.03125 44.421875 
Q 38.53125 47.359375 38.53125 53.46875 
Q 38.53125 58.296875 35.25 61.46875 
Q 31.984375 64.65625 26.8125 64.65625 
Q 21.6875 64.65625 18.265625 61.421875 
Q 14.84375 58.203125 13.875 51.765625 
L 5.078125 53.328125 
Q 6.6875 62.15625 12.390625 67.015625 
Q 18.109375 71.875 26.609375 71.875 
Q 32.46875 71.875 37.390625 69.359375 
Q 42.328125 66.84375 44.9375 62.5 
Q 47.5625 58.15625 47.5625 53.265625 
Q 47.5625 48.640625 45.0625 44.828125 
Q 42.578125 41.015625 37.703125 38.765625 
Q 44.046875 37.3125 47.5625 32.6875 
Q 51.078125 28.078125 51.078125 21.140625 
Q 51.078125 11.765625 44.234375 5.25 
Q 37.40625 -1.265625 26.953125 -1.265625 
Q 17.53125 -1.265625 11.296875 4.34375 
Q 5.078125 9.96875 4.203125 18.890625 
z
" id="ArialMT-33"/>
      </defs>
      <g style="fill:#262626;" transform="translate(93.778099 366.597813)scale(0.1 -0.1)">
       <use xlink:href="#ArialMT-2212"/>
       <use x="58.398438" xlink:href="#ArialMT-33"/>
      </g>
     </g>
    </g>
    <g id="xtick_2">
     <g id="line2d_3">
      <path clip-path="url(#p026296f5b9)" d="M 164.719253 352.44 
L 164.719253 47.52 
" style="fill:none;stroke:#ffffff;stroke-linecap:round;"/>
     </g>
     <g id="line2d_4"/>
     <g id="text_2">
      <!-- −2 -->
      <defs>
       <path d="M 50.34375 8.453125 
L 50.34375 0 
L 3.03125 0 
Q 2.9375 3.171875 4.046875 6.109375 
Q 5.859375 10.9375 9.828125 15.625 
Q 13.8125 20.3125 21.34375 26.46875 
Q 33.015625 36.03125 37.109375 41.625 
Q 41.21875 47.21875 41.21875 52.203125 
Q 41.21875 57.421875 37.46875 61 
Q 33.734375 64.59375 27.734375 64.59375 
Q 21.390625 64.59375 17.578125 60.78125 
Q 13.765625 56.984375 13.71875 50.25 
L 4.6875 51.171875 
Q 5.609375 61.28125 11.65625 66.578125 
Q 17.71875 71.875 27.9375 71.875 
Q 38.234375 71.875 44.234375 66.15625 
Q 50.25 60.453125 50.25 52 
Q 50.25 47.703125 48.484375 43.546875 
Q 46.734375 39.40625 42.65625 34.8125 
Q 38.578125 30.21875 29.109375 22.21875 
Q 21.1875 15.578125 18.9375 13.203125 
Q 16.703125 10.84375 15.234375 8.453125 
z
" id="ArialMT-32"/>
      </defs>
      <g style="fill:#262626;" transform="translate(159.018472 366.597813)scale(0.1 -0.1)">
       <use xlink:href="#ArialMT-2212"/>
       <use x="58.398438" xlink:href="#ArialMT-32"/>
      </g>
     </g>
    </g>
    <g id="xtick_3">
     <g id="line2d_5">
      <path clip-path="url(#p026296f5b9)" d="M 229.959627 352.44 
L 229.959627 47.52 
" style="fill:none;stroke:#ffffff;stroke-linecap:round;"/>
     </g>
     <g id="line2d_6"/>
     <g id="text_3">
      <!-- −1 -->
      <defs>
       <path d="M 37.25 0 
L 28.46875 0 
L 28.46875 56 
Q 25.296875 52.984375 20.140625 49.953125 
Q 14.984375 46.921875 10.890625 45.40625 
L 10.890625 53.90625 
Q 18.265625 57.375 23.78125 62.296875 
Q 29.296875 67.234375 31.59375 71.875 
L 37.25 71.875 
z
" id="ArialMT-31"/>
      </defs>
      <g style="fill:#262626;" transform="translate(224.258845 366.597813)scale(0.1 -0.1)">
       <use xlink:href="#ArialMT-2212"/>
       <use x="58.398438" xlink:href="#ArialMT-31"/>
      </g>
     </g>
    </g>
    <g id="xtick_4">
     <g id="line2d_7">
      <path clip-path="url(#p026296f5b9)" d="M 295.2 352.44 
L 295.2 47.52 
" style="fill:none;stroke:#ffffff;stroke-linecap:round;"/>
     </g>
     <g id="line2d_8"/>
     <g id="text_4">
      <!-- 0 -->
      <defs>
       <path d="M 4.15625 35.296875 
Q 4.15625 48 6.765625 55.734375 
Q 9.375 63.484375 14.515625 67.671875 
Q 19.671875 71.875 27.484375 71.875 
Q 33.25 71.875 37.59375 69.546875 
Q 41.9375 67.234375 44.765625 62.859375 
Q 47.609375 58.5 49.21875 52.21875 
Q 50.828125 45.953125 50.828125 35.296875 
Q 50.828125 22.703125 48.234375 14.96875 
Q 45.65625 7.234375 40.5 3 
Q 35.359375 -1.21875 27.484375 -1.21875 
Q 17.140625 -1.21875 11.234375 6.203125 
Q 4.15625 15.140625 4.15625 35.296875 
z
M 13.1875 35.296875 
Q 13.1875 17.671875 17.3125 11.828125 
Q 21.4375 6 27.484375 6 
Q 33.546875 6 37.671875 11.859375 
Q 41.796875 17.71875 41.796875 35.296875 
Q 41.796875 52.984375 37.671875 58.78125 
Q 33.546875 64.59375 27.390625 64.59375 
Q 21.34375 64.59375 17.71875 59.46875 
Q 13.1875 52.9375 13.1875 35.296875 
z
" id="ArialMT-30"/>
      </defs>
      <g style="fill:#262626;" transform="translate(292.419531 366.597813)scale(0.1 -0.1)">
       <use xlink:href="#ArialMT-30"/>
      </g>
     </g>
    </g>
    <g id="xtick_5">
     <g id="line2d_9">
      <path clip-path="url(#p026296f5b9)" d="M 360.440373 352.44 
L 360.440373 47.52 
" style="fill:none;stroke:#ffffff;stroke-linecap:round;"/>
     </g>
     <g id="line2d_10"/>
     <g id="text_5">
      <!-- 1 -->
      <g style="fill:#262626;" transform="translate(357.659905 366.597813)scale(0.1 -0.1)">
       <use xlink:href="#ArialMT-31"/>
      </g>
     </g>
    </g>
    <g id="xtick_6">
     <g id="line2d_11">
      <path clip-path="url(#p026296f5b9)" d="M 425.680747 352.44 
L 425.680747 47.52 
" style="fill:none;stroke:#ffffff;stroke-linecap:round;"/>
     </g>
     <g id="line2d_12"/>
     <g id="text_6">
      <!-- 2 -->
      <g style="fill:#262626;" transform="translate(422.900278 366.597813)scale(0.1 -0.1)">
       <use xlink:href="#ArialMT-32"/>
      </g>
     </g>
    </g>
    <g id="xtick_7">
     <g id="line2d_13">
      <path clip-path="url(#p026296f5b9)" d="M 490.92112 352.44 
L 490.92112 47.52 
" style="fill:none;stroke:#ffffff;stroke-linecap:round;"/>
     </g>
     <g id="line2d_14"/>
     <g id="text_7">
      <!-- 3 -->
      <g style="fill:#262626;" transform="translate(488.140651 366.597813)scale(0.1 -0.1)">
       <use xlink:href="#ArialMT-33"/>
      </g>
     </g>
    </g>
    <g id="text_8">
     <!-- Journal Phase, $\delta$ [radians] -->
     <defs>
      <path d="M 2.875 20.3125 
L 11.421875 21.484375 
Q 11.765625 13.28125 14.5 10.25 
Q 17.234375 7.234375 22.078125 7.234375 
Q 25.640625 7.234375 28.21875 8.859375 
Q 30.8125 10.5 31.78125 13.296875 
Q 32.765625 16.109375 32.765625 22.265625 
L 32.765625 71.578125 
L 42.234375 71.578125 
L 42.234375 22.796875 
Q 42.234375 13.8125 40.0625 8.875 
Q 37.890625 3.953125 33.171875 1.359375 
Q 28.46875 -1.21875 22.125 -1.21875 
Q 12.703125 -1.21875 7.6875 4.203125 
Q 2.6875 9.625 2.875 20.3125 
z
" id="ArialMT-4a"/>
      <path d="M 3.328125 25.921875 
Q 3.328125 40.328125 11.328125 47.265625 
Q 18.015625 53.03125 27.640625 53.03125 
Q 38.328125 53.03125 45.109375 46.015625 
Q 51.90625 39.015625 51.90625 26.65625 
Q 51.90625 16.65625 48.90625 10.90625 
Q 45.90625 5.171875 40.15625 2 
Q 34.421875 -1.171875 27.640625 -1.171875 
Q 16.75 -1.171875 10.03125 5.8125 
Q 3.328125 12.796875 3.328125 25.921875 
z
M 12.359375 25.921875 
Q 12.359375 15.96875 16.703125 11.015625 
Q 21.046875 6.0625 27.640625 6.0625 
Q 34.1875 6.0625 38.53125 11.03125 
Q 42.875 16.015625 42.875 26.21875 
Q 42.875 35.84375 38.5 40.796875 
Q 34.125 45.75 27.640625 45.75 
Q 21.046875 45.75 16.703125 40.8125 
Q 12.359375 35.890625 12.359375 25.921875 
z
" id="ArialMT-6f"/>
      <path d="M 40.578125 0 
L 40.578125 7.625 
Q 34.515625 -1.171875 24.125 -1.171875 
Q 19.53125 -1.171875 15.546875 0.578125 
Q 11.578125 2.34375 9.640625 5 
Q 7.71875 7.671875 6.9375 11.53125 
Q 6.390625 14.109375 6.390625 19.734375 
L 6.390625 51.859375 
L 15.1875 51.859375 
L 15.1875 23.09375 
Q 15.1875 16.21875 15.71875 13.8125 
Q 16.546875 10.359375 19.234375 8.375 
Q 21.921875 6.390625 25.875 6.390625 
Q 29.828125 6.390625 33.296875 8.421875 
Q 36.765625 10.453125 38.203125 13.9375 
Q 39.65625 17.4375 39.65625 24.078125 
L 39.65625 51.859375 
L 48.4375 51.859375 
L 48.4375 0 
z
" id="ArialMT-75"/>
      <path d="M 6.5 0 
L 6.5 51.859375 
L 14.40625 51.859375 
L 14.40625 44 
Q 17.4375 49.515625 20 51.265625 
Q 22.5625 53.03125 25.640625 53.03125 
Q 30.078125 53.03125 34.671875 50.203125 
L 31.640625 42.046875 
Q 28.421875 43.953125 25.203125 43.953125 
Q 22.3125 43.953125 20.015625 42.21875 
Q 17.71875 40.484375 16.75 37.40625 
Q 15.28125 32.71875 15.28125 27.15625 
L 15.28125 0 
z
" id="ArialMT-72"/>
      <path d="M 6.59375 0 
L 6.59375 51.859375 
L 14.5 51.859375 
L 14.5 44.484375 
Q 20.21875 53.03125 31 53.03125 
Q 35.6875 53.03125 39.625 51.34375 
Q 43.5625 49.65625 45.515625 46.921875 
Q 47.46875 44.1875 48.25 40.4375 
Q 48.734375 37.984375 48.734375 31.890625 
L 48.734375 0 
L 39.9375 0 
L 39.9375 31.546875 
Q 39.9375 36.921875 38.90625 39.578125 
Q 37.890625 42.234375 35.28125 43.8125 
Q 32.671875 45.40625 29.15625 45.40625 
Q 23.53125 45.40625 19.453125 41.84375 
Q 15.375 38.28125 15.375 28.328125 
L 15.375 0 
z
" id="ArialMT-6e"/>
      <path d="M 40.4375 6.390625 
Q 35.546875 2.25 31.03125 0.53125 
Q 26.515625 -1.171875 21.34375 -1.171875 
Q 12.796875 -1.171875 8.203125 3 
Q 3.609375 7.171875 3.609375 13.671875 
Q 3.609375 17.484375 5.34375 20.625 
Q 7.078125 23.78125 9.890625 25.6875 
Q 12.703125 27.59375 16.21875 28.5625 
Q 18.796875 29.25 24.03125 29.890625 
Q 34.671875 31.15625 39.703125 32.90625 
Q 39.75 34.71875 39.75 35.203125 
Q 39.75 40.578125 37.25 42.78125 
Q 33.890625 45.75 27.25 45.75 
Q 21.046875 45.75 18.09375 43.578125 
Q 15.140625 41.40625 13.71875 35.890625 
L 5.125 37.0625 
Q 6.296875 42.578125 8.984375 45.96875 
Q 11.671875 49.359375 16.75 51.1875 
Q 21.828125 53.03125 28.515625 53.03125 
Q 35.15625 53.03125 39.296875 51.46875 
Q 43.453125 49.90625 45.40625 47.53125 
Q 47.359375 45.171875 48.140625 41.546875 
Q 48.578125 39.3125 48.578125 33.453125 
L 48.578125 21.734375 
Q 48.578125 9.46875 49.140625 6.21875 
Q 49.703125 2.984375 51.375 0 
L 42.1875 0 
Q 40.828125 2.734375 40.4375 6.390625 
z
M 39.703125 26.03125 
Q 34.90625 24.078125 25.34375 22.703125 
Q 19.921875 21.921875 17.671875 20.9375 
Q 15.4375 19.96875 14.203125 18.09375 
Q 12.984375 16.21875 12.984375 13.921875 
Q 12.984375 10.40625 15.640625 8.0625 
Q 18.3125 5.71875 23.4375 5.71875 
Q 28.515625 5.71875 32.46875 7.9375 
Q 36.421875 10.15625 38.28125 14.015625 
Q 39.703125 17 39.703125 22.796875 
z
" id="ArialMT-61"/>
      <path d="M 6.390625 0 
L 6.390625 71.578125 
L 15.1875 71.578125 
L 15.1875 0 
z
" id="ArialMT-6c"/>
      <path id="ArialMT-20"/>
      <path d="M 7.71875 0 
L 7.71875 71.578125 
L 34.71875 71.578125 
Q 41.84375 71.578125 45.609375 70.90625 
Q 50.875 70.015625 54.4375 67.546875 
Q 58.015625 65.09375 60.1875 60.640625 
Q 62.359375 56.203125 62.359375 50.875 
Q 62.359375 41.75 56.546875 35.421875 
Q 50.734375 29.109375 35.546875 29.109375 
L 17.1875 29.109375 
L 17.1875 0 
z
M 17.1875 37.546875 
L 35.6875 37.546875 
Q 44.875 37.546875 48.734375 40.96875 
Q 52.59375 44.390625 52.59375 50.59375 
Q 52.59375 55.078125 50.3125 58.265625 
Q 48.046875 61.46875 44.34375 62.5 
Q 41.9375 63.140625 35.5 63.140625 
L 17.1875 63.140625 
z
" id="ArialMT-50"/>
      <path d="M 6.59375 0 
L 6.59375 71.578125 
L 15.375 71.578125 
L 15.375 45.90625 
Q 21.53125 53.03125 30.90625 53.03125 
Q 36.671875 53.03125 40.921875 50.75 
Q 45.171875 48.484375 47 44.484375 
Q 48.828125 40.484375 48.828125 32.859375 
L 48.828125 0 
L 40.046875 0 
L 40.046875 32.859375 
Q 40.046875 39.453125 37.1875 42.453125 
Q 34.328125 45.453125 29.109375 45.453125 
Q 25.203125 45.453125 21.75 43.421875 
Q 18.3125 41.40625 16.84375 37.9375 
Q 15.375 34.46875 15.375 28.375 
L 15.375 0 
z
" id="ArialMT-68"/>
      <path d="M 3.078125 15.484375 
L 11.765625 16.84375 
Q 12.5 11.625 15.84375 8.84375 
Q 19.1875 6.0625 25.203125 6.0625 
Q 31.25 6.0625 34.171875 8.515625 
Q 37.109375 10.984375 37.109375 14.3125 
Q 37.109375 17.28125 34.515625 19 
Q 32.71875 20.171875 25.53125 21.96875 
Q 15.875 24.421875 12.140625 26.203125 
Q 8.40625 27.984375 6.46875 31.125 
Q 4.546875 34.28125 4.546875 38.09375 
Q 4.546875 41.546875 6.125 44.5 
Q 7.71875 47.46875 10.453125 49.421875 
Q 12.5 50.921875 16.03125 51.96875 
Q 19.578125 53.03125 23.640625 53.03125 
Q 29.734375 53.03125 34.34375 51.265625 
Q 38.96875 49.515625 41.15625 46.5 
Q 43.359375 43.5 44.1875 38.484375 
L 35.59375 37.3125 
Q 35.015625 41.3125 32.203125 43.546875 
Q 29.390625 45.796875 24.265625 45.796875 
Q 18.21875 45.796875 15.625 43.796875 
Q 13.03125 41.796875 13.03125 39.109375 
Q 13.03125 37.40625 14.109375 36.03125 
Q 15.1875 34.625 17.484375 33.6875 
Q 18.796875 33.203125 25.25 31.453125 
Q 34.578125 28.953125 38.25 27.359375 
Q 41.9375 25.78125 44.03125 22.75 
Q 46.140625 19.734375 46.140625 15.234375 
Q 46.140625 10.84375 43.578125 6.953125 
Q 41.015625 3.078125 36.171875 0.953125 
Q 31.34375 -1.171875 25.25 -1.171875 
Q 15.140625 -1.171875 9.84375 3.03125 
Q 4.546875 7.234375 3.078125 15.484375 
z
" id="ArialMT-73"/>
      <path d="M 42.09375 16.703125 
L 51.171875 15.578125 
Q 49.03125 7.625 43.21875 3.21875 
Q 37.40625 -1.171875 28.375 -1.171875 
Q 17 -1.171875 10.328125 5.828125 
Q 3.65625 12.84375 3.65625 25.484375 
Q 3.65625 38.578125 10.390625 45.796875 
Q 17.140625 53.03125 27.875 53.03125 
Q 38.28125 53.03125 44.875 45.953125 
Q 51.46875 38.875 51.46875 26.03125 
Q 51.46875 25.25 51.421875 23.6875 
L 12.75 23.6875 
Q 13.234375 15.140625 17.578125 10.59375 
Q 21.921875 6.0625 28.421875 6.0625 
Q 33.25 6.0625 36.671875 8.59375 
Q 40.09375 11.140625 42.09375 16.703125 
z
M 13.234375 30.90625 
L 42.1875 30.90625 
Q 41.609375 37.453125 38.875 40.71875 
Q 34.671875 45.796875 27.984375 45.796875 
Q 21.921875 45.796875 17.796875 41.75 
Q 13.671875 37.703125 13.234375 30.90625 
z
" id="ArialMT-65"/>
      <path d="M 8.890625 0 
L 8.890625 10.015625 
L 18.890625 10.015625 
L 18.890625 0 
Q 18.890625 -5.515625 16.9375 -8.90625 
Q 14.984375 -12.3125 10.75 -14.15625 
L 8.296875 -10.40625 
Q 11.078125 -9.1875 12.390625 -6.8125 
Q 13.71875 -4.4375 13.875 0 
z
" id="ArialMT-2c"/>
      <path d="M 54.25 63.328125 
Q 49.953125 66.75 38.28125 66.75 
Q 25.921875 66.75 24.8125 61.03125 
Q 23.921875 56.546875 36.375 54.203125 
Q 46.140625 52.390625 50.828125 46.921875 
Q 56.5 40.328125 53.859375 26.8125 
Q 51.3125 13.875 43.171875 6.25 
Q 34.96875 -1.421875 23.25 -1.421875 
Q 11.578125 -1.421875 6.34375 6.25 
Q 1.125 13.875 3.765625 27.296875 
Q 5.671875 37.25 13.921875 45.3125 
Q 17.140625 48.4375 21.140625 50.203125 
Q 14.265625 54.046875 15.625 60.9375 
Q 18.21875 74.21875 39.75 74.21875 
Q 50.53125 74.21875 55.71875 70.796875 
z
M 27.390625 47.75 
Q 23.828125 46.34375 20.40625 42.78125 
Q 15.140625 37.25 13.234375 27.296875 
Q 11.28125 17.390625 14.359375 11.8125 
Q 17.484375 6.203125 24.75 6.203125 
Q 31.9375 6.203125 37.203125 11.859375 
Q 42.53125 17.53125 44.34375 26.8125 
Q 46.1875 36.53125 42.671875 41.21875 
Q 38.921875 46.234375 32.859375 46.78125 
Q 29.78125 47.078125 27.390625 47.75 
z
" id="DejaVuSans-Oblique-3b4"/>
      <path d="M 6.78125 -19.875 
L 6.78125 71.578125 
L 26.171875 71.578125 
L 26.171875 64.3125 
L 15.578125 64.3125 
L 15.578125 -12.59375 
L 26.171875 -12.59375 
L 26.171875 -19.875 
z
" id="ArialMT-5b"/>
      <path d="M 40.234375 0 
L 40.234375 6.546875 
Q 35.296875 -1.171875 25.734375 -1.171875 
Q 19.53125 -1.171875 14.328125 2.25 
Q 9.125 5.671875 6.265625 11.796875 
Q 3.421875 17.921875 3.421875 25.875 
Q 3.421875 33.640625 6 39.96875 
Q 8.59375 46.296875 13.765625 49.65625 
Q 18.953125 53.03125 25.34375 53.03125 
Q 30.03125 53.03125 33.6875 51.046875 
Q 37.359375 49.078125 39.65625 45.90625 
L 39.65625 71.578125 
L 48.390625 71.578125 
L 48.390625 0 
z
M 12.453125 25.875 
Q 12.453125 15.921875 16.640625 10.984375 
Q 20.84375 6.0625 26.5625 6.0625 
Q 32.328125 6.0625 36.34375 10.765625 
Q 40.375 15.484375 40.375 25.140625 
Q 40.375 35.796875 36.265625 40.765625 
Q 32.171875 45.75 26.171875 45.75 
Q 20.3125 45.75 16.375 40.96875 
Q 12.453125 36.1875 12.453125 25.875 
z
" id="ArialMT-64"/>
      <path d="M 6.640625 61.46875 
L 6.640625 71.578125 
L 15.4375 71.578125 
L 15.4375 61.46875 
z
M 6.640625 0 
L 6.640625 51.859375 
L 15.4375 51.859375 
L 15.4375 0 
z
" id="ArialMT-69"/>
      <path d="M 21.296875 -19.875 
L 1.90625 -19.875 
L 1.90625 -12.59375 
L 12.5 -12.59375 
L 12.5 64.3125 
L 1.90625 64.3125 
L 1.90625 71.578125 
L 21.296875 71.578125 
z
" id="ArialMT-5d"/>
     </defs>
     <g style="fill:#262626;" transform="translate(230.96 380.835312)scale(0.11 -0.11)">
      <use transform="translate(0 0.78125)" xlink:href="#ArialMT-4a"/>
      <use transform="translate(50 0.78125)" xlink:href="#ArialMT-6f"/>
      <use transform="translate(105.615234 0.78125)" xlink:href="#ArialMT-75"/>
      <use transform="translate(161.230469 0.78125)" xlink:href="#ArialMT-72"/>
      <use transform="translate(194.53125 0.78125)" xlink:href="#ArialMT-6e"/>
      <use transform="translate(250.146484 0.78125)" xlink:href="#ArialMT-61"/>
      <use transform="translate(305.761719 0.78125)" xlink:href="#ArialMT-6c"/>
      <use transform="translate(327.978516 0.78125)" xlink:href="#ArialMT-20"/>
      <use transform="translate(355.761719 0.78125)" xlink:href="#ArialMT-50"/>
      <use transform="translate(422.460938 0.78125)" xlink:href="#ArialMT-68"/>
      <use transform="translate(478.076172 0.78125)" xlink:href="#ArialMT-61"/>
      <use transform="translate(533.691406 0.78125)" xlink:href="#ArialMT-73"/>
      <use transform="translate(583.691406 0.78125)" xlink:href="#ArialMT-65"/>
      <use transform="translate(639.306641 0.78125)" xlink:href="#ArialMT-2c"/>
      <use transform="translate(667.089844 0.78125)" xlink:href="#ArialMT-20"/>
      <use transform="translate(694.873047 0.78125)" xlink:href="#DejaVuSans-Oblique-3b4"/>
      <use transform="translate(756.054688 0.78125)" xlink:href="#ArialMT-20"/>
      <use transform="translate(783.837891 0.78125)" xlink:href="#ArialMT-5b"/>
      <use transform="translate(811.621094 0.78125)" xlink:href="#ArialMT-72"/>
      <use transform="translate(844.921875 0.78125)" xlink:href="#ArialMT-61"/>
      <use transform="translate(900.537109 0.78125)" xlink:href="#ArialMT-64"/>
      <use transform="translate(956.152344 0.78125)" xlink:href="#ArialMT-69"/>
      <use transform="translate(978.369141 0.78125)" xlink:href="#ArialMT-61"/>
      <use transform="translate(1033.984375 0.78125)" xlink:href="#ArialMT-6e"/>
      <use transform="translate(1089.599609 0.78125)" xlink:href="#ArialMT-73"/>
      <use transform="translate(1139.599609 0.78125)" xlink:href="#ArialMT-5d"/>
     </g>
    </g>
   </g>
   <g id="matplotlib.axis_2">
    <g id="ytick_1">
     <g id="line2d_15">
      <path clip-path="url(#p026296f5b9)" d="M 72 325.565689 
L 518.4 325.565689 
" style="fill:none;stroke:#ffffff;stroke-linecap:round;"/>
     </g>
     <g id="line2d_16"/>
     <g id="text_9">
      <!-- 0.0 -->
      <defs>
       <path d="M 9.078125 0 
L 9.078125 10.015625 
L 19.09375 10.015625 
L 19.09375 0 
z
" id="ArialMT-2e"/>
      </defs>
      <g style="fill:#262626;" transform="translate(51.1 329.144595)scale(0.1 -0.1)">
       <use xlink:href="#ArialMT-30"/>
       <use x="55.615234" xlink:href="#ArialMT-2e"/>
       <use x="83.398438" xlink:href="#ArialMT-30"/>
      </g>
     </g>
    </g>
    <g id="ytick_2">
     <g id="line2d_17">
      <path clip-path="url(#p026296f5b9)" d="M 72 261.822412 
L 518.4 261.822412 
" style="fill:none;stroke:#ffffff;stroke-linecap:round;"/>
     </g>
     <g id="line2d_18"/>
     <g id="text_10">
      <!-- 0.2 -->
      <g style="fill:#262626;" transform="translate(51.1 265.401318)scale(0.1 -0.1)">
       <use xlink:href="#ArialMT-30"/>
       <use x="55.615234" xlink:href="#ArialMT-2e"/>
       <use x="83.398438" xlink:href="#ArialMT-32"/>
      </g>
     </g>
    </g>
    <g id="ytick_3">
     <g id="line2d_19">
      <path clip-path="url(#p026296f5b9)" d="M 72 198.079135 
L 518.4 198.079135 
" style="fill:none;stroke:#ffffff;stroke-linecap:round;"/>
     </g>
     <g id="line2d_20"/>
     <g id="text_11">
      <!-- 0.4 -->
      <defs>
       <path d="M 32.328125 0 
L 32.328125 17.140625 
L 1.265625 17.140625 
L 1.265625 25.203125 
L 33.9375 71.578125 
L 41.109375 71.578125 
L 41.109375 25.203125 
L 50.78125 25.203125 
L 50.78125 17.140625 
L 41.109375 17.140625 
L 41.109375 0 
z
M 32.328125 25.203125 
L 32.328125 57.46875 
L 9.90625 25.203125 
z
" id="ArialMT-34"/>
      </defs>
      <g style="fill:#262626;" transform="translate(51.1 201.658041)scale(0.1 -0.1)">
       <use xlink:href="#ArialMT-30"/>
       <use x="55.615234" xlink:href="#ArialMT-2e"/>
       <use x="83.398438" xlink:href="#ArialMT-34"/>
      </g>
     </g>
    </g>
    <g id="ytick_4">
     <g id="line2d_21">
      <path clip-path="url(#p026296f5b9)" d="M 72 134.335858 
L 518.4 134.335858 
" style="fill:none;stroke:#ffffff;stroke-linecap:round;"/>
     </g>
     <g id="line2d_22"/>
     <g id="text_12">
      <!-- 0.6 -->
      <defs>
       <path d="M 49.75 54.046875 
L 41.015625 53.375 
Q 39.84375 58.546875 37.703125 60.890625 
Q 34.125 64.65625 28.90625 64.65625 
Q 24.703125 64.65625 21.53125 62.3125 
Q 17.390625 59.28125 14.984375 53.46875 
Q 12.59375 47.65625 12.5 36.921875 
Q 15.671875 41.75 20.265625 44.09375 
Q 24.859375 46.4375 29.890625 46.4375 
Q 38.671875 46.4375 44.84375 39.96875 
Q 51.03125 33.5 51.03125 23.25 
Q 51.03125 16.5 48.125 10.71875 
Q 45.21875 4.9375 40.140625 1.859375 
Q 35.0625 -1.21875 28.609375 -1.21875 
Q 17.625 -1.21875 10.6875 6.859375 
Q 3.765625 14.9375 3.765625 33.5 
Q 3.765625 54.25 11.421875 63.671875 
Q 18.109375 71.875 29.4375 71.875 
Q 37.890625 71.875 43.28125 67.140625 
Q 48.6875 62.40625 49.75 54.046875 
z
M 13.875 23.1875 
Q 13.875 18.65625 15.796875 14.5 
Q 17.71875 10.359375 21.1875 8.171875 
Q 24.65625 6 28.46875 6 
Q 34.03125 6 38.03125 10.484375 
Q 42.046875 14.984375 42.046875 22.703125 
Q 42.046875 30.125 38.078125 34.390625 
Q 34.125 38.671875 28.125 38.671875 
Q 22.171875 38.671875 18.015625 34.390625 
Q 13.875 30.125 13.875 23.1875 
z
" id="ArialMT-36"/>
      </defs>
      <g style="fill:#262626;" transform="translate(51.1 137.914765)scale(0.1 -0.1)">
       <use xlink:href="#ArialMT-30"/>
       <use x="55.615234" xlink:href="#ArialMT-2e"/>
       <use x="83.398438" xlink:href="#ArialMT-36"/>
      </g>
     </g>
    </g>
    <g id="ytick_5">
     <g id="line2d_23">
      <path clip-path="url(#p026296f5b9)" d="M 72 70.592582 
L 518.4 70.592582 
" style="fill:none;stroke:#ffffff;stroke-linecap:round;"/>
     </g>
     <g id="line2d_24"/>
     <g id="text_13">
      <!-- 0.8 -->
      <defs>
       <path d="M 17.671875 38.8125 
Q 12.203125 40.828125 9.5625 44.53125 
Q 6.9375 48.25 6.9375 53.421875 
Q 6.9375 61.234375 12.546875 66.546875 
Q 18.171875 71.875 27.484375 71.875 
Q 36.859375 71.875 42.578125 66.421875 
Q 48.296875 60.984375 48.296875 53.171875 
Q 48.296875 48.1875 45.671875 44.5 
Q 43.0625 40.828125 37.75 38.8125 
Q 44.34375 36.671875 47.78125 31.875 
Q 51.21875 27.09375 51.21875 20.453125 
Q 51.21875 11.28125 44.71875 5.03125 
Q 38.234375 -1.21875 27.640625 -1.21875 
Q 17.046875 -1.21875 10.546875 5.046875 
Q 4.046875 11.328125 4.046875 20.703125 
Q 4.046875 27.6875 7.59375 32.390625 
Q 11.140625 37.109375 17.671875 38.8125 
z
M 15.921875 53.71875 
Q 15.921875 48.640625 19.1875 45.40625 
Q 22.46875 42.1875 27.6875 42.1875 
Q 32.765625 42.1875 36.015625 45.375 
Q 39.265625 48.578125 39.265625 53.21875 
Q 39.265625 58.0625 35.90625 61.359375 
Q 32.5625 64.65625 27.59375 64.65625 
Q 22.5625 64.65625 19.234375 61.421875 
Q 15.921875 58.203125 15.921875 53.71875 
z
M 13.09375 20.65625 
Q 13.09375 16.890625 14.875 13.375 
Q 16.65625 9.859375 20.171875 7.921875 
Q 23.6875 6 27.734375 6 
Q 34.03125 6 38.125 10.046875 
Q 42.234375 14.109375 42.234375 20.359375 
Q 42.234375 26.703125 38.015625 30.859375 
Q 33.796875 35.015625 27.4375 35.015625 
Q 21.234375 35.015625 17.15625 30.90625 
Q 13.09375 26.8125 13.09375 20.65625 
z
" id="ArialMT-38"/>
      </defs>
      <g style="fill:#262626;" transform="translate(51.1 74.171488)scale(0.1 -0.1)">
       <use xlink:href="#ArialMT-30"/>
       <use x="55.615234" xlink:href="#ArialMT-2e"/>
       <use x="83.398438" xlink:href="#ArialMT-38"/>
      </g>
     </g>
    </g>
    <g id="text_14">
     <!-- Smoothed Average Sentiment Score, $\overline{\Sigma}$ [dimensionless] -->
     <defs>
      <path d="M 4.5 23 
L 13.421875 23.78125 
Q 14.0625 18.40625 16.375 14.96875 
Q 18.703125 11.53125 23.578125 9.40625 
Q 28.46875 7.28125 34.578125 7.28125 
Q 39.984375 7.28125 44.140625 8.890625 
Q 48.296875 10.5 50.3125 13.296875 
Q 52.34375 16.109375 52.34375 19.4375 
Q 52.34375 22.796875 50.390625 25.3125 
Q 48.4375 27.828125 43.953125 29.546875 
Q 41.0625 30.671875 31.203125 33.03125 
Q 21.34375 35.40625 17.390625 37.5 
Q 12.25 40.1875 9.734375 44.15625 
Q 7.234375 48.140625 7.234375 53.078125 
Q 7.234375 58.5 10.296875 63.203125 
Q 13.375 67.921875 19.28125 70.359375 
Q 25.203125 72.796875 32.421875 72.796875 
Q 40.375 72.796875 46.453125 70.234375 
Q 52.546875 67.671875 55.8125 62.6875 
Q 59.078125 57.71875 59.328125 51.421875 
L 50.25 50.734375 
Q 49.515625 57.515625 45.28125 60.984375 
Q 41.0625 64.453125 32.8125 64.453125 
Q 24.21875 64.453125 20.28125 61.296875 
Q 16.359375 58.15625 16.359375 53.71875 
Q 16.359375 49.859375 19.140625 47.359375 
Q 21.875 44.875 33.421875 42.265625 
Q 44.96875 39.65625 49.265625 37.703125 
Q 55.515625 34.8125 58.484375 30.390625 
Q 61.46875 25.984375 61.46875 20.21875 
Q 61.46875 14.5 58.203125 9.4375 
Q 54.9375 4.390625 48.796875 1.578125 
Q 42.671875 -1.21875 35.015625 -1.21875 
Q 25.296875 -1.21875 18.71875 1.609375 
Q 12.15625 4.4375 8.421875 10.125 
Q 4.6875 15.828125 4.5 23 
z
" id="ArialMT-53"/>
      <path d="M 6.59375 0 
L 6.59375 51.859375 
L 14.453125 51.859375 
L 14.453125 44.578125 
Q 16.890625 48.390625 20.9375 50.703125 
Q 25 53.03125 30.171875 53.03125 
Q 35.9375 53.03125 39.625 50.640625 
Q 43.3125 48.25 44.828125 43.953125 
Q 50.984375 53.03125 60.84375 53.03125 
Q 68.5625 53.03125 72.703125 48.75 
Q 76.859375 44.484375 76.859375 35.59375 
L 76.859375 0 
L 68.109375 0 
L 68.109375 32.671875 
Q 68.109375 37.9375 67.25 40.25 
Q 66.40625 42.578125 64.15625 43.984375 
Q 61.921875 45.40625 58.890625 45.40625 
Q 53.421875 45.40625 49.796875 41.765625 
Q 46.1875 38.140625 46.1875 30.125 
L 46.1875 0 
L 37.40625 0 
L 37.40625 33.6875 
Q 37.40625 39.546875 35.25 42.46875 
Q 33.109375 45.40625 28.21875 45.40625 
Q 24.515625 45.40625 21.359375 43.453125 
Q 18.21875 41.5 16.796875 37.734375 
Q 15.375 33.984375 15.375 26.90625 
L 15.375 0 
z
" id="ArialMT-6d"/>
      <path d="M 25.78125 7.859375 
L 27.046875 0.09375 
Q 23.34375 -0.6875 20.40625 -0.6875 
Q 15.625 -0.6875 12.984375 0.828125 
Q 10.359375 2.34375 9.28125 4.8125 
Q 8.203125 7.28125 8.203125 15.1875 
L 8.203125 45.015625 
L 1.765625 45.015625 
L 1.765625 51.859375 
L 8.203125 51.859375 
L 8.203125 64.703125 
L 16.9375 69.96875 
L 16.9375 51.859375 
L 25.78125 51.859375 
L 25.78125 45.015625 
L 16.9375 45.015625 
L 16.9375 14.703125 
Q 16.9375 10.9375 17.40625 9.859375 
Q 17.875 8.796875 18.921875 8.15625 
Q 19.96875 7.515625 21.921875 7.515625 
Q 23.390625 7.515625 25.78125 7.859375 
z
" id="ArialMT-74"/>
      <path d="M -0.140625 0 
L 27.34375 71.578125 
L 37.546875 71.578125 
L 66.84375 0 
L 56.0625 0 
L 47.703125 21.6875 
L 17.78125 21.6875 
L 9.90625 0 
z
M 20.515625 29.390625 
L 44.78125 29.390625 
L 37.3125 49.21875 
Q 33.890625 58.25 32.234375 64.0625 
Q 30.859375 57.171875 28.375 50.390625 
z
" id="ArialMT-41"/>
      <path d="M 21 0 
L 1.265625 51.859375 
L 10.546875 51.859375 
L 21.6875 20.796875 
Q 23.484375 15.765625 25 10.359375 
Q 26.171875 14.453125 28.265625 20.21875 
L 39.796875 51.859375 
L 48.828125 51.859375 
L 29.203125 0 
z
" id="ArialMT-76"/>
      <path d="M 4.984375 -4.296875 
L 13.53125 -5.5625 
Q 14.0625 -9.515625 16.5 -11.328125 
Q 19.78125 -13.765625 25.4375 -13.765625 
Q 31.546875 -13.765625 34.859375 -11.328125 
Q 38.1875 -8.890625 39.359375 -4.5 
Q 40.046875 -1.8125 39.984375 6.78125 
Q 34.234375 0 25.640625 0 
Q 14.9375 0 9.078125 7.71875 
Q 3.21875 15.4375 3.21875 26.21875 
Q 3.21875 33.640625 5.90625 39.90625 
Q 8.59375 46.1875 13.6875 49.609375 
Q 18.796875 53.03125 25.6875 53.03125 
Q 34.859375 53.03125 40.828125 45.609375 
L 40.828125 51.859375 
L 48.921875 51.859375 
L 48.921875 7.03125 
Q 48.921875 -5.078125 46.453125 -10.125 
Q 44 -15.1875 38.640625 -18.109375 
Q 33.296875 -21.046875 25.484375 -21.046875 
Q 16.21875 -21.046875 10.5 -16.875 
Q 4.78125 -12.703125 4.984375 -4.296875 
z
M 12.25 26.859375 
Q 12.25 16.65625 16.296875 11.96875 
Q 20.359375 7.28125 26.46875 7.28125 
Q 32.515625 7.28125 36.609375 11.9375 
Q 40.71875 16.609375 40.71875 26.5625 
Q 40.71875 36.078125 36.5 40.90625 
Q 32.28125 45.75 26.3125 45.75 
Q 20.453125 45.75 16.34375 40.984375 
Q 12.25 36.234375 12.25 26.859375 
z
" id="ArialMT-67"/>
      <path d="M 40.4375 19 
L 49.078125 17.875 
Q 47.65625 8.9375 41.8125 3.875 
Q 35.984375 -1.171875 27.484375 -1.171875 
Q 16.84375 -1.171875 10.375 5.78125 
Q 3.90625 12.75 3.90625 25.734375 
Q 3.90625 34.125 6.6875 40.421875 
Q 9.46875 46.734375 15.15625 49.875 
Q 20.84375 53.03125 27.546875 53.03125 
Q 35.984375 53.03125 41.359375 48.75 
Q 46.734375 44.484375 48.25 36.625 
L 39.703125 35.296875 
Q 38.484375 40.53125 35.375 43.15625 
Q 32.28125 45.796875 27.875 45.796875 
Q 21.234375 45.796875 17.078125 41.03125 
Q 12.9375 36.28125 12.9375 25.984375 
Q 12.9375 15.53125 16.9375 10.796875 
Q 20.953125 6.0625 27.390625 6.0625 
Q 32.5625 6.0625 36.03125 9.234375 
Q 39.5 12.40625 40.4375 19 
z
" id="ArialMT-63"/>
      <path d="M 21.140625 8.296875 
L 56.78125 8.296875 
L 56.78125 0 
L 9.8125 0 
L 9.8125 8.296875 
L 33.203125 38.765625 
L 9.8125 64.59375 
L 9.8125 72.90625 
L 55.90625 72.90625 
L 55.90625 64.59375 
L 21.140625 64.59375 
L 44.53125 38.96875 
z
" id="DejaVuSans-3a3"/>
     </defs>
     <g style="fill:#262626;" transform="translate(44.68 335.225)rotate(-90)scale(0.11 -0.11)">
      <use transform="translate(0 0.34375)" xlink:href="#ArialMT-53"/>
      <use transform="translate(66.699219 0.34375)" xlink:href="#ArialMT-6d"/>
      <use transform="translate(150 0.34375)" xlink:href="#ArialMT-6f"/>
      <use transform="translate(205.615234 0.34375)" xlink:href="#ArialMT-6f"/>
      <use transform="translate(261.230469 0.34375)" xlink:href="#ArialMT-74"/>
      <use transform="translate(289.013672 0.34375)" xlink:href="#ArialMT-68"/>
      <use transform="translate(344.628906 0.34375)" xlink:href="#ArialMT-65"/>
      <use transform="translate(400.244141 0.34375)" xlink:href="#ArialMT-64"/>
      <use transform="translate(455.859375 0.34375)" xlink:href="#ArialMT-20"/>
      <use transform="translate(483.642578 0.34375)" xlink:href="#ArialMT-41"/>
      <use transform="translate(550.341797 0.34375)" xlink:href="#ArialMT-76"/>
      <use transform="translate(600.341797 0.34375)" xlink:href="#ArialMT-65"/>
      <use transform="translate(655.957031 0.34375)" xlink:href="#ArialMT-72"/>
      <use transform="translate(689.257812 0.34375)" xlink:href="#ArialMT-61"/>
      <use transform="translate(744.873047 0.34375)" xlink:href="#ArialMT-67"/>
      <use transform="translate(800.488281 0.34375)" xlink:href="#ArialMT-65"/>
      <use transform="translate(856.103516 0.34375)" xlink:href="#ArialMT-20"/>
      <use transform="translate(883.886719 0.34375)" xlink:href="#ArialMT-53"/>
      <use transform="translate(950.585938 0.34375)" xlink:href="#ArialMT-65"/>
      <use transform="translate(1006.201172 0.34375)" xlink:href="#ArialMT-6e"/>
      <use transform="translate(1061.816406 0.34375)" xlink:href="#ArialMT-74"/>
      <use transform="translate(1089.599609 0.34375)" xlink:href="#ArialMT-69"/>
      <use transform="translate(1111.816406 0.34375)" xlink:href="#ArialMT-6d"/>
      <use transform="translate(1195.117188 0.34375)" xlink:href="#ArialMT-65"/>
      <use transform="translate(1250.732422 0.34375)" xlink:href="#ArialMT-6e"/>
      <use transform="translate(1306.347656 0.34375)" xlink:href="#ArialMT-74"/>
      <use transform="translate(1334.130859 0.34375)" xlink:href="#ArialMT-20"/>
      <use transform="translate(1361.914062 0.34375)" xlink:href="#ArialMT-53"/>
      <use transform="translate(1428.613281 0.34375)" xlink:href="#ArialMT-63"/>
      <use transform="translate(1478.613281 0.34375)" xlink:href="#ArialMT-6f"/>
      <use transform="translate(1534.228516 0.34375)" xlink:href="#ArialMT-72"/>
      <use transform="translate(1567.529297 0.34375)" xlink:href="#ArialMT-65"/>
      <use transform="translate(1623.144531 0.34375)" xlink:href="#ArialMT-2c"/>
      <use transform="translate(1650.927734 0.34375)" xlink:href="#ArialMT-20"/>
      <use transform="translate(1678.710938 0.84375)" xlink:href="#DejaVuSans-3a3"/>
      <use transform="translate(1741.894531 0.34375)" xlink:href="#ArialMT-20"/>
      <use transform="translate(1769.677734 0.34375)" xlink:href="#ArialMT-5b"/>
      <use transform="translate(1797.460938 0.34375)" xlink:href="#ArialMT-64"/>
      <use transform="translate(1853.076172 0.34375)" xlink:href="#ArialMT-69"/>
      <use transform="translate(1875.292969 0.34375)" xlink:href="#ArialMT-6d"/>
      <use transform="translate(1958.59375 0.34375)" xlink:href="#ArialMT-65"/>
      <use transform="translate(2014.208984 0.34375)" xlink:href="#ArialMT-6e"/>
      <use transform="translate(2069.824219 0.34375)" xlink:href="#ArialMT-73"/>
      <use transform="translate(2119.824219 0.34375)" xlink:href="#ArialMT-69"/>
      <use transform="translate(2142.041016 0.34375)" xlink:href="#ArialMT-6f"/>
      <use transform="translate(2197.65625 0.34375)" xlink:href="#ArialMT-6e"/>
      <use transform="translate(2253.271484 0.34375)" xlink:href="#ArialMT-6c"/>
      <use transform="translate(2275.488281 0.34375)" xlink:href="#ArialMT-65"/>
      <use transform="translate(2331.103516 0.34375)" xlink:href="#ArialMT-73"/>
      <use transform="translate(2381.103516 0.34375)" xlink:href="#ArialMT-73"/>
      <use transform="translate(2431.103516 0.34375)" xlink:href="#ArialMT-5d"/>
      <path d="M 1678.710938 85.5 
L 1678.710938 91.75 
L 1741.894531 91.75 
L 1741.894531 85.5 
L 1678.710938 85.5 
z
"/>
     </g>
    </g>
   </g>
   <g id="line2d_25">
    <path clip-path="url(#p026296f5b9)" d="M 92.290909 297.68008 
L 96.390083 296.618328 
L 100.489256 297.151073 
L 104.58843 305.788071 
L 108.687603 297.108984 
L 112.786777 298.594111 
L 116.88595 280.346314 
L 120.985124 289.055688 
L 125.084298 280.441737 
L 129.183471 276.705256 
L 133.282645 276.035592 
L 137.381818 258.773834 
L 141.480992 257.291432 
L 145.580165 284.219696 
L 149.679339 278.406469 
L 153.778512 290.12613 
L 157.877686 294.583839 
L 161.97686 292.294592 
L 166.076033 309.066708 
L 170.175207 316.201913 
L 174.27438 307.529641 
L 178.373554 316.178832 
L 182.472727 325.897491 
L 186.571901 338.58 
L 190.671074 337.525913 
L 194.770248 325.809738 
L 198.869421 332.254697 
L 202.968595 328.218899 
L 207.067769 328.060058 
L 211.166942 308.358137 
L 215.266116 270.287196 
L 219.365289 257.469346 
L 223.464463 264.841017 
L 227.563636 233.142949 
L 231.66281 229.204265 
L 235.761983 223.142701 
L 239.861157 224.052672 
L 243.960331 262.46109 
L 248.059504 275.59702 
L 252.158678 266.600645 
L 256.257851 279.353668 
L 260.357025 279.509338 
L 264.456198 268.215528 
L 268.555372 263.06838 
L 272.654545 239.733275 
L 276.753719 247.176294 
L 280.852893 239.213957 
L 284.952066 233.720322 
L 289.05124 230.331805 
L 293.150413 223.164606 
L 297.249587 226.481803 
L 301.34876 224.179111 
L 305.447934 220.248477 
L 309.547107 234.091356 
L 313.646281 235.082579 
L 317.745455 235.852721 
L 321.844628 245.92369 
L 325.943802 240.484291 
L 330.042975 247.225914 
L 334.142149 240.806017 
L 338.241322 242.702113 
L 342.340496 248.069096 
L 346.439669 252.52965 
L 350.538843 250.306602 
L 354.638017 260.717208 
L 358.73719 263.360338 
L 362.836364 261.848946 
L 366.935537 252.391517 
L 371.034711 255.33314 
L 375.133884 261.065175 
L 379.233058 264.594689 
L 383.332231 265.403162 
L 387.431405 266.757125 
L 391.530579 266.473962 
L 395.629752 271.584263 
L 399.728926 276.857915 
L 403.828099 263.209124 
L 407.927273 259.091367 
L 412.026446 255.191194 
L 416.12562 259.475245 
L 420.224793 261.387428 
L 424.323967 258.980115 
L 428.42314 246.110553 
L 432.522314 264.851288 
L 436.621488 260.546469 
L 440.720661 253.162424 
L 444.819835 239.125418 
L 448.919008 243.488045 
L 453.018182 239.956163 
L 457.117355 242.325057 
L 461.216529 235.285505 
L 465.315702 252.260372 
L 469.414876 267.586456 
L 473.51405 270.706709 
L 477.613223 275.124875 
L 481.712397 282.034546 
L 485.81157 283.066379 
L 489.910744 297.268233 
L 494.009917 289.955666 
L 498.109091 288.376442 
" style="fill:none;stroke:#00bfbf;stroke-linecap:round;stroke-width:1.75;"/>
    <defs>
     <path d="M 0 3.5 
C 0.928211 3.5 1.81853 3.131218 2.474874 2.474874 
C 3.131218 1.81853 3.5 0.928211 3.5 0 
C 3.5 -0.928211 3.131218 -1.81853 2.474874 -2.474874 
C 1.81853 -3.131218 0.928211 -3.5 0 -3.5 
C -0.928211 -3.5 -1.81853 -3.131218 -2.474874 -2.474874 
C -3.131218 -1.81853 -3.5 -0.928211 -3.5 0 
C -3.5 0.928211 -3.131218 1.81853 -2.474874 2.474874 
C -1.81853 3.131218 -0.928211 3.5 0 3.5 
z
" id="mfd3acfd9f5"/>
    </defs>
    <g clip-path="url(#p026296f5b9)">
     <use style="fill:#00bfbf;" x="92.290909" xlink:href="#mfd3acfd9f5" y="297.68008"/>
     <use style="fill:#00bfbf;" x="96.390083" xlink:href="#mfd3acfd9f5" y="296.618328"/>
     <use style="fill:#00bfbf;" x="100.489256" xlink:href="#mfd3acfd9f5" y="297.151073"/>
     <use style="fill:#00bfbf;" x="104.58843" xlink:href="#mfd3acfd9f5" y="305.788071"/>
     <use style="fill:#00bfbf;" x="108.687603" xlink:href="#mfd3acfd9f5" y="297.108984"/>
     <use style="fill:#00bfbf;" x="112.786777" xlink:href="#mfd3acfd9f5" y="298.594111"/>
     <use style="fill:#00bfbf;" x="116.88595" xlink:href="#mfd3acfd9f5" y="280.346314"/>
     <use style="fill:#00bfbf;" x="120.985124" xlink:href="#mfd3acfd9f5" y="289.055688"/>
     <use style="fill:#00bfbf;" x="125.084298" xlink:href="#mfd3acfd9f5" y="280.441737"/>
     <use style="fill:#00bfbf;" x="129.183471" xlink:href="#mfd3acfd9f5" y="276.705256"/>
     <use style="fill:#00bfbf;" x="133.282645" xlink:href="#mfd3acfd9f5" y="276.035592"/>
     <use style="fill:#00bfbf;" x="137.381818" xlink:href="#mfd3acfd9f5" y="258.773834"/>
     <use style="fill:#00bfbf;" x="141.480992" xlink:href="#mfd3acfd9f5" y="257.291432"/>
     <use style="fill:#00bfbf;" x="145.580165" xlink:href="#mfd3acfd9f5" y="284.219696"/>
     <use style="fill:#00bfbf;" x="149.679339" xlink:href="#mfd3acfd9f5" y="278.406469"/>
     <use style="fill:#00bfbf;" x="153.778512" xlink:href="#mfd3acfd9f5" y="290.12613"/>
     <use style="fill:#00bfbf;" x="157.877686" xlink:href="#mfd3acfd9f5" y="294.583839"/>
     <use style="fill:#00bfbf;" x="161.97686" xlink:href="#mfd3acfd9f5" y="292.294592"/>
     <use style="fill:#00bfbf;" x="166.076033" xlink:href="#mfd3acfd9f5" y="309.066708"/>
     <use style="fill:#00bfbf;" x="170.175207" xlink:href="#mfd3acfd9f5" y="316.201913"/>
     <use style="fill:#00bfbf;" x="174.27438" xlink:href="#mfd3acfd9f5" y="307.529641"/>
     <use style="fill:#00bfbf;" x="178.373554" xlink:href="#mfd3acfd9f5" y="316.178832"/>
     <use style="fill:#00bfbf;" x="182.472727" xlink:href="#mfd3acfd9f5" y="325.897491"/>
     <use style="fill:#00bfbf;" x="186.571901" xlink:href="#mfd3acfd9f5" y="338.58"/>
     <use style="fill:#00bfbf;" x="190.671074" xlink:href="#mfd3acfd9f5" y="337.525913"/>
     <use style="fill:#00bfbf;" x="194.770248" xlink:href="#mfd3acfd9f5" y="325.809738"/>
     <use style="fill:#00bfbf;" x="198.869421" xlink:href="#mfd3acfd9f5" y="332.254697"/>
     <use style="fill:#00bfbf;" x="202.968595" xlink:href="#mfd3acfd9f5" y="328.218899"/>
     <use style="fill:#00bfbf;" x="207.067769" xlink:href="#mfd3acfd9f5" y="328.060058"/>
     <use style="fill:#00bfbf;" x="211.166942" xlink:href="#mfd3acfd9f5" y="308.358137"/>
     <use style="fill:#00bfbf;" x="215.266116" xlink:href="#mfd3acfd9f5" y="270.287196"/>
     <use style="fill:#00bfbf;" x="219.365289" xlink:href="#mfd3acfd9f5" y="257.469346"/>
     <use style="fill:#00bfbf;" x="223.464463" xlink:href="#mfd3acfd9f5" y="264.841017"/>
     <use style="fill:#00bfbf;" x="227.563636" xlink:href="#mfd3acfd9f5" y="233.142949"/>
     <use style="fill:#00bfbf;" x="231.66281" xlink:href="#mfd3acfd9f5" y="229.204265"/>
     <use style="fill:#00bfbf;" x="235.761983" xlink:href="#mfd3acfd9f5" y="223.142701"/>
     <use style="fill:#00bfbf;" x="239.861157" xlink:href="#mfd3acfd9f5" y="224.052672"/>
     <use style="fill:#00bfbf;" x="243.960331" xlink:href="#mfd3acfd9f5" y="262.46109"/>
     <use style="fill:#00bfbf;" x="248.059504" xlink:href="#mfd3acfd9f5" y="275.59702"/>
     <use style="fill:#00bfbf;" x="252.158678" xlink:href="#mfd3acfd9f5" y="266.600645"/>
     <use style="fill:#00bfbf;" x="256.257851" xlink:href="#mfd3acfd9f5" y="279.353668"/>
     <use style="fill:#00bfbf;" x="260.357025" xlink:href="#mfd3acfd9f5" y="279.509338"/>
     <use style="fill:#00bfbf;" x="264.456198" xlink:href="#mfd3acfd9f5" y="268.215528"/>
     <use style="fill:#00bfbf;" x="268.555372" xlink:href="#mfd3acfd9f5" y="263.06838"/>
     <use style="fill:#00bfbf;" x="272.654545" xlink:href="#mfd3acfd9f5" y="239.733275"/>
     <use style="fill:#00bfbf;" x="276.753719" xlink:href="#mfd3acfd9f5" y="247.176294"/>
     <use style="fill:#00bfbf;" x="280.852893" xlink:href="#mfd3acfd9f5" y="239.213957"/>
     <use style="fill:#00bfbf;" x="284.952066" xlink:href="#mfd3acfd9f5" y="233.720322"/>
     <use style="fill:#00bfbf;" x="289.05124" xlink:href="#mfd3acfd9f5" y="230.331805"/>
     <use style="fill:#00bfbf;" x="293.150413" xlink:href="#mfd3acfd9f5" y="223.164606"/>
     <use style="fill:#00bfbf;" x="297.249587" xlink:href="#mfd3acfd9f5" y="226.481803"/>
     <use style="fill:#00bfbf;" x="301.34876" xlink:href="#mfd3acfd9f5" y="224.179111"/>
     <use style="fill:#00bfbf;" x="305.447934" xlink:href="#mfd3acfd9f5" y="220.248477"/>
     <use style="fill:#00bfbf;" x="309.547107" xlink:href="#mfd3acfd9f5" y="234.091356"/>
     <use style="fill:#00bfbf;" x="313.646281" xlink:href="#mfd3acfd9f5" y="235.082579"/>
     <use style="fill:#00bfbf;" x="317.745455" xlink:href="#mfd3acfd9f5" y="235.852721"/>
     <use style="fill:#00bfbf;" x="321.844628" xlink:href="#mfd3acfd9f5" y="245.92369"/>
     <use style="fill:#00bfbf;" x="325.943802" xlink:href="#mfd3acfd9f5" y="240.484291"/>
     <use style="fill:#00bfbf;" x="330.042975" xlink:href="#mfd3acfd9f5" y="247.225914"/>
     <use style="fill:#00bfbf;" x="334.142149" xlink:href="#mfd3acfd9f5" y="240.806017"/>
     <use style="fill:#00bfbf;" x="338.241322" xlink:href="#mfd3acfd9f5" y="242.702113"/>
     <use style="fill:#00bfbf;" x="342.340496" xlink:href="#mfd3acfd9f5" y="248.069096"/>
     <use style="fill:#00bfbf;" x="346.439669" xlink:href="#mfd3acfd9f5" y="252.52965"/>
     <use style="fill:#00bfbf;" x="350.538843" xlink:href="#mfd3acfd9f5" y="250.306602"/>
     <use style="fill:#00bfbf;" x="354.638017" xlink:href="#mfd3acfd9f5" y="260.717208"/>
     <use style="fill:#00bfbf;" x="358.73719" xlink:href="#mfd3acfd9f5" y="263.360338"/>
     <use style="fill:#00bfbf;" x="362.836364" xlink:href="#mfd3acfd9f5" y="261.848946"/>
     <use style="fill:#00bfbf;" x="366.935537" xlink:href="#mfd3acfd9f5" y="252.391517"/>
     <use style="fill:#00bfbf;" x="371.034711" xlink:href="#mfd3acfd9f5" y="255.33314"/>
     <use style="fill:#00bfbf;" x="375.133884" xlink:href="#mfd3acfd9f5" y="261.065175"/>
     <use style="fill:#00bfbf;" x="379.233058" xlink:href="#mfd3acfd9f5" y="264.594689"/>
     <use style="fill:#00bfbf;" x="383.332231" xlink:href="#mfd3acfd9f5" y="265.403162"/>
     <use style="fill:#00bfbf;" x="387.431405" xlink:href="#mfd3acfd9f5" y="266.757125"/>
     <use style="fill:#00bfbf;" x="391.530579" xlink:href="#mfd3acfd9f5" y="266.473962"/>
     <use style="fill:#00bfbf;" x="395.629752" xlink:href="#mfd3acfd9f5" y="271.584263"/>
     <use style="fill:#00bfbf;" x="399.728926" xlink:href="#mfd3acfd9f5" y="276.857915"/>
     <use style="fill:#00bfbf;" x="403.828099" xlink:href="#mfd3acfd9f5" y="263.209124"/>
     <use style="fill:#00bfbf;" x="407.927273" xlink:href="#mfd3acfd9f5" y="259.091367"/>
     <use style="fill:#00bfbf;" x="412.026446" xlink:href="#mfd3acfd9f5" y="255.191194"/>
     <use style="fill:#00bfbf;" x="416.12562" xlink:href="#mfd3acfd9f5" y="259.475245"/>
     <use style="fill:#00bfbf;" x="420.224793" xlink:href="#mfd3acfd9f5" y="261.387428"/>
     <use style="fill:#00bfbf;" x="424.323967" xlink:href="#mfd3acfd9f5" y="258.980115"/>
     <use style="fill:#00bfbf;" x="428.42314" xlink:href="#mfd3acfd9f5" y="246.110553"/>
     <use style="fill:#00bfbf;" x="432.522314" xlink:href="#mfd3acfd9f5" y="264.851288"/>
     <use style="fill:#00bfbf;" x="436.621488" xlink:href="#mfd3acfd9f5" y="260.546469"/>
     <use style="fill:#00bfbf;" x="440.720661" xlink:href="#mfd3acfd9f5" y="253.162424"/>
     <use style="fill:#00bfbf;" x="444.819835" xlink:href="#mfd3acfd9f5" y="239.125418"/>
     <use style="fill:#00bfbf;" x="448.919008" xlink:href="#mfd3acfd9f5" y="243.488045"/>
     <use style="fill:#00bfbf;" x="453.018182" xlink:href="#mfd3acfd9f5" y="239.956163"/>
     <use style="fill:#00bfbf;" x="457.117355" xlink:href="#mfd3acfd9f5" y="242.325057"/>
     <use style="fill:#00bfbf;" x="461.216529" xlink:href="#mfd3acfd9f5" y="235.285505"/>
     <use style="fill:#00bfbf;" x="465.315702" xlink:href="#mfd3acfd9f5" y="252.260372"/>
     <use style="fill:#00bfbf;" x="469.414876" xlink:href="#mfd3acfd9f5" y="267.586456"/>
     <use style="fill:#00bfbf;" x="473.51405" xlink:href="#mfd3acfd9f5" y="270.706709"/>
     <use style="fill:#00bfbf;" x="477.613223" xlink:href="#mfd3acfd9f5" y="275.124875"/>
     <use style="fill:#00bfbf;" x="481.712397" xlink:href="#mfd3acfd9f5" y="282.034546"/>
     <use style="fill:#00bfbf;" x="485.81157" xlink:href="#mfd3acfd9f5" y="283.066379"/>
     <use style="fill:#00bfbf;" x="489.910744" xlink:href="#mfd3acfd9f5" y="297.268233"/>
     <use style="fill:#00bfbf;" x="494.009917" xlink:href="#mfd3acfd9f5" y="289.955666"/>
     <use style="fill:#00bfbf;" x="498.109091" xlink:href="#mfd3acfd9f5" y="288.376442"/>
    </g>
   </g>
   <g id="line2d_26">
    <path clip-path="url(#p026296f5b9)" d="M 92.290909 311.217422 
L 96.390083 311.649483 
L 100.489256 310.516207 
L 104.58843 311.604677 
L 108.687603 310.968435 
L 112.786777 310.274168 
L 116.88595 307.616261 
L 120.985124 307.755525 
L 125.084298 306.704239 
L 129.183471 307.178794 
L 133.282645 307.323999 
L 137.381818 305.344254 
L 141.480992 305.602697 
L 145.580165 308.099656 
L 149.679339 308.980238 
L 153.778512 310.369454 
L 157.877686 310.70324 
L 161.97686 311.046439 
L 166.076033 313.538477 
L 170.175207 315.621746 
L 174.27438 314.074439 
L 178.373554 314.17781 
L 182.472727 314.31235 
L 186.571901 313.610946 
L 190.671074 314.782918 
L 194.770248 312.930339 
L 198.869421 312.974199 
L 202.968595 312.368664 
L 207.067769 312.033333 
L 211.166942 310.770137 
L 215.266116 307.973716 
L 219.365289 304.257529 
L 223.464463 305.986995 
L 227.563636 302.951312 
L 231.66281 304.433161 
L 235.761983 303.478585 
L 239.861157 303.771299 
L 243.960331 307.693544 
L 248.059504 309.548933 
L 252.158678 308.622581 
L 256.257851 310.521575 
L 260.357025 309.58967 
L 264.456198 309.422965 
L 268.555372 308.689378 
L 272.654545 306.690372 
L 276.753719 307.847867 
L 280.852893 306.258168 
L 284.952066 304.617921 
L 289.05124 303.89886 
L 293.150413 302.937933 
L 297.249587 302.030253 
L 301.34876 302.032861 
L 305.447934 301.407207 
L 309.547107 302.353279 
L 313.646281 302.708985 
L 317.745455 303.922962 
L 321.844628 304.781866 
L 325.943802 305.098468 
L 330.042975 305.629724 
L 334.142149 304.918992 
L 338.241322 305.913977 
L 342.340496 305.83398 
L 346.439669 306.201652 
L 350.538843 305.542532 
L 354.638017 306.171339 
L 358.73719 306.828641 
L 362.836364 307.11497 
L 366.935537 305.569063 
L 371.034711 306.735488 
L 375.133884 306.667635 
L 379.233058 307.104554 
L 383.332231 308.497958 
L 387.431405 308.297703 
L 391.530579 308.597467 
L 395.629752 309.132733 
L 399.728926 309.188141 
L 403.828099 308.803302 
L 407.927273 308.528257 
L 412.026446 307.740095 
L 416.12562 307.74292 
L 420.224793 307.03524 
L 424.323967 306.892713 
L 428.42314 305.57282 
L 432.522314 307.476844 
L 436.621488 306.851393 
L 440.720661 306.552189 
L 444.819835 305.568159 
L 448.919008 306.209657 
L 453.018182 305.254923 
L 457.117355 305.203494 
L 461.216529 303.93507 
L 465.315702 305.226763 
L 469.414876 307.241297 
L 473.51405 306.991343 
L 477.613223 307.123077 
L 481.712397 309.029 
L 485.81157 308.572272 
L 489.910744 309.944436 
L 494.009917 309.85983 
L 498.109091 309.451558 
" style="fill:none;stroke:#008000;stroke-linecap:round;stroke-width:1.75;"/>
    <defs>
     <path d="M 0 3.5 
C 0.928211 3.5 1.81853 3.131218 2.474874 2.474874 
C 3.131218 1.81853 3.5 0.928211 3.5 0 
C 3.5 -0.928211 3.131218 -1.81853 2.474874 -2.474874 
C 1.81853 -3.131218 0.928211 -3.5 0 -3.5 
C -0.928211 -3.5 -1.81853 -3.131218 -2.474874 -2.474874 
C -3.131218 -1.81853 -3.5 -0.928211 -3.5 0 
C -3.5 0.928211 -3.131218 1.81853 -2.474874 2.474874 
C -1.81853 3.131218 -0.928211 3.5 0 3.5 
z
" id="mb1c20c2640"/>
    </defs>
    <g clip-path="url(#p026296f5b9)">
     <use style="fill:#008000;" x="92.290909" xlink:href="#mb1c20c2640" y="311.217422"/>
     <use style="fill:#008000;" x="96.390083" xlink:href="#mb1c20c2640" y="311.649483"/>
     <use style="fill:#008000;" x="100.489256" xlink:href="#mb1c20c2640" y="310.516207"/>
     <use style="fill:#008000;" x="104.58843" xlink:href="#mb1c20c2640" y="311.604677"/>
     <use style="fill:#008000;" x="108.687603" xlink:href="#mb1c20c2640" y="310.968435"/>
     <use style="fill:#008000;" x="112.786777" xlink:href="#mb1c20c2640" y="310.274168"/>
     <use style="fill:#008000;" x="116.88595" xlink:href="#mb1c20c2640" y="307.616261"/>
     <use style="fill:#008000;" x="120.985124" xlink:href="#mb1c20c2640" y="307.755525"/>
     <use style="fill:#008000;" x="125.084298" xlink:href="#mb1c20c2640" y="306.704239"/>
     <use style="fill:#008000;" x="129.183471" xlink:href="#mb1c20c2640" y="307.178794"/>
     <use style="fill:#008000;" x="133.282645" xlink:href="#mb1c20c2640" y="307.323999"/>
     <use style="fill:#008000;" x="137.381818" xlink:href="#mb1c20c2640" y="305.344254"/>
     <use style="fill:#008000;" x="141.480992" xlink:href="#mb1c20c2640" y="305.602697"/>
     <use style="fill:#008000;" x="145.580165" xlink:href="#mb1c20c2640" y="308.099656"/>
     <use style="fill:#008000;" x="149.679339" xlink:href="#mb1c20c2640" y="308.980238"/>
     <use style="fill:#008000;" x="153.778512" xlink:href="#mb1c20c2640" y="310.369454"/>
     <use style="fill:#008000;" x="157.877686" xlink:href="#mb1c20c2640" y="310.70324"/>
     <use style="fill:#008000;" x="161.97686" xlink:href="#mb1c20c2640" y="311.046439"/>
     <use style="fill:#008000;" x="166.076033" xlink:href="#mb1c20c2640" y="313.538477"/>
     <use style="fill:#008000;" x="170.175207" xlink:href="#mb1c20c2640" y="315.621746"/>
     <use style="fill:#008000;" x="174.27438" xlink:href="#mb1c20c2640" y="314.074439"/>
     <use style="fill:#008000;" x="178.373554" xlink:href="#mb1c20c2640" y="314.17781"/>
     <use style="fill:#008000;" x="182.472727" xlink:href="#mb1c20c2640" y="314.31235"/>
     <use style="fill:#008000;" x="186.571901" xlink:href="#mb1c20c2640" y="313.610946"/>
     <use style="fill:#008000;" x="190.671074" xlink:href="#mb1c20c2640" y="314.782918"/>
     <use style="fill:#008000;" x="194.770248" xlink:href="#mb1c20c2640" y="312.930339"/>
     <use style="fill:#008000;" x="198.869421" xlink:href="#mb1c20c2640" y="312.974199"/>
     <use style="fill:#008000;" x="202.968595" xlink:href="#mb1c20c2640" y="312.368664"/>
     <use style="fill:#008000;" x="207.067769" xlink:href="#mb1c20c2640" y="312.033333"/>
     <use style="fill:#008000;" x="211.166942" xlink:href="#mb1c20c2640" y="310.770137"/>
     <use style="fill:#008000;" x="215.266116" xlink:href="#mb1c20c2640" y="307.973716"/>
     <use style="fill:#008000;" x="219.365289" xlink:href="#mb1c20c2640" y="304.257529"/>
     <use style="fill:#008000;" x="223.464463" xlink:href="#mb1c20c2640" y="305.986995"/>
     <use style="fill:#008000;" x="227.563636" xlink:href="#mb1c20c2640" y="302.951312"/>
     <use style="fill:#008000;" x="231.66281" xlink:href="#mb1c20c2640" y="304.433161"/>
     <use style="fill:#008000;" x="235.761983" xlink:href="#mb1c20c2640" y="303.478585"/>
     <use style="fill:#008000;" x="239.861157" xlink:href="#mb1c20c2640" y="303.771299"/>
     <use style="fill:#008000;" x="243.960331" xlink:href="#mb1c20c2640" y="307.693544"/>
     <use style="fill:#008000;" x="248.059504" xlink:href="#mb1c20c2640" y="309.548933"/>
     <use style="fill:#008000;" x="252.158678" xlink:href="#mb1c20c2640" y="308.622581"/>
     <use style="fill:#008000;" x="256.257851" xlink:href="#mb1c20c2640" y="310.521575"/>
     <use style="fill:#008000;" x="260.357025" xlink:href="#mb1c20c2640" y="309.58967"/>
     <use style="fill:#008000;" x="264.456198" xlink:href="#mb1c20c2640" y="309.422965"/>
     <use style="fill:#008000;" x="268.555372" xlink:href="#mb1c20c2640" y="308.689378"/>
     <use style="fill:#008000;" x="272.654545" xlink:href="#mb1c20c2640" y="306.690372"/>
     <use style="fill:#008000;" x="276.753719" xlink:href="#mb1c20c2640" y="307.847867"/>
     <use style="fill:#008000;" x="280.852893" xlink:href="#mb1c20c2640" y="306.258168"/>
     <use style="fill:#008000;" x="284.952066" xlink:href="#mb1c20c2640" y="304.617921"/>
     <use style="fill:#008000;" x="289.05124" xlink:href="#mb1c20c2640" y="303.89886"/>
     <use style="fill:#008000;" x="293.150413" xlink:href="#mb1c20c2640" y="302.937933"/>
     <use style="fill:#008000;" x="297.249587" xlink:href="#mb1c20c2640" y="302.030253"/>
     <use style="fill:#008000;" x="301.34876" xlink:href="#mb1c20c2640" y="302.032861"/>
     <use style="fill:#008000;" x="305.447934" xlink:href="#mb1c20c2640" y="301.407207"/>
     <use style="fill:#008000;" x="309.547107" xlink:href="#mb1c20c2640" y="302.353279"/>
     <use style="fill:#008000;" x="313.646281" xlink:href="#mb1c20c2640" y="302.708985"/>
     <use style="fill:#008000;" x="317.745455" xlink:href="#mb1c20c2640" y="303.922962"/>
     <use style="fill:#008000;" x="321.844628" xlink:href="#mb1c20c2640" y="304.781866"/>
     <use style="fill:#008000;" x="325.943802" xlink:href="#mb1c20c2640" y="305.098468"/>
     <use style="fill:#008000;" x="330.042975" xlink:href="#mb1c20c2640" y="305.629724"/>
     <use style="fill:#008000;" x="334.142149" xlink:href="#mb1c20c2640" y="304.918992"/>
     <use style="fill:#008000;" x="338.241322" xlink:href="#mb1c20c2640" y="305.913977"/>
     <use style="fill:#008000;" x="342.340496" xlink:href="#mb1c20c2640" y="305.83398"/>
     <use style="fill:#008000;" x="346.439669" xlink:href="#mb1c20c2640" y="306.201652"/>
     <use style="fill:#008000;" x="350.538843" xlink:href="#mb1c20c2640" y="305.542532"/>
     <use style="fill:#008000;" x="354.638017" xlink:href="#mb1c20c2640" y="306.171339"/>
     <use style="fill:#008000;" x="358.73719" xlink:href="#mb1c20c2640" y="306.828641"/>
     <use style="fill:#008000;" x="362.836364" xlink:href="#mb1c20c2640" y="307.11497"/>
     <use style="fill:#008000;" x="366.935537" xlink:href="#mb1c20c2640" y="305.569063"/>
     <use style="fill:#008000;" x="371.034711" xlink:href="#mb1c20c2640" y="306.735488"/>
     <use style="fill:#008000;" x="375.133884" xlink:href="#mb1c20c2640" y="306.667635"/>
     <use style="fill:#008000;" x="379.233058" xlink:href="#mb1c20c2640" y="307.104554"/>
     <use style="fill:#008000;" x="383.332231" xlink:href="#mb1c20c2640" y="308.497958"/>
     <use style="fill:#008000;" x="387.431405" xlink:href="#mb1c20c2640" y="308.297703"/>
     <use style="fill:#008000;" x="391.530579" xlink:href="#mb1c20c2640" y="308.597467"/>
     <use style="fill:#008000;" x="395.629752" xlink:href="#mb1c20c2640" y="309.132733"/>
     <use style="fill:#008000;" x="399.728926" xlink:href="#mb1c20c2640" y="309.188141"/>
     <use style="fill:#008000;" x="403.828099" xlink:href="#mb1c20c2640" y="308.803302"/>
     <use style="fill:#008000;" x="407.927273" xlink:href="#mb1c20c2640" y="308.528257"/>
     <use style="fill:#008000;" x="412.026446" xlink:href="#mb1c20c2640" y="307.740095"/>
     <use style="fill:#008000;" x="416.12562" xlink:href="#mb1c20c2640" y="307.74292"/>
     <use style="fill:#008000;" x="420.224793" xlink:href="#mb1c20c2640" y="307.03524"/>
     <use style="fill:#008000;" x="424.323967" xlink:href="#mb1c20c2640" y="306.892713"/>
     <use style="fill:#008000;" x="428.42314" xlink:href="#mb1c20c2640" y="305.57282"/>
     <use style="fill:#008000;" x="432.522314" xlink:href="#mb1c20c2640" y="307.476844"/>
     <use style="fill:#008000;" x="436.621488" xlink:href="#mb1c20c2640" y="306.851393"/>
     <use style="fill:#008000;" x="440.720661" xlink:href="#mb1c20c2640" y="306.552189"/>
     <use style="fill:#008000;" x="444.819835" xlink:href="#mb1c20c2640" y="305.568159"/>
     <use style="fill:#008000;" x="448.919008" xlink:href="#mb1c20c2640" y="306.209657"/>
     <use style="fill:#008000;" x="453.018182" xlink:href="#mb1c20c2640" y="305.254923"/>
     <use style="fill:#008000;" x="457.117355" xlink:href="#mb1c20c2640" y="305.203494"/>
     <use style="fill:#008000;" x="461.216529" xlink:href="#mb1c20c2640" y="303.93507"/>
     <use style="fill:#008000;" x="465.315702" xlink:href="#mb1c20c2640" y="305.226763"/>
     <use style="fill:#008000;" x="469.414876" xlink:href="#mb1c20c2640" y="307.241297"/>
     <use style="fill:#008000;" x="473.51405" xlink:href="#mb1c20c2640" y="306.991343"/>
     <use style="fill:#008000;" x="477.613223" xlink:href="#mb1c20c2640" y="307.123077"/>
     <use style="fill:#008000;" x="481.712397" xlink:href="#mb1c20c2640" y="309.029"/>
     <use style="fill:#008000;" x="485.81157" xlink:href="#mb1c20c2640" y="308.572272"/>
     <use style="fill:#008000;" x="489.910744" xlink:href="#mb1c20c2640" y="309.944436"/>
     <use style="fill:#008000;" x="494.009917" xlink:href="#mb1c20c2640" y="309.85983"/>
     <use style="fill:#008000;" x="498.109091" xlink:href="#mb1c20c2640" y="309.451558"/>
    </g>
   </g>
   <g id="line2d_27">
    <path clip-path="url(#p026296f5b9)" d="M 92.290909 302.537237 
L 96.390083 302.29226 
L 100.489256 302.441769 
L 104.58843 302.213189 
L 108.687603 301.936659 
L 112.786777 301.967127 
L 116.88595 302.487647 
L 120.985124 302.24796 
L 125.084298 302.073456 
L 129.183471 302.061314 
L 133.282645 301.934492 
L 137.381818 302.654131 
L 141.480992 303.004743 
L 145.580165 302.359513 
L 149.679339 302.041488 
L 153.778512 302.185484 
L 157.877686 301.649547 
L 161.97686 301.849272 
L 166.076033 301.418729 
L 170.175207 300.627389 
L 174.27438 300.946933 
L 178.373554 301.313224 
L 182.472727 301.29979 
L 186.571901 301.884551 
L 190.671074 301.801493 
L 194.770248 302.84807 
L 198.869421 302.926484 
L 202.968595 303.091826 
L 207.067769 302.588152 
L 211.166942 302.819865 
L 215.266116 303.245598 
L 219.365289 304.219379 
L 223.464463 303.505711 
L 227.563636 304.051348 
L 231.66281 304.051852 
L 235.761983 304.603171 
L 239.861157 304.893223 
L 243.960331 304.734379 
L 248.059504 304.152073 
L 252.158678 304.057686 
L 256.257851 303.587893 
L 260.357025 303.717146 
L 264.456198 304.181169 
L 268.555372 303.964207 
L 272.654545 303.649111 
L 276.753719 303.749758 
L 280.852893 304.373537 
L 284.952066 305.212318 
L 289.05124 305.477804 
L 293.150413 305.432001 
L 297.249587 305.932655 
L 301.34876 306.293631 
L 305.447934 306.315514 
L 309.547107 305.793334 
L 313.646281 305.487798 
L 317.745455 305.158496 
L 321.844628 304.796451 
L 325.943802 304.604075 
L 330.042975 304.510144 
L 334.142149 304.392975 
L 338.241322 304.364268 
L 342.340496 304.377861 
L 346.439669 304.142122 
L 350.538843 304.427756 
L 354.638017 304.448994 
L 358.73719 304.546243 
L 362.836364 304.75299 
L 366.935537 304.694892 
L 371.034711 304.166 
L 375.133884 304.407325 
L 379.233058 304.317198 
L 383.332231 303.963123 
L 387.431405 303.654179 
L 391.530579 303.362179 
L 395.629752 303.62707 
L 399.728926 304.018278 
L 403.828099 303.883183 
L 407.927273 304.241518 
L 412.026446 304.205164 
L 416.12562 304.2003 
L 420.224793 304.556127 
L 424.323967 304.633993 
L 428.42314 305.02994 
L 432.522314 304.925935 
L 436.621488 305.047705 
L 440.720661 305.292735 
L 444.819835 305.498323 
L 448.919008 305.325441 
L 453.018182 305.650917 
L 457.117355 305.371449 
L 461.216529 305.751784 
L 465.315702 304.880605 
L 469.414876 304.092761 
L 473.51405 304.298666 
L 477.613223 304.11849 
L 481.712397 303.410856 
L 485.81157 303.269244 
L 489.910744 302.644428 
L 494.009917 302.789763 
L 498.109091 302.993971 
" style="fill:none;stroke:#0000ff;stroke-linecap:round;stroke-width:1.75;"/>
    <defs>
     <path d="M 0 3.5 
C 0.928211 3.5 1.81853 3.131218 2.474874 2.474874 
C 3.131218 1.81853 3.5 0.928211 3.5 0 
C 3.5 -0.928211 3.131218 -1.81853 2.474874 -2.474874 
C 1.81853 -3.131218 0.928211 -3.5 0 -3.5 
C -0.928211 -3.5 -1.81853 -3.131218 -2.474874 -2.474874 
C -3.131218 -1.81853 -3.5 -0.928211 -3.5 0 
C -3.5 0.928211 -3.131218 1.81853 -2.474874 2.474874 
C -1.81853 3.131218 -0.928211 3.5 0 3.5 
z
" id="m6fdf286554"/>
    </defs>
    <g clip-path="url(#p026296f5b9)">
     <use style="fill:#0000ff;" x="92.290909" xlink:href="#m6fdf286554" y="302.537237"/>
     <use style="fill:#0000ff;" x="96.390083" xlink:href="#m6fdf286554" y="302.29226"/>
     <use style="fill:#0000ff;" x="100.489256" xlink:href="#m6fdf286554" y="302.441769"/>
     <use style="fill:#0000ff;" x="104.58843" xlink:href="#m6fdf286554" y="302.213189"/>
     <use style="fill:#0000ff;" x="108.687603" xlink:href="#m6fdf286554" y="301.936659"/>
     <use style="fill:#0000ff;" x="112.786777" xlink:href="#m6fdf286554" y="301.967127"/>
     <use style="fill:#0000ff;" x="116.88595" xlink:href="#m6fdf286554" y="302.487647"/>
     <use style="fill:#0000ff;" x="120.985124" xlink:href="#m6fdf286554" y="302.24796"/>
     <use style="fill:#0000ff;" x="125.084298" xlink:href="#m6fdf286554" y="302.073456"/>
     <use style="fill:#0000ff;" x="129.183471" xlink:href="#m6fdf286554" y="302.061314"/>
     <use style="fill:#0000ff;" x="133.282645" xlink:href="#m6fdf286554" y="301.934492"/>
     <use style="fill:#0000ff;" x="137.381818" xlink:href="#m6fdf286554" y="302.654131"/>
     <use style="fill:#0000ff;" x="141.480992" xlink:href="#m6fdf286554" y="303.004743"/>
     <use style="fill:#0000ff;" x="145.580165" xlink:href="#m6fdf286554" y="302.359513"/>
     <use style="fill:#0000ff;" x="149.679339" xlink:href="#m6fdf286554" y="302.041488"/>
     <use style="fill:#0000ff;" x="153.778512" xlink:href="#m6fdf286554" y="302.185484"/>
     <use style="fill:#0000ff;" x="157.877686" xlink:href="#m6fdf286554" y="301.649547"/>
     <use style="fill:#0000ff;" x="161.97686" xlink:href="#m6fdf286554" y="301.849272"/>
     <use style="fill:#0000ff;" x="166.076033" xlink:href="#m6fdf286554" y="301.418729"/>
     <use style="fill:#0000ff;" x="170.175207" xlink:href="#m6fdf286554" y="300.627389"/>
     <use style="fill:#0000ff;" x="174.27438" xlink:href="#m6fdf286554" y="300.946933"/>
     <use style="fill:#0000ff;" x="178.373554" xlink:href="#m6fdf286554" y="301.313224"/>
     <use style="fill:#0000ff;" x="182.472727" xlink:href="#m6fdf286554" y="301.29979"/>
     <use style="fill:#0000ff;" x="186.571901" xlink:href="#m6fdf286554" y="301.884551"/>
     <use style="fill:#0000ff;" x="190.671074" xlink:href="#m6fdf286554" y="301.801493"/>
     <use style="fill:#0000ff;" x="194.770248" xlink:href="#m6fdf286554" y="302.84807"/>
     <use style="fill:#0000ff;" x="198.869421" xlink:href="#m6fdf286554" y="302.926484"/>
     <use style="fill:#0000ff;" x="202.968595" xlink:href="#m6fdf286554" y="303.091826"/>
     <use style="fill:#0000ff;" x="207.067769" xlink:href="#m6fdf286554" y="302.588152"/>
     <use style="fill:#0000ff;" x="211.166942" xlink:href="#m6fdf286554" y="302.819865"/>
     <use style="fill:#0000ff;" x="215.266116" xlink:href="#m6fdf286554" y="303.245598"/>
     <use style="fill:#0000ff;" x="219.365289" xlink:href="#m6fdf286554" y="304.219379"/>
     <use style="fill:#0000ff;" x="223.464463" xlink:href="#m6fdf286554" y="303.505711"/>
     <use style="fill:#0000ff;" x="227.563636" xlink:href="#m6fdf286554" y="304.051348"/>
     <use style="fill:#0000ff;" x="231.66281" xlink:href="#m6fdf286554" y="304.051852"/>
     <use style="fill:#0000ff;" x="235.761983" xlink:href="#m6fdf286554" y="304.603171"/>
     <use style="fill:#0000ff;" x="239.861157" xlink:href="#m6fdf286554" y="304.893223"/>
     <use style="fill:#0000ff;" x="243.960331" xlink:href="#m6fdf286554" y="304.734379"/>
     <use style="fill:#0000ff;" x="248.059504" xlink:href="#m6fdf286554" y="304.152073"/>
     <use style="fill:#0000ff;" x="252.158678" xlink:href="#m6fdf286554" y="304.057686"/>
     <use style="fill:#0000ff;" x="256.257851" xlink:href="#m6fdf286554" y="303.587893"/>
     <use style="fill:#0000ff;" x="260.357025" xlink:href="#m6fdf286554" y="303.717146"/>
     <use style="fill:#0000ff;" x="264.456198" xlink:href="#m6fdf286554" y="304.181169"/>
     <use style="fill:#0000ff;" x="268.555372" xlink:href="#m6fdf286554" y="303.964207"/>
     <use style="fill:#0000ff;" x="272.654545" xlink:href="#m6fdf286554" y="303.649111"/>
     <use style="fill:#0000ff;" x="276.753719" xlink:href="#m6fdf286554" y="303.749758"/>
     <use style="fill:#0000ff;" x="280.852893" xlink:href="#m6fdf286554" y="304.373537"/>
     <use style="fill:#0000ff;" x="284.952066" xlink:href="#m6fdf286554" y="305.212318"/>
     <use style="fill:#0000ff;" x="289.05124" xlink:href="#m6fdf286554" y="305.477804"/>
     <use style="fill:#0000ff;" x="293.150413" xlink:href="#m6fdf286554" y="305.432001"/>
     <use style="fill:#0000ff;" x="297.249587" xlink:href="#m6fdf286554" y="305.932655"/>
     <use style="fill:#0000ff;" x="301.34876" xlink:href="#m6fdf286554" y="306.293631"/>
     <use style="fill:#0000ff;" x="305.447934" xlink:href="#m6fdf286554" y="306.315514"/>
     <use style="fill:#0000ff;" x="309.547107" xlink:href="#m6fdf286554" y="305.793334"/>
     <use style="fill:#0000ff;" x="313.646281" xlink:href="#m6fdf286554" y="305.487798"/>
     <use style="fill:#0000ff;" x="317.745455" xlink:href="#m6fdf286554" y="305.158496"/>
     <use style="fill:#0000ff;" x="321.844628" xlink:href="#m6fdf286554" y="304.796451"/>
     <use style="fill:#0000ff;" x="325.943802" xlink:href="#m6fdf286554" y="304.604075"/>
     <use style="fill:#0000ff;" x="330.042975" xlink:href="#m6fdf286554" y="304.510144"/>
     <use style="fill:#0000ff;" x="334.142149" xlink:href="#m6fdf286554" y="304.392975"/>
     <use style="fill:#0000ff;" x="338.241322" xlink:href="#m6fdf286554" y="304.364268"/>
     <use style="fill:#0000ff;" x="342.340496" xlink:href="#m6fdf286554" y="304.377861"/>
     <use style="fill:#0000ff;" x="346.439669" xlink:href="#m6fdf286554" y="304.142122"/>
     <use style="fill:#0000ff;" x="350.538843" xlink:href="#m6fdf286554" y="304.427756"/>
     <use style="fill:#0000ff;" x="354.638017" xlink:href="#m6fdf286554" y="304.448994"/>
     <use style="fill:#0000ff;" x="358.73719" xlink:href="#m6fdf286554" y="304.546243"/>
     <use style="fill:#0000ff;" x="362.836364" xlink:href="#m6fdf286554" y="304.75299"/>
     <use style="fill:#0000ff;" x="366.935537" xlink:href="#m6fdf286554" y="304.694892"/>
     <use style="fill:#0000ff;" x="371.034711" xlink:href="#m6fdf286554" y="304.166"/>
     <use style="fill:#0000ff;" x="375.133884" xlink:href="#m6fdf286554" y="304.407325"/>
     <use style="fill:#0000ff;" x="379.233058" xlink:href="#m6fdf286554" y="304.317198"/>
     <use style="fill:#0000ff;" x="383.332231" xlink:href="#m6fdf286554" y="303.963123"/>
     <use style="fill:#0000ff;" x="387.431405" xlink:href="#m6fdf286554" y="303.654179"/>
     <use style="fill:#0000ff;" x="391.530579" xlink:href="#m6fdf286554" y="303.362179"/>
     <use style="fill:#0000ff;" x="395.629752" xlink:href="#m6fdf286554" y="303.62707"/>
     <use style="fill:#0000ff;" x="399.728926" xlink:href="#m6fdf286554" y="304.018278"/>
     <use style="fill:#0000ff;" x="403.828099" xlink:href="#m6fdf286554" y="303.883183"/>
     <use style="fill:#0000ff;" x="407.927273" xlink:href="#m6fdf286554" y="304.241518"/>
     <use style="fill:#0000ff;" x="412.026446" xlink:href="#m6fdf286554" y="304.205164"/>
     <use style="fill:#0000ff;" x="416.12562" xlink:href="#m6fdf286554" y="304.2003"/>
     <use style="fill:#0000ff;" x="420.224793" xlink:href="#m6fdf286554" y="304.556127"/>
     <use style="fill:#0000ff;" x="424.323967" xlink:href="#m6fdf286554" y="304.633993"/>
     <use style="fill:#0000ff;" x="428.42314" xlink:href="#m6fdf286554" y="305.02994"/>
     <use style="fill:#0000ff;" x="432.522314" xlink:href="#m6fdf286554" y="304.925935"/>
     <use style="fill:#0000ff;" x="436.621488" xlink:href="#m6fdf286554" y="305.047705"/>
     <use style="fill:#0000ff;" x="440.720661" xlink:href="#m6fdf286554" y="305.292735"/>
     <use style="fill:#0000ff;" x="444.819835" xlink:href="#m6fdf286554" y="305.498323"/>
     <use style="fill:#0000ff;" x="448.919008" xlink:href="#m6fdf286554" y="305.325441"/>
     <use style="fill:#0000ff;" x="453.018182" xlink:href="#m6fdf286554" y="305.650917"/>
     <use style="fill:#0000ff;" x="457.117355" xlink:href="#m6fdf286554" y="305.371449"/>
     <use style="fill:#0000ff;" x="461.216529" xlink:href="#m6fdf286554" y="305.751784"/>
     <use style="fill:#0000ff;" x="465.315702" xlink:href="#m6fdf286554" y="304.880605"/>
     <use style="fill:#0000ff;" x="469.414876" xlink:href="#m6fdf286554" y="304.092761"/>
     <use style="fill:#0000ff;" x="473.51405" xlink:href="#m6fdf286554" y="304.298666"/>
     <use style="fill:#0000ff;" x="477.613223" xlink:href="#m6fdf286554" y="304.11849"/>
     <use style="fill:#0000ff;" x="481.712397" xlink:href="#m6fdf286554" y="303.410856"/>
     <use style="fill:#0000ff;" x="485.81157" xlink:href="#m6fdf286554" y="303.269244"/>
     <use style="fill:#0000ff;" x="489.910744" xlink:href="#m6fdf286554" y="302.644428"/>
     <use style="fill:#0000ff;" x="494.009917" xlink:href="#m6fdf286554" y="302.789763"/>
     <use style="fill:#0000ff;" x="498.109091" xlink:href="#m6fdf286554" y="302.993971"/>
    </g>
   </g>
   <g id="line2d_28">
    <path clip-path="url(#p026296f5b9)" d="M 92.290909 65.339777 
L 96.390083 65.222974 
L 100.489256 65.082251 
L 104.58843 64.936652 
L 108.687603 65.473941 
L 112.786777 65.763239 
L 116.88595 66.165267 
L 120.985124 66.165657 
L 125.084298 67.379437 
L 129.183471 67.512749 
L 133.282645 67.751724 
L 137.381818 67.760616 
L 141.480992 67.426647 
L 145.580165 67.244302 
L 149.679339 67.842459 
L 153.778512 67.052496 
L 157.877686 67.443314 
L 161.97686 66.483133 
L 166.076033 65.958085 
L 170.175207 65.813113 
L 174.27438 66.130223 
L 178.373554 65.58636 
L 182.472727 65.4818 
L 186.571901 65.184353 
L 190.671074 64.947521 
L 194.770248 63.673449 
L 198.869421 63.343046 
L 202.968595 63.518636 
L 207.067769 63.929537 
L 211.166942 63.640511 
L 215.266116 64.228118 
L 219.365289 64.00263 
L 223.464463 64.497876 
L 227.563636 65.207554 
L 231.66281 63.951066 
L 235.761983 63.590583 
L 239.861157 62.87142 
L 243.960331 61.38 
L 248.059504 61.695248 
L 252.158678 62.248604 
L 256.257851 62.380139 
L 260.357025 63.414556 
L 264.456198 62.560254 
L 268.555372 63.413396 
L 272.654545 64.332832 
L 276.753719 63.666571 
L 280.852893 63.369655 
L 284.952066 62.885684 
L 289.05124 62.574101 
L 293.150413 63.203511 
L 297.249587 63.127288 
L 301.34876 62.894585 
L 305.447934 63.3035 
L 309.547107 63.747952 
L 313.646281 64.177999 
L 317.745455 64.028858 
L 321.844628 64.023671 
L 325.943802 64.302749 
L 330.042975 64.33923 
L 334.142149 64.851968 
L 338.241322 64.588489 
L 342.340496 64.939655 
L 346.439669 65.307462 
L 350.538843 65.407579 
L 354.638017 64.823885 
L 358.73719 64.120796 
L 362.836364 63.643481 
L 366.935537 64.508212 
L 371.034711 64.262123 
L 375.133884 63.92144 
L 379.233058 63.835778 
L 383.332231 63.511107 
L 387.431405 64.255723 
L 391.530579 64.339441 
L 395.629752 63.311933 
L 399.728926 62.726755 
L 403.828099 62.892441 
L 407.927273 62.576304 
L 412.026446 63.476432 
L 416.12562 63.446593 
L 420.224793 63.53239 
L 424.323967 64.065599 
L 428.42314 64.351737 
L 432.522314 63.531977 
L 436.621488 63.622388 
L 440.720661 63.080227 
L 444.819835 63.572707 
L 448.919008 63.942923 
L 453.018182 63.531055 
L 457.117355 64.162936 
L 461.216529 64.666049 
L 465.315702 65.598762 
L 469.414876 66.286783 
L 473.51405 65.804648 
L 477.613223 65.713401 
L 481.712397 66.218421 
L 485.81157 66.391676 
L 489.910744 66.584859 
L 494.009917 65.920164 
L 498.109091 65.343031 
" style="fill:none;stroke:#000000;stroke-linecap:round;stroke-width:1.75;"/>
    <defs>
     <path d="M 0 3.5 
C 0.928211 3.5 1.81853 3.131218 2.474874 2.474874 
C 3.131218 1.81853 3.5 0.928211 3.5 0 
C 3.5 -0.928211 3.131218 -1.81853 2.474874 -2.474874 
C 1.81853 -3.131218 0.928211 -3.5 0 -3.5 
C -0.928211 -3.5 -1.81853 -3.131218 -2.474874 -2.474874 
C -3.131218 -1.81853 -3.5 -0.928211 -3.5 0 
C -3.5 0.928211 -3.131218 1.81853 -2.474874 2.474874 
C -1.81853 3.131218 -0.928211 3.5 0 3.5 
z
" id="ma058d8ca07"/>
    </defs>
    <g clip-path="url(#p026296f5b9)">
     <use x="92.290909" xlink:href="#ma058d8ca07" y="65.339777"/>
     <use x="96.390083" xlink:href="#ma058d8ca07" y="65.222974"/>
     <use x="100.489256" xlink:href="#ma058d8ca07" y="65.082251"/>
     <use x="104.58843" xlink:href="#ma058d8ca07" y="64.936652"/>
     <use x="108.687603" xlink:href="#ma058d8ca07" y="65.473941"/>
     <use x="112.786777" xlink:href="#ma058d8ca07" y="65.763239"/>
     <use x="116.88595" xlink:href="#ma058d8ca07" y="66.165267"/>
     <use x="120.985124" xlink:href="#ma058d8ca07" y="66.165657"/>
     <use x="125.084298" xlink:href="#ma058d8ca07" y="67.379437"/>
     <use x="129.183471" xlink:href="#ma058d8ca07" y="67.512749"/>
     <use x="133.282645" xlink:href="#ma058d8ca07" y="67.751724"/>
     <use x="137.381818" xlink:href="#ma058d8ca07" y="67.760616"/>
     <use x="141.480992" xlink:href="#ma058d8ca07" y="67.426647"/>
     <use x="145.580165" xlink:href="#ma058d8ca07" y="67.244302"/>
     <use x="149.679339" xlink:href="#ma058d8ca07" y="67.842459"/>
     <use x="153.778512" xlink:href="#ma058d8ca07" y="67.052496"/>
     <use x="157.877686" xlink:href="#ma058d8ca07" y="67.443314"/>
     <use x="161.97686" xlink:href="#ma058d8ca07" y="66.483133"/>
     <use x="166.076033" xlink:href="#ma058d8ca07" y="65.958085"/>
     <use x="170.175207" xlink:href="#ma058d8ca07" y="65.813113"/>
     <use x="174.27438" xlink:href="#ma058d8ca07" y="66.130223"/>
     <use x="178.373554" xlink:href="#ma058d8ca07" y="65.58636"/>
     <use x="182.472727" xlink:href="#ma058d8ca07" y="65.4818"/>
     <use x="186.571901" xlink:href="#ma058d8ca07" y="65.184353"/>
     <use x="190.671074" xlink:href="#ma058d8ca07" y="64.947521"/>
     <use x="194.770248" xlink:href="#ma058d8ca07" y="63.673449"/>
     <use x="198.869421" xlink:href="#ma058d8ca07" y="63.343046"/>
     <use x="202.968595" xlink:href="#ma058d8ca07" y="63.518636"/>
     <use x="207.067769" xlink:href="#ma058d8ca07" y="63.929537"/>
     <use x="211.166942" xlink:href="#ma058d8ca07" y="63.640511"/>
     <use x="215.266116" xlink:href="#ma058d8ca07" y="64.228118"/>
     <use x="219.365289" xlink:href="#ma058d8ca07" y="64.00263"/>
     <use x="223.464463" xlink:href="#ma058d8ca07" y="64.497876"/>
     <use x="227.563636" xlink:href="#ma058d8ca07" y="65.207554"/>
     <use x="231.66281" xlink:href="#ma058d8ca07" y="63.951066"/>
     <use x="235.761983" xlink:href="#ma058d8ca07" y="63.590583"/>
     <use x="239.861157" xlink:href="#ma058d8ca07" y="62.87142"/>
     <use x="243.960331" xlink:href="#ma058d8ca07" y="61.38"/>
     <use x="248.059504" xlink:href="#ma058d8ca07" y="61.695248"/>
     <use x="252.158678" xlink:href="#ma058d8ca07" y="62.248604"/>
     <use x="256.257851" xlink:href="#ma058d8ca07" y="62.380139"/>
     <use x="260.357025" xlink:href="#ma058d8ca07" y="63.414556"/>
     <use x="264.456198" xlink:href="#ma058d8ca07" y="62.560254"/>
     <use x="268.555372" xlink:href="#ma058d8ca07" y="63.413396"/>
     <use x="272.654545" xlink:href="#ma058d8ca07" y="64.332832"/>
     <use x="276.753719" xlink:href="#ma058d8ca07" y="63.666571"/>
     <use x="280.852893" xlink:href="#ma058d8ca07" y="63.369655"/>
     <use x="284.952066" xlink:href="#ma058d8ca07" y="62.885684"/>
     <use x="289.05124" xlink:href="#ma058d8ca07" y="62.574101"/>
     <use x="293.150413" xlink:href="#ma058d8ca07" y="63.203511"/>
     <use x="297.249587" xlink:href="#ma058d8ca07" y="63.127288"/>
     <use x="301.34876" xlink:href="#ma058d8ca07" y="62.894585"/>
     <use x="305.447934" xlink:href="#ma058d8ca07" y="63.3035"/>
     <use x="309.547107" xlink:href="#ma058d8ca07" y="63.747952"/>
     <use x="313.646281" xlink:href="#ma058d8ca07" y="64.177999"/>
     <use x="317.745455" xlink:href="#ma058d8ca07" y="64.028858"/>
     <use x="321.844628" xlink:href="#ma058d8ca07" y="64.023671"/>
     <use x="325.943802" xlink:href="#ma058d8ca07" y="64.302749"/>
     <use x="330.042975" xlink:href="#ma058d8ca07" y="64.33923"/>
     <use x="334.142149" xlink:href="#ma058d8ca07" y="64.851968"/>
     <use x="338.241322" xlink:href="#ma058d8ca07" y="64.588489"/>
     <use x="342.340496" xlink:href="#ma058d8ca07" y="64.939655"/>
     <use x="346.439669" xlink:href="#ma058d8ca07" y="65.307462"/>
     <use x="350.538843" xlink:href="#ma058d8ca07" y="65.407579"/>
     <use x="354.638017" xlink:href="#ma058d8ca07" y="64.823885"/>
     <use x="358.73719" xlink:href="#ma058d8ca07" y="64.120796"/>
     <use x="362.836364" xlink:href="#ma058d8ca07" y="63.643481"/>
     <use x="366.935537" xlink:href="#ma058d8ca07" y="64.508212"/>
     <use x="371.034711" xlink:href="#ma058d8ca07" y="64.262123"/>
     <use x="375.133884" xlink:href="#ma058d8ca07" y="63.92144"/>
     <use x="379.233058" xlink:href="#ma058d8ca07" y="63.835778"/>
     <use x="383.332231" xlink:href="#ma058d8ca07" y="63.511107"/>
     <use x="387.431405" xlink:href="#ma058d8ca07" y="64.255723"/>
     <use x="391.530579" xlink:href="#ma058d8ca07" y="64.339441"/>
     <use x="395.629752" xlink:href="#ma058d8ca07" y="63.311933"/>
     <use x="399.728926" xlink:href="#ma058d8ca07" y="62.726755"/>
     <use x="403.828099" xlink:href="#ma058d8ca07" y="62.892441"/>
     <use x="407.927273" xlink:href="#ma058d8ca07" y="62.576304"/>
     <use x="412.026446" xlink:href="#ma058d8ca07" y="63.476432"/>
     <use x="416.12562" xlink:href="#ma058d8ca07" y="63.446593"/>
     <use x="420.224793" xlink:href="#ma058d8ca07" y="63.53239"/>
     <use x="424.323967" xlink:href="#ma058d8ca07" y="64.065599"/>
     <use x="428.42314" xlink:href="#ma058d8ca07" y="64.351737"/>
     <use x="432.522314" xlink:href="#ma058d8ca07" y="63.531977"/>
     <use x="436.621488" xlink:href="#ma058d8ca07" y="63.622388"/>
     <use x="440.720661" xlink:href="#ma058d8ca07" y="63.080227"/>
     <use x="444.819835" xlink:href="#ma058d8ca07" y="63.572707"/>
     <use x="448.919008" xlink:href="#ma058d8ca07" y="63.942923"/>
     <use x="453.018182" xlink:href="#ma058d8ca07" y="63.531055"/>
     <use x="457.117355" xlink:href="#ma058d8ca07" y="64.162936"/>
     <use x="461.216529" xlink:href="#ma058d8ca07" y="64.666049"/>
     <use x="465.315702" xlink:href="#ma058d8ca07" y="65.598762"/>
     <use x="469.414876" xlink:href="#ma058d8ca07" y="66.286783"/>
     <use x="473.51405" xlink:href="#ma058d8ca07" y="65.804648"/>
     <use x="477.613223" xlink:href="#ma058d8ca07" y="65.713401"/>
     <use x="481.712397" xlink:href="#ma058d8ca07" y="66.218421"/>
     <use x="485.81157" xlink:href="#ma058d8ca07" y="66.391676"/>
     <use x="489.910744" xlink:href="#ma058d8ca07" y="66.584859"/>
     <use x="494.009917" xlink:href="#ma058d8ca07" y="65.920164"/>
     <use x="498.109091" xlink:href="#ma058d8ca07" y="65.343031"/>
    </g>
   </g>
   <g id="line2d_29">
    <path clip-path="url(#p026296f5b9)" d="M 92.290909 291.883585 
L 96.390083 291.997667 
L 100.489256 291.919832 
L 104.58843 292.149104 
L 108.687603 291.827355 
L 112.786777 291.630439 
L 116.88595 290.752345 
L 120.985124 290.670235 
L 125.084298 289.712754 
L 129.183471 289.556146 
L 133.282645 289.822551 
L 137.381818 289.075414 
L 141.480992 289.147867 
L 145.580165 289.992238 
L 149.679339 290.17291 
L 153.778512 290.83206 
L 157.877686 290.915159 
L 161.97686 291.338941 
L 166.076033 292.447369 
L 170.175207 293.163872 
L 174.27438 292.414817 
L 178.373554 292.221055 
L 182.472727 292.361133 
L 186.571901 291.949501 
L 190.671074 292.276144 
L 194.770248 292.347371 
L 198.869421 292.596482 
L 202.968595 292.433189 
L 207.067769 292.85902 
L 211.166942 292.597768 
L 215.266116 291.868909 
L 219.365289 291.143366 
L 223.464463 291.538025 
L 227.563636 290.304508 
L 231.66281 291.410051 
L 235.761983 291.297247 
L 239.861157 291.846644 
L 243.960331 293.543829 
L 248.059504 293.772296 
L 252.158678 293.108633 
L 256.257851 293.45558 
L 260.357025 292.476497 
L 264.456198 292.524299 
L 268.555372 291.912034 
L 272.654545 291.290219 
L 276.753719 291.979168 
L 280.852893 291.595507 
L 284.952066 291.337276 
L 289.05124 291.467333 
L 293.150413 290.984519 
L 297.249587 290.706643 
L 301.34876 290.614627 
L 305.447934 290.230482 
L 309.547107 290.601821 
L 313.646281 290.549963 
L 317.745455 291.040978 
L 321.844628 291.28925 
L 325.943802 291.205238 
L 330.042975 291.299454 
L 334.142149 290.81411 
L 338.241322 290.966362 
L 342.340496 290.725181 
L 346.439669 290.357717 
L 350.538843 290.04517 
L 354.638017 290.501502 
L 358.73719 290.879278 
L 362.836364 291.147887 
L 366.935537 290.352416 
L 371.034711 291.094102 
L 375.133884 291.163316 
L 379.233058 291.246708 
L 383.332231 291.984945 
L 387.431405 291.746931 
L 391.530579 291.788834 
L 395.629752 292.460665 
L 399.728926 292.558098 
L 403.828099 292.736342 
L 407.927273 292.847048 
L 412.026446 291.999502 
L 416.12562 291.880288 
L 420.224793 291.7214 
L 424.323967 291.316372 
L 428.42314 290.57162 
L 432.522314 291.344027 
L 436.621488 291.161906 
L 440.720661 291.367323 
L 444.819835 290.794614 
L 448.919008 290.648235 
L 453.018182 290.836378 
L 457.117355 290.580616 
L 461.216529 289.768258 
L 465.315702 289.827536 
L 469.414876 290.1008 
L 473.51405 290.107866 
L 477.613223 290.464045 
L 481.712397 290.500111 
L 485.81157 290.385136 
L 489.910744 290.822 
L 494.009917 290.983957 
L 498.109091 291.13026 
" style="fill:none;stroke:#bfbf00;stroke-linecap:round;stroke-width:1.75;"/>
    <defs>
     <path d="M 0 3.5 
C 0.928211 3.5 1.81853 3.131218 2.474874 2.474874 
C 3.131218 1.81853 3.5 0.928211 3.5 0 
C 3.5 -0.928211 3.131218 -1.81853 2.474874 -2.474874 
C 1.81853 -3.131218 0.928211 -3.5 0 -3.5 
C -0.928211 -3.5 -1.81853 -3.131218 -2.474874 -2.474874 
C -3.131218 -1.81853 -3.5 -0.928211 -3.5 0 
C -3.5 0.928211 -3.131218 1.81853 -2.474874 2.474874 
C -1.81853 3.131218 -0.928211 3.5 0 3.5 
z
" id="mecb76f5ef6"/>
    </defs>
    <g clip-path="url(#p026296f5b9)">
     <use style="fill:#bfbf00;" x="92.290909" xlink:href="#mecb76f5ef6" y="291.883585"/>
     <use style="fill:#bfbf00;" x="96.390083" xlink:href="#mecb76f5ef6" y="291.997667"/>
     <use style="fill:#bfbf00;" x="100.489256" xlink:href="#mecb76f5ef6" y="291.919832"/>
     <use style="fill:#bfbf00;" x="104.58843" xlink:href="#mecb76f5ef6" y="292.149104"/>
     <use style="fill:#bfbf00;" x="108.687603" xlink:href="#mecb76f5ef6" y="291.827355"/>
     <use style="fill:#bfbf00;" x="112.786777" xlink:href="#mecb76f5ef6" y="291.630439"/>
     <use style="fill:#bfbf00;" x="116.88595" xlink:href="#mecb76f5ef6" y="290.752345"/>
     <use style="fill:#bfbf00;" x="120.985124" xlink:href="#mecb76f5ef6" y="290.670235"/>
     <use style="fill:#bfbf00;" x="125.084298" xlink:href="#mecb76f5ef6" y="289.712754"/>
     <use style="fill:#bfbf00;" x="129.183471" xlink:href="#mecb76f5ef6" y="289.556146"/>
     <use style="fill:#bfbf00;" x="133.282645" xlink:href="#mecb76f5ef6" y="289.822551"/>
     <use style="fill:#bfbf00;" x="137.381818" xlink:href="#mecb76f5ef6" y="289.075414"/>
     <use style="fill:#bfbf00;" x="141.480992" xlink:href="#mecb76f5ef6" y="289.147867"/>
     <use style="fill:#bfbf00;" x="145.580165" xlink:href="#mecb76f5ef6" y="289.992238"/>
     <use style="fill:#bfbf00;" x="149.679339" xlink:href="#mecb76f5ef6" y="290.17291"/>
     <use style="fill:#bfbf00;" x="153.778512" xlink:href="#mecb76f5ef6" y="290.83206"/>
     <use style="fill:#bfbf00;" x="157.877686" xlink:href="#mecb76f5ef6" y="290.915159"/>
     <use style="fill:#bfbf00;" x="161.97686" xlink:href="#mecb76f5ef6" y="291.338941"/>
     <use style="fill:#bfbf00;" x="166.076033" xlink:href="#mecb76f5ef6" y="292.447369"/>
     <use style="fill:#bfbf00;" x="170.175207" xlink:href="#mecb76f5ef6" y="293.163872"/>
     <use style="fill:#bfbf00;" x="174.27438" xlink:href="#mecb76f5ef6" y="292.414817"/>
     <use style="fill:#bfbf00;" x="178.373554" xlink:href="#mecb76f5ef6" y="292.221055"/>
     <use style="fill:#bfbf00;" x="182.472727" xlink:href="#mecb76f5ef6" y="292.361133"/>
     <use style="fill:#bfbf00;" x="186.571901" xlink:href="#mecb76f5ef6" y="291.949501"/>
     <use style="fill:#bfbf00;" x="190.671074" xlink:href="#mecb76f5ef6" y="292.276144"/>
     <use style="fill:#bfbf00;" x="194.770248" xlink:href="#mecb76f5ef6" y="292.347371"/>
     <use style="fill:#bfbf00;" x="198.869421" xlink:href="#mecb76f5ef6" y="292.596482"/>
     <use style="fill:#bfbf00;" x="202.968595" xlink:href="#mecb76f5ef6" y="292.433189"/>
     <use style="fill:#bfbf00;" x="207.067769" xlink:href="#mecb76f5ef6" y="292.85902"/>
     <use style="fill:#bfbf00;" x="211.166942" xlink:href="#mecb76f5ef6" y="292.597768"/>
     <use style="fill:#bfbf00;" x="215.266116" xlink:href="#mecb76f5ef6" y="291.868909"/>
     <use style="fill:#bfbf00;" x="219.365289" xlink:href="#mecb76f5ef6" y="291.143366"/>
     <use style="fill:#bfbf00;" x="223.464463" xlink:href="#mecb76f5ef6" y="291.538025"/>
     <use style="fill:#bfbf00;" x="227.563636" xlink:href="#mecb76f5ef6" y="290.304508"/>
     <use style="fill:#bfbf00;" x="231.66281" xlink:href="#mecb76f5ef6" y="291.410051"/>
     <use style="fill:#bfbf00;" x="235.761983" xlink:href="#mecb76f5ef6" y="291.297247"/>
     <use style="fill:#bfbf00;" x="239.861157" xlink:href="#mecb76f5ef6" y="291.846644"/>
     <use style="fill:#bfbf00;" x="243.960331" xlink:href="#mecb76f5ef6" y="293.543829"/>
     <use style="fill:#bfbf00;" x="248.059504" xlink:href="#mecb76f5ef6" y="293.772296"/>
     <use style="fill:#bfbf00;" x="252.158678" xlink:href="#mecb76f5ef6" y="293.108633"/>
     <use style="fill:#bfbf00;" x="256.257851" xlink:href="#mecb76f5ef6" y="293.45558"/>
     <use style="fill:#bfbf00;" x="260.357025" xlink:href="#mecb76f5ef6" y="292.476497"/>
     <use style="fill:#bfbf00;" x="264.456198" xlink:href="#mecb76f5ef6" y="292.524299"/>
     <use style="fill:#bfbf00;" x="268.555372" xlink:href="#mecb76f5ef6" y="291.912034"/>
     <use style="fill:#bfbf00;" x="272.654545" xlink:href="#mecb76f5ef6" y="291.290219"/>
     <use style="fill:#bfbf00;" x="276.753719" xlink:href="#mecb76f5ef6" y="291.979168"/>
     <use style="fill:#bfbf00;" x="280.852893" xlink:href="#mecb76f5ef6" y="291.595507"/>
     <use style="fill:#bfbf00;" x="284.952066" xlink:href="#mecb76f5ef6" y="291.337276"/>
     <use style="fill:#bfbf00;" x="289.05124" xlink:href="#mecb76f5ef6" y="291.467333"/>
     <use style="fill:#bfbf00;" x="293.150413" xlink:href="#mecb76f5ef6" y="290.984519"/>
     <use style="fill:#bfbf00;" x="297.249587" xlink:href="#mecb76f5ef6" y="290.706643"/>
     <use style="fill:#bfbf00;" x="301.34876" xlink:href="#mecb76f5ef6" y="290.614627"/>
     <use style="fill:#bfbf00;" x="305.447934" xlink:href="#mecb76f5ef6" y="290.230482"/>
     <use style="fill:#bfbf00;" x="309.547107" xlink:href="#mecb76f5ef6" y="290.601821"/>
     <use style="fill:#bfbf00;" x="313.646281" xlink:href="#mecb76f5ef6" y="290.549963"/>
     <use style="fill:#bfbf00;" x="317.745455" xlink:href="#mecb76f5ef6" y="291.040978"/>
     <use style="fill:#bfbf00;" x="321.844628" xlink:href="#mecb76f5ef6" y="291.28925"/>
     <use style="fill:#bfbf00;" x="325.943802" xlink:href="#mecb76f5ef6" y="291.205238"/>
     <use style="fill:#bfbf00;" x="330.042975" xlink:href="#mecb76f5ef6" y="291.299454"/>
     <use style="fill:#bfbf00;" x="334.142149" xlink:href="#mecb76f5ef6" y="290.81411"/>
     <use style="fill:#bfbf00;" x="338.241322" xlink:href="#mecb76f5ef6" y="290.966362"/>
     <use style="fill:#bfbf00;" x="342.340496" xlink:href="#mecb76f5ef6" y="290.725181"/>
     <use style="fill:#bfbf00;" x="346.439669" xlink:href="#mecb76f5ef6" y="290.357717"/>
     <use style="fill:#bfbf00;" x="350.538843" xlink:href="#mecb76f5ef6" y="290.04517"/>
     <use style="fill:#bfbf00;" x="354.638017" xlink:href="#mecb76f5ef6" y="290.501502"/>
     <use style="fill:#bfbf00;" x="358.73719" xlink:href="#mecb76f5ef6" y="290.879278"/>
     <use style="fill:#bfbf00;" x="362.836364" xlink:href="#mecb76f5ef6" y="291.147887"/>
     <use style="fill:#bfbf00;" x="366.935537" xlink:href="#mecb76f5ef6" y="290.352416"/>
     <use style="fill:#bfbf00;" x="371.034711" xlink:href="#mecb76f5ef6" y="291.094102"/>
     <use style="fill:#bfbf00;" x="375.133884" xlink:href="#mecb76f5ef6" y="291.163316"/>
     <use style="fill:#bfbf00;" x="379.233058" xlink:href="#mecb76f5ef6" y="291.246708"/>
     <use style="fill:#bfbf00;" x="383.332231" xlink:href="#mecb76f5ef6" y="291.984945"/>
     <use style="fill:#bfbf00;" x="387.431405" xlink:href="#mecb76f5ef6" y="291.746931"/>
     <use style="fill:#bfbf00;" x="391.530579" xlink:href="#mecb76f5ef6" y="291.788834"/>
     <use style="fill:#bfbf00;" x="395.629752" xlink:href="#mecb76f5ef6" y="292.460665"/>
     <use style="fill:#bfbf00;" x="399.728926" xlink:href="#mecb76f5ef6" y="292.558098"/>
     <use style="fill:#bfbf00;" x="403.828099" xlink:href="#mecb76f5ef6" y="292.736342"/>
     <use style="fill:#bfbf00;" x="407.927273" xlink:href="#mecb76f5ef6" y="292.847048"/>
     <use style="fill:#bfbf00;" x="412.026446" xlink:href="#mecb76f5ef6" y="291.999502"/>
     <use style="fill:#bfbf00;" x="416.12562" xlink:href="#mecb76f5ef6" y="291.880288"/>
     <use style="fill:#bfbf00;" x="420.224793" xlink:href="#mecb76f5ef6" y="291.7214"/>
     <use style="fill:#bfbf00;" x="424.323967" xlink:href="#mecb76f5ef6" y="291.316372"/>
     <use style="fill:#bfbf00;" x="428.42314" xlink:href="#mecb76f5ef6" y="290.57162"/>
     <use style="fill:#bfbf00;" x="432.522314" xlink:href="#mecb76f5ef6" y="291.344027"/>
     <use style="fill:#bfbf00;" x="436.621488" xlink:href="#mecb76f5ef6" y="291.161906"/>
     <use style="fill:#bfbf00;" x="440.720661" xlink:href="#mecb76f5ef6" y="291.367323"/>
     <use style="fill:#bfbf00;" x="444.819835" xlink:href="#mecb76f5ef6" y="290.794614"/>
     <use style="fill:#bfbf00;" x="448.919008" xlink:href="#mecb76f5ef6" y="290.648235"/>
     <use style="fill:#bfbf00;" x="453.018182" xlink:href="#mecb76f5ef6" y="290.836378"/>
     <use style="fill:#bfbf00;" x="457.117355" xlink:href="#mecb76f5ef6" y="290.580616"/>
     <use style="fill:#bfbf00;" x="461.216529" xlink:href="#mecb76f5ef6" y="289.768258"/>
     <use style="fill:#bfbf00;" x="465.315702" xlink:href="#mecb76f5ef6" y="289.827536"/>
     <use style="fill:#bfbf00;" x="469.414876" xlink:href="#mecb76f5ef6" y="290.1008"/>
     <use style="fill:#bfbf00;" x="473.51405" xlink:href="#mecb76f5ef6" y="290.107866"/>
     <use style="fill:#bfbf00;" x="477.613223" xlink:href="#mecb76f5ef6" y="290.464045"/>
     <use style="fill:#bfbf00;" x="481.712397" xlink:href="#mecb76f5ef6" y="290.500111"/>
     <use style="fill:#bfbf00;" x="485.81157" xlink:href="#mecb76f5ef6" y="290.385136"/>
     <use style="fill:#bfbf00;" x="489.910744" xlink:href="#mecb76f5ef6" y="290.822"/>
     <use style="fill:#bfbf00;" x="494.009917" xlink:href="#mecb76f5ef6" y="290.983957"/>
     <use style="fill:#bfbf00;" x="498.109091" xlink:href="#mecb76f5ef6" y="291.13026"/>
    </g>
   </g>
   <g id="patch_3">
    <path d="M 72 352.44 
L 72 47.52 
" style="fill:none;"/>
   </g>
   <g id="patch_4">
    <path d="M 518.4 352.44 
L 518.4 47.52 
" style="fill:none;"/>
   </g>
   <g id="patch_5">
    <path d="M 72 352.44 
L 518.4 352.44 
" style="fill:none;"/>
   </g>
   <g id="patch_6">
    <path d="M 72 47.52 
L 518.4 47.52 
" style="fill:none;"/>
   </g>
   <g id="legend_1">
    <g id="line2d_30">
     <path d="M 81 170.715937 
L 101 170.715937 
" style="fill:none;stroke:#00bfbf;stroke-linecap:round;stroke-width:1.75;"/>
    </g>
    <g id="line2d_31">
     <g>
      <use style="fill:#00bfbf;" x="91" xlink:href="#mfd3acfd9f5" y="170.715937"/>
     </g>
    </g>
    <g id="text_15">
     <!-- AFINN -->
     <defs>
      <path d="M 8.203125 0 
L 8.203125 71.578125 
L 56.5 71.578125 
L 56.5 63.140625 
L 17.671875 63.140625 
L 17.671875 40.96875 
L 51.265625 40.96875 
L 51.265625 32.515625 
L 17.671875 32.515625 
L 17.671875 0 
z
" id="ArialMT-46"/>
      <path d="M 9.328125 0 
L 9.328125 71.578125 
L 18.796875 71.578125 
L 18.796875 0 
z
" id="ArialMT-49"/>
      <path d="M 7.625 0 
L 7.625 71.578125 
L 17.328125 71.578125 
L 54.9375 15.375 
L 54.9375 71.578125 
L 64.015625 71.578125 
L 64.015625 0 
L 54.296875 0 
L 16.703125 56.25 
L 16.703125 0 
z
" id="ArialMT-4e"/>
     </defs>
     <g style="fill:#262626;" transform="translate(109 174.215937)scale(0.1 -0.1)">
      <use xlink:href="#ArialMT-41"/>
      <use x="66.699219" xlink:href="#ArialMT-46"/>
      <use x="127.783203" xlink:href="#ArialMT-49"/>
      <use x="155.566406" xlink:href="#ArialMT-4e"/>
      <use x="227.783203" xlink:href="#ArialMT-4e"/>
     </g>
    </g>
    <g id="line2d_32">
     <path d="M 81 184.86125 
L 101 184.86125 
" style="fill:none;stroke:#008000;stroke-linecap:round;stroke-width:1.75;"/>
    </g>
    <g id="line2d_33">
     <g>
      <use style="fill:#008000;" x="91" xlink:href="#mb1c20c2640" y="184.86125"/>
     </g>
    </g>
    <g id="text_16">
     <!-- comp -->
     <defs>
      <path d="M 6.59375 -19.875 
L 6.59375 51.859375 
L 14.59375 51.859375 
L 14.59375 45.125 
Q 17.4375 49.078125 21 51.046875 
Q 24.5625 53.03125 29.640625 53.03125 
Q 36.28125 53.03125 41.359375 49.609375 
Q 46.4375 46.1875 49.015625 39.953125 
Q 51.609375 33.734375 51.609375 26.3125 
Q 51.609375 18.359375 48.75 11.984375 
Q 45.90625 5.609375 40.453125 2.21875 
Q 35.015625 -1.171875 29 -1.171875 
Q 24.609375 -1.171875 21.109375 0.6875 
Q 17.625 2.546875 15.375 5.375 
L 15.375 -19.875 
z
M 14.546875 25.640625 
Q 14.546875 15.625 18.59375 10.84375 
Q 22.65625 6.0625 28.421875 6.0625 
Q 34.28125 6.0625 38.453125 11.015625 
Q 42.625 15.96875 42.625 26.375 
Q 42.625 36.28125 38.546875 41.203125 
Q 34.46875 46.140625 28.8125 46.140625 
Q 23.1875 46.140625 18.859375 40.890625 
Q 14.546875 35.640625 14.546875 25.640625 
z
" id="ArialMT-70"/>
     </defs>
     <g style="fill:#262626;" transform="translate(109 188.36125)scale(0.1 -0.1)">
      <use xlink:href="#ArialMT-63"/>
      <use x="50" xlink:href="#ArialMT-6f"/>
      <use x="105.615234" xlink:href="#ArialMT-6d"/>
      <use x="188.916016" xlink:href="#ArialMT-70"/>
     </g>
    </g>
    <g id="line2d_34">
     <path d="M 81 199.006563 
L 101 199.006563 
" style="fill:none;stroke:#0000ff;stroke-linecap:round;stroke-width:1.75;"/>
    </g>
    <g id="line2d_35">
     <g>
      <use style="fill:#0000ff;" x="91" xlink:href="#m6fdf286554" y="199.006563"/>
     </g>
    </g>
    <g id="text_17">
     <!-- neg -->
     <g style="fill:#262626;" transform="translate(109 202.506563)scale(0.1 -0.1)">
      <use xlink:href="#ArialMT-6e"/>
      <use x="55.615234" xlink:href="#ArialMT-65"/>
      <use x="111.230469" xlink:href="#ArialMT-67"/>
     </g>
    </g>
    <g id="line2d_36">
     <path d="M 81 213.269062 
L 101 213.269062 
" style="fill:none;stroke:#000000;stroke-linecap:round;stroke-width:1.75;"/>
    </g>
    <g id="line2d_37">
     <g>
      <use x="91" xlink:href="#ma058d8ca07" y="213.269062"/>
     </g>
    </g>
    <g id="text_18">
     <!-- neu -->
     <g style="fill:#262626;" transform="translate(109 216.769062)scale(0.1 -0.1)">
      <use xlink:href="#ArialMT-6e"/>
      <use x="55.615234" xlink:href="#ArialMT-65"/>
      <use x="111.230469" xlink:href="#ArialMT-75"/>
     </g>
    </g>
    <g id="line2d_38">
     <path d="M 81 227.414375 
L 101 227.414375 
" style="fill:none;stroke:#bfbf00;stroke-linecap:round;stroke-width:1.75;"/>
    </g>
    <g id="line2d_39">
     <g>
      <use style="fill:#bfbf00;" x="91" xlink:href="#mecb76f5ef6" y="227.414375"/>
     </g>
    </g>
    <g id="text_19">
     <!-- pos -->
     <g style="fill:#262626;" transform="translate(109 230.914375)scale(0.1 -0.1)">
      <use xlink:href="#ArialMT-70"/>
      <use x="55.615234" xlink:href="#ArialMT-6f"/>
      <use x="111.230469" xlink:href="#ArialMT-73"/>
     </g>
    </g>
   </g>
  </g>
 </g>
 <defs>
  <clipPath id="p026296f5b9">
   <rect height="304.92" width="446.4" x="72" y="47.52"/>
  </clipPath>
 </defs>
</svg>
