<?xml version="1.0" encoding="utf-8" standalone="no"?>
<!DOCTYPE svg PUBLIC "-//W3C//DTD SVG 1.1//EN"
  "http://www.w3.org/Graphics/SVG/1.1/DTD/svg11.dtd">
<!-- Created with matplotlib (http://matplotlib.org/) -->
<svg height="396pt" version="1.1" viewBox="0 0 576 396" width="576pt" xmlns="http://www.w3.org/2000/svg" xmlns:xlink="http://www.w3.org/1999/xlink">
 <defs>
  <style type="text/css">
*{stroke-linecap:butt;stroke-linejoin:round;}
  </style>
 </defs>
 <g id="figure_1">
  <g id="patch_1">
   <path d="M 0 396 
L 576 396 
L 576 0 
L 0 0 
z
" style="fill:#ffffff;"/>
  </g>
  <g id="axes_1">
   <g id="patch_2">
    <path d="M 72 346.5 
L 518.4 346.5 
L 518.4 47.52 
L 72 47.52 
z
" style="fill:#eaeaf2;"/>
   </g>
   <g id="matplotlib.axis_1">
    <g id="xtick_1">
     <g id="line2d_1">
      <path clip-path="url(#pc079b0171c)" d="M 99.47888 346.5 
L 99.47888 47.52 
" style="fill:none;stroke:#ffffff;stroke-linecap:round;"/>
     </g>
     <g id="line2d_2"/>
     <g id="text_1">
      <!-- −3 -->
      <defs>
       <path d="M 52.828125 31.203125 
L 5.5625 31.203125 
L 5.5625 39.40625 
L 52.828125 39.40625 
z
" id="ArialMT-2212"/>
       <path d="M 4.203125 18.890625 
L 12.984375 20.0625 
Q 14.5 12.59375 18.140625 9.296875 
Q 21.78125 6 27 6 
Q 33.203125 6 37.46875 10.296875 
Q 41.75 14.59375 41.75 20.953125 
Q 41.75 27 37.796875 30.921875 
Q 33.84375 34.859375 27.734375 34.859375 
Q 25.25 34.859375 21.53125 33.890625 
L 22.515625 41.609375 
Q 23.390625 41.5 23.921875 41.5 
Q 29.546875 41.5 34.03125 44.421875 
Q 38.53125 47.359375 38.53125 53.46875 
Q 38.53125 58.296875 35.25 61.46875 
Q 31.984375 64.65625 26.8125 64.65625 
Q 21.6875 64.65625 18.265625 61.421875 
Q 14.84375 58.203125 13.875 51.765625 
L 5.078125 53.328125 
Q 6.6875 62.15625 12.390625 67.015625 
Q 18.109375 71.875 26.609375 71.875 
Q 32.46875 71.875 37.390625 69.359375 
Q 42.328125 66.84375 44.9375 62.5 
Q 47.5625 58.15625 47.5625 53.265625 
Q 47.5625 48.640625 45.0625 44.828125 
Q 42.578125 41.015625 37.703125 38.765625 
Q 44.046875 37.3125 47.5625 32.6875 
Q 51.078125 28.078125 51.078125 21.140625 
Q 51.078125 11.765625 44.234375 5.25 
Q 37.40625 -1.265625 26.953125 -1.265625 
Q 17.53125 -1.265625 11.296875 4.34375 
Q 5.078125 9.96875 4.203125 18.890625 
z
" id="ArialMT-33"/>
      </defs>
      <g style="fill:#262626;" transform="translate(93.778099 360.657812)scale(0.1 -0.1)">
       <use xlink:href="#ArialMT-2212"/>
       <use x="58.398438" xlink:href="#ArialMT-33"/>
      </g>
     </g>
    </g>
    <g id="xtick_2">
     <g id="line2d_3">
      <path clip-path="url(#pc079b0171c)" d="M 164.719253 346.5 
L 164.719253 47.52 
" style="fill:none;stroke:#ffffff;stroke-linecap:round;"/>
     </g>
     <g id="line2d_4"/>
     <g id="text_2">
      <!-- −2 -->
      <defs>
       <path d="M 50.34375 8.453125 
L 50.34375 0 
L 3.03125 0 
Q 2.9375 3.171875 4.046875 6.109375 
Q 5.859375 10.9375 9.828125 15.625 
Q 13.8125 20.3125 21.34375 26.46875 
Q 33.015625 36.03125 37.109375 41.625 
Q 41.21875 47.21875 41.21875 52.203125 
Q 41.21875 57.421875 37.46875 61 
Q 33.734375 64.59375 27.734375 64.59375 
Q 21.390625 64.59375 17.578125 60.78125 
Q 13.765625 56.984375 13.71875 50.25 
L 4.6875 51.171875 
Q 5.609375 61.28125 11.65625 66.578125 
Q 17.71875 71.875 27.9375 71.875 
Q 38.234375 71.875 44.234375 66.15625 
Q 50.25 60.453125 50.25 52 
Q 50.25 47.703125 48.484375 43.546875 
Q 46.734375 39.40625 42.65625 34.8125 
Q 38.578125 30.21875 29.109375 22.21875 
Q 21.1875 15.578125 18.9375 13.203125 
Q 16.703125 10.84375 15.234375 8.453125 
z
" id="ArialMT-32"/>
      </defs>
      <g style="fill:#262626;" transform="translate(159.018472 360.657812)scale(0.1 -0.1)">
       <use xlink:href="#ArialMT-2212"/>
       <use x="58.398438" xlink:href="#ArialMT-32"/>
      </g>
     </g>
    </g>
    <g id="xtick_3">
     <g id="line2d_5">
      <path clip-path="url(#pc079b0171c)" d="M 229.959627 346.5 
L 229.959627 47.52 
" style="fill:none;stroke:#ffffff;stroke-linecap:round;"/>
     </g>
     <g id="line2d_6"/>
     <g id="text_3">
      <!-- −1 -->
      <defs>
       <path d="M 37.25 0 
L 28.46875 0 
L 28.46875 56 
Q 25.296875 52.984375 20.140625 49.953125 
Q 14.984375 46.921875 10.890625 45.40625 
L 10.890625 53.90625 
Q 18.265625 57.375 23.78125 62.296875 
Q 29.296875 67.234375 31.59375 71.875 
L 37.25 71.875 
z
" id="ArialMT-31"/>
      </defs>
      <g style="fill:#262626;" transform="translate(224.258845 360.657812)scale(0.1 -0.1)">
       <use xlink:href="#ArialMT-2212"/>
       <use x="58.398438" xlink:href="#ArialMT-31"/>
      </g>
     </g>
    </g>
    <g id="xtick_4">
     <g id="line2d_7">
      <path clip-path="url(#pc079b0171c)" d="M 295.2 346.5 
L 295.2 47.52 
" style="fill:none;stroke:#ffffff;stroke-linecap:round;"/>
     </g>
     <g id="line2d_8"/>
     <g id="text_4">
      <!-- 0 -->
      <defs>
       <path d="M 4.15625 35.296875 
Q 4.15625 48 6.765625 55.734375 
Q 9.375 63.484375 14.515625 67.671875 
Q 19.671875 71.875 27.484375 71.875 
Q 33.25 71.875 37.59375 69.546875 
Q 41.9375 67.234375 44.765625 62.859375 
Q 47.609375 58.5 49.21875 52.21875 
Q 50.828125 45.953125 50.828125 35.296875 
Q 50.828125 22.703125 48.234375 14.96875 
Q 45.65625 7.234375 40.5 3 
Q 35.359375 -1.21875 27.484375 -1.21875 
Q 17.140625 -1.21875 11.234375 6.203125 
Q 4.15625 15.140625 4.15625 35.296875 
z
M 13.1875 35.296875 
Q 13.1875 17.671875 17.3125 11.828125 
Q 21.4375 6 27.484375 6 
Q 33.546875 6 37.671875 11.859375 
Q 41.796875 17.71875 41.796875 35.296875 
Q 41.796875 52.984375 37.671875 58.78125 
Q 33.546875 64.59375 27.390625 64.59375 
Q 21.34375 64.59375 17.71875 59.46875 
Q 13.1875 52.9375 13.1875 35.296875 
z
" id="ArialMT-30"/>
      </defs>
      <g style="fill:#262626;" transform="translate(292.419531 360.657812)scale(0.1 -0.1)">
       <use xlink:href="#ArialMT-30"/>
      </g>
     </g>
    </g>
    <g id="xtick_5">
     <g id="line2d_9">
      <path clip-path="url(#pc079b0171c)" d="M 360.440373 346.5 
L 360.440373 47.52 
" style="fill:none;stroke:#ffffff;stroke-linecap:round;"/>
     </g>
     <g id="line2d_10"/>
     <g id="text_5">
      <!-- 1 -->
      <g style="fill:#262626;" transform="translate(357.659905 360.657812)scale(0.1 -0.1)">
       <use xlink:href="#ArialMT-31"/>
      </g>
     </g>
    </g>
    <g id="xtick_6">
     <g id="line2d_11">
      <path clip-path="url(#pc079b0171c)" d="M 425.680747 346.5 
L 425.680747 47.52 
" style="fill:none;stroke:#ffffff;stroke-linecap:round;"/>
     </g>
     <g id="line2d_12"/>
     <g id="text_6">
      <!-- 2 -->
      <g style="fill:#262626;" transform="translate(422.900278 360.657812)scale(0.1 -0.1)">
       <use xlink:href="#ArialMT-32"/>
      </g>
     </g>
    </g>
    <g id="xtick_7">
     <g id="line2d_13">
      <path clip-path="url(#pc079b0171c)" d="M 490.92112 346.5 
L 490.92112 47.52 
" style="fill:none;stroke:#ffffff;stroke-linecap:round;"/>
     </g>
     <g id="line2d_14"/>
     <g id="text_7">
      <!-- 3 -->
      <g style="fill:#262626;" transform="translate(488.140651 360.657812)scale(0.1 -0.1)">
       <use xlink:href="#ArialMT-33"/>
      </g>
     </g>
    </g>
    <g id="text_8">
     <!-- Journal Phase, $\delta$ [radians] -->
     <defs>
      <path d="M 2.875 20.3125 
L 11.421875 21.484375 
Q 11.765625 13.28125 14.5 10.25 
Q 17.234375 7.234375 22.078125 7.234375 
Q 25.640625 7.234375 28.21875 8.859375 
Q 30.8125 10.5 31.78125 13.296875 
Q 32.765625 16.109375 32.765625 22.265625 
L 32.765625 71.578125 
L 42.234375 71.578125 
L 42.234375 22.796875 
Q 42.234375 13.8125 40.0625 8.875 
Q 37.890625 3.953125 33.171875 1.359375 
Q 28.46875 -1.21875 22.125 -1.21875 
Q 12.703125 -1.21875 7.6875 4.203125 
Q 2.6875 9.625 2.875 20.3125 
z
" id="ArialMT-4a"/>
      <path d="M 3.328125 25.921875 
Q 3.328125 40.328125 11.328125 47.265625 
Q 18.015625 53.03125 27.640625 53.03125 
Q 38.328125 53.03125 45.109375 46.015625 
Q 51.90625 39.015625 51.90625 26.65625 
Q 51.90625 16.65625 48.90625 10.90625 
Q 45.90625 5.171875 40.15625 2 
Q 34.421875 -1.171875 27.640625 -1.171875 
Q 16.75 -1.171875 10.03125 5.8125 
Q 3.328125 12.796875 3.328125 25.921875 
z
M 12.359375 25.921875 
Q 12.359375 15.96875 16.703125 11.015625 
Q 21.046875 6.0625 27.640625 6.0625 
Q 34.1875 6.0625 38.53125 11.03125 
Q 42.875 16.015625 42.875 26.21875 
Q 42.875 35.84375 38.5 40.796875 
Q 34.125 45.75 27.640625 45.75 
Q 21.046875 45.75 16.703125 40.8125 
Q 12.359375 35.890625 12.359375 25.921875 
z
" id="ArialMT-6f"/>
      <path d="M 40.578125 0 
L 40.578125 7.625 
Q 34.515625 -1.171875 24.125 -1.171875 
Q 19.53125 -1.171875 15.546875 0.578125 
Q 11.578125 2.34375 9.640625 5 
Q 7.71875 7.671875 6.9375 11.53125 
Q 6.390625 14.109375 6.390625 19.734375 
L 6.390625 51.859375 
L 15.1875 51.859375 
L 15.1875 23.09375 
Q 15.1875 16.21875 15.71875 13.8125 
Q 16.546875 10.359375 19.234375 8.375 
Q 21.921875 6.390625 25.875 6.390625 
Q 29.828125 6.390625 33.296875 8.421875 
Q 36.765625 10.453125 38.203125 13.9375 
Q 39.65625 17.4375 39.65625 24.078125 
L 39.65625 51.859375 
L 48.4375 51.859375 
L 48.4375 0 
z
" id="ArialMT-75"/>
      <path d="M 6.5 0 
L 6.5 51.859375 
L 14.40625 51.859375 
L 14.40625 44 
Q 17.4375 49.515625 20 51.265625 
Q 22.5625 53.03125 25.640625 53.03125 
Q 30.078125 53.03125 34.671875 50.203125 
L 31.640625 42.046875 
Q 28.421875 43.953125 25.203125 43.953125 
Q 22.3125 43.953125 20.015625 42.21875 
Q 17.71875 40.484375 16.75 37.40625 
Q 15.28125 32.71875 15.28125 27.15625 
L 15.28125 0 
z
" id="ArialMT-72"/>
      <path d="M 6.59375 0 
L 6.59375 51.859375 
L 14.5 51.859375 
L 14.5 44.484375 
Q 20.21875 53.03125 31 53.03125 
Q 35.6875 53.03125 39.625 51.34375 
Q 43.5625 49.65625 45.515625 46.921875 
Q 47.46875 44.1875 48.25 40.4375 
Q 48.734375 37.984375 48.734375 31.890625 
L 48.734375 0 
L 39.9375 0 
L 39.9375 31.546875 
Q 39.9375 36.921875 38.90625 39.578125 
Q 37.890625 42.234375 35.28125 43.8125 
Q 32.671875 45.40625 29.15625 45.40625 
Q 23.53125 45.40625 19.453125 41.84375 
Q 15.375 38.28125 15.375 28.328125 
L 15.375 0 
z
" id="ArialMT-6e"/>
      <path d="M 40.4375 6.390625 
Q 35.546875 2.25 31.03125 0.53125 
Q 26.515625 -1.171875 21.34375 -1.171875 
Q 12.796875 -1.171875 8.203125 3 
Q 3.609375 7.171875 3.609375 13.671875 
Q 3.609375 17.484375 5.34375 20.625 
Q 7.078125 23.78125 9.890625 25.6875 
Q 12.703125 27.59375 16.21875 28.5625 
Q 18.796875 29.25 24.03125 29.890625 
Q 34.671875 31.15625 39.703125 32.90625 
Q 39.75 34.71875 39.75 35.203125 
Q 39.75 40.578125 37.25 42.78125 
Q 33.890625 45.75 27.25 45.75 
Q 21.046875 45.75 18.09375 43.578125 
Q 15.140625 41.40625 13.71875 35.890625 
L 5.125 37.0625 
Q 6.296875 42.578125 8.984375 45.96875 
Q 11.671875 49.359375 16.75 51.1875 
Q 21.828125 53.03125 28.515625 53.03125 
Q 35.15625 53.03125 39.296875 51.46875 
Q 43.453125 49.90625 45.40625 47.53125 
Q 47.359375 45.171875 48.140625 41.546875 
Q 48.578125 39.3125 48.578125 33.453125 
L 48.578125 21.734375 
Q 48.578125 9.46875 49.140625 6.21875 
Q 49.703125 2.984375 51.375 0 
L 42.1875 0 
Q 40.828125 2.734375 40.4375 6.390625 
z
M 39.703125 26.03125 
Q 34.90625 24.078125 25.34375 22.703125 
Q 19.921875 21.921875 17.671875 20.9375 
Q 15.4375 19.96875 14.203125 18.09375 
Q 12.984375 16.21875 12.984375 13.921875 
Q 12.984375 10.40625 15.640625 8.0625 
Q 18.3125 5.71875 23.4375 5.71875 
Q 28.515625 5.71875 32.46875 7.9375 
Q 36.421875 10.15625 38.28125 14.015625 
Q 39.703125 17 39.703125 22.796875 
z
" id="ArialMT-61"/>
      <path d="M 6.390625 0 
L 6.390625 71.578125 
L 15.1875 71.578125 
L 15.1875 0 
z
" id="ArialMT-6c"/>
      <path id="ArialMT-20"/>
      <path d="M 7.71875 0 
L 7.71875 71.578125 
L 34.71875 71.578125 
Q 41.84375 71.578125 45.609375 70.90625 
Q 50.875 70.015625 54.4375 67.546875 
Q 58.015625 65.09375 60.1875 60.640625 
Q 62.359375 56.203125 62.359375 50.875 
Q 62.359375 41.75 56.546875 35.421875 
Q 50.734375 29.109375 35.546875 29.109375 
L 17.1875 29.109375 
L 17.1875 0 
z
M 17.1875 37.546875 
L 35.6875 37.546875 
Q 44.875 37.546875 48.734375 40.96875 
Q 52.59375 44.390625 52.59375 50.59375 
Q 52.59375 55.078125 50.3125 58.265625 
Q 48.046875 61.46875 44.34375 62.5 
Q 41.9375 63.140625 35.5 63.140625 
L 17.1875 63.140625 
z
" id="ArialMT-50"/>
      <path d="M 6.59375 0 
L 6.59375 71.578125 
L 15.375 71.578125 
L 15.375 45.90625 
Q 21.53125 53.03125 30.90625 53.03125 
Q 36.671875 53.03125 40.921875 50.75 
Q 45.171875 48.484375 47 44.484375 
Q 48.828125 40.484375 48.828125 32.859375 
L 48.828125 0 
L 40.046875 0 
L 40.046875 32.859375 
Q 40.046875 39.453125 37.1875 42.453125 
Q 34.328125 45.453125 29.109375 45.453125 
Q 25.203125 45.453125 21.75 43.421875 
Q 18.3125 41.40625 16.84375 37.9375 
Q 15.375 34.46875 15.375 28.375 
L 15.375 0 
z
" id="ArialMT-68"/>
      <path d="M 3.078125 15.484375 
L 11.765625 16.84375 
Q 12.5 11.625 15.84375 8.84375 
Q 19.1875 6.0625 25.203125 6.0625 
Q 31.25 6.0625 34.171875 8.515625 
Q 37.109375 10.984375 37.109375 14.3125 
Q 37.109375 17.28125 34.515625 19 
Q 32.71875 20.171875 25.53125 21.96875 
Q 15.875 24.421875 12.140625 26.203125 
Q 8.40625 27.984375 6.46875 31.125 
Q 4.546875 34.28125 4.546875 38.09375 
Q 4.546875 41.546875 6.125 44.5 
Q 7.71875 47.46875 10.453125 49.421875 
Q 12.5 50.921875 16.03125 51.96875 
Q 19.578125 53.03125 23.640625 53.03125 
Q 29.734375 53.03125 34.34375 51.265625 
Q 38.96875 49.515625 41.15625 46.5 
Q 43.359375 43.5 44.1875 38.484375 
L 35.59375 37.3125 
Q 35.015625 41.3125 32.203125 43.546875 
Q 29.390625 45.796875 24.265625 45.796875 
Q 18.21875 45.796875 15.625 43.796875 
Q 13.03125 41.796875 13.03125 39.109375 
Q 13.03125 37.40625 14.109375 36.03125 
Q 15.1875 34.625 17.484375 33.6875 
Q 18.796875 33.203125 25.25 31.453125 
Q 34.578125 28.953125 38.25 27.359375 
Q 41.9375 25.78125 44.03125 22.75 
Q 46.140625 19.734375 46.140625 15.234375 
Q 46.140625 10.84375 43.578125 6.953125 
Q 41.015625 3.078125 36.171875 0.953125 
Q 31.34375 -1.171875 25.25 -1.171875 
Q 15.140625 -1.171875 9.84375 3.03125 
Q 4.546875 7.234375 3.078125 15.484375 
z
" id="ArialMT-73"/>
      <path d="M 42.09375 16.703125 
L 51.171875 15.578125 
Q 49.03125 7.625 43.21875 3.21875 
Q 37.40625 -1.171875 28.375 -1.171875 
Q 17 -1.171875 10.328125 5.828125 
Q 3.65625 12.84375 3.65625 25.484375 
Q 3.65625 38.578125 10.390625 45.796875 
Q 17.140625 53.03125 27.875 53.03125 
Q 38.28125 53.03125 44.875 45.953125 
Q 51.46875 38.875 51.46875 26.03125 
Q 51.46875 25.25 51.421875 23.6875 
L 12.75 23.6875 
Q 13.234375 15.140625 17.578125 10.59375 
Q 21.921875 6.0625 28.421875 6.0625 
Q 33.25 6.0625 36.671875 8.59375 
Q 40.09375 11.140625 42.09375 16.703125 
z
M 13.234375 30.90625 
L 42.1875 30.90625 
Q 41.609375 37.453125 38.875 40.71875 
Q 34.671875 45.796875 27.984375 45.796875 
Q 21.921875 45.796875 17.796875 41.75 
Q 13.671875 37.703125 13.234375 30.90625 
z
" id="ArialMT-65"/>
      <path d="M 8.890625 0 
L 8.890625 10.015625 
L 18.890625 10.015625 
L 18.890625 0 
Q 18.890625 -5.515625 16.9375 -8.90625 
Q 14.984375 -12.3125 10.75 -14.15625 
L 8.296875 -10.40625 
Q 11.078125 -9.1875 12.390625 -6.8125 
Q 13.71875 -4.4375 13.875 0 
z
" id="ArialMT-2c"/>
      <path d="M 54.25 63.328125 
Q 49.953125 66.75 38.28125 66.75 
Q 25.921875 66.75 24.8125 61.03125 
Q 23.921875 56.546875 36.375 54.203125 
Q 46.140625 52.390625 50.828125 46.921875 
Q 56.5 40.328125 53.859375 26.8125 
Q 51.3125 13.875 43.171875 6.25 
Q 34.96875 -1.421875 23.25 -1.421875 
Q 11.578125 -1.421875 6.34375 6.25 
Q 1.125 13.875 3.765625 27.296875 
Q 5.671875 37.25 13.921875 45.3125 
Q 17.140625 48.4375 21.140625 50.203125 
Q 14.265625 54.046875 15.625 60.9375 
Q 18.21875 74.21875 39.75 74.21875 
Q 50.53125 74.21875 55.71875 70.796875 
z
M 27.390625 47.75 
Q 23.828125 46.34375 20.40625 42.78125 
Q 15.140625 37.25 13.234375 27.296875 
Q 11.28125 17.390625 14.359375 11.8125 
Q 17.484375 6.203125 24.75 6.203125 
Q 31.9375 6.203125 37.203125 11.859375 
Q 42.53125 17.53125 44.34375 26.8125 
Q 46.1875 36.53125 42.671875 41.21875 
Q 38.921875 46.234375 32.859375 46.78125 
Q 29.78125 47.078125 27.390625 47.75 
z
" id="DejaVuSans-Oblique-3b4"/>
      <path d="M 6.78125 -19.875 
L 6.78125 71.578125 
L 26.171875 71.578125 
L 26.171875 64.3125 
L 15.578125 64.3125 
L 15.578125 -12.59375 
L 26.171875 -12.59375 
L 26.171875 -19.875 
z
" id="ArialMT-5b"/>
      <path d="M 40.234375 0 
L 40.234375 6.546875 
Q 35.296875 -1.171875 25.734375 -1.171875 
Q 19.53125 -1.171875 14.328125 2.25 
Q 9.125 5.671875 6.265625 11.796875 
Q 3.421875 17.921875 3.421875 25.875 
Q 3.421875 33.640625 6 39.96875 
Q 8.59375 46.296875 13.765625 49.65625 
Q 18.953125 53.03125 25.34375 53.03125 
Q 30.03125 53.03125 33.6875 51.046875 
Q 37.359375 49.078125 39.65625 45.90625 
L 39.65625 71.578125 
L 48.390625 71.578125 
L 48.390625 0 
z
M 12.453125 25.875 
Q 12.453125 15.921875 16.640625 10.984375 
Q 20.84375 6.0625 26.5625 6.0625 
Q 32.328125 6.0625 36.34375 10.765625 
Q 40.375 15.484375 40.375 25.140625 
Q 40.375 35.796875 36.265625 40.765625 
Q 32.171875 45.75 26.171875 45.75 
Q 20.3125 45.75 16.375 40.96875 
Q 12.453125 36.1875 12.453125 25.875 
z
" id="ArialMT-64"/>
      <path d="M 6.640625 61.46875 
L 6.640625 71.578125 
L 15.4375 71.578125 
L 15.4375 61.46875 
z
M 6.640625 0 
L 6.640625 51.859375 
L 15.4375 51.859375 
L 15.4375 0 
z
" id="ArialMT-69"/>
      <path d="M 21.296875 -19.875 
L 1.90625 -19.875 
L 1.90625 -12.59375 
L 12.5 -12.59375 
L 12.5 64.3125 
L 1.90625 64.3125 
L 1.90625 71.578125 
L 21.296875 71.578125 
z
" id="ArialMT-5d"/>
     </defs>
     <g style="fill:#262626;" transform="translate(230.96 374.895312)scale(0.11 -0.11)">
      <use transform="translate(0 0.78125)" xlink:href="#ArialMT-4a"/>
      <use transform="translate(50 0.78125)" xlink:href="#ArialMT-6f"/>
      <use transform="translate(105.615234 0.78125)" xlink:href="#ArialMT-75"/>
      <use transform="translate(161.230469 0.78125)" xlink:href="#ArialMT-72"/>
      <use transform="translate(194.53125 0.78125)" xlink:href="#ArialMT-6e"/>
      <use transform="translate(250.146484 0.78125)" xlink:href="#ArialMT-61"/>
      <use transform="translate(305.761719 0.78125)" xlink:href="#ArialMT-6c"/>
      <use transform="translate(327.978516 0.78125)" xlink:href="#ArialMT-20"/>
      <use transform="translate(355.761719 0.78125)" xlink:href="#ArialMT-50"/>
      <use transform="translate(422.460938 0.78125)" xlink:href="#ArialMT-68"/>
      <use transform="translate(478.076172 0.78125)" xlink:href="#ArialMT-61"/>
      <use transform="translate(533.691406 0.78125)" xlink:href="#ArialMT-73"/>
      <use transform="translate(583.691406 0.78125)" xlink:href="#ArialMT-65"/>
      <use transform="translate(639.306641 0.78125)" xlink:href="#ArialMT-2c"/>
      <use transform="translate(667.089844 0.78125)" xlink:href="#ArialMT-20"/>
      <use transform="translate(694.873047 0.78125)" xlink:href="#DejaVuSans-Oblique-3b4"/>
      <use transform="translate(756.054688 0.78125)" xlink:href="#ArialMT-20"/>
      <use transform="translate(783.837891 0.78125)" xlink:href="#ArialMT-5b"/>
      <use transform="translate(811.621094 0.78125)" xlink:href="#ArialMT-72"/>
      <use transform="translate(844.921875 0.78125)" xlink:href="#ArialMT-61"/>
      <use transform="translate(900.537109 0.78125)" xlink:href="#ArialMT-64"/>
      <use transform="translate(956.152344 0.78125)" xlink:href="#ArialMT-69"/>
      <use transform="translate(978.369141 0.78125)" xlink:href="#ArialMT-61"/>
      <use transform="translate(1033.984375 0.78125)" xlink:href="#ArialMT-6e"/>
      <use transform="translate(1089.599609 0.78125)" xlink:href="#ArialMT-73"/>
      <use transform="translate(1139.599609 0.78125)" xlink:href="#ArialMT-5d"/>
     </g>
    </g>
   </g>
   <g id="matplotlib.axis_2">
    <g id="ytick_1">
     <g id="line2d_15">
      <path clip-path="url(#pc079b0171c)" d="M 72 327.006124 
L 518.4 327.006124 
" style="fill:none;stroke:#ffffff;stroke-linecap:round;"/>
     </g>
     <g id="line2d_16"/>
     <g id="text_9">
      <!-- −0.2 -->
      <defs>
       <path d="M 9.078125 0 
L 9.078125 10.015625 
L 19.09375 10.015625 
L 19.09375 0 
z
" id="ArialMT-2e"/>
      </defs>
      <g style="fill:#262626;" transform="translate(45.259375 330.58503)scale(0.1 -0.1)">
       <use xlink:href="#ArialMT-2212"/>
       <use x="58.398438" xlink:href="#ArialMT-30"/>
       <use x="114.013672" xlink:href="#ArialMT-2e"/>
       <use x="141.796875" xlink:href="#ArialMT-32"/>
      </g>
     </g>
    </g>
    <g id="ytick_2">
     <g id="line2d_17">
      <path clip-path="url(#pc079b0171c)" d="M 72 276.23279 
L 518.4 276.23279 
" style="fill:none;stroke:#ffffff;stroke-linecap:round;"/>
     </g>
     <g id="line2d_18"/>
     <g id="text_10">
      <!-- 0.0 -->
      <g style="fill:#262626;" transform="translate(51.1 279.811696)scale(0.1 -0.1)">
       <use xlink:href="#ArialMT-30"/>
       <use x="55.615234" xlink:href="#ArialMT-2e"/>
       <use x="83.398438" xlink:href="#ArialMT-30"/>
      </g>
     </g>
    </g>
    <g id="ytick_3">
     <g id="line2d_19">
      <path clip-path="url(#pc079b0171c)" d="M 72 225.459455 
L 518.4 225.459455 
" style="fill:none;stroke:#ffffff;stroke-linecap:round;"/>
     </g>
     <g id="line2d_20"/>
     <g id="text_11">
      <!-- 0.2 -->
      <g style="fill:#262626;" transform="translate(51.1 229.038361)scale(0.1 -0.1)">
       <use xlink:href="#ArialMT-30"/>
       <use x="55.615234" xlink:href="#ArialMT-2e"/>
       <use x="83.398438" xlink:href="#ArialMT-32"/>
      </g>
     </g>
    </g>
    <g id="ytick_4">
     <g id="line2d_21">
      <path clip-path="url(#pc079b0171c)" d="M 72 174.686121 
L 518.4 174.686121 
" style="fill:none;stroke:#ffffff;stroke-linecap:round;"/>
     </g>
     <g id="line2d_22"/>
     <g id="text_12">
      <!-- 0.4 -->
      <defs>
       <path d="M 32.328125 0 
L 32.328125 17.140625 
L 1.265625 17.140625 
L 1.265625 25.203125 
L 33.9375 71.578125 
L 41.109375 71.578125 
L 41.109375 25.203125 
L 50.78125 25.203125 
L 50.78125 17.140625 
L 41.109375 17.140625 
L 41.109375 0 
z
M 32.328125 25.203125 
L 32.328125 57.46875 
L 9.90625 25.203125 
z
" id="ArialMT-34"/>
      </defs>
      <g style="fill:#262626;" transform="translate(51.1 178.265027)scale(0.1 -0.1)">
       <use xlink:href="#ArialMT-30"/>
       <use x="55.615234" xlink:href="#ArialMT-2e"/>
       <use x="83.398438" xlink:href="#ArialMT-34"/>
      </g>
     </g>
    </g>
    <g id="ytick_5">
     <g id="line2d_23">
      <path clip-path="url(#pc079b0171c)" d="M 72 123.912786 
L 518.4 123.912786 
" style="fill:none;stroke:#ffffff;stroke-linecap:round;"/>
     </g>
     <g id="line2d_24"/>
     <g id="text_13">
      <!-- 0.6 -->
      <defs>
       <path d="M 49.75 54.046875 
L 41.015625 53.375 
Q 39.84375 58.546875 37.703125 60.890625 
Q 34.125 64.65625 28.90625 64.65625 
Q 24.703125 64.65625 21.53125 62.3125 
Q 17.390625 59.28125 14.984375 53.46875 
Q 12.59375 47.65625 12.5 36.921875 
Q 15.671875 41.75 20.265625 44.09375 
Q 24.859375 46.4375 29.890625 46.4375 
Q 38.671875 46.4375 44.84375 39.96875 
Q 51.03125 33.5 51.03125 23.25 
Q 51.03125 16.5 48.125 10.71875 
Q 45.21875 4.9375 40.140625 1.859375 
Q 35.0625 -1.21875 28.609375 -1.21875 
Q 17.625 -1.21875 10.6875 6.859375 
Q 3.765625 14.9375 3.765625 33.5 
Q 3.765625 54.25 11.421875 63.671875 
Q 18.109375 71.875 29.4375 71.875 
Q 37.890625 71.875 43.28125 67.140625 
Q 48.6875 62.40625 49.75 54.046875 
z
M 13.875 23.1875 
Q 13.875 18.65625 15.796875 14.5 
Q 17.71875 10.359375 21.1875 8.171875 
Q 24.65625 6 28.46875 6 
Q 34.03125 6 38.03125 10.484375 
Q 42.046875 14.984375 42.046875 22.703125 
Q 42.046875 30.125 38.078125 34.390625 
Q 34.125 38.671875 28.125 38.671875 
Q 22.171875 38.671875 18.015625 34.390625 
Q 13.875 30.125 13.875 23.1875 
z
" id="ArialMT-36"/>
      </defs>
      <g style="fill:#262626;" transform="translate(51.1 127.491693)scale(0.1 -0.1)">
       <use xlink:href="#ArialMT-30"/>
       <use x="55.615234" xlink:href="#ArialMT-2e"/>
       <use x="83.398438" xlink:href="#ArialMT-36"/>
      </g>
     </g>
    </g>
    <g id="ytick_6">
     <g id="line2d_25">
      <path clip-path="url(#pc079b0171c)" d="M 72 73.139452 
L 518.4 73.139452 
" style="fill:none;stroke:#ffffff;stroke-linecap:round;"/>
     </g>
     <g id="line2d_26"/>
     <g id="text_14">
      <!-- 0.8 -->
      <defs>
       <path d="M 17.671875 38.8125 
Q 12.203125 40.828125 9.5625 44.53125 
Q 6.9375 48.25 6.9375 53.421875 
Q 6.9375 61.234375 12.546875 66.546875 
Q 18.171875 71.875 27.484375 71.875 
Q 36.859375 71.875 42.578125 66.421875 
Q 48.296875 60.984375 48.296875 53.171875 
Q 48.296875 48.1875 45.671875 44.5 
Q 43.0625 40.828125 37.75 38.8125 
Q 44.34375 36.671875 47.78125 31.875 
Q 51.21875 27.09375 51.21875 20.453125 
Q 51.21875 11.28125 44.71875 5.03125 
Q 38.234375 -1.21875 27.640625 -1.21875 
Q 17.046875 -1.21875 10.546875 5.046875 
Q 4.046875 11.328125 4.046875 20.703125 
Q 4.046875 27.6875 7.59375 32.390625 
Q 11.140625 37.109375 17.671875 38.8125 
z
M 15.921875 53.71875 
Q 15.921875 48.640625 19.1875 45.40625 
Q 22.46875 42.1875 27.6875 42.1875 
Q 32.765625 42.1875 36.015625 45.375 
Q 39.265625 48.578125 39.265625 53.21875 
Q 39.265625 58.0625 35.90625 61.359375 
Q 32.5625 64.65625 27.59375 64.65625 
Q 22.5625 64.65625 19.234375 61.421875 
Q 15.921875 58.203125 15.921875 53.71875 
z
M 13.09375 20.65625 
Q 13.09375 16.890625 14.875 13.375 
Q 16.65625 9.859375 20.171875 7.921875 
Q 23.6875 6 27.734375 6 
Q 34.03125 6 38.125 10.046875 
Q 42.234375 14.109375 42.234375 20.359375 
Q 42.234375 26.703125 38.015625 30.859375 
Q 33.796875 35.015625 27.4375 35.015625 
Q 21.234375 35.015625 17.15625 30.90625 
Q 13.09375 26.8125 13.09375 20.65625 
z
" id="ArialMT-38"/>
      </defs>
      <g style="fill:#262626;" transform="translate(51.1 76.718358)scale(0.1 -0.1)">
       <use xlink:href="#ArialMT-30"/>
       <use x="55.615234" xlink:href="#ArialMT-2e"/>
       <use x="83.398438" xlink:href="#ArialMT-38"/>
      </g>
     </g>
    </g>
    <g id="text_15">
     <!-- Average Sentiment Score, $\overline{\Sigma}$ [dimensionless] -->
     <defs>
      <path d="M -0.140625 0 
L 27.34375 71.578125 
L 37.546875 71.578125 
L 66.84375 0 
L 56.0625 0 
L 47.703125 21.6875 
L 17.78125 21.6875 
L 9.90625 0 
z
M 20.515625 29.390625 
L 44.78125 29.390625 
L 37.3125 49.21875 
Q 33.890625 58.25 32.234375 64.0625 
Q 30.859375 57.171875 28.375 50.390625 
z
" id="ArialMT-41"/>
      <path d="M 21 0 
L 1.265625 51.859375 
L 10.546875 51.859375 
L 21.6875 20.796875 
Q 23.484375 15.765625 25 10.359375 
Q 26.171875 14.453125 28.265625 20.21875 
L 39.796875 51.859375 
L 48.828125 51.859375 
L 29.203125 0 
z
" id="ArialMT-76"/>
      <path d="M 4.984375 -4.296875 
L 13.53125 -5.5625 
Q 14.0625 -9.515625 16.5 -11.328125 
Q 19.78125 -13.765625 25.4375 -13.765625 
Q 31.546875 -13.765625 34.859375 -11.328125 
Q 38.1875 -8.890625 39.359375 -4.5 
Q 40.046875 -1.8125 39.984375 6.78125 
Q 34.234375 0 25.640625 0 
Q 14.9375 0 9.078125 7.71875 
Q 3.21875 15.4375 3.21875 26.21875 
Q 3.21875 33.640625 5.90625 39.90625 
Q 8.59375 46.1875 13.6875 49.609375 
Q 18.796875 53.03125 25.6875 53.03125 
Q 34.859375 53.03125 40.828125 45.609375 
L 40.828125 51.859375 
L 48.921875 51.859375 
L 48.921875 7.03125 
Q 48.921875 -5.078125 46.453125 -10.125 
Q 44 -15.1875 38.640625 -18.109375 
Q 33.296875 -21.046875 25.484375 -21.046875 
Q 16.21875 -21.046875 10.5 -16.875 
Q 4.78125 -12.703125 4.984375 -4.296875 
z
M 12.25 26.859375 
Q 12.25 16.65625 16.296875 11.96875 
Q 20.359375 7.28125 26.46875 7.28125 
Q 32.515625 7.28125 36.609375 11.9375 
Q 40.71875 16.609375 40.71875 26.5625 
Q 40.71875 36.078125 36.5 40.90625 
Q 32.28125 45.75 26.3125 45.75 
Q 20.453125 45.75 16.34375 40.984375 
Q 12.25 36.234375 12.25 26.859375 
z
" id="ArialMT-67"/>
      <path d="M 4.5 23 
L 13.421875 23.78125 
Q 14.0625 18.40625 16.375 14.96875 
Q 18.703125 11.53125 23.578125 9.40625 
Q 28.46875 7.28125 34.578125 7.28125 
Q 39.984375 7.28125 44.140625 8.890625 
Q 48.296875 10.5 50.3125 13.296875 
Q 52.34375 16.109375 52.34375 19.4375 
Q 52.34375 22.796875 50.390625 25.3125 
Q 48.4375 27.828125 43.953125 29.546875 
Q 41.0625 30.671875 31.203125 33.03125 
Q 21.34375 35.40625 17.390625 37.5 
Q 12.25 40.1875 9.734375 44.15625 
Q 7.234375 48.140625 7.234375 53.078125 
Q 7.234375 58.5 10.296875 63.203125 
Q 13.375 67.921875 19.28125 70.359375 
Q 25.203125 72.796875 32.421875 72.796875 
Q 40.375 72.796875 46.453125 70.234375 
Q 52.546875 67.671875 55.8125 62.6875 
Q 59.078125 57.71875 59.328125 51.421875 
L 50.25 50.734375 
Q 49.515625 57.515625 45.28125 60.984375 
Q 41.0625 64.453125 32.8125 64.453125 
Q 24.21875 64.453125 20.28125 61.296875 
Q 16.359375 58.15625 16.359375 53.71875 
Q 16.359375 49.859375 19.140625 47.359375 
Q 21.875 44.875 33.421875 42.265625 
Q 44.96875 39.65625 49.265625 37.703125 
Q 55.515625 34.8125 58.484375 30.390625 
Q 61.46875 25.984375 61.46875 20.21875 
Q 61.46875 14.5 58.203125 9.4375 
Q 54.9375 4.390625 48.796875 1.578125 
Q 42.671875 -1.21875 35.015625 -1.21875 
Q 25.296875 -1.21875 18.71875 1.609375 
Q 12.15625 4.4375 8.421875 10.125 
Q 4.6875 15.828125 4.5 23 
z
" id="ArialMT-53"/>
      <path d="M 25.78125 7.859375 
L 27.046875 0.09375 
Q 23.34375 -0.6875 20.40625 -0.6875 
Q 15.625 -0.6875 12.984375 0.828125 
Q 10.359375 2.34375 9.28125 4.8125 
Q 8.203125 7.28125 8.203125 15.1875 
L 8.203125 45.015625 
L 1.765625 45.015625 
L 1.765625 51.859375 
L 8.203125 51.859375 
L 8.203125 64.703125 
L 16.9375 69.96875 
L 16.9375 51.859375 
L 25.78125 51.859375 
L 25.78125 45.015625 
L 16.9375 45.015625 
L 16.9375 14.703125 
Q 16.9375 10.9375 17.40625 9.859375 
Q 17.875 8.796875 18.921875 8.15625 
Q 19.96875 7.515625 21.921875 7.515625 
Q 23.390625 7.515625 25.78125 7.859375 
z
" id="ArialMT-74"/>
      <path d="M 6.59375 0 
L 6.59375 51.859375 
L 14.453125 51.859375 
L 14.453125 44.578125 
Q 16.890625 48.390625 20.9375 50.703125 
Q 25 53.03125 30.171875 53.03125 
Q 35.9375 53.03125 39.625 50.640625 
Q 43.3125 48.25 44.828125 43.953125 
Q 50.984375 53.03125 60.84375 53.03125 
Q 68.5625 53.03125 72.703125 48.75 
Q 76.859375 44.484375 76.859375 35.59375 
L 76.859375 0 
L 68.109375 0 
L 68.109375 32.671875 
Q 68.109375 37.9375 67.25 40.25 
Q 66.40625 42.578125 64.15625 43.984375 
Q 61.921875 45.40625 58.890625 45.40625 
Q 53.421875 45.40625 49.796875 41.765625 
Q 46.1875 38.140625 46.1875 30.125 
L 46.1875 0 
L 37.40625 0 
L 37.40625 33.6875 
Q 37.40625 39.546875 35.25 42.46875 
Q 33.109375 45.40625 28.21875 45.40625 
Q 24.515625 45.40625 21.359375 43.453125 
Q 18.21875 41.5 16.796875 37.734375 
Q 15.375 33.984375 15.375 26.90625 
L 15.375 0 
z
" id="ArialMT-6d"/>
      <path d="M 40.4375 19 
L 49.078125 17.875 
Q 47.65625 8.9375 41.8125 3.875 
Q 35.984375 -1.171875 27.484375 -1.171875 
Q 16.84375 -1.171875 10.375 5.78125 
Q 3.90625 12.75 3.90625 25.734375 
Q 3.90625 34.125 6.6875 40.421875 
Q 9.46875 46.734375 15.15625 49.875 
Q 20.84375 53.03125 27.546875 53.03125 
Q 35.984375 53.03125 41.359375 48.75 
Q 46.734375 44.484375 48.25 36.625 
L 39.703125 35.296875 
Q 38.484375 40.53125 35.375 43.15625 
Q 32.28125 45.796875 27.875 45.796875 
Q 21.234375 45.796875 17.078125 41.03125 
Q 12.9375 36.28125 12.9375 25.984375 
Q 12.9375 15.53125 16.9375 10.796875 
Q 20.953125 6.0625 27.390625 6.0625 
Q 32.5625 6.0625 36.03125 9.234375 
Q 39.5 12.40625 40.4375 19 
z
" id="ArialMT-63"/>
      <path d="M 21.140625 8.296875 
L 56.78125 8.296875 
L 56.78125 0 
L 9.8125 0 
L 9.8125 8.296875 
L 33.203125 38.765625 
L 9.8125 64.59375 
L 9.8125 72.90625 
L 55.90625 72.90625 
L 55.90625 64.59375 
L 21.140625 64.59375 
L 44.53125 38.96875 
z
" id="DejaVuSans-3a3"/>
     </defs>
     <g style="fill:#262626;" transform="translate(38.839375 305.69)rotate(-90)scale(0.11 -0.11)">
      <use transform="translate(0 0.34375)" xlink:href="#ArialMT-41"/>
      <use transform="translate(66.699219 0.34375)" xlink:href="#ArialMT-76"/>
      <use transform="translate(116.699219 0.34375)" xlink:href="#ArialMT-65"/>
      <use transform="translate(172.314453 0.34375)" xlink:href="#ArialMT-72"/>
      <use transform="translate(205.615234 0.34375)" xlink:href="#ArialMT-61"/>
      <use transform="translate(261.230469 0.34375)" xlink:href="#ArialMT-67"/>
      <use transform="translate(316.845703 0.34375)" xlink:href="#ArialMT-65"/>
      <use transform="translate(372.460938 0.34375)" xlink:href="#ArialMT-20"/>
      <use transform="translate(400.244141 0.34375)" xlink:href="#ArialMT-53"/>
      <use transform="translate(466.943359 0.34375)" xlink:href="#ArialMT-65"/>
      <use transform="translate(522.558594 0.34375)" xlink:href="#ArialMT-6e"/>
      <use transform="translate(578.173828 0.34375)" xlink:href="#ArialMT-74"/>
      <use transform="translate(605.957031 0.34375)" xlink:href="#ArialMT-69"/>
      <use transform="translate(628.173828 0.34375)" xlink:href="#ArialMT-6d"/>
      <use transform="translate(711.474609 0.34375)" xlink:href="#ArialMT-65"/>
      <use transform="translate(767.089844 0.34375)" xlink:href="#ArialMT-6e"/>
      <use transform="translate(822.705078 0.34375)" xlink:href="#ArialMT-74"/>
      <use transform="translate(850.488281 0.34375)" xlink:href="#ArialMT-20"/>
      <use transform="translate(878.271484 0.34375)" xlink:href="#ArialMT-53"/>
      <use transform="translate(944.970703 0.34375)" xlink:href="#ArialMT-63"/>
      <use transform="translate(994.970703 0.34375)" xlink:href="#ArialMT-6f"/>
      <use transform="translate(1050.585938 0.34375)" xlink:href="#ArialMT-72"/>
      <use transform="translate(1083.886719 0.34375)" xlink:href="#ArialMT-65"/>
      <use transform="translate(1139.501953 0.34375)" xlink:href="#ArialMT-2c"/>
      <use transform="translate(1167.285156 0.34375)" xlink:href="#ArialMT-20"/>
      <use transform="translate(1195.068359 0.84375)" xlink:href="#DejaVuSans-3a3"/>
      <use transform="translate(1258.251953 0.34375)" xlink:href="#ArialMT-20"/>
      <use transform="translate(1286.035156 0.34375)" xlink:href="#ArialMT-5b"/>
      <use transform="translate(1313.818359 0.34375)" xlink:href="#ArialMT-64"/>
      <use transform="translate(1369.433594 0.34375)" xlink:href="#ArialMT-69"/>
      <use transform="translate(1391.650391 0.34375)" xlink:href="#ArialMT-6d"/>
      <use transform="translate(1474.951172 0.34375)" xlink:href="#ArialMT-65"/>
      <use transform="translate(1530.566406 0.34375)" xlink:href="#ArialMT-6e"/>
      <use transform="translate(1586.181641 0.34375)" xlink:href="#ArialMT-73"/>
      <use transform="translate(1636.181641 0.34375)" xlink:href="#ArialMT-69"/>
      <use transform="translate(1658.398438 0.34375)" xlink:href="#ArialMT-6f"/>
      <use transform="translate(1714.013672 0.34375)" xlink:href="#ArialMT-6e"/>
      <use transform="translate(1769.628906 0.34375)" xlink:href="#ArialMT-6c"/>
      <use transform="translate(1791.845703 0.34375)" xlink:href="#ArialMT-65"/>
      <use transform="translate(1847.460938 0.34375)" xlink:href="#ArialMT-73"/>
      <use transform="translate(1897.460938 0.34375)" xlink:href="#ArialMT-73"/>
      <use transform="translate(1947.460938 0.34375)" xlink:href="#ArialMT-5d"/>
      <path d="M 1195.068359 85.5 
L 1195.068359 91.75 
L 1258.251953 91.75 
L 1258.251953 85.5 
L 1195.068359 85.5 
z
"/>
     </g>
    </g>
   </g>
   <g id="line2d_27">
    <path clip-path="url(#pc079b0171c)" d="M 92.290909 330.893078 
L 96.390083 238.432789 
L 100.489256 263.885189 
L 104.58843 241.326122 
L 108.687603 261.405179 
L 112.786777 232.889699 
L 116.88595 254.523423 
L 120.985124 282.501102 
L 125.084298 246.713409 
L 129.183471 162.140958 
L 133.282645 289.886973 
L 137.381818 213.376378 
L 141.480992 212.056204 
L 145.580165 250.789582 
L 149.679339 186.254729 
L 153.778512 238.447983 
L 157.877686 312.284861 
L 161.97686 257.474168 
L 166.076033 278.721678 
L 170.175207 236.91105 
L 174.27438 238.025431 
L 178.373554 279.771001 
L 182.472727 278.23174 
L 186.571901 263.93088 
L 190.671074 305.699457 
L 194.770248 332.91 
L 198.869421 307.624905 
L 202.968595 232.148158 
L 207.067769 214.445134 
L 211.166942 314.16689 
L 215.266116 241.428488 
L 219.365289 304.813806 
L 223.464463 223.058014 
L 227.563636 95.352786 
L 231.66281 160.679684 
L 235.761983 255.547357 
L 239.861157 137.427991 
L 243.960331 219.467571 
L 248.059504 271.016351 
L 252.158678 228.131736 
L 256.257851 309.506577 
L 260.357025 233.921678 
L 264.456198 205.386276 
L 268.555372 208.53501 
L 272.654545 220.335541 
L 276.753719 208.04546 
L 280.852893 199.432788 
L 284.952066 179.397049 
L 289.05124 275.421714 
L 293.150413 160.990682 
L 297.249587 177.904149 
L 301.34876 201.442193 
L 305.447934 168.083311 
L 309.547107 217.928482 
L 313.646281 166.557934 
L 317.745455 253.505678 
L 321.844628 238.174413 
L 325.943802 183.430913 
L 330.042975 205.736272 
L 334.142149 224.236001 
L 338.241322 187.600034 
L 342.340496 204.147191 
L 346.439669 217.710266 
L 350.538843 248.746473 
L 354.638017 213.355595 
L 358.73719 230.606982 
L 362.836364 211.840952 
L 366.935537 245.646444 
L 371.034711 218.884491 
L 375.133884 209.283195 
L 379.233058 196.014696 
L 383.332231 229.757198 
L 387.431405 262.567089 
L 391.530579 231.52046 
L 395.629752 250.154243 
L 399.728926 226.433784 
L 403.828099 207.704363 
L 407.927273 224.508198 
L 412.026446 259.161495 
L 416.12562 186.465534 
L 420.224793 208.561088 
L 424.323967 228.408048 
L 428.42314 250.320363 
L 432.522314 218.366122 
L 436.621488 211.085741 
L 440.720661 187.40469 
L 444.819835 290.958235 
L 448.919008 184.558714 
L 453.018182 187.236833 
L 457.117355 172.054242 
L 461.216529 242.69082 
L 465.315702 191.393028 
L 469.414876 200.61293 
L 473.51405 251.707811 
L 477.613223 279.205467 
L 481.712397 272.690464 
L 485.81157 189.451835 
L 489.910744 267.325187 
L 494.009917 229.919275 
L 498.109091 206.366121 
" style="fill:none;stroke:#00bfbf;stroke-linecap:round;stroke-width:1.75;"/>
    <defs>
     <path d="M 0 3.5 
C 0.928211 3.5 1.81853 3.131218 2.474874 2.474874 
C 3.131218 1.81853 3.5 0.928211 3.5 0 
C 3.5 -0.928211 3.131218 -1.81853 2.474874 -2.474874 
C 1.81853 -3.131218 0.928211 -3.5 0 -3.5 
C -0.928211 -3.5 -1.81853 -3.131218 -2.474874 -2.474874 
C -3.131218 -1.81853 -3.5 -0.928211 -3.5 0 
C -3.5 0.928211 -3.131218 1.81853 -2.474874 2.474874 
C -1.81853 3.131218 -0.928211 3.5 0 3.5 
z
" id="m64d3adfbb9"/>
    </defs>
    <g clip-path="url(#pc079b0171c)">
     <use style="fill:#00bfbf;" x="92.290909" xlink:href="#m64d3adfbb9" y="330.893078"/>
     <use style="fill:#00bfbf;" x="96.390083" xlink:href="#m64d3adfbb9" y="238.432789"/>
     <use style="fill:#00bfbf;" x="100.489256" xlink:href="#m64d3adfbb9" y="263.885189"/>
     <use style="fill:#00bfbf;" x="104.58843" xlink:href="#m64d3adfbb9" y="241.326122"/>
     <use style="fill:#00bfbf;" x="108.687603" xlink:href="#m64d3adfbb9" y="261.405179"/>
     <use style="fill:#00bfbf;" x="112.786777" xlink:href="#m64d3adfbb9" y="232.889699"/>
     <use style="fill:#00bfbf;" x="116.88595" xlink:href="#m64d3adfbb9" y="254.523423"/>
     <use style="fill:#00bfbf;" x="120.985124" xlink:href="#m64d3adfbb9" y="282.501102"/>
     <use style="fill:#00bfbf;" x="125.084298" xlink:href="#m64d3adfbb9" y="246.713409"/>
     <use style="fill:#00bfbf;" x="129.183471" xlink:href="#m64d3adfbb9" y="162.140958"/>
     <use style="fill:#00bfbf;" x="133.282645" xlink:href="#m64d3adfbb9" y="289.886973"/>
     <use style="fill:#00bfbf;" x="137.381818" xlink:href="#m64d3adfbb9" y="213.376378"/>
     <use style="fill:#00bfbf;" x="141.480992" xlink:href="#m64d3adfbb9" y="212.056204"/>
     <use style="fill:#00bfbf;" x="145.580165" xlink:href="#m64d3adfbb9" y="250.789582"/>
     <use style="fill:#00bfbf;" x="149.679339" xlink:href="#m64d3adfbb9" y="186.254729"/>
     <use style="fill:#00bfbf;" x="153.778512" xlink:href="#m64d3adfbb9" y="238.447983"/>
     <use style="fill:#00bfbf;" x="157.877686" xlink:href="#m64d3adfbb9" y="312.284861"/>
     <use style="fill:#00bfbf;" x="161.97686" xlink:href="#m64d3adfbb9" y="257.474168"/>
     <use style="fill:#00bfbf;" x="166.076033" xlink:href="#m64d3adfbb9" y="278.721678"/>
     <use style="fill:#00bfbf;" x="170.175207" xlink:href="#m64d3adfbb9" y="236.91105"/>
     <use style="fill:#00bfbf;" x="174.27438" xlink:href="#m64d3adfbb9" y="238.025431"/>
     <use style="fill:#00bfbf;" x="178.373554" xlink:href="#m64d3adfbb9" y="279.771001"/>
     <use style="fill:#00bfbf;" x="182.472727" xlink:href="#m64d3adfbb9" y="278.23174"/>
     <use style="fill:#00bfbf;" x="186.571901" xlink:href="#m64d3adfbb9" y="263.93088"/>
     <use style="fill:#00bfbf;" x="190.671074" xlink:href="#m64d3adfbb9" y="305.699457"/>
     <use style="fill:#00bfbf;" x="194.770248" xlink:href="#m64d3adfbb9" y="332.91"/>
     <use style="fill:#00bfbf;" x="198.869421" xlink:href="#m64d3adfbb9" y="307.624905"/>
     <use style="fill:#00bfbf;" x="202.968595" xlink:href="#m64d3adfbb9" y="232.148158"/>
     <use style="fill:#00bfbf;" x="207.067769" xlink:href="#m64d3adfbb9" y="214.445134"/>
     <use style="fill:#00bfbf;" x="211.166942" xlink:href="#m64d3adfbb9" y="314.16689"/>
     <use style="fill:#00bfbf;" x="215.266116" xlink:href="#m64d3adfbb9" y="241.428488"/>
     <use style="fill:#00bfbf;" x="219.365289" xlink:href="#m64d3adfbb9" y="304.813806"/>
     <use style="fill:#00bfbf;" x="223.464463" xlink:href="#m64d3adfbb9" y="223.058014"/>
     <use style="fill:#00bfbf;" x="227.563636" xlink:href="#m64d3adfbb9" y="95.352786"/>
     <use style="fill:#00bfbf;" x="231.66281" xlink:href="#m64d3adfbb9" y="160.679684"/>
     <use style="fill:#00bfbf;" x="235.761983" xlink:href="#m64d3adfbb9" y="255.547357"/>
     <use style="fill:#00bfbf;" x="239.861157" xlink:href="#m64d3adfbb9" y="137.427991"/>
     <use style="fill:#00bfbf;" x="243.960331" xlink:href="#m64d3adfbb9" y="219.467571"/>
     <use style="fill:#00bfbf;" x="248.059504" xlink:href="#m64d3adfbb9" y="271.016351"/>
     <use style="fill:#00bfbf;" x="252.158678" xlink:href="#m64d3adfbb9" y="228.131736"/>
     <use style="fill:#00bfbf;" x="256.257851" xlink:href="#m64d3adfbb9" y="309.506577"/>
     <use style="fill:#00bfbf;" x="260.357025" xlink:href="#m64d3adfbb9" y="233.921678"/>
     <use style="fill:#00bfbf;" x="264.456198" xlink:href="#m64d3adfbb9" y="205.386276"/>
     <use style="fill:#00bfbf;" x="268.555372" xlink:href="#m64d3adfbb9" y="208.53501"/>
     <use style="fill:#00bfbf;" x="272.654545" xlink:href="#m64d3adfbb9" y="220.335541"/>
     <use style="fill:#00bfbf;" x="276.753719" xlink:href="#m64d3adfbb9" y="208.04546"/>
     <use style="fill:#00bfbf;" x="280.852893" xlink:href="#m64d3adfbb9" y="199.432788"/>
     <use style="fill:#00bfbf;" x="284.952066" xlink:href="#m64d3adfbb9" y="179.397049"/>
     <use style="fill:#00bfbf;" x="289.05124" xlink:href="#m64d3adfbb9" y="275.421714"/>
     <use style="fill:#00bfbf;" x="293.150413" xlink:href="#m64d3adfbb9" y="160.990682"/>
     <use style="fill:#00bfbf;" x="297.249587" xlink:href="#m64d3adfbb9" y="177.904149"/>
     <use style="fill:#00bfbf;" x="301.34876" xlink:href="#m64d3adfbb9" y="201.442193"/>
     <use style="fill:#00bfbf;" x="305.447934" xlink:href="#m64d3adfbb9" y="168.083311"/>
     <use style="fill:#00bfbf;" x="309.547107" xlink:href="#m64d3adfbb9" y="217.928482"/>
     <use style="fill:#00bfbf;" x="313.646281" xlink:href="#m64d3adfbb9" y="166.557934"/>
     <use style="fill:#00bfbf;" x="317.745455" xlink:href="#m64d3adfbb9" y="253.505678"/>
     <use style="fill:#00bfbf;" x="321.844628" xlink:href="#m64d3adfbb9" y="238.174413"/>
     <use style="fill:#00bfbf;" x="325.943802" xlink:href="#m64d3adfbb9" y="183.430913"/>
     <use style="fill:#00bfbf;" x="330.042975" xlink:href="#m64d3adfbb9" y="205.736272"/>
     <use style="fill:#00bfbf;" x="334.142149" xlink:href="#m64d3adfbb9" y="224.236001"/>
     <use style="fill:#00bfbf;" x="338.241322" xlink:href="#m64d3adfbb9" y="187.600034"/>
     <use style="fill:#00bfbf;" x="342.340496" xlink:href="#m64d3adfbb9" y="204.147191"/>
     <use style="fill:#00bfbf;" x="346.439669" xlink:href="#m64d3adfbb9" y="217.710266"/>
     <use style="fill:#00bfbf;" x="350.538843" xlink:href="#m64d3adfbb9" y="248.746473"/>
     <use style="fill:#00bfbf;" x="354.638017" xlink:href="#m64d3adfbb9" y="213.355595"/>
     <use style="fill:#00bfbf;" x="358.73719" xlink:href="#m64d3adfbb9" y="230.606982"/>
     <use style="fill:#00bfbf;" x="362.836364" xlink:href="#m64d3adfbb9" y="211.840952"/>
     <use style="fill:#00bfbf;" x="366.935537" xlink:href="#m64d3adfbb9" y="245.646444"/>
     <use style="fill:#00bfbf;" x="371.034711" xlink:href="#m64d3adfbb9" y="218.884491"/>
     <use style="fill:#00bfbf;" x="375.133884" xlink:href="#m64d3adfbb9" y="209.283195"/>
     <use style="fill:#00bfbf;" x="379.233058" xlink:href="#m64d3adfbb9" y="196.014696"/>
     <use style="fill:#00bfbf;" x="383.332231" xlink:href="#m64d3adfbb9" y="229.757198"/>
     <use style="fill:#00bfbf;" x="387.431405" xlink:href="#m64d3adfbb9" y="262.567089"/>
     <use style="fill:#00bfbf;" x="391.530579" xlink:href="#m64d3adfbb9" y="231.52046"/>
     <use style="fill:#00bfbf;" x="395.629752" xlink:href="#m64d3adfbb9" y="250.154243"/>
     <use style="fill:#00bfbf;" x="399.728926" xlink:href="#m64d3adfbb9" y="226.433784"/>
     <use style="fill:#00bfbf;" x="403.828099" xlink:href="#m64d3adfbb9" y="207.704363"/>
     <use style="fill:#00bfbf;" x="407.927273" xlink:href="#m64d3adfbb9" y="224.508198"/>
     <use style="fill:#00bfbf;" x="412.026446" xlink:href="#m64d3adfbb9" y="259.161495"/>
     <use style="fill:#00bfbf;" x="416.12562" xlink:href="#m64d3adfbb9" y="186.465534"/>
     <use style="fill:#00bfbf;" x="420.224793" xlink:href="#m64d3adfbb9" y="208.561088"/>
     <use style="fill:#00bfbf;" x="424.323967" xlink:href="#m64d3adfbb9" y="228.408048"/>
     <use style="fill:#00bfbf;" x="428.42314" xlink:href="#m64d3adfbb9" y="250.320363"/>
     <use style="fill:#00bfbf;" x="432.522314" xlink:href="#m64d3adfbb9" y="218.366122"/>
     <use style="fill:#00bfbf;" x="436.621488" xlink:href="#m64d3adfbb9" y="211.085741"/>
     <use style="fill:#00bfbf;" x="440.720661" xlink:href="#m64d3adfbb9" y="187.40469"/>
     <use style="fill:#00bfbf;" x="444.819835" xlink:href="#m64d3adfbb9" y="290.958235"/>
     <use style="fill:#00bfbf;" x="448.919008" xlink:href="#m64d3adfbb9" y="184.558714"/>
     <use style="fill:#00bfbf;" x="453.018182" xlink:href="#m64d3adfbb9" y="187.236833"/>
     <use style="fill:#00bfbf;" x="457.117355" xlink:href="#m64d3adfbb9" y="172.054242"/>
     <use style="fill:#00bfbf;" x="461.216529" xlink:href="#m64d3adfbb9" y="242.69082"/>
     <use style="fill:#00bfbf;" x="465.315702" xlink:href="#m64d3adfbb9" y="191.393028"/>
     <use style="fill:#00bfbf;" x="469.414876" xlink:href="#m64d3adfbb9" y="200.61293"/>
     <use style="fill:#00bfbf;" x="473.51405" xlink:href="#m64d3adfbb9" y="251.707811"/>
     <use style="fill:#00bfbf;" x="477.613223" xlink:href="#m64d3adfbb9" y="279.205467"/>
     <use style="fill:#00bfbf;" x="481.712397" xlink:href="#m64d3adfbb9" y="272.690464"/>
     <use style="fill:#00bfbf;" x="485.81157" xlink:href="#m64d3adfbb9" y="189.451835"/>
     <use style="fill:#00bfbf;" x="489.910744" xlink:href="#m64d3adfbb9" y="267.325187"/>
     <use style="fill:#00bfbf;" x="494.009917" xlink:href="#m64d3adfbb9" y="229.919275"/>
     <use style="fill:#00bfbf;" x="498.109091" xlink:href="#m64d3adfbb9" y="206.366121"/>
    </g>
   </g>
   <g id="line2d_28">
    <path clip-path="url(#pc079b0171c)" d="M 92.290909 272.605303 
L 96.390083 262.853624 
L 100.489256 268.959835 
L 104.58843 264.810835 
L 108.687603 264.9541 
L 112.786777 260.576803 
L 116.88595 261.026626 
L 120.985124 269.05781 
L 125.084298 258.982598 
L 129.183471 254.140145 
L 133.282645 265.587329 
L 137.381818 259.092443 
L 141.480992 263.22278 
L 145.580165 261.836245 
L 149.679339 258.01935 
L 153.778512 260.423597 
L 157.877686 268.062439 
L 161.97686 270.497189 
L 166.076033 266.838292 
L 170.175207 265.083875 
L 174.27438 263.749816 
L 178.373554 271.914207 
L 182.472727 272.039275 
L 186.571901 259.435125 
L 190.671074 271.073554 
L 194.770248 267.588442 
L 198.869421 261.173059 
L 202.968595 270.284379 
L 207.067769 261.584783 
L 211.166942 272.283825 
L 215.266116 256.058841 
L 219.365289 269.203849 
L 223.464463 260.545244 
L 227.563636 245.581057 
L 231.66281 249.564037 
L 235.761983 271.227767 
L 239.861157 255.357765 
L 243.960331 264.321187 
L 248.059504 263.881422 
L 252.158678 262.177328 
L 256.257851 267.450317 
L 260.357025 259.909129 
L 264.456198 266.062709 
L 268.555372 265.945982 
L 272.654545 259.125165 
L 276.753719 262.951928 
L 280.852893 258.087065 
L 284.952066 256.304459 
L 289.05124 266.362978 
L 293.150413 257.199024 
L 297.249587 256.800458 
L 301.34876 255.115893 
L 305.447934 257.594091 
L 309.547107 253.026114 
L 313.646281 256.319001 
L 317.745455 262.874516 
L 321.844628 262.474038 
L 325.943802 258.78377 
L 330.042975 261.884661 
L 334.142149 262.383081 
L 338.241322 254.791392 
L 342.340496 259.281127 
L 346.439669 258.91169 
L 350.538843 268.021774 
L 354.638017 258.337731 
L 358.73719 263.934687 
L 362.836364 258.70803 
L 366.935537 258.297426 
L 371.034711 262.946049 
L 375.133884 260.508171 
L 379.233058 259.402263 
L 383.332231 264.841366 
L 387.431405 263.556361 
L 391.530579 261.14416 
L 395.629752 266.066625 
L 399.728926 261.829487 
L 403.828099 262.179565 
L 407.927273 262.386748 
L 412.026446 265.1503 
L 416.12562 261.410616 
L 420.224793 259.610595 
L 424.323967 261.672069 
L 428.42314 261.845236 
L 432.522314 258.233754 
L 436.621488 261.592063 
L 440.720661 257.790972 
L 444.819835 272.026883 
L 448.919008 256.123264 
L 453.018182 260.003801 
L 457.117355 256.358577 
L 461.216529 261.810554 
L 465.315702 256.268757 
L 469.414876 257.504219 
L 473.51405 264.954531 
L 477.613223 263.325359 
L 481.712397 271.236236 
L 485.81157 254.964908 
L 489.910744 262.545062 
L 494.009917 266.895609 
L 498.109091 254.957642 
" style="fill:none;stroke:#008000;stroke-linecap:round;stroke-width:1.75;"/>
    <defs>
     <path d="M 0 3.5 
C 0.928211 3.5 1.81853 3.131218 2.474874 2.474874 
C 3.131218 1.81853 3.5 0.928211 3.5 0 
C 3.5 -0.928211 3.131218 -1.81853 2.474874 -2.474874 
C 1.81853 -3.131218 0.928211 -3.5 0 -3.5 
C -0.928211 -3.5 -1.81853 -3.131218 -2.474874 -2.474874 
C -3.131218 -1.81853 -3.5 -0.928211 -3.5 0 
C -3.5 0.928211 -3.131218 1.81853 -2.474874 2.474874 
C -1.81853 3.131218 -0.928211 3.5 0 3.5 
z
" id="md062400957"/>
    </defs>
    <g clip-path="url(#pc079b0171c)">
     <use style="fill:#008000;" x="92.290909" xlink:href="#md062400957" y="272.605303"/>
     <use style="fill:#008000;" x="96.390083" xlink:href="#md062400957" y="262.853624"/>
     <use style="fill:#008000;" x="100.489256" xlink:href="#md062400957" y="268.959835"/>
     <use style="fill:#008000;" x="104.58843" xlink:href="#md062400957" y="264.810835"/>
     <use style="fill:#008000;" x="108.687603" xlink:href="#md062400957" y="264.9541"/>
     <use style="fill:#008000;" x="112.786777" xlink:href="#md062400957" y="260.576803"/>
     <use style="fill:#008000;" x="116.88595" xlink:href="#md062400957" y="261.026626"/>
     <use style="fill:#008000;" x="120.985124" xlink:href="#md062400957" y="269.05781"/>
     <use style="fill:#008000;" x="125.084298" xlink:href="#md062400957" y="258.982598"/>
     <use style="fill:#008000;" x="129.183471" xlink:href="#md062400957" y="254.140145"/>
     <use style="fill:#008000;" x="133.282645" xlink:href="#md062400957" y="265.587329"/>
     <use style="fill:#008000;" x="137.381818" xlink:href="#md062400957" y="259.092443"/>
     <use style="fill:#008000;" x="141.480992" xlink:href="#md062400957" y="263.22278"/>
     <use style="fill:#008000;" x="145.580165" xlink:href="#md062400957" y="261.836245"/>
     <use style="fill:#008000;" x="149.679339" xlink:href="#md062400957" y="258.01935"/>
     <use style="fill:#008000;" x="153.778512" xlink:href="#md062400957" y="260.423597"/>
     <use style="fill:#008000;" x="157.877686" xlink:href="#md062400957" y="268.062439"/>
     <use style="fill:#008000;" x="161.97686" xlink:href="#md062400957" y="270.497189"/>
     <use style="fill:#008000;" x="166.076033" xlink:href="#md062400957" y="266.838292"/>
     <use style="fill:#008000;" x="170.175207" xlink:href="#md062400957" y="265.083875"/>
     <use style="fill:#008000;" x="174.27438" xlink:href="#md062400957" y="263.749816"/>
     <use style="fill:#008000;" x="178.373554" xlink:href="#md062400957" y="271.914207"/>
     <use style="fill:#008000;" x="182.472727" xlink:href="#md062400957" y="272.039275"/>
     <use style="fill:#008000;" x="186.571901" xlink:href="#md062400957" y="259.435125"/>
     <use style="fill:#008000;" x="190.671074" xlink:href="#md062400957" y="271.073554"/>
     <use style="fill:#008000;" x="194.770248" xlink:href="#md062400957" y="267.588442"/>
     <use style="fill:#008000;" x="198.869421" xlink:href="#md062400957" y="261.173059"/>
     <use style="fill:#008000;" x="202.968595" xlink:href="#md062400957" y="270.284379"/>
     <use style="fill:#008000;" x="207.067769" xlink:href="#md062400957" y="261.584783"/>
     <use style="fill:#008000;" x="211.166942" xlink:href="#md062400957" y="272.283825"/>
     <use style="fill:#008000;" x="215.266116" xlink:href="#md062400957" y="256.058841"/>
     <use style="fill:#008000;" x="219.365289" xlink:href="#md062400957" y="269.203849"/>
     <use style="fill:#008000;" x="223.464463" xlink:href="#md062400957" y="260.545244"/>
     <use style="fill:#008000;" x="227.563636" xlink:href="#md062400957" y="245.581057"/>
     <use style="fill:#008000;" x="231.66281" xlink:href="#md062400957" y="249.564037"/>
     <use style="fill:#008000;" x="235.761983" xlink:href="#md062400957" y="271.227767"/>
     <use style="fill:#008000;" x="239.861157" xlink:href="#md062400957" y="255.357765"/>
     <use style="fill:#008000;" x="243.960331" xlink:href="#md062400957" y="264.321187"/>
     <use style="fill:#008000;" x="248.059504" xlink:href="#md062400957" y="263.881422"/>
     <use style="fill:#008000;" x="252.158678" xlink:href="#md062400957" y="262.177328"/>
     <use style="fill:#008000;" x="256.257851" xlink:href="#md062400957" y="267.450317"/>
     <use style="fill:#008000;" x="260.357025" xlink:href="#md062400957" y="259.909129"/>
     <use style="fill:#008000;" x="264.456198" xlink:href="#md062400957" y="266.062709"/>
     <use style="fill:#008000;" x="268.555372" xlink:href="#md062400957" y="265.945982"/>
     <use style="fill:#008000;" x="272.654545" xlink:href="#md062400957" y="259.125165"/>
     <use style="fill:#008000;" x="276.753719" xlink:href="#md062400957" y="262.951928"/>
     <use style="fill:#008000;" x="280.852893" xlink:href="#md062400957" y="258.087065"/>
     <use style="fill:#008000;" x="284.952066" xlink:href="#md062400957" y="256.304459"/>
     <use style="fill:#008000;" x="289.05124" xlink:href="#md062400957" y="266.362978"/>
     <use style="fill:#008000;" x="293.150413" xlink:href="#md062400957" y="257.199024"/>
     <use style="fill:#008000;" x="297.249587" xlink:href="#md062400957" y="256.800458"/>
     <use style="fill:#008000;" x="301.34876" xlink:href="#md062400957" y="255.115893"/>
     <use style="fill:#008000;" x="305.447934" xlink:href="#md062400957" y="257.594091"/>
     <use style="fill:#008000;" x="309.547107" xlink:href="#md062400957" y="253.026114"/>
     <use style="fill:#008000;" x="313.646281" xlink:href="#md062400957" y="256.319001"/>
     <use style="fill:#008000;" x="317.745455" xlink:href="#md062400957" y="262.874516"/>
     <use style="fill:#008000;" x="321.844628" xlink:href="#md062400957" y="262.474038"/>
     <use style="fill:#008000;" x="325.943802" xlink:href="#md062400957" y="258.78377"/>
     <use style="fill:#008000;" x="330.042975" xlink:href="#md062400957" y="261.884661"/>
     <use style="fill:#008000;" x="334.142149" xlink:href="#md062400957" y="262.383081"/>
     <use style="fill:#008000;" x="338.241322" xlink:href="#md062400957" y="254.791392"/>
     <use style="fill:#008000;" x="342.340496" xlink:href="#md062400957" y="259.281127"/>
     <use style="fill:#008000;" x="346.439669" xlink:href="#md062400957" y="258.91169"/>
     <use style="fill:#008000;" x="350.538843" xlink:href="#md062400957" y="268.021774"/>
     <use style="fill:#008000;" x="354.638017" xlink:href="#md062400957" y="258.337731"/>
     <use style="fill:#008000;" x="358.73719" xlink:href="#md062400957" y="263.934687"/>
     <use style="fill:#008000;" x="362.836364" xlink:href="#md062400957" y="258.70803"/>
     <use style="fill:#008000;" x="366.935537" xlink:href="#md062400957" y="258.297426"/>
     <use style="fill:#008000;" x="371.034711" xlink:href="#md062400957" y="262.946049"/>
     <use style="fill:#008000;" x="375.133884" xlink:href="#md062400957" y="260.508171"/>
     <use style="fill:#008000;" x="379.233058" xlink:href="#md062400957" y="259.402263"/>
     <use style="fill:#008000;" x="383.332231" xlink:href="#md062400957" y="264.841366"/>
     <use style="fill:#008000;" x="387.431405" xlink:href="#md062400957" y="263.556361"/>
     <use style="fill:#008000;" x="391.530579" xlink:href="#md062400957" y="261.14416"/>
     <use style="fill:#008000;" x="395.629752" xlink:href="#md062400957" y="266.066625"/>
     <use style="fill:#008000;" x="399.728926" xlink:href="#md062400957" y="261.829487"/>
     <use style="fill:#008000;" x="403.828099" xlink:href="#md062400957" y="262.179565"/>
     <use style="fill:#008000;" x="407.927273" xlink:href="#md062400957" y="262.386748"/>
     <use style="fill:#008000;" x="412.026446" xlink:href="#md062400957" y="265.1503"/>
     <use style="fill:#008000;" x="416.12562" xlink:href="#md062400957" y="261.410616"/>
     <use style="fill:#008000;" x="420.224793" xlink:href="#md062400957" y="259.610595"/>
     <use style="fill:#008000;" x="424.323967" xlink:href="#md062400957" y="261.672069"/>
     <use style="fill:#008000;" x="428.42314" xlink:href="#md062400957" y="261.845236"/>
     <use style="fill:#008000;" x="432.522314" xlink:href="#md062400957" y="258.233754"/>
     <use style="fill:#008000;" x="436.621488" xlink:href="#md062400957" y="261.592063"/>
     <use style="fill:#008000;" x="440.720661" xlink:href="#md062400957" y="257.790972"/>
     <use style="fill:#008000;" x="444.819835" xlink:href="#md062400957" y="272.026883"/>
     <use style="fill:#008000;" x="448.919008" xlink:href="#md062400957" y="256.123264"/>
     <use style="fill:#008000;" x="453.018182" xlink:href="#md062400957" y="260.003801"/>
     <use style="fill:#008000;" x="457.117355" xlink:href="#md062400957" y="256.358577"/>
     <use style="fill:#008000;" x="461.216529" xlink:href="#md062400957" y="261.810554"/>
     <use style="fill:#008000;" x="465.315702" xlink:href="#md062400957" y="256.268757"/>
     <use style="fill:#008000;" x="469.414876" xlink:href="#md062400957" y="257.504219"/>
     <use style="fill:#008000;" x="473.51405" xlink:href="#md062400957" y="264.954531"/>
     <use style="fill:#008000;" x="477.613223" xlink:href="#md062400957" y="263.325359"/>
     <use style="fill:#008000;" x="481.712397" xlink:href="#md062400957" y="271.236236"/>
     <use style="fill:#008000;" x="485.81157" xlink:href="#md062400957" y="254.964908"/>
     <use style="fill:#008000;" x="489.910744" xlink:href="#md062400957" y="262.545062"/>
     <use style="fill:#008000;" x="494.009917" xlink:href="#md062400957" y="266.895609"/>
     <use style="fill:#008000;" x="498.109091" xlink:href="#md062400957" y="254.957642"/>
    </g>
   </g>
   <g id="line2d_29">
    <path clip-path="url(#pc079b0171c)" d="M 92.290909 256.555501 
L 96.390083 257.848386 
L 100.489256 256.844751 
L 104.58843 258.616913 
L 108.687603 257.617862 
L 112.786777 258.651925 
L 116.88595 257.287675 
L 120.985124 255.013654 
L 125.084298 258.018266 
L 129.183471 259.747014 
L 133.282645 257.280488 
L 137.381818 256.644881 
L 141.480992 258.584228 
L 145.580165 256.58055 
L 149.679339 259.026146 
L 153.778512 259.97317 
L 157.877686 256.149407 
L 161.97686 255.507275 
L 166.076033 257.447762 
L 170.175207 255.596005 
L 174.27438 257.694155 
L 178.373554 256.62557 
L 182.472727 255.560896 
L 186.571901 257.93109 
L 190.671074 257.5496 
L 194.770248 257.372857 
L 198.869421 258.856458 
L 202.968595 257.231047 
L 207.067769 262.46097 
L 211.166942 255.998108 
L 215.266116 258.852988 
L 219.365289 254.741267 
L 223.464463 258.664816 
L 227.563636 261.230221 
L 231.66281 262.660552 
L 235.761983 258.481774 
L 239.861157 259.040415 
L 243.960331 258.8558 
L 248.059504 257.815255 
L 252.158678 260.282057 
L 256.257851 260.344556 
L 260.357025 259.413792 
L 264.456198 257.955496 
L 268.555372 256.420991 
L 272.654545 259.576477 
L 276.753719 260.402507 
L 280.852893 259.072345 
L 284.952066 258.587675 
L 289.05124 259.974968 
L 293.150413 261.433504 
L 297.249587 261.097777 
L 301.34876 261.056751 
L 305.447934 260.14712 
L 309.547107 261.863845 
L 313.646281 260.600365 
L 317.745455 260.096984 
L 321.844628 258.521985 
L 325.943802 259.394201 
L 330.042975 259.22066 
L 334.142149 258.128466 
L 338.241322 260.791212 
L 342.340496 260.076634 
L 346.439669 259.443687 
L 350.538843 258.361925 
L 354.638017 259.469992 
L 358.73719 257.906248 
L 362.836364 259.721075 
L 366.935537 260.909629 
L 371.034711 260.618863 
L 375.133884 260.596447 
L 379.233058 258.037989 
L 383.332231 256.52105 
L 387.431405 259.251799 
L 391.530579 259.218556 
L 395.629752 258.935413 
L 399.728926 258.896285 
L 403.828099 258.968342 
L 407.927273 259.514946 
L 412.026446 258.702305 
L 416.12562 258.498551 
L 420.224793 261.216524 
L 424.323967 258.732713 
L 428.42314 258.869165 
L 432.522314 260.952326 
L 436.621488 259.949104 
L 440.720661 260.909984 
L 444.819835 257.918655 
L 448.919008 261.895473 
L 453.018182 260.098926 
L 457.117355 260.015461 
L 461.216529 259.988392 
L 465.315702 261.763858 
L 469.414876 259.351756 
L 473.51405 260.039289 
L 477.613223 257.038041 
L 481.712397 255.706144 
L 485.81157 261.163525 
L 489.910744 258.983783 
L 494.009917 257.818307 
L 498.109091 258.562167 
" style="fill:none;stroke:#0000ff;stroke-linecap:round;stroke-width:1.75;"/>
    <defs>
     <path d="M 0 3.5 
C 0.928211 3.5 1.81853 3.131218 2.474874 2.474874 
C 3.131218 1.81853 3.5 0.928211 3.5 0 
C 3.5 -0.928211 3.131218 -1.81853 2.474874 -2.474874 
C 1.81853 -3.131218 0.928211 -3.5 0 -3.5 
C -0.928211 -3.5 -1.81853 -3.131218 -2.474874 -2.474874 
C -3.131218 -1.81853 -3.5 -0.928211 -3.5 0 
C -3.5 0.928211 -3.131218 1.81853 -2.474874 2.474874 
C -1.81853 3.131218 -0.928211 3.5 0 3.5 
z
" id="mbdc3dd5f64"/>
    </defs>
    <g clip-path="url(#pc079b0171c)">
     <use style="fill:#0000ff;" x="92.290909" xlink:href="#mbdc3dd5f64" y="256.555501"/>
     <use style="fill:#0000ff;" x="96.390083" xlink:href="#mbdc3dd5f64" y="257.848386"/>
     <use style="fill:#0000ff;" x="100.489256" xlink:href="#mbdc3dd5f64" y="256.844751"/>
     <use style="fill:#0000ff;" x="104.58843" xlink:href="#mbdc3dd5f64" y="258.616913"/>
     <use style="fill:#0000ff;" x="108.687603" xlink:href="#mbdc3dd5f64" y="257.617862"/>
     <use style="fill:#0000ff;" x="112.786777" xlink:href="#mbdc3dd5f64" y="258.651925"/>
     <use style="fill:#0000ff;" x="116.88595" xlink:href="#mbdc3dd5f64" y="257.287675"/>
     <use style="fill:#0000ff;" x="120.985124" xlink:href="#mbdc3dd5f64" y="255.013654"/>
     <use style="fill:#0000ff;" x="125.084298" xlink:href="#mbdc3dd5f64" y="258.018266"/>
     <use style="fill:#0000ff;" x="129.183471" xlink:href="#mbdc3dd5f64" y="259.747014"/>
     <use style="fill:#0000ff;" x="133.282645" xlink:href="#mbdc3dd5f64" y="257.280488"/>
     <use style="fill:#0000ff;" x="137.381818" xlink:href="#mbdc3dd5f64" y="256.644881"/>
     <use style="fill:#0000ff;" x="141.480992" xlink:href="#mbdc3dd5f64" y="258.584228"/>
     <use style="fill:#0000ff;" x="145.580165" xlink:href="#mbdc3dd5f64" y="256.58055"/>
     <use style="fill:#0000ff;" x="149.679339" xlink:href="#mbdc3dd5f64" y="259.026146"/>
     <use style="fill:#0000ff;" x="153.778512" xlink:href="#mbdc3dd5f64" y="259.97317"/>
     <use style="fill:#0000ff;" x="157.877686" xlink:href="#mbdc3dd5f64" y="256.149407"/>
     <use style="fill:#0000ff;" x="161.97686" xlink:href="#mbdc3dd5f64" y="255.507275"/>
     <use style="fill:#0000ff;" x="166.076033" xlink:href="#mbdc3dd5f64" y="257.447762"/>
     <use style="fill:#0000ff;" x="170.175207" xlink:href="#mbdc3dd5f64" y="255.596005"/>
     <use style="fill:#0000ff;" x="174.27438" xlink:href="#mbdc3dd5f64" y="257.694155"/>
     <use style="fill:#0000ff;" x="178.373554" xlink:href="#mbdc3dd5f64" y="256.62557"/>
     <use style="fill:#0000ff;" x="182.472727" xlink:href="#mbdc3dd5f64" y="255.560896"/>
     <use style="fill:#0000ff;" x="186.571901" xlink:href="#mbdc3dd5f64" y="257.93109"/>
     <use style="fill:#0000ff;" x="190.671074" xlink:href="#mbdc3dd5f64" y="257.5496"/>
     <use style="fill:#0000ff;" x="194.770248" xlink:href="#mbdc3dd5f64" y="257.372857"/>
     <use style="fill:#0000ff;" x="198.869421" xlink:href="#mbdc3dd5f64" y="258.856458"/>
     <use style="fill:#0000ff;" x="202.968595" xlink:href="#mbdc3dd5f64" y="257.231047"/>
     <use style="fill:#0000ff;" x="207.067769" xlink:href="#mbdc3dd5f64" y="262.46097"/>
     <use style="fill:#0000ff;" x="211.166942" xlink:href="#mbdc3dd5f64" y="255.998108"/>
     <use style="fill:#0000ff;" x="215.266116" xlink:href="#mbdc3dd5f64" y="258.852988"/>
     <use style="fill:#0000ff;" x="219.365289" xlink:href="#mbdc3dd5f64" y="254.741267"/>
     <use style="fill:#0000ff;" x="223.464463" xlink:href="#mbdc3dd5f64" y="258.664816"/>
     <use style="fill:#0000ff;" x="227.563636" xlink:href="#mbdc3dd5f64" y="261.230221"/>
     <use style="fill:#0000ff;" x="231.66281" xlink:href="#mbdc3dd5f64" y="262.660552"/>
     <use style="fill:#0000ff;" x="235.761983" xlink:href="#mbdc3dd5f64" y="258.481774"/>
     <use style="fill:#0000ff;" x="239.861157" xlink:href="#mbdc3dd5f64" y="259.040415"/>
     <use style="fill:#0000ff;" x="243.960331" xlink:href="#mbdc3dd5f64" y="258.8558"/>
     <use style="fill:#0000ff;" x="248.059504" xlink:href="#mbdc3dd5f64" y="257.815255"/>
     <use style="fill:#0000ff;" x="252.158678" xlink:href="#mbdc3dd5f64" y="260.282057"/>
     <use style="fill:#0000ff;" x="256.257851" xlink:href="#mbdc3dd5f64" y="260.344556"/>
     <use style="fill:#0000ff;" x="260.357025" xlink:href="#mbdc3dd5f64" y="259.413792"/>
     <use style="fill:#0000ff;" x="264.456198" xlink:href="#mbdc3dd5f64" y="257.955496"/>
     <use style="fill:#0000ff;" x="268.555372" xlink:href="#mbdc3dd5f64" y="256.420991"/>
     <use style="fill:#0000ff;" x="272.654545" xlink:href="#mbdc3dd5f64" y="259.576477"/>
     <use style="fill:#0000ff;" x="276.753719" xlink:href="#mbdc3dd5f64" y="260.402507"/>
     <use style="fill:#0000ff;" x="280.852893" xlink:href="#mbdc3dd5f64" y="259.072345"/>
     <use style="fill:#0000ff;" x="284.952066" xlink:href="#mbdc3dd5f64" y="258.587675"/>
     <use style="fill:#0000ff;" x="289.05124" xlink:href="#mbdc3dd5f64" y="259.974968"/>
     <use style="fill:#0000ff;" x="293.150413" xlink:href="#mbdc3dd5f64" y="261.433504"/>
     <use style="fill:#0000ff;" x="297.249587" xlink:href="#mbdc3dd5f64" y="261.097777"/>
     <use style="fill:#0000ff;" x="301.34876" xlink:href="#mbdc3dd5f64" y="261.056751"/>
     <use style="fill:#0000ff;" x="305.447934" xlink:href="#mbdc3dd5f64" y="260.14712"/>
     <use style="fill:#0000ff;" x="309.547107" xlink:href="#mbdc3dd5f64" y="261.863845"/>
     <use style="fill:#0000ff;" x="313.646281" xlink:href="#mbdc3dd5f64" y="260.600365"/>
     <use style="fill:#0000ff;" x="317.745455" xlink:href="#mbdc3dd5f64" y="260.096984"/>
     <use style="fill:#0000ff;" x="321.844628" xlink:href="#mbdc3dd5f64" y="258.521985"/>
     <use style="fill:#0000ff;" x="325.943802" xlink:href="#mbdc3dd5f64" y="259.394201"/>
     <use style="fill:#0000ff;" x="330.042975" xlink:href="#mbdc3dd5f64" y="259.22066"/>
     <use style="fill:#0000ff;" x="334.142149" xlink:href="#mbdc3dd5f64" y="258.128466"/>
     <use style="fill:#0000ff;" x="338.241322" xlink:href="#mbdc3dd5f64" y="260.791212"/>
     <use style="fill:#0000ff;" x="342.340496" xlink:href="#mbdc3dd5f64" y="260.076634"/>
     <use style="fill:#0000ff;" x="346.439669" xlink:href="#mbdc3dd5f64" y="259.443687"/>
     <use style="fill:#0000ff;" x="350.538843" xlink:href="#mbdc3dd5f64" y="258.361925"/>
     <use style="fill:#0000ff;" x="354.638017" xlink:href="#mbdc3dd5f64" y="259.469992"/>
     <use style="fill:#0000ff;" x="358.73719" xlink:href="#mbdc3dd5f64" y="257.906248"/>
     <use style="fill:#0000ff;" x="362.836364" xlink:href="#mbdc3dd5f64" y="259.721075"/>
     <use style="fill:#0000ff;" x="366.935537" xlink:href="#mbdc3dd5f64" y="260.909629"/>
     <use style="fill:#0000ff;" x="371.034711" xlink:href="#mbdc3dd5f64" y="260.618863"/>
     <use style="fill:#0000ff;" x="375.133884" xlink:href="#mbdc3dd5f64" y="260.596447"/>
     <use style="fill:#0000ff;" x="379.233058" xlink:href="#mbdc3dd5f64" y="258.037989"/>
     <use style="fill:#0000ff;" x="383.332231" xlink:href="#mbdc3dd5f64" y="256.52105"/>
     <use style="fill:#0000ff;" x="387.431405" xlink:href="#mbdc3dd5f64" y="259.251799"/>
     <use style="fill:#0000ff;" x="391.530579" xlink:href="#mbdc3dd5f64" y="259.218556"/>
     <use style="fill:#0000ff;" x="395.629752" xlink:href="#mbdc3dd5f64" y="258.935413"/>
     <use style="fill:#0000ff;" x="399.728926" xlink:href="#mbdc3dd5f64" y="258.896285"/>
     <use style="fill:#0000ff;" x="403.828099" xlink:href="#mbdc3dd5f64" y="258.968342"/>
     <use style="fill:#0000ff;" x="407.927273" xlink:href="#mbdc3dd5f64" y="259.514946"/>
     <use style="fill:#0000ff;" x="412.026446" xlink:href="#mbdc3dd5f64" y="258.702305"/>
     <use style="fill:#0000ff;" x="416.12562" xlink:href="#mbdc3dd5f64" y="258.498551"/>
     <use style="fill:#0000ff;" x="420.224793" xlink:href="#mbdc3dd5f64" y="261.216524"/>
     <use style="fill:#0000ff;" x="424.323967" xlink:href="#mbdc3dd5f64" y="258.732713"/>
     <use style="fill:#0000ff;" x="428.42314" xlink:href="#mbdc3dd5f64" y="258.869165"/>
     <use style="fill:#0000ff;" x="432.522314" xlink:href="#mbdc3dd5f64" y="260.952326"/>
     <use style="fill:#0000ff;" x="436.621488" xlink:href="#mbdc3dd5f64" y="259.949104"/>
     <use style="fill:#0000ff;" x="440.720661" xlink:href="#mbdc3dd5f64" y="260.909984"/>
     <use style="fill:#0000ff;" x="444.819835" xlink:href="#mbdc3dd5f64" y="257.918655"/>
     <use style="fill:#0000ff;" x="448.919008" xlink:href="#mbdc3dd5f64" y="261.895473"/>
     <use style="fill:#0000ff;" x="453.018182" xlink:href="#mbdc3dd5f64" y="260.098926"/>
     <use style="fill:#0000ff;" x="457.117355" xlink:href="#mbdc3dd5f64" y="260.015461"/>
     <use style="fill:#0000ff;" x="461.216529" xlink:href="#mbdc3dd5f64" y="259.988392"/>
     <use style="fill:#0000ff;" x="465.315702" xlink:href="#mbdc3dd5f64" y="261.763858"/>
     <use style="fill:#0000ff;" x="469.414876" xlink:href="#mbdc3dd5f64" y="259.351756"/>
     <use style="fill:#0000ff;" x="473.51405" xlink:href="#mbdc3dd5f64" y="260.039289"/>
     <use style="fill:#0000ff;" x="477.613223" xlink:href="#mbdc3dd5f64" y="257.038041"/>
     <use style="fill:#0000ff;" x="481.712397" xlink:href="#mbdc3dd5f64" y="255.706144"/>
     <use style="fill:#0000ff;" x="485.81157" xlink:href="#mbdc3dd5f64" y="261.163525"/>
     <use style="fill:#0000ff;" x="489.910744" xlink:href="#mbdc3dd5f64" y="258.983783"/>
     <use style="fill:#0000ff;" x="494.009917" xlink:href="#mbdc3dd5f64" y="257.818307"/>
     <use style="fill:#0000ff;" x="498.109091" xlink:href="#mbdc3dd5f64" y="258.562167"/>
    </g>
   </g>
   <g id="line2d_30">
    <path clip-path="url(#pc079b0171c)" d="M 92.290909 68.096008 
L 96.390083 68.091635 
L 100.489256 67.544384 
L 104.58843 68.47206 
L 108.687603 67.948306 
L 112.786777 68.110416 
L 116.88595 72.177594 
L 120.985124 71.091768 
L 125.084298 69.704675 
L 129.183471 69.785967 
L 133.282645 68.474239 
L 137.381818 74.715978 
L 141.480992 68.853725 
L 145.580165 73.510043 
L 149.679339 71.14135 
L 153.778512 67.842563 
L 157.877686 68.769265 
L 161.97686 71.809384 
L 166.076033 70.311383 
L 170.175207 71.032807 
L 174.27438 68.156363 
L 178.373554 68.213841 
L 182.472727 67.034242 
L 186.571901 70.537375 
L 190.671074 68.776969 
L 194.770248 69.728389 
L 198.869421 69.374332 
L 202.968595 66.835856 
L 207.067769 61.11 
L 211.166942 65.192015 
L 215.266116 71.516411 
L 219.365289 71.068029 
L 223.464463 68.116866 
L 227.563636 72.650653 
L 231.66281 65.578602 
L 235.761983 63.871344 
L 239.861157 69.148966 
L 243.960331 64.510613 
L 248.059504 69.058082 
L 252.158678 64.107032 
L 256.257851 64.334941 
L 260.357025 67.336329 
L 264.456198 66.956692 
L 268.555372 69.882364 
L 272.654545 70.278212 
L 276.753719 64.294751 
L 280.852893 68.863896 
L 284.952066 69.461439 
L 289.05124 63.621457 
L 293.150413 65.301179 
L 297.249587 67.183886 
L 301.34876 68.540919 
L 305.447934 67.804154 
L 309.547107 68.4389 
L 313.646281 68.163953 
L 317.745455 65.901447 
L 321.844628 67.779312 
L 325.943802 69.581697 
L 330.042975 67.709352 
L 334.142149 67.775231 
L 338.241322 69.994954 
L 342.340496 68.367362 
L 346.439669 68.760319 
L 350.538843 66.310235 
L 354.638017 71.539693 
L 358.73719 69.760133 
L 362.836364 68.333455 
L 366.935537 66.740451 
L 371.034711 64.447147 
L 375.133884 66.098954 
L 379.233058 71.131719 
L 383.332231 70.167571 
L 387.431405 67.860589 
L 391.530579 67.855829 
L 395.629752 64.930183 
L 399.728926 68.598901 
L 403.828099 66.565742 
L 407.927273 65.402642 
L 412.026446 66.904795 
L 416.12562 68.784407 
L 420.224793 66.093139 
L 424.323967 69.949029 
L 428.42314 68.432529 
L 432.522314 67.044116 
L 436.621488 68.37566 
L 440.720661 68.500211 
L 444.819835 64.213673 
L 448.919008 66.597243 
L 453.018182 66.926105 
L 457.117355 71.178446 
L 461.216529 69.108332 
L 465.315702 66.079207 
L 469.414876 72.023389 
L 473.51405 67.018879 
L 477.613223 71.79777 
L 481.712397 70.762306 
L 485.81157 68.490206 
L 489.910744 68.599563 
L 494.009917 68.895047 
L 498.109091 72.989408 
" style="fill:none;stroke:#000000;stroke-linecap:round;stroke-width:1.75;"/>
    <defs>
     <path d="M 0 3.5 
C 0.928211 3.5 1.81853 3.131218 2.474874 2.474874 
C 3.131218 1.81853 3.5 0.928211 3.5 0 
C 3.5 -0.928211 3.131218 -1.81853 2.474874 -2.474874 
C 1.81853 -3.131218 0.928211 -3.5 0 -3.5 
C -0.928211 -3.5 -1.81853 -3.131218 -2.474874 -2.474874 
C -3.131218 -1.81853 -3.5 -0.928211 -3.5 0 
C -3.5 0.928211 -3.131218 1.81853 -2.474874 2.474874 
C -1.81853 3.131218 -0.928211 3.5 0 3.5 
z
" id="maba981b420"/>
    </defs>
    <g clip-path="url(#pc079b0171c)">
     <use x="92.290909" xlink:href="#maba981b420" y="68.096008"/>
     <use x="96.390083" xlink:href="#maba981b420" y="68.091635"/>
     <use x="100.489256" xlink:href="#maba981b420" y="67.544384"/>
     <use x="104.58843" xlink:href="#maba981b420" y="68.47206"/>
     <use x="108.687603" xlink:href="#maba981b420" y="67.948306"/>
     <use x="112.786777" xlink:href="#maba981b420" y="68.110416"/>
     <use x="116.88595" xlink:href="#maba981b420" y="72.177594"/>
     <use x="120.985124" xlink:href="#maba981b420" y="71.091768"/>
     <use x="125.084298" xlink:href="#maba981b420" y="69.704675"/>
     <use x="129.183471" xlink:href="#maba981b420" y="69.785967"/>
     <use x="133.282645" xlink:href="#maba981b420" y="68.474239"/>
     <use x="137.381818" xlink:href="#maba981b420" y="74.715978"/>
     <use x="141.480992" xlink:href="#maba981b420" y="68.853725"/>
     <use x="145.580165" xlink:href="#maba981b420" y="73.510043"/>
     <use x="149.679339" xlink:href="#maba981b420" y="71.14135"/>
     <use x="153.778512" xlink:href="#maba981b420" y="67.842563"/>
     <use x="157.877686" xlink:href="#maba981b420" y="68.769265"/>
     <use x="161.97686" xlink:href="#maba981b420" y="71.809384"/>
     <use x="166.076033" xlink:href="#maba981b420" y="70.311383"/>
     <use x="170.175207" xlink:href="#maba981b420" y="71.032807"/>
     <use x="174.27438" xlink:href="#maba981b420" y="68.156363"/>
     <use x="178.373554" xlink:href="#maba981b420" y="68.213841"/>
     <use x="182.472727" xlink:href="#maba981b420" y="67.034242"/>
     <use x="186.571901" xlink:href="#maba981b420" y="70.537375"/>
     <use x="190.671074" xlink:href="#maba981b420" y="68.776969"/>
     <use x="194.770248" xlink:href="#maba981b420" y="69.728389"/>
     <use x="198.869421" xlink:href="#maba981b420" y="69.374332"/>
     <use x="202.968595" xlink:href="#maba981b420" y="66.835856"/>
     <use x="207.067769" xlink:href="#maba981b420" y="61.11"/>
     <use x="211.166942" xlink:href="#maba981b420" y="65.192015"/>
     <use x="215.266116" xlink:href="#maba981b420" y="71.516411"/>
     <use x="219.365289" xlink:href="#maba981b420" y="71.068029"/>
     <use x="223.464463" xlink:href="#maba981b420" y="68.116866"/>
     <use x="227.563636" xlink:href="#maba981b420" y="72.650653"/>
     <use x="231.66281" xlink:href="#maba981b420" y="65.578602"/>
     <use x="235.761983" xlink:href="#maba981b420" y="63.871344"/>
     <use x="239.861157" xlink:href="#maba981b420" y="69.148966"/>
     <use x="243.960331" xlink:href="#maba981b420" y="64.510613"/>
     <use x="248.059504" xlink:href="#maba981b420" y="69.058082"/>
     <use x="252.158678" xlink:href="#maba981b420" y="64.107032"/>
     <use x="256.257851" xlink:href="#maba981b420" y="64.334941"/>
     <use x="260.357025" xlink:href="#maba981b420" y="67.336329"/>
     <use x="264.456198" xlink:href="#maba981b420" y="66.956692"/>
     <use x="268.555372" xlink:href="#maba981b420" y="69.882364"/>
     <use x="272.654545" xlink:href="#maba981b420" y="70.278212"/>
     <use x="276.753719" xlink:href="#maba981b420" y="64.294751"/>
     <use x="280.852893" xlink:href="#maba981b420" y="68.863896"/>
     <use x="284.952066" xlink:href="#maba981b420" y="69.461439"/>
     <use x="289.05124" xlink:href="#maba981b420" y="63.621457"/>
     <use x="293.150413" xlink:href="#maba981b420" y="65.301179"/>
     <use x="297.249587" xlink:href="#maba981b420" y="67.183886"/>
     <use x="301.34876" xlink:href="#maba981b420" y="68.540919"/>
     <use x="305.447934" xlink:href="#maba981b420" y="67.804154"/>
     <use x="309.547107" xlink:href="#maba981b420" y="68.4389"/>
     <use x="313.646281" xlink:href="#maba981b420" y="68.163953"/>
     <use x="317.745455" xlink:href="#maba981b420" y="65.901447"/>
     <use x="321.844628" xlink:href="#maba981b420" y="67.779312"/>
     <use x="325.943802" xlink:href="#maba981b420" y="69.581697"/>
     <use x="330.042975" xlink:href="#maba981b420" y="67.709352"/>
     <use x="334.142149" xlink:href="#maba981b420" y="67.775231"/>
     <use x="338.241322" xlink:href="#maba981b420" y="69.994954"/>
     <use x="342.340496" xlink:href="#maba981b420" y="68.367362"/>
     <use x="346.439669" xlink:href="#maba981b420" y="68.760319"/>
     <use x="350.538843" xlink:href="#maba981b420" y="66.310235"/>
     <use x="354.638017" xlink:href="#maba981b420" y="71.539693"/>
     <use x="358.73719" xlink:href="#maba981b420" y="69.760133"/>
     <use x="362.836364" xlink:href="#maba981b420" y="68.333455"/>
     <use x="366.935537" xlink:href="#maba981b420" y="66.740451"/>
     <use x="371.034711" xlink:href="#maba981b420" y="64.447147"/>
     <use x="375.133884" xlink:href="#maba981b420" y="66.098954"/>
     <use x="379.233058" xlink:href="#maba981b420" y="71.131719"/>
     <use x="383.332231" xlink:href="#maba981b420" y="70.167571"/>
     <use x="387.431405" xlink:href="#maba981b420" y="67.860589"/>
     <use x="391.530579" xlink:href="#maba981b420" y="67.855829"/>
     <use x="395.629752" xlink:href="#maba981b420" y="64.930183"/>
     <use x="399.728926" xlink:href="#maba981b420" y="68.598901"/>
     <use x="403.828099" xlink:href="#maba981b420" y="66.565742"/>
     <use x="407.927273" xlink:href="#maba981b420" y="65.402642"/>
     <use x="412.026446" xlink:href="#maba981b420" y="66.904795"/>
     <use x="416.12562" xlink:href="#maba981b420" y="68.784407"/>
     <use x="420.224793" xlink:href="#maba981b420" y="66.093139"/>
     <use x="424.323967" xlink:href="#maba981b420" y="69.949029"/>
     <use x="428.42314" xlink:href="#maba981b420" y="68.432529"/>
     <use x="432.522314" xlink:href="#maba981b420" y="67.044116"/>
     <use x="436.621488" xlink:href="#maba981b420" y="68.37566"/>
     <use x="440.720661" xlink:href="#maba981b420" y="68.500211"/>
     <use x="444.819835" xlink:href="#maba981b420" y="64.213673"/>
     <use x="448.919008" xlink:href="#maba981b420" y="66.597243"/>
     <use x="453.018182" xlink:href="#maba981b420" y="66.926105"/>
     <use x="457.117355" xlink:href="#maba981b420" y="71.178446"/>
     <use x="461.216529" xlink:href="#maba981b420" y="69.108332"/>
     <use x="465.315702" xlink:href="#maba981b420" y="66.079207"/>
     <use x="469.414876" xlink:href="#maba981b420" y="72.023389"/>
     <use x="473.51405" xlink:href="#maba981b420" y="67.018879"/>
     <use x="477.613223" xlink:href="#maba981b420" y="71.79777"/>
     <use x="481.712397" xlink:href="#maba981b420" y="70.762306"/>
     <use x="485.81157" xlink:href="#maba981b420" y="68.490206"/>
     <use x="489.910744" xlink:href="#maba981b420" y="68.599563"/>
     <use x="494.009917" xlink:href="#maba981b420" y="68.895047"/>
     <use x="498.109091" xlink:href="#maba981b420" y="72.989408"/>
    </g>
   </g>
   <g id="line2d_31">
    <path clip-path="url(#pc079b0171c)" d="M 92.290909 251.536573 
L 96.390083 249.434253 
L 100.489256 251.099619 
L 104.58843 249.703277 
L 108.687603 250.387335 
L 112.786777 249.30295 
L 116.88595 245.844698 
L 120.985124 249.742595 
L 125.084298 248.336311 
L 129.183471 246.20363 
L 133.282645 249.245456 
L 137.381818 245.048707 
L 141.480992 248.429751 
L 145.580165 247.330091 
L 149.679339 245.576782 
L 153.778512 248.740288 
L 157.877686 250.911592 
L 161.97686 250.252829 
L 166.076033 248.72393 
L 170.175207 248.893085 
L 174.27438 249.692968 
L 178.373554 251.757043 
L 182.472727 252.735297 
L 186.571901 246.735085 
L 190.671074 249.172472 
L 194.770248 249.504959 
L 198.869421 246.59795 
L 202.968595 251.514233 
L 207.067769 252.154185 
L 211.166942 254.124261 
L 215.266116 245.824612 
L 219.365289 251.546778 
L 223.464463 248.0483 
L 227.563636 242.534052 
L 231.66281 247.46882 
L 235.761983 254.354685 
L 239.861157 247.246543 
L 243.960331 251.988785 
L 248.059504 250.917819 
L 252.158678 251.111569 
L 256.257851 251.997046 
L 260.357025 248.742687 
L 264.456198 250.654296 
L 268.555372 249.181017 
L 272.654545 246.52971 
L 276.753719 251.184349 
L 280.852893 247.697767 
L 284.952066 248.529989 
L 289.05124 252.584064 
L 293.150413 248.515114 
L 297.249587 247.7412 
L 301.34876 247.254866 
L 305.447934 248.492325 
L 309.547107 246.148415 
L 313.646281 248.016938 
L 317.745455 250.442184 
L 321.844628 250.585588 
L 325.943802 247.452057 
L 330.042975 249.992619 
L 334.142149 249.876613 
L 338.241322 245.679989 
L 342.340496 248.542256 
L 346.439669 247.736054 
L 350.538843 251.434501 
L 354.638017 246.107304 
L 358.73719 247.943749 
L 362.836364 248.133947 
L 366.935537 248.224356 
L 371.034711 250.64862 
L 375.133884 249.23374 
L 379.233058 246.999193 
L 383.332231 250.242723 
L 387.431405 248.329667 
L 391.530579 248.598914 
L 395.629752 252.340547 
L 399.728926 249.321524 
L 403.828099 249.467377 
L 407.927273 250.745121 
L 412.026446 250.785978 
L 416.12562 249.323505 
L 420.224793 249.216173 
L 424.323967 247.61489 
L 428.42314 248.656819 
L 432.522314 248.581467 
L 436.621488 248.486808 
L 440.720661 246.633467 
L 444.819835 253.630213 
L 448.919008 248.200718 
L 453.018182 248.760235 
L 457.117355 245.463564 
L 461.216529 247.765303 
L 465.315702 249.535838 
L 469.414876 245.207411 
L 473.51405 249.10075 
L 477.613223 248.531232 
L 481.712397 250.283877 
L 485.81157 245.502963 
L 489.910744 249.751248 
L 494.009917 249.736933 
L 498.109091 244.566344 
" style="fill:none;stroke:#bfbf00;stroke-linecap:round;stroke-width:1.75;"/>
    <defs>
     <path d="M 0 3.5 
C 0.928211 3.5 1.81853 3.131218 2.474874 2.474874 
C 3.131218 1.81853 3.5 0.928211 3.5 0 
C 3.5 -0.928211 3.131218 -1.81853 2.474874 -2.474874 
C 1.81853 -3.131218 0.928211 -3.5 0 -3.5 
C -0.928211 -3.5 -1.81853 -3.131218 -2.474874 -2.474874 
C -3.131218 -1.81853 -3.5 -0.928211 -3.5 0 
C -3.5 0.928211 -3.131218 1.81853 -2.474874 2.474874 
C -1.81853 3.131218 -0.928211 3.5 0 3.5 
z
" id="m647284ed7d"/>
    </defs>
    <g clip-path="url(#pc079b0171c)">
     <use style="fill:#bfbf00;" x="92.290909" xlink:href="#m647284ed7d" y="251.536573"/>
     <use style="fill:#bfbf00;" x="96.390083" xlink:href="#m647284ed7d" y="249.434253"/>
     <use style="fill:#bfbf00;" x="100.489256" xlink:href="#m647284ed7d" y="251.099619"/>
     <use style="fill:#bfbf00;" x="104.58843" xlink:href="#m647284ed7d" y="249.703277"/>
     <use style="fill:#bfbf00;" x="108.687603" xlink:href="#m647284ed7d" y="250.387335"/>
     <use style="fill:#bfbf00;" x="112.786777" xlink:href="#m647284ed7d" y="249.30295"/>
     <use style="fill:#bfbf00;" x="116.88595" xlink:href="#m647284ed7d" y="245.844698"/>
     <use style="fill:#bfbf00;" x="120.985124" xlink:href="#m647284ed7d" y="249.742595"/>
     <use style="fill:#bfbf00;" x="125.084298" xlink:href="#m647284ed7d" y="248.336311"/>
     <use style="fill:#bfbf00;" x="129.183471" xlink:href="#m647284ed7d" y="246.20363"/>
     <use style="fill:#bfbf00;" x="133.282645" xlink:href="#m647284ed7d" y="249.245456"/>
     <use style="fill:#bfbf00;" x="137.381818" xlink:href="#m647284ed7d" y="245.048707"/>
     <use style="fill:#bfbf00;" x="141.480992" xlink:href="#m647284ed7d" y="248.429751"/>
     <use style="fill:#bfbf00;" x="145.580165" xlink:href="#m647284ed7d" y="247.330091"/>
     <use style="fill:#bfbf00;" x="149.679339" xlink:href="#m647284ed7d" y="245.576782"/>
     <use style="fill:#bfbf00;" x="153.778512" xlink:href="#m647284ed7d" y="248.740288"/>
     <use style="fill:#bfbf00;" x="157.877686" xlink:href="#m647284ed7d" y="250.911592"/>
     <use style="fill:#bfbf00;" x="161.97686" xlink:href="#m647284ed7d" y="250.252829"/>
     <use style="fill:#bfbf00;" x="166.076033" xlink:href="#m647284ed7d" y="248.72393"/>
     <use style="fill:#bfbf00;" x="170.175207" xlink:href="#m647284ed7d" y="248.893085"/>
     <use style="fill:#bfbf00;" x="174.27438" xlink:href="#m647284ed7d" y="249.692968"/>
     <use style="fill:#bfbf00;" x="178.373554" xlink:href="#m647284ed7d" y="251.757043"/>
     <use style="fill:#bfbf00;" x="182.472727" xlink:href="#m647284ed7d" y="252.735297"/>
     <use style="fill:#bfbf00;" x="186.571901" xlink:href="#m647284ed7d" y="246.735085"/>
     <use style="fill:#bfbf00;" x="190.671074" xlink:href="#m647284ed7d" y="249.172472"/>
     <use style="fill:#bfbf00;" x="194.770248" xlink:href="#m647284ed7d" y="249.504959"/>
     <use style="fill:#bfbf00;" x="198.869421" xlink:href="#m647284ed7d" y="246.59795"/>
     <use style="fill:#bfbf00;" x="202.968595" xlink:href="#m647284ed7d" y="251.514233"/>
     <use style="fill:#bfbf00;" x="207.067769" xlink:href="#m647284ed7d" y="252.154185"/>
     <use style="fill:#bfbf00;" x="211.166942" xlink:href="#m647284ed7d" y="254.124261"/>
     <use style="fill:#bfbf00;" x="215.266116" xlink:href="#m647284ed7d" y="245.824612"/>
     <use style="fill:#bfbf00;" x="219.365289" xlink:href="#m647284ed7d" y="251.546778"/>
     <use style="fill:#bfbf00;" x="223.464463" xlink:href="#m647284ed7d" y="248.0483"/>
     <use style="fill:#bfbf00;" x="227.563636" xlink:href="#m647284ed7d" y="242.534052"/>
     <use style="fill:#bfbf00;" x="231.66281" xlink:href="#m647284ed7d" y="247.46882"/>
     <use style="fill:#bfbf00;" x="235.761983" xlink:href="#m647284ed7d" y="254.354685"/>
     <use style="fill:#bfbf00;" x="239.861157" xlink:href="#m647284ed7d" y="247.246543"/>
     <use style="fill:#bfbf00;" x="243.960331" xlink:href="#m647284ed7d" y="251.988785"/>
     <use style="fill:#bfbf00;" x="248.059504" xlink:href="#m647284ed7d" y="250.917819"/>
     <use style="fill:#bfbf00;" x="252.158678" xlink:href="#m647284ed7d" y="251.111569"/>
     <use style="fill:#bfbf00;" x="256.257851" xlink:href="#m647284ed7d" y="251.997046"/>
     <use style="fill:#bfbf00;" x="260.357025" xlink:href="#m647284ed7d" y="248.742687"/>
     <use style="fill:#bfbf00;" x="264.456198" xlink:href="#m647284ed7d" y="250.654296"/>
     <use style="fill:#bfbf00;" x="268.555372" xlink:href="#m647284ed7d" y="249.181017"/>
     <use style="fill:#bfbf00;" x="272.654545" xlink:href="#m647284ed7d" y="246.52971"/>
     <use style="fill:#bfbf00;" x="276.753719" xlink:href="#m647284ed7d" y="251.184349"/>
     <use style="fill:#bfbf00;" x="280.852893" xlink:href="#m647284ed7d" y="247.697767"/>
     <use style="fill:#bfbf00;" x="284.952066" xlink:href="#m647284ed7d" y="248.529989"/>
     <use style="fill:#bfbf00;" x="289.05124" xlink:href="#m647284ed7d" y="252.584064"/>
     <use style="fill:#bfbf00;" x="293.150413" xlink:href="#m647284ed7d" y="248.515114"/>
     <use style="fill:#bfbf00;" x="297.249587" xlink:href="#m647284ed7d" y="247.7412"/>
     <use style="fill:#bfbf00;" x="301.34876" xlink:href="#m647284ed7d" y="247.254866"/>
     <use style="fill:#bfbf00;" x="305.447934" xlink:href="#m647284ed7d" y="248.492325"/>
     <use style="fill:#bfbf00;" x="309.547107" xlink:href="#m647284ed7d" y="246.148415"/>
     <use style="fill:#bfbf00;" x="313.646281" xlink:href="#m647284ed7d" y="248.016938"/>
     <use style="fill:#bfbf00;" x="317.745455" xlink:href="#m647284ed7d" y="250.442184"/>
     <use style="fill:#bfbf00;" x="321.844628" xlink:href="#m647284ed7d" y="250.585588"/>
     <use style="fill:#bfbf00;" x="325.943802" xlink:href="#m647284ed7d" y="247.452057"/>
     <use style="fill:#bfbf00;" x="330.042975" xlink:href="#m647284ed7d" y="249.992619"/>
     <use style="fill:#bfbf00;" x="334.142149" xlink:href="#m647284ed7d" y="249.876613"/>
     <use style="fill:#bfbf00;" x="338.241322" xlink:href="#m647284ed7d" y="245.679989"/>
     <use style="fill:#bfbf00;" x="342.340496" xlink:href="#m647284ed7d" y="248.542256"/>
     <use style="fill:#bfbf00;" x="346.439669" xlink:href="#m647284ed7d" y="247.736054"/>
     <use style="fill:#bfbf00;" x="350.538843" xlink:href="#m647284ed7d" y="251.434501"/>
     <use style="fill:#bfbf00;" x="354.638017" xlink:href="#m647284ed7d" y="246.107304"/>
     <use style="fill:#bfbf00;" x="358.73719" xlink:href="#m647284ed7d" y="247.943749"/>
     <use style="fill:#bfbf00;" x="362.836364" xlink:href="#m647284ed7d" y="248.133947"/>
     <use style="fill:#bfbf00;" x="366.935537" xlink:href="#m647284ed7d" y="248.224356"/>
     <use style="fill:#bfbf00;" x="371.034711" xlink:href="#m647284ed7d" y="250.64862"/>
     <use style="fill:#bfbf00;" x="375.133884" xlink:href="#m647284ed7d" y="249.23374"/>
     <use style="fill:#bfbf00;" x="379.233058" xlink:href="#m647284ed7d" y="246.999193"/>
     <use style="fill:#bfbf00;" x="383.332231" xlink:href="#m647284ed7d" y="250.242723"/>
     <use style="fill:#bfbf00;" x="387.431405" xlink:href="#m647284ed7d" y="248.329667"/>
     <use style="fill:#bfbf00;" x="391.530579" xlink:href="#m647284ed7d" y="248.598914"/>
     <use style="fill:#bfbf00;" x="395.629752" xlink:href="#m647284ed7d" y="252.340547"/>
     <use style="fill:#bfbf00;" x="399.728926" xlink:href="#m647284ed7d" y="249.321524"/>
     <use style="fill:#bfbf00;" x="403.828099" xlink:href="#m647284ed7d" y="249.467377"/>
     <use style="fill:#bfbf00;" x="407.927273" xlink:href="#m647284ed7d" y="250.745121"/>
     <use style="fill:#bfbf00;" x="412.026446" xlink:href="#m647284ed7d" y="250.785978"/>
     <use style="fill:#bfbf00;" x="416.12562" xlink:href="#m647284ed7d" y="249.323505"/>
     <use style="fill:#bfbf00;" x="420.224793" xlink:href="#m647284ed7d" y="249.216173"/>
     <use style="fill:#bfbf00;" x="424.323967" xlink:href="#m647284ed7d" y="247.61489"/>
     <use style="fill:#bfbf00;" x="428.42314" xlink:href="#m647284ed7d" y="248.656819"/>
     <use style="fill:#bfbf00;" x="432.522314" xlink:href="#m647284ed7d" y="248.581467"/>
     <use style="fill:#bfbf00;" x="436.621488" xlink:href="#m647284ed7d" y="248.486808"/>
     <use style="fill:#bfbf00;" x="440.720661" xlink:href="#m647284ed7d" y="246.633467"/>
     <use style="fill:#bfbf00;" x="444.819835" xlink:href="#m647284ed7d" y="253.630213"/>
     <use style="fill:#bfbf00;" x="448.919008" xlink:href="#m647284ed7d" y="248.200718"/>
     <use style="fill:#bfbf00;" x="453.018182" xlink:href="#m647284ed7d" y="248.760235"/>
     <use style="fill:#bfbf00;" x="457.117355" xlink:href="#m647284ed7d" y="245.463564"/>
     <use style="fill:#bfbf00;" x="461.216529" xlink:href="#m647284ed7d" y="247.765303"/>
     <use style="fill:#bfbf00;" x="465.315702" xlink:href="#m647284ed7d" y="249.535838"/>
     <use style="fill:#bfbf00;" x="469.414876" xlink:href="#m647284ed7d" y="245.207411"/>
     <use style="fill:#bfbf00;" x="473.51405" xlink:href="#m647284ed7d" y="249.10075"/>
     <use style="fill:#bfbf00;" x="477.613223" xlink:href="#m647284ed7d" y="248.531232"/>
     <use style="fill:#bfbf00;" x="481.712397" xlink:href="#m647284ed7d" y="250.283877"/>
     <use style="fill:#bfbf00;" x="485.81157" xlink:href="#m647284ed7d" y="245.502963"/>
     <use style="fill:#bfbf00;" x="489.910744" xlink:href="#m647284ed7d" y="249.751248"/>
     <use style="fill:#bfbf00;" x="494.009917" xlink:href="#m647284ed7d" y="249.736933"/>
     <use style="fill:#bfbf00;" x="498.109091" xlink:href="#m647284ed7d" y="244.566344"/>
    </g>
   </g>
   <g id="patch_3">
    <path d="M 72 346.5 
L 72 47.52 
" style="fill:none;"/>
   </g>
   <g id="patch_4">
    <path d="M 518.4 346.5 
L 518.4 47.52 
" style="fill:none;"/>
   </g>
   <g id="patch_5">
    <path d="M 72 346.5 
L 518.4 346.5 
" style="fill:none;"/>
   </g>
   <g id="patch_6">
    <path d="M 72 47.52 
L 518.4 47.52 
" style="fill:none;"/>
   </g>
   <g id="legend_1">
    <g id="line2d_32">
     <path d="M 266.2 275.314062 
L 286.2 275.314062 
" style="fill:none;stroke:#00bfbf;stroke-linecap:round;stroke-width:1.75;"/>
    </g>
    <g id="line2d_33">
     <g>
      <use style="fill:#00bfbf;" x="276.2" xlink:href="#m64d3adfbb9" y="275.314062"/>
     </g>
    </g>
    <g id="text_16">
     <!-- AFINN -->
     <defs>
      <path d="M 8.203125 0 
L 8.203125 71.578125 
L 56.5 71.578125 
L 56.5 63.140625 
L 17.671875 63.140625 
L 17.671875 40.96875 
L 51.265625 40.96875 
L 51.265625 32.515625 
L 17.671875 32.515625 
L 17.671875 0 
z
" id="ArialMT-46"/>
      <path d="M 9.328125 0 
L 9.328125 71.578125 
L 18.796875 71.578125 
L 18.796875 0 
z
" id="ArialMT-49"/>
      <path d="M 7.625 0 
L 7.625 71.578125 
L 17.328125 71.578125 
L 54.9375 15.375 
L 54.9375 71.578125 
L 64.015625 71.578125 
L 64.015625 0 
L 54.296875 0 
L 16.703125 56.25 
L 16.703125 0 
z
" id="ArialMT-4e"/>
     </defs>
     <g style="fill:#262626;" transform="translate(294.2 278.814062)scale(0.1 -0.1)">
      <use xlink:href="#ArialMT-41"/>
      <use x="66.699219" xlink:href="#ArialMT-46"/>
      <use x="127.783203" xlink:href="#ArialMT-49"/>
      <use x="155.566406" xlink:href="#ArialMT-4e"/>
      <use x="227.783203" xlink:href="#ArialMT-4e"/>
     </g>
    </g>
    <g id="line2d_34">
     <path d="M 266.2 289.459375 
L 286.2 289.459375 
" style="fill:none;stroke:#008000;stroke-linecap:round;stroke-width:1.75;"/>
    </g>
    <g id="line2d_35">
     <g>
      <use style="fill:#008000;" x="276.2" xlink:href="#md062400957" y="289.459375"/>
     </g>
    </g>
    <g id="text_17">
     <!-- comp -->
     <defs>
      <path d="M 6.59375 -19.875 
L 6.59375 51.859375 
L 14.59375 51.859375 
L 14.59375 45.125 
Q 17.4375 49.078125 21 51.046875 
Q 24.5625 53.03125 29.640625 53.03125 
Q 36.28125 53.03125 41.359375 49.609375 
Q 46.4375 46.1875 49.015625 39.953125 
Q 51.609375 33.734375 51.609375 26.3125 
Q 51.609375 18.359375 48.75 11.984375 
Q 45.90625 5.609375 40.453125 2.21875 
Q 35.015625 -1.171875 29 -1.171875 
Q 24.609375 -1.171875 21.109375 0.6875 
Q 17.625 2.546875 15.375 5.375 
L 15.375 -19.875 
z
M 14.546875 25.640625 
Q 14.546875 15.625 18.59375 10.84375 
Q 22.65625 6.0625 28.421875 6.0625 
Q 34.28125 6.0625 38.453125 11.015625 
Q 42.625 15.96875 42.625 26.375 
Q 42.625 36.28125 38.546875 41.203125 
Q 34.46875 46.140625 28.8125 46.140625 
Q 23.1875 46.140625 18.859375 40.890625 
Q 14.546875 35.640625 14.546875 25.640625 
z
" id="ArialMT-70"/>
     </defs>
     <g style="fill:#262626;" transform="translate(294.2 292.959375)scale(0.1 -0.1)">
      <use xlink:href="#ArialMT-63"/>
      <use x="50" xlink:href="#ArialMT-6f"/>
      <use x="105.615234" xlink:href="#ArialMT-6d"/>
      <use x="188.916016" xlink:href="#ArialMT-70"/>
     </g>
    </g>
    <g id="line2d_36">
     <path d="M 266.2 303.604688 
L 286.2 303.604688 
" style="fill:none;stroke:#0000ff;stroke-linecap:round;stroke-width:1.75;"/>
    </g>
    <g id="line2d_37">
     <g>
      <use style="fill:#0000ff;" x="276.2" xlink:href="#mbdc3dd5f64" y="303.604688"/>
     </g>
    </g>
    <g id="text_18">
     <!-- neg -->
     <g style="fill:#262626;" transform="translate(294.2 307.104688)scale(0.1 -0.1)">
      <use xlink:href="#ArialMT-6e"/>
      <use x="55.615234" xlink:href="#ArialMT-65"/>
      <use x="111.230469" xlink:href="#ArialMT-67"/>
     </g>
    </g>
    <g id="line2d_38">
     <path d="M 266.2 317.867188 
L 286.2 317.867188 
" style="fill:none;stroke:#000000;stroke-linecap:round;stroke-width:1.75;"/>
    </g>
    <g id="line2d_39">
     <g>
      <use x="276.2" xlink:href="#maba981b420" y="317.867188"/>
     </g>
    </g>
    <g id="text_19">
     <!-- neu -->
     <g style="fill:#262626;" transform="translate(294.2 321.367188)scale(0.1 -0.1)">
      <use xlink:href="#ArialMT-6e"/>
      <use x="55.615234" xlink:href="#ArialMT-65"/>
      <use x="111.230469" xlink:href="#ArialMT-75"/>
     </g>
    </g>
    <g id="line2d_40">
     <path d="M 266.2 332.0125 
L 286.2 332.0125 
" style="fill:none;stroke:#bfbf00;stroke-linecap:round;stroke-width:1.75;"/>
    </g>
    <g id="line2d_41">
     <g>
      <use style="fill:#bfbf00;" x="276.2" xlink:href="#m647284ed7d" y="332.0125"/>
     </g>
    </g>
    <g id="text_20">
     <!-- pos -->
     <g style="fill:#262626;" transform="translate(294.2 335.5125)scale(0.1 -0.1)">
      <use xlink:href="#ArialMT-70"/>
      <use x="55.615234" xlink:href="#ArialMT-6f"/>
      <use x="111.230469" xlink:href="#ArialMT-73"/>
     </g>
    </g>
   </g>
  </g>
 </g>
 <defs>
  <clipPath id="pc079b0171c">
   <rect height="298.98" width="446.4" x="72" y="47.52"/>
  </clipPath>
 </defs>
</svg>
