<?xml version="1.0" encoding="utf-8" standalone="no"?>
<!DOCTYPE svg PUBLIC "-//W3C//DTD SVG 1.1//EN"
  "http://www.w3.org/Graphics/SVG/1.1/DTD/svg11.dtd">
<!-- Created with matplotlib (http://matplotlib.org/) -->
<svg height="396pt" version="1.1" viewBox="0 0 576 396" width="576pt" xmlns="http://www.w3.org/2000/svg" xmlns:xlink="http://www.w3.org/1999/xlink">
 <defs>
  <style type="text/css">
*{stroke-linecap:butt;stroke-linejoin:round;}
  </style>
 </defs>
 <g id="figure_1">
  <g id="patch_1">
   <path d="M 0 396 
L 576 396 
L 576 0 
L 0 0 
z
" style="fill:#ffffff;"/>
  </g>
  <g id="axes_1">
   <g id="patch_2">
    <path d="M 72 352.44 
L 518.4 352.44 
L 518.4 47.52 
L 72 47.52 
z
" style="fill:#eaeaf2;"/>
   </g>
   <g id="matplotlib.axis_1">
    <g id="xtick_1">
     <g id="line2d_1">
      <path clip-path="url(#p0d588de89d)" d="M 99.47888 352.44 
L 99.47888 47.52 
" style="fill:none;stroke:#ffffff;stroke-linecap:round;"/>
     </g>
     <g id="line2d_2"/>
     <g id="text_1">
      <!-- −3 -->
      <defs>
       <path d="M 52.828125 31.203125 
L 5.5625 31.203125 
L 5.5625 39.40625 
L 52.828125 39.40625 
z
" id="ArialMT-2212"/>
       <path d="M 4.203125 18.890625 
L 12.984375 20.0625 
Q 14.5 12.59375 18.140625 9.296875 
Q 21.78125 6 27 6 
Q 33.203125 6 37.46875 10.296875 
Q 41.75 14.59375 41.75 20.953125 
Q 41.75 27 37.796875 30.921875 
Q 33.84375 34.859375 27.734375 34.859375 
Q 25.25 34.859375 21.53125 33.890625 
L 22.515625 41.609375 
Q 23.390625 41.5 23.921875 41.5 
Q 29.546875 41.5 34.03125 44.421875 
Q 38.53125 47.359375 38.53125 53.46875 
Q 38.53125 58.296875 35.25 61.46875 
Q 31.984375 64.65625 26.8125 64.65625 
Q 21.6875 64.65625 18.265625 61.421875 
Q 14.84375 58.203125 13.875 51.765625 
L 5.078125 53.328125 
Q 6.6875 62.15625 12.390625 67.015625 
Q 18.109375 71.875 26.609375 71.875 
Q 32.46875 71.875 37.390625 69.359375 
Q 42.328125 66.84375 44.9375 62.5 
Q 47.5625 58.15625 47.5625 53.265625 
Q 47.5625 48.640625 45.0625 44.828125 
Q 42.578125 41.015625 37.703125 38.765625 
Q 44.046875 37.3125 47.5625 32.6875 
Q 51.078125 28.078125 51.078125 21.140625 
Q 51.078125 11.765625 44.234375 5.25 
Q 37.40625 -1.265625 26.953125 -1.265625 
Q 17.53125 -1.265625 11.296875 4.34375 
Q 5.078125 9.96875 4.203125 18.890625 
z
" id="ArialMT-33"/>
      </defs>
      <g style="fill:#262626;" transform="translate(93.778099 366.597813)scale(0.1 -0.1)">
       <use xlink:href="#ArialMT-2212"/>
       <use x="58.398438" xlink:href="#ArialMT-33"/>
      </g>
     </g>
    </g>
    <g id="xtick_2">
     <g id="line2d_3">
      <path clip-path="url(#p0d588de89d)" d="M 164.719253 352.44 
L 164.719253 47.52 
" style="fill:none;stroke:#ffffff;stroke-linecap:round;"/>
     </g>
     <g id="line2d_4"/>
     <g id="text_2">
      <!-- −2 -->
      <defs>
       <path d="M 50.34375 8.453125 
L 50.34375 0 
L 3.03125 0 
Q 2.9375 3.171875 4.046875 6.109375 
Q 5.859375 10.9375 9.828125 15.625 
Q 13.8125 20.3125 21.34375 26.46875 
Q 33.015625 36.03125 37.109375 41.625 
Q 41.21875 47.21875 41.21875 52.203125 
Q 41.21875 57.421875 37.46875 61 
Q 33.734375 64.59375 27.734375 64.59375 
Q 21.390625 64.59375 17.578125 60.78125 
Q 13.765625 56.984375 13.71875 50.25 
L 4.6875 51.171875 
Q 5.609375 61.28125 11.65625 66.578125 
Q 17.71875 71.875 27.9375 71.875 
Q 38.234375 71.875 44.234375 66.15625 
Q 50.25 60.453125 50.25 52 
Q 50.25 47.703125 48.484375 43.546875 
Q 46.734375 39.40625 42.65625 34.8125 
Q 38.578125 30.21875 29.109375 22.21875 
Q 21.1875 15.578125 18.9375 13.203125 
Q 16.703125 10.84375 15.234375 8.453125 
z
" id="ArialMT-32"/>
      </defs>
      <g style="fill:#262626;" transform="translate(159.018472 366.597813)scale(0.1 -0.1)">
       <use xlink:href="#ArialMT-2212"/>
       <use x="58.398438" xlink:href="#ArialMT-32"/>
      </g>
     </g>
    </g>
    <g id="xtick_3">
     <g id="line2d_5">
      <path clip-path="url(#p0d588de89d)" d="M 229.959627 352.44 
L 229.959627 47.52 
" style="fill:none;stroke:#ffffff;stroke-linecap:round;"/>
     </g>
     <g id="line2d_6"/>
     <g id="text_3">
      <!-- −1 -->
      <defs>
       <path d="M 37.25 0 
L 28.46875 0 
L 28.46875 56 
Q 25.296875 52.984375 20.140625 49.953125 
Q 14.984375 46.921875 10.890625 45.40625 
L 10.890625 53.90625 
Q 18.265625 57.375 23.78125 62.296875 
Q 29.296875 67.234375 31.59375 71.875 
L 37.25 71.875 
z
" id="ArialMT-31"/>
      </defs>
      <g style="fill:#262626;" transform="translate(224.258845 366.597813)scale(0.1 -0.1)">
       <use xlink:href="#ArialMT-2212"/>
       <use x="58.398438" xlink:href="#ArialMT-31"/>
      </g>
     </g>
    </g>
    <g id="xtick_4">
     <g id="line2d_7">
      <path clip-path="url(#p0d588de89d)" d="M 295.2 352.44 
L 295.2 47.52 
" style="fill:none;stroke:#ffffff;stroke-linecap:round;"/>
     </g>
     <g id="line2d_8"/>
     <g id="text_4">
      <!-- 0 -->
      <defs>
       <path d="M 4.15625 35.296875 
Q 4.15625 48 6.765625 55.734375 
Q 9.375 63.484375 14.515625 67.671875 
Q 19.671875 71.875 27.484375 71.875 
Q 33.25 71.875 37.59375 69.546875 
Q 41.9375 67.234375 44.765625 62.859375 
Q 47.609375 58.5 49.21875 52.21875 
Q 50.828125 45.953125 50.828125 35.296875 
Q 50.828125 22.703125 48.234375 14.96875 
Q 45.65625 7.234375 40.5 3 
Q 35.359375 -1.21875 27.484375 -1.21875 
Q 17.140625 -1.21875 11.234375 6.203125 
Q 4.15625 15.140625 4.15625 35.296875 
z
M 13.1875 35.296875 
Q 13.1875 17.671875 17.3125 11.828125 
Q 21.4375 6 27.484375 6 
Q 33.546875 6 37.671875 11.859375 
Q 41.796875 17.71875 41.796875 35.296875 
Q 41.796875 52.984375 37.671875 58.78125 
Q 33.546875 64.59375 27.390625 64.59375 
Q 21.34375 64.59375 17.71875 59.46875 
Q 13.1875 52.9375 13.1875 35.296875 
z
" id="ArialMT-30"/>
      </defs>
      <g style="fill:#262626;" transform="translate(292.419531 366.597813)scale(0.1 -0.1)">
       <use xlink:href="#ArialMT-30"/>
      </g>
     </g>
    </g>
    <g id="xtick_5">
     <g id="line2d_9">
      <path clip-path="url(#p0d588de89d)" d="M 360.440373 352.44 
L 360.440373 47.52 
" style="fill:none;stroke:#ffffff;stroke-linecap:round;"/>
     </g>
     <g id="line2d_10"/>
     <g id="text_5">
      <!-- 1 -->
      <g style="fill:#262626;" transform="translate(357.659905 366.597813)scale(0.1 -0.1)">
       <use xlink:href="#ArialMT-31"/>
      </g>
     </g>
    </g>
    <g id="xtick_6">
     <g id="line2d_11">
      <path clip-path="url(#p0d588de89d)" d="M 425.680747 352.44 
L 425.680747 47.52 
" style="fill:none;stroke:#ffffff;stroke-linecap:round;"/>
     </g>
     <g id="line2d_12"/>
     <g id="text_6">
      <!-- 2 -->
      <g style="fill:#262626;" transform="translate(422.900278 366.597813)scale(0.1 -0.1)">
       <use xlink:href="#ArialMT-32"/>
      </g>
     </g>
    </g>
    <g id="xtick_7">
     <g id="line2d_13">
      <path clip-path="url(#p0d588de89d)" d="M 490.92112 352.44 
L 490.92112 47.52 
" style="fill:none;stroke:#ffffff;stroke-linecap:round;"/>
     </g>
     <g id="line2d_14"/>
     <g id="text_7">
      <!-- 3 -->
      <g style="fill:#262626;" transform="translate(488.140651 366.597813)scale(0.1 -0.1)">
       <use xlink:href="#ArialMT-33"/>
      </g>
     </g>
    </g>
    <g id="text_8">
     <!-- Journal Phase, $\delta$ [radians] -->
     <defs>
      <path d="M 2.875 20.3125 
L 11.421875 21.484375 
Q 11.765625 13.28125 14.5 10.25 
Q 17.234375 7.234375 22.078125 7.234375 
Q 25.640625 7.234375 28.21875 8.859375 
Q 30.8125 10.5 31.78125 13.296875 
Q 32.765625 16.109375 32.765625 22.265625 
L 32.765625 71.578125 
L 42.234375 71.578125 
L 42.234375 22.796875 
Q 42.234375 13.8125 40.0625 8.875 
Q 37.890625 3.953125 33.171875 1.359375 
Q 28.46875 -1.21875 22.125 -1.21875 
Q 12.703125 -1.21875 7.6875 4.203125 
Q 2.6875 9.625 2.875 20.3125 
z
" id="ArialMT-4a"/>
      <path d="M 3.328125 25.921875 
Q 3.328125 40.328125 11.328125 47.265625 
Q 18.015625 53.03125 27.640625 53.03125 
Q 38.328125 53.03125 45.109375 46.015625 
Q 51.90625 39.015625 51.90625 26.65625 
Q 51.90625 16.65625 48.90625 10.90625 
Q 45.90625 5.171875 40.15625 2 
Q 34.421875 -1.171875 27.640625 -1.171875 
Q 16.75 -1.171875 10.03125 5.8125 
Q 3.328125 12.796875 3.328125 25.921875 
z
M 12.359375 25.921875 
Q 12.359375 15.96875 16.703125 11.015625 
Q 21.046875 6.0625 27.640625 6.0625 
Q 34.1875 6.0625 38.53125 11.03125 
Q 42.875 16.015625 42.875 26.21875 
Q 42.875 35.84375 38.5 40.796875 
Q 34.125 45.75 27.640625 45.75 
Q 21.046875 45.75 16.703125 40.8125 
Q 12.359375 35.890625 12.359375 25.921875 
z
" id="ArialMT-6f"/>
      <path d="M 40.578125 0 
L 40.578125 7.625 
Q 34.515625 -1.171875 24.125 -1.171875 
Q 19.53125 -1.171875 15.546875 0.578125 
Q 11.578125 2.34375 9.640625 5 
Q 7.71875 7.671875 6.9375 11.53125 
Q 6.390625 14.109375 6.390625 19.734375 
L 6.390625 51.859375 
L 15.1875 51.859375 
L 15.1875 23.09375 
Q 15.1875 16.21875 15.71875 13.8125 
Q 16.546875 10.359375 19.234375 8.375 
Q 21.921875 6.390625 25.875 6.390625 
Q 29.828125 6.390625 33.296875 8.421875 
Q 36.765625 10.453125 38.203125 13.9375 
Q 39.65625 17.4375 39.65625 24.078125 
L 39.65625 51.859375 
L 48.4375 51.859375 
L 48.4375 0 
z
" id="ArialMT-75"/>
      <path d="M 6.5 0 
L 6.5 51.859375 
L 14.40625 51.859375 
L 14.40625 44 
Q 17.4375 49.515625 20 51.265625 
Q 22.5625 53.03125 25.640625 53.03125 
Q 30.078125 53.03125 34.671875 50.203125 
L 31.640625 42.046875 
Q 28.421875 43.953125 25.203125 43.953125 
Q 22.3125 43.953125 20.015625 42.21875 
Q 17.71875 40.484375 16.75 37.40625 
Q 15.28125 32.71875 15.28125 27.15625 
L 15.28125 0 
z
" id="ArialMT-72"/>
      <path d="M 6.59375 0 
L 6.59375 51.859375 
L 14.5 51.859375 
L 14.5 44.484375 
Q 20.21875 53.03125 31 53.03125 
Q 35.6875 53.03125 39.625 51.34375 
Q 43.5625 49.65625 45.515625 46.921875 
Q 47.46875 44.1875 48.25 40.4375 
Q 48.734375 37.984375 48.734375 31.890625 
L 48.734375 0 
L 39.9375 0 
L 39.9375 31.546875 
Q 39.9375 36.921875 38.90625 39.578125 
Q 37.890625 42.234375 35.28125 43.8125 
Q 32.671875 45.40625 29.15625 45.40625 
Q 23.53125 45.40625 19.453125 41.84375 
Q 15.375 38.28125 15.375 28.328125 
L 15.375 0 
z
" id="ArialMT-6e"/>
      <path d="M 40.4375 6.390625 
Q 35.546875 2.25 31.03125 0.53125 
Q 26.515625 -1.171875 21.34375 -1.171875 
Q 12.796875 -1.171875 8.203125 3 
Q 3.609375 7.171875 3.609375 13.671875 
Q 3.609375 17.484375 5.34375 20.625 
Q 7.078125 23.78125 9.890625 25.6875 
Q 12.703125 27.59375 16.21875 28.5625 
Q 18.796875 29.25 24.03125 29.890625 
Q 34.671875 31.15625 39.703125 32.90625 
Q 39.75 34.71875 39.75 35.203125 
Q 39.75 40.578125 37.25 42.78125 
Q 33.890625 45.75 27.25 45.75 
Q 21.046875 45.75 18.09375 43.578125 
Q 15.140625 41.40625 13.71875 35.890625 
L 5.125 37.0625 
Q 6.296875 42.578125 8.984375 45.96875 
Q 11.671875 49.359375 16.75 51.1875 
Q 21.828125 53.03125 28.515625 53.03125 
Q 35.15625 53.03125 39.296875 51.46875 
Q 43.453125 49.90625 45.40625 47.53125 
Q 47.359375 45.171875 48.140625 41.546875 
Q 48.578125 39.3125 48.578125 33.453125 
L 48.578125 21.734375 
Q 48.578125 9.46875 49.140625 6.21875 
Q 49.703125 2.984375 51.375 0 
L 42.1875 0 
Q 40.828125 2.734375 40.4375 6.390625 
z
M 39.703125 26.03125 
Q 34.90625 24.078125 25.34375 22.703125 
Q 19.921875 21.921875 17.671875 20.9375 
Q 15.4375 19.96875 14.203125 18.09375 
Q 12.984375 16.21875 12.984375 13.921875 
Q 12.984375 10.40625 15.640625 8.0625 
Q 18.3125 5.71875 23.4375 5.71875 
Q 28.515625 5.71875 32.46875 7.9375 
Q 36.421875 10.15625 38.28125 14.015625 
Q 39.703125 17 39.703125 22.796875 
z
" id="ArialMT-61"/>
      <path d="M 6.390625 0 
L 6.390625 71.578125 
L 15.1875 71.578125 
L 15.1875 0 
z
" id="ArialMT-6c"/>
      <path id="ArialMT-20"/>
      <path d="M 7.71875 0 
L 7.71875 71.578125 
L 34.71875 71.578125 
Q 41.84375 71.578125 45.609375 70.90625 
Q 50.875 70.015625 54.4375 67.546875 
Q 58.015625 65.09375 60.1875 60.640625 
Q 62.359375 56.203125 62.359375 50.875 
Q 62.359375 41.75 56.546875 35.421875 
Q 50.734375 29.109375 35.546875 29.109375 
L 17.1875 29.109375 
L 17.1875 0 
z
M 17.1875 37.546875 
L 35.6875 37.546875 
Q 44.875 37.546875 48.734375 40.96875 
Q 52.59375 44.390625 52.59375 50.59375 
Q 52.59375 55.078125 50.3125 58.265625 
Q 48.046875 61.46875 44.34375 62.5 
Q 41.9375 63.140625 35.5 63.140625 
L 17.1875 63.140625 
z
" id="ArialMT-50"/>
      <path d="M 6.59375 0 
L 6.59375 71.578125 
L 15.375 71.578125 
L 15.375 45.90625 
Q 21.53125 53.03125 30.90625 53.03125 
Q 36.671875 53.03125 40.921875 50.75 
Q 45.171875 48.484375 47 44.484375 
Q 48.828125 40.484375 48.828125 32.859375 
L 48.828125 0 
L 40.046875 0 
L 40.046875 32.859375 
Q 40.046875 39.453125 37.1875 42.453125 
Q 34.328125 45.453125 29.109375 45.453125 
Q 25.203125 45.453125 21.75 43.421875 
Q 18.3125 41.40625 16.84375 37.9375 
Q 15.375 34.46875 15.375 28.375 
L 15.375 0 
z
" id="ArialMT-68"/>
      <path d="M 3.078125 15.484375 
L 11.765625 16.84375 
Q 12.5 11.625 15.84375 8.84375 
Q 19.1875 6.0625 25.203125 6.0625 
Q 31.25 6.0625 34.171875 8.515625 
Q 37.109375 10.984375 37.109375 14.3125 
Q 37.109375 17.28125 34.515625 19 
Q 32.71875 20.171875 25.53125 21.96875 
Q 15.875 24.421875 12.140625 26.203125 
Q 8.40625 27.984375 6.46875 31.125 
Q 4.546875 34.28125 4.546875 38.09375 
Q 4.546875 41.546875 6.125 44.5 
Q 7.71875 47.46875 10.453125 49.421875 
Q 12.5 50.921875 16.03125 51.96875 
Q 19.578125 53.03125 23.640625 53.03125 
Q 29.734375 53.03125 34.34375 51.265625 
Q 38.96875 49.515625 41.15625 46.5 
Q 43.359375 43.5 44.1875 38.484375 
L 35.59375 37.3125 
Q 35.015625 41.3125 32.203125 43.546875 
Q 29.390625 45.796875 24.265625 45.796875 
Q 18.21875 45.796875 15.625 43.796875 
Q 13.03125 41.796875 13.03125 39.109375 
Q 13.03125 37.40625 14.109375 36.03125 
Q 15.1875 34.625 17.484375 33.6875 
Q 18.796875 33.203125 25.25 31.453125 
Q 34.578125 28.953125 38.25 27.359375 
Q 41.9375 25.78125 44.03125 22.75 
Q 46.140625 19.734375 46.140625 15.234375 
Q 46.140625 10.84375 43.578125 6.953125 
Q 41.015625 3.078125 36.171875 0.953125 
Q 31.34375 -1.171875 25.25 -1.171875 
Q 15.140625 -1.171875 9.84375 3.03125 
Q 4.546875 7.234375 3.078125 15.484375 
z
" id="ArialMT-73"/>
      <path d="M 42.09375 16.703125 
L 51.171875 15.578125 
Q 49.03125 7.625 43.21875 3.21875 
Q 37.40625 -1.171875 28.375 -1.171875 
Q 17 -1.171875 10.328125 5.828125 
Q 3.65625 12.84375 3.65625 25.484375 
Q 3.65625 38.578125 10.390625 45.796875 
Q 17.140625 53.03125 27.875 53.03125 
Q 38.28125 53.03125 44.875 45.953125 
Q 51.46875 38.875 51.46875 26.03125 
Q 51.46875 25.25 51.421875 23.6875 
L 12.75 23.6875 
Q 13.234375 15.140625 17.578125 10.59375 
Q 21.921875 6.0625 28.421875 6.0625 
Q 33.25 6.0625 36.671875 8.59375 
Q 40.09375 11.140625 42.09375 16.703125 
z
M 13.234375 30.90625 
L 42.1875 30.90625 
Q 41.609375 37.453125 38.875 40.71875 
Q 34.671875 45.796875 27.984375 45.796875 
Q 21.921875 45.796875 17.796875 41.75 
Q 13.671875 37.703125 13.234375 30.90625 
z
" id="ArialMT-65"/>
      <path d="M 8.890625 0 
L 8.890625 10.015625 
L 18.890625 10.015625 
L 18.890625 0 
Q 18.890625 -5.515625 16.9375 -8.90625 
Q 14.984375 -12.3125 10.75 -14.15625 
L 8.296875 -10.40625 
Q 11.078125 -9.1875 12.390625 -6.8125 
Q 13.71875 -4.4375 13.875 0 
z
" id="ArialMT-2c"/>
      <path d="M 54.25 63.328125 
Q 49.953125 66.75 38.28125 66.75 
Q 25.921875 66.75 24.8125 61.03125 
Q 23.921875 56.546875 36.375 54.203125 
Q 46.140625 52.390625 50.828125 46.921875 
Q 56.5 40.328125 53.859375 26.8125 
Q 51.3125 13.875 43.171875 6.25 
Q 34.96875 -1.421875 23.25 -1.421875 
Q 11.578125 -1.421875 6.34375 6.25 
Q 1.125 13.875 3.765625 27.296875 
Q 5.671875 37.25 13.921875 45.3125 
Q 17.140625 48.4375 21.140625 50.203125 
Q 14.265625 54.046875 15.625 60.9375 
Q 18.21875 74.21875 39.75 74.21875 
Q 50.53125 74.21875 55.71875 70.796875 
z
M 27.390625 47.75 
Q 23.828125 46.34375 20.40625 42.78125 
Q 15.140625 37.25 13.234375 27.296875 
Q 11.28125 17.390625 14.359375 11.8125 
Q 17.484375 6.203125 24.75 6.203125 
Q 31.9375 6.203125 37.203125 11.859375 
Q 42.53125 17.53125 44.34375 26.8125 
Q 46.1875 36.53125 42.671875 41.21875 
Q 38.921875 46.234375 32.859375 46.78125 
Q 29.78125 47.078125 27.390625 47.75 
z
" id="DejaVuSans-Oblique-3b4"/>
      <path d="M 6.78125 -19.875 
L 6.78125 71.578125 
L 26.171875 71.578125 
L 26.171875 64.3125 
L 15.578125 64.3125 
L 15.578125 -12.59375 
L 26.171875 -12.59375 
L 26.171875 -19.875 
z
" id="ArialMT-5b"/>
      <path d="M 40.234375 0 
L 40.234375 6.546875 
Q 35.296875 -1.171875 25.734375 -1.171875 
Q 19.53125 -1.171875 14.328125 2.25 
Q 9.125 5.671875 6.265625 11.796875 
Q 3.421875 17.921875 3.421875 25.875 
Q 3.421875 33.640625 6 39.96875 
Q 8.59375 46.296875 13.765625 49.65625 
Q 18.953125 53.03125 25.34375 53.03125 
Q 30.03125 53.03125 33.6875 51.046875 
Q 37.359375 49.078125 39.65625 45.90625 
L 39.65625 71.578125 
L 48.390625 71.578125 
L 48.390625 0 
z
M 12.453125 25.875 
Q 12.453125 15.921875 16.640625 10.984375 
Q 20.84375 6.0625 26.5625 6.0625 
Q 32.328125 6.0625 36.34375 10.765625 
Q 40.375 15.484375 40.375 25.140625 
Q 40.375 35.796875 36.265625 40.765625 
Q 32.171875 45.75 26.171875 45.75 
Q 20.3125 45.75 16.375 40.96875 
Q 12.453125 36.1875 12.453125 25.875 
z
" id="ArialMT-64"/>
      <path d="M 6.640625 61.46875 
L 6.640625 71.578125 
L 15.4375 71.578125 
L 15.4375 61.46875 
z
M 6.640625 0 
L 6.640625 51.859375 
L 15.4375 51.859375 
L 15.4375 0 
z
" id="ArialMT-69"/>
      <path d="M 21.296875 -19.875 
L 1.90625 -19.875 
L 1.90625 -12.59375 
L 12.5 -12.59375 
L 12.5 64.3125 
L 1.90625 64.3125 
L 1.90625 71.578125 
L 21.296875 71.578125 
z
" id="ArialMT-5d"/>
     </defs>
     <g style="fill:#262626;" transform="translate(230.96 380.835312)scale(0.11 -0.11)">
      <use transform="translate(0 0.78125)" xlink:href="#ArialMT-4a"/>
      <use transform="translate(50 0.78125)" xlink:href="#ArialMT-6f"/>
      <use transform="translate(105.615234 0.78125)" xlink:href="#ArialMT-75"/>
      <use transform="translate(161.230469 0.78125)" xlink:href="#ArialMT-72"/>
      <use transform="translate(194.53125 0.78125)" xlink:href="#ArialMT-6e"/>
      <use transform="translate(250.146484 0.78125)" xlink:href="#ArialMT-61"/>
      <use transform="translate(305.761719 0.78125)" xlink:href="#ArialMT-6c"/>
      <use transform="translate(327.978516 0.78125)" xlink:href="#ArialMT-20"/>
      <use transform="translate(355.761719 0.78125)" xlink:href="#ArialMT-50"/>
      <use transform="translate(422.460938 0.78125)" xlink:href="#ArialMT-68"/>
      <use transform="translate(478.076172 0.78125)" xlink:href="#ArialMT-61"/>
      <use transform="translate(533.691406 0.78125)" xlink:href="#ArialMT-73"/>
      <use transform="translate(583.691406 0.78125)" xlink:href="#ArialMT-65"/>
      <use transform="translate(639.306641 0.78125)" xlink:href="#ArialMT-2c"/>
      <use transform="translate(667.089844 0.78125)" xlink:href="#ArialMT-20"/>
      <use transform="translate(694.873047 0.78125)" xlink:href="#DejaVuSans-Oblique-3b4"/>
      <use transform="translate(756.054688 0.78125)" xlink:href="#ArialMT-20"/>
      <use transform="translate(783.837891 0.78125)" xlink:href="#ArialMT-5b"/>
      <use transform="translate(811.621094 0.78125)" xlink:href="#ArialMT-72"/>
      <use transform="translate(844.921875 0.78125)" xlink:href="#ArialMT-61"/>
      <use transform="translate(900.537109 0.78125)" xlink:href="#ArialMT-64"/>
      <use transform="translate(956.152344 0.78125)" xlink:href="#ArialMT-69"/>
      <use transform="translate(978.369141 0.78125)" xlink:href="#ArialMT-61"/>
      <use transform="translate(1033.984375 0.78125)" xlink:href="#ArialMT-6e"/>
      <use transform="translate(1089.599609 0.78125)" xlink:href="#ArialMT-73"/>
      <use transform="translate(1139.599609 0.78125)" xlink:href="#ArialMT-5d"/>
     </g>
    </g>
   </g>
   <g id="matplotlib.axis_2">
    <g id="ytick_1">
     <g id="line2d_15">
      <path clip-path="url(#p0d588de89d)" d="M 72 332.558828 
L 518.4 332.558828 
" style="fill:none;stroke:#ffffff;stroke-linecap:round;"/>
     </g>
     <g id="line2d_16"/>
     <g id="text_9">
      <!-- −0.2 -->
      <defs>
       <path d="M 9.078125 0 
L 9.078125 10.015625 
L 19.09375 10.015625 
L 19.09375 0 
z
" id="ArialMT-2e"/>
      </defs>
      <g style="fill:#262626;" transform="translate(45.259375 336.137735)scale(0.1 -0.1)">
       <use xlink:href="#ArialMT-2212"/>
       <use x="58.398438" xlink:href="#ArialMT-30"/>
       <use x="114.013672" xlink:href="#ArialMT-2e"/>
       <use x="141.796875" xlink:href="#ArialMT-32"/>
      </g>
     </g>
    </g>
    <g id="ytick_2">
     <g id="line2d_17">
      <path clip-path="url(#p0d588de89d)" d="M 72 280.776752 
L 518.4 280.776752 
" style="fill:none;stroke:#ffffff;stroke-linecap:round;"/>
     </g>
     <g id="line2d_18"/>
     <g id="text_10">
      <!-- 0.0 -->
      <g style="fill:#262626;" transform="translate(51.1 284.355659)scale(0.1 -0.1)">
       <use xlink:href="#ArialMT-30"/>
       <use x="55.615234" xlink:href="#ArialMT-2e"/>
       <use x="83.398438" xlink:href="#ArialMT-30"/>
      </g>
     </g>
    </g>
    <g id="ytick_3">
     <g id="line2d_19">
      <path clip-path="url(#p0d588de89d)" d="M 72 228.994676 
L 518.4 228.994676 
" style="fill:none;stroke:#ffffff;stroke-linecap:round;"/>
     </g>
     <g id="line2d_20"/>
     <g id="text_11">
      <!-- 0.2 -->
      <g style="fill:#262626;" transform="translate(51.1 232.573582)scale(0.1 -0.1)">
       <use xlink:href="#ArialMT-30"/>
       <use x="55.615234" xlink:href="#ArialMT-2e"/>
       <use x="83.398438" xlink:href="#ArialMT-32"/>
      </g>
     </g>
    </g>
    <g id="ytick_4">
     <g id="line2d_21">
      <path clip-path="url(#p0d588de89d)" d="M 72 177.2126 
L 518.4 177.2126 
" style="fill:none;stroke:#ffffff;stroke-linecap:round;"/>
     </g>
     <g id="line2d_22"/>
     <g id="text_12">
      <!-- 0.4 -->
      <defs>
       <path d="M 32.328125 0 
L 32.328125 17.140625 
L 1.265625 17.140625 
L 1.265625 25.203125 
L 33.9375 71.578125 
L 41.109375 71.578125 
L 41.109375 25.203125 
L 50.78125 25.203125 
L 50.78125 17.140625 
L 41.109375 17.140625 
L 41.109375 0 
z
M 32.328125 25.203125 
L 32.328125 57.46875 
L 9.90625 25.203125 
z
" id="ArialMT-34"/>
      </defs>
      <g style="fill:#262626;" transform="translate(51.1 180.791506)scale(0.1 -0.1)">
       <use xlink:href="#ArialMT-30"/>
       <use x="55.615234" xlink:href="#ArialMT-2e"/>
       <use x="83.398438" xlink:href="#ArialMT-34"/>
      </g>
     </g>
    </g>
    <g id="ytick_5">
     <g id="line2d_23">
      <path clip-path="url(#p0d588de89d)" d="M 72 125.430524 
L 518.4 125.430524 
" style="fill:none;stroke:#ffffff;stroke-linecap:round;"/>
     </g>
     <g id="line2d_24"/>
     <g id="text_13">
      <!-- 0.6 -->
      <defs>
       <path d="M 49.75 54.046875 
L 41.015625 53.375 
Q 39.84375 58.546875 37.703125 60.890625 
Q 34.125 64.65625 28.90625 64.65625 
Q 24.703125 64.65625 21.53125 62.3125 
Q 17.390625 59.28125 14.984375 53.46875 
Q 12.59375 47.65625 12.5 36.921875 
Q 15.671875 41.75 20.265625 44.09375 
Q 24.859375 46.4375 29.890625 46.4375 
Q 38.671875 46.4375 44.84375 39.96875 
Q 51.03125 33.5 51.03125 23.25 
Q 51.03125 16.5 48.125 10.71875 
Q 45.21875 4.9375 40.140625 1.859375 
Q 35.0625 -1.21875 28.609375 -1.21875 
Q 17.625 -1.21875 10.6875 6.859375 
Q 3.765625 14.9375 3.765625 33.5 
Q 3.765625 54.25 11.421875 63.671875 
Q 18.109375 71.875 29.4375 71.875 
Q 37.890625 71.875 43.28125 67.140625 
Q 48.6875 62.40625 49.75 54.046875 
z
M 13.875 23.1875 
Q 13.875 18.65625 15.796875 14.5 
Q 17.71875 10.359375 21.1875 8.171875 
Q 24.65625 6 28.46875 6 
Q 34.03125 6 38.03125 10.484375 
Q 42.046875 14.984375 42.046875 22.703125 
Q 42.046875 30.125 38.078125 34.390625 
Q 34.125 38.671875 28.125 38.671875 
Q 22.171875 38.671875 18.015625 34.390625 
Q 13.875 30.125 13.875 23.1875 
z
" id="ArialMT-36"/>
      </defs>
      <g style="fill:#262626;" transform="translate(51.1 129.00943)scale(0.1 -0.1)">
       <use xlink:href="#ArialMT-30"/>
       <use x="55.615234" xlink:href="#ArialMT-2e"/>
       <use x="83.398438" xlink:href="#ArialMT-36"/>
      </g>
     </g>
    </g>
    <g id="ytick_6">
     <g id="line2d_25">
      <path clip-path="url(#p0d588de89d)" d="M 72 73.648448 
L 518.4 73.648448 
" style="fill:none;stroke:#ffffff;stroke-linecap:round;"/>
     </g>
     <g id="line2d_26"/>
     <g id="text_14">
      <!-- 0.8 -->
      <defs>
       <path d="M 17.671875 38.8125 
Q 12.203125 40.828125 9.5625 44.53125 
Q 6.9375 48.25 6.9375 53.421875 
Q 6.9375 61.234375 12.546875 66.546875 
Q 18.171875 71.875 27.484375 71.875 
Q 36.859375 71.875 42.578125 66.421875 
Q 48.296875 60.984375 48.296875 53.171875 
Q 48.296875 48.1875 45.671875 44.5 
Q 43.0625 40.828125 37.75 38.8125 
Q 44.34375 36.671875 47.78125 31.875 
Q 51.21875 27.09375 51.21875 20.453125 
Q 51.21875 11.28125 44.71875 5.03125 
Q 38.234375 -1.21875 27.640625 -1.21875 
Q 17.046875 -1.21875 10.546875 5.046875 
Q 4.046875 11.328125 4.046875 20.703125 
Q 4.046875 27.6875 7.59375 32.390625 
Q 11.140625 37.109375 17.671875 38.8125 
z
M 15.921875 53.71875 
Q 15.921875 48.640625 19.1875 45.40625 
Q 22.46875 42.1875 27.6875 42.1875 
Q 32.765625 42.1875 36.015625 45.375 
Q 39.265625 48.578125 39.265625 53.21875 
Q 39.265625 58.0625 35.90625 61.359375 
Q 32.5625 64.65625 27.59375 64.65625 
Q 22.5625 64.65625 19.234375 61.421875 
Q 15.921875 58.203125 15.921875 53.71875 
z
M 13.09375 20.65625 
Q 13.09375 16.890625 14.875 13.375 
Q 16.65625 9.859375 20.171875 7.921875 
Q 23.6875 6 27.734375 6 
Q 34.03125 6 38.125 10.046875 
Q 42.234375 14.109375 42.234375 20.359375 
Q 42.234375 26.703125 38.015625 30.859375 
Q 33.796875 35.015625 27.4375 35.015625 
Q 21.234375 35.015625 17.15625 30.90625 
Q 13.09375 26.8125 13.09375 20.65625 
z
" id="ArialMT-38"/>
      </defs>
      <g style="fill:#262626;" transform="translate(51.1 77.227354)scale(0.1 -0.1)">
       <use xlink:href="#ArialMT-30"/>
       <use x="55.615234" xlink:href="#ArialMT-2e"/>
       <use x="83.398438" xlink:href="#ArialMT-38"/>
      </g>
     </g>
    </g>
    <g id="text_15">
     <!-- Average Sentiment Score, $\overline{\Sigma}$ [dimensionless] -->
     <defs>
      <path d="M -0.140625 0 
L 27.34375 71.578125 
L 37.546875 71.578125 
L 66.84375 0 
L 56.0625 0 
L 47.703125 21.6875 
L 17.78125 21.6875 
L 9.90625 0 
z
M 20.515625 29.390625 
L 44.78125 29.390625 
L 37.3125 49.21875 
Q 33.890625 58.25 32.234375 64.0625 
Q 30.859375 57.171875 28.375 50.390625 
z
" id="ArialMT-41"/>
      <path d="M 21 0 
L 1.265625 51.859375 
L 10.546875 51.859375 
L 21.6875 20.796875 
Q 23.484375 15.765625 25 10.359375 
Q 26.171875 14.453125 28.265625 20.21875 
L 39.796875 51.859375 
L 48.828125 51.859375 
L 29.203125 0 
z
" id="ArialMT-76"/>
      <path d="M 4.984375 -4.296875 
L 13.53125 -5.5625 
Q 14.0625 -9.515625 16.5 -11.328125 
Q 19.78125 -13.765625 25.4375 -13.765625 
Q 31.546875 -13.765625 34.859375 -11.328125 
Q 38.1875 -8.890625 39.359375 -4.5 
Q 40.046875 -1.8125 39.984375 6.78125 
Q 34.234375 0 25.640625 0 
Q 14.9375 0 9.078125 7.71875 
Q 3.21875 15.4375 3.21875 26.21875 
Q 3.21875 33.640625 5.90625 39.90625 
Q 8.59375 46.1875 13.6875 49.609375 
Q 18.796875 53.03125 25.6875 53.03125 
Q 34.859375 53.03125 40.828125 45.609375 
L 40.828125 51.859375 
L 48.921875 51.859375 
L 48.921875 7.03125 
Q 48.921875 -5.078125 46.453125 -10.125 
Q 44 -15.1875 38.640625 -18.109375 
Q 33.296875 -21.046875 25.484375 -21.046875 
Q 16.21875 -21.046875 10.5 -16.875 
Q 4.78125 -12.703125 4.984375 -4.296875 
z
M 12.25 26.859375 
Q 12.25 16.65625 16.296875 11.96875 
Q 20.359375 7.28125 26.46875 7.28125 
Q 32.515625 7.28125 36.609375 11.9375 
Q 40.71875 16.609375 40.71875 26.5625 
Q 40.71875 36.078125 36.5 40.90625 
Q 32.28125 45.75 26.3125 45.75 
Q 20.453125 45.75 16.34375 40.984375 
Q 12.25 36.234375 12.25 26.859375 
z
" id="ArialMT-67"/>
      <path d="M 4.5 23 
L 13.421875 23.78125 
Q 14.0625 18.40625 16.375 14.96875 
Q 18.703125 11.53125 23.578125 9.40625 
Q 28.46875 7.28125 34.578125 7.28125 
Q 39.984375 7.28125 44.140625 8.890625 
Q 48.296875 10.5 50.3125 13.296875 
Q 52.34375 16.109375 52.34375 19.4375 
Q 52.34375 22.796875 50.390625 25.3125 
Q 48.4375 27.828125 43.953125 29.546875 
Q 41.0625 30.671875 31.203125 33.03125 
Q 21.34375 35.40625 17.390625 37.5 
Q 12.25 40.1875 9.734375 44.15625 
Q 7.234375 48.140625 7.234375 53.078125 
Q 7.234375 58.5 10.296875 63.203125 
Q 13.375 67.921875 19.28125 70.359375 
Q 25.203125 72.796875 32.421875 72.796875 
Q 40.375 72.796875 46.453125 70.234375 
Q 52.546875 67.671875 55.8125 62.6875 
Q 59.078125 57.71875 59.328125 51.421875 
L 50.25 50.734375 
Q 49.515625 57.515625 45.28125 60.984375 
Q 41.0625 64.453125 32.8125 64.453125 
Q 24.21875 64.453125 20.28125 61.296875 
Q 16.359375 58.15625 16.359375 53.71875 
Q 16.359375 49.859375 19.140625 47.359375 
Q 21.875 44.875 33.421875 42.265625 
Q 44.96875 39.65625 49.265625 37.703125 
Q 55.515625 34.8125 58.484375 30.390625 
Q 61.46875 25.984375 61.46875 20.21875 
Q 61.46875 14.5 58.203125 9.4375 
Q 54.9375 4.390625 48.796875 1.578125 
Q 42.671875 -1.21875 35.015625 -1.21875 
Q 25.296875 -1.21875 18.71875 1.609375 
Q 12.15625 4.4375 8.421875 10.125 
Q 4.6875 15.828125 4.5 23 
z
" id="ArialMT-53"/>
      <path d="M 25.78125 7.859375 
L 27.046875 0.09375 
Q 23.34375 -0.6875 20.40625 -0.6875 
Q 15.625 -0.6875 12.984375 0.828125 
Q 10.359375 2.34375 9.28125 4.8125 
Q 8.203125 7.28125 8.203125 15.1875 
L 8.203125 45.015625 
L 1.765625 45.015625 
L 1.765625 51.859375 
L 8.203125 51.859375 
L 8.203125 64.703125 
L 16.9375 69.96875 
L 16.9375 51.859375 
L 25.78125 51.859375 
L 25.78125 45.015625 
L 16.9375 45.015625 
L 16.9375 14.703125 
Q 16.9375 10.9375 17.40625 9.859375 
Q 17.875 8.796875 18.921875 8.15625 
Q 19.96875 7.515625 21.921875 7.515625 
Q 23.390625 7.515625 25.78125 7.859375 
z
" id="ArialMT-74"/>
      <path d="M 6.59375 0 
L 6.59375 51.859375 
L 14.453125 51.859375 
L 14.453125 44.578125 
Q 16.890625 48.390625 20.9375 50.703125 
Q 25 53.03125 30.171875 53.03125 
Q 35.9375 53.03125 39.625 50.640625 
Q 43.3125 48.25 44.828125 43.953125 
Q 50.984375 53.03125 60.84375 53.03125 
Q 68.5625 53.03125 72.703125 48.75 
Q 76.859375 44.484375 76.859375 35.59375 
L 76.859375 0 
L 68.109375 0 
L 68.109375 32.671875 
Q 68.109375 37.9375 67.25 40.25 
Q 66.40625 42.578125 64.15625 43.984375 
Q 61.921875 45.40625 58.890625 45.40625 
Q 53.421875 45.40625 49.796875 41.765625 
Q 46.1875 38.140625 46.1875 30.125 
L 46.1875 0 
L 37.40625 0 
L 37.40625 33.6875 
Q 37.40625 39.546875 35.25 42.46875 
Q 33.109375 45.40625 28.21875 45.40625 
Q 24.515625 45.40625 21.359375 43.453125 
Q 18.21875 41.5 16.796875 37.734375 
Q 15.375 33.984375 15.375 26.90625 
L 15.375 0 
z
" id="ArialMT-6d"/>
      <path d="M 40.4375 19 
L 49.078125 17.875 
Q 47.65625 8.9375 41.8125 3.875 
Q 35.984375 -1.171875 27.484375 -1.171875 
Q 16.84375 -1.171875 10.375 5.78125 
Q 3.90625 12.75 3.90625 25.734375 
Q 3.90625 34.125 6.6875 40.421875 
Q 9.46875 46.734375 15.15625 49.875 
Q 20.84375 53.03125 27.546875 53.03125 
Q 35.984375 53.03125 41.359375 48.75 
Q 46.734375 44.484375 48.25 36.625 
L 39.703125 35.296875 
Q 38.484375 40.53125 35.375 43.15625 
Q 32.28125 45.796875 27.875 45.796875 
Q 21.234375 45.796875 17.078125 41.03125 
Q 12.9375 36.28125 12.9375 25.984375 
Q 12.9375 15.53125 16.9375 10.796875 
Q 20.953125 6.0625 27.390625 6.0625 
Q 32.5625 6.0625 36.03125 9.234375 
Q 39.5 12.40625 40.4375 19 
z
" id="ArialMT-63"/>
      <path d="M 21.140625 8.296875 
L 56.78125 8.296875 
L 56.78125 0 
L 9.8125 0 
L 9.8125 8.296875 
L 33.203125 38.765625 
L 9.8125 64.59375 
L 9.8125 72.90625 
L 55.90625 72.90625 
L 55.90625 64.59375 
L 21.140625 64.59375 
L 44.53125 38.96875 
z
" id="DejaVuSans-3a3"/>
     </defs>
     <g style="fill:#262626;" transform="translate(38.839375 308.66)rotate(-90)scale(0.11 -0.11)">
      <use transform="translate(0 0.34375)" xlink:href="#ArialMT-41"/>
      <use transform="translate(66.699219 0.34375)" xlink:href="#ArialMT-76"/>
      <use transform="translate(116.699219 0.34375)" xlink:href="#ArialMT-65"/>
      <use transform="translate(172.314453 0.34375)" xlink:href="#ArialMT-72"/>
      <use transform="translate(205.615234 0.34375)" xlink:href="#ArialMT-61"/>
      <use transform="translate(261.230469 0.34375)" xlink:href="#ArialMT-67"/>
      <use transform="translate(316.845703 0.34375)" xlink:href="#ArialMT-65"/>
      <use transform="translate(372.460938 0.34375)" xlink:href="#ArialMT-20"/>
      <use transform="translate(400.244141 0.34375)" xlink:href="#ArialMT-53"/>
      <use transform="translate(466.943359 0.34375)" xlink:href="#ArialMT-65"/>
      <use transform="translate(522.558594 0.34375)" xlink:href="#ArialMT-6e"/>
      <use transform="translate(578.173828 0.34375)" xlink:href="#ArialMT-74"/>
      <use transform="translate(605.957031 0.34375)" xlink:href="#ArialMT-69"/>
      <use transform="translate(628.173828 0.34375)" xlink:href="#ArialMT-6d"/>
      <use transform="translate(711.474609 0.34375)" xlink:href="#ArialMT-65"/>
      <use transform="translate(767.089844 0.34375)" xlink:href="#ArialMT-6e"/>
      <use transform="translate(822.705078 0.34375)" xlink:href="#ArialMT-74"/>
      <use transform="translate(850.488281 0.34375)" xlink:href="#ArialMT-20"/>
      <use transform="translate(878.271484 0.34375)" xlink:href="#ArialMT-53"/>
      <use transform="translate(944.970703 0.34375)" xlink:href="#ArialMT-63"/>
      <use transform="translate(994.970703 0.34375)" xlink:href="#ArialMT-6f"/>
      <use transform="translate(1050.585938 0.34375)" xlink:href="#ArialMT-72"/>
      <use transform="translate(1083.886719 0.34375)" xlink:href="#ArialMT-65"/>
      <use transform="translate(1139.501953 0.34375)" xlink:href="#ArialMT-2c"/>
      <use transform="translate(1167.285156 0.34375)" xlink:href="#ArialMT-20"/>
      <use transform="translate(1195.068359 0.84375)" xlink:href="#DejaVuSans-3a3"/>
      <use transform="translate(1258.251953 0.34375)" xlink:href="#ArialMT-20"/>
      <use transform="translate(1286.035156 0.34375)" xlink:href="#ArialMT-5b"/>
      <use transform="translate(1313.818359 0.34375)" xlink:href="#ArialMT-64"/>
      <use transform="translate(1369.433594 0.34375)" xlink:href="#ArialMT-69"/>
      <use transform="translate(1391.650391 0.34375)" xlink:href="#ArialMT-6d"/>
      <use transform="translate(1474.951172 0.34375)" xlink:href="#ArialMT-65"/>
      <use transform="translate(1530.566406 0.34375)" xlink:href="#ArialMT-6e"/>
      <use transform="translate(1586.181641 0.34375)" xlink:href="#ArialMT-73"/>
      <use transform="translate(1636.181641 0.34375)" xlink:href="#ArialMT-69"/>
      <use transform="translate(1658.398438 0.34375)" xlink:href="#ArialMT-6f"/>
      <use transform="translate(1714.013672 0.34375)" xlink:href="#ArialMT-6e"/>
      <use transform="translate(1769.628906 0.34375)" xlink:href="#ArialMT-6c"/>
      <use transform="translate(1791.845703 0.34375)" xlink:href="#ArialMT-65"/>
      <use transform="translate(1847.460938 0.34375)" xlink:href="#ArialMT-73"/>
      <use transform="translate(1897.460938 0.34375)" xlink:href="#ArialMT-73"/>
      <use transform="translate(1947.460938 0.34375)" xlink:href="#ArialMT-5d"/>
      <path d="M 1195.068359 85.5 
L 1195.068359 91.75 
L 1258.251953 91.75 
L 1258.251953 85.5 
L 1195.068359 85.5 
z
"/>
     </g>
    </g>
   </g>
   <g id="line2d_27">
    <path clip-path="url(#p0d588de89d)" d="M 92.290909 336.523006 
L 96.390083 242.225758 
L 100.489256 268.183835 
L 104.58843 245.176575 
L 108.687603 265.654553 
L 112.786777 236.572541 
L 116.88595 258.636074 
L 120.985124 287.169601 
L 125.084298 250.670894 
L 129.183471 164.418196 
L 133.282645 294.702211 
L 137.381818 216.671538 
L 141.480992 215.325135 
L 145.580165 254.82805 
L 149.679339 189.011048 
L 153.778512 242.241254 
L 157.877686 317.54509 
L 161.97686 261.645443 
L 166.076033 283.315089 
L 170.175207 240.673786 
L 174.27438 241.810307 
L 178.373554 284.385259 
L 182.472727 282.815417 
L 186.571901 268.230434 
L 190.671074 310.82885 
L 194.770248 338.58 
L 198.869421 312.792552 
L 202.968595 235.816267 
L 207.067769 217.761527 
L 211.166942 319.46451 
L 215.266116 245.280974 
L 219.365289 309.925603 
L 223.464463 226.545524 
L 227.563636 96.303106 
L 231.66281 162.927889 
L 235.761983 259.680351 
L 239.861157 139.214242 
L 243.960331 222.883748 
L 248.059504 275.456676 
L 252.158678 231.720049 
L 256.257851 314.711608 
L 260.357025 237.625022 
L 264.456198 208.522693 
L 268.555372 211.733984 
L 272.654545 223.768962 
L 276.753719 211.234708 
L 280.852893 202.450923 
L 284.952066 182.017123 
L 289.05124 279.949563 
L 293.150413 163.245066 
L 297.249587 180.494563 
L 301.34876 204.50025 
L 305.447934 170.478608 
L 309.547107 221.314081 
L 313.646281 168.922926 
L 317.745455 257.598109 
L 321.844628 241.962249 
L 325.943802 186.13113 
L 330.042975 208.879642 
L 334.142149 227.746915 
L 338.241322 190.383081 
L 342.340496 207.25899 
L 346.439669 221.091529 
L 350.538843 252.74435 
L 354.638017 216.650342 
L 358.73719 234.244472 
L 362.836364 215.105606 
L 366.935537 249.582731 
L 371.034711 222.289084 
L 375.133884 212.497033 
L 379.233058 198.964922 
L 383.332231 233.377805 
L 387.431405 266.839548 
L 391.530579 235.176098 
L 395.629752 254.180088 
L 399.728926 229.988362 
L 403.828099 210.886834 
L 407.927273 228.02452 
L 412.026446 263.366293 
L 416.12562 189.226042 
L 420.224793 211.76058 
L 424.323967 232.001851 
L 428.42314 254.349509 
L 432.522314 221.760416 
L 436.621488 214.335392 
L 440.720661 190.183856 
L 444.819835 295.794756 
L 448.919008 187.281337 
L 453.018182 190.012664 
L 457.117355 174.528432 
L 461.216529 246.568386 
L 465.315702 194.251432 
L 469.414876 203.654511 
L 473.51405 255.764522 
L 477.613223 283.80849 
L 481.712397 277.164049 
L 485.81157 192.271673 
L 489.910744 271.692177 
L 494.009917 233.543102 
L 498.109091 209.522005 
" style="fill:none;stroke:#00bfbf;stroke-linecap:round;stroke-width:1.75;"/>
    <defs>
     <path d="M 0 3.5 
C 0.928211 3.5 1.81853 3.131218 2.474874 2.474874 
C 3.131218 1.81853 3.5 0.928211 3.5 0 
C 3.5 -0.928211 3.131218 -1.81853 2.474874 -2.474874 
C 1.81853 -3.131218 0.928211 -3.5 0 -3.5 
C -0.928211 -3.5 -1.81853 -3.131218 -2.474874 -2.474874 
C -3.131218 -1.81853 -3.5 -0.928211 -3.5 0 
C -3.5 0.928211 -3.131218 1.81853 -2.474874 2.474874 
C -1.81853 3.131218 -0.928211 3.5 0 3.5 
z
" id="mcf4488d8c6"/>
    </defs>
    <g clip-path="url(#p0d588de89d)">
     <use style="fill:#00bfbf;" x="92.290909" xlink:href="#mcf4488d8c6" y="336.523006"/>
     <use style="fill:#00bfbf;" x="96.390083" xlink:href="#mcf4488d8c6" y="242.225758"/>
     <use style="fill:#00bfbf;" x="100.489256" xlink:href="#mcf4488d8c6" y="268.183835"/>
     <use style="fill:#00bfbf;" x="104.58843" xlink:href="#mcf4488d8c6" y="245.176575"/>
     <use style="fill:#00bfbf;" x="108.687603" xlink:href="#mcf4488d8c6" y="265.654553"/>
     <use style="fill:#00bfbf;" x="112.786777" xlink:href="#mcf4488d8c6" y="236.572541"/>
     <use style="fill:#00bfbf;" x="116.88595" xlink:href="#mcf4488d8c6" y="258.636074"/>
     <use style="fill:#00bfbf;" x="120.985124" xlink:href="#mcf4488d8c6" y="287.169601"/>
     <use style="fill:#00bfbf;" x="125.084298" xlink:href="#mcf4488d8c6" y="250.670894"/>
     <use style="fill:#00bfbf;" x="129.183471" xlink:href="#mcf4488d8c6" y="164.418196"/>
     <use style="fill:#00bfbf;" x="133.282645" xlink:href="#mcf4488d8c6" y="294.702211"/>
     <use style="fill:#00bfbf;" x="137.381818" xlink:href="#mcf4488d8c6" y="216.671538"/>
     <use style="fill:#00bfbf;" x="141.480992" xlink:href="#mcf4488d8c6" y="215.325135"/>
     <use style="fill:#00bfbf;" x="145.580165" xlink:href="#mcf4488d8c6" y="254.82805"/>
     <use style="fill:#00bfbf;" x="149.679339" xlink:href="#mcf4488d8c6" y="189.011048"/>
     <use style="fill:#00bfbf;" x="153.778512" xlink:href="#mcf4488d8c6" y="242.241254"/>
     <use style="fill:#00bfbf;" x="157.877686" xlink:href="#mcf4488d8c6" y="317.54509"/>
     <use style="fill:#00bfbf;" x="161.97686" xlink:href="#mcf4488d8c6" y="261.645443"/>
     <use style="fill:#00bfbf;" x="166.076033" xlink:href="#mcf4488d8c6" y="283.315089"/>
     <use style="fill:#00bfbf;" x="170.175207" xlink:href="#mcf4488d8c6" y="240.673786"/>
     <use style="fill:#00bfbf;" x="174.27438" xlink:href="#mcf4488d8c6" y="241.810307"/>
     <use style="fill:#00bfbf;" x="178.373554" xlink:href="#mcf4488d8c6" y="284.385259"/>
     <use style="fill:#00bfbf;" x="182.472727" xlink:href="#mcf4488d8c6" y="282.815417"/>
     <use style="fill:#00bfbf;" x="186.571901" xlink:href="#mcf4488d8c6" y="268.230434"/>
     <use style="fill:#00bfbf;" x="190.671074" xlink:href="#mcf4488d8c6" y="310.82885"/>
     <use style="fill:#00bfbf;" x="194.770248" xlink:href="#mcf4488d8c6" y="338.58"/>
     <use style="fill:#00bfbf;" x="198.869421" xlink:href="#mcf4488d8c6" y="312.792552"/>
     <use style="fill:#00bfbf;" x="202.968595" xlink:href="#mcf4488d8c6" y="235.816267"/>
     <use style="fill:#00bfbf;" x="207.067769" xlink:href="#mcf4488d8c6" y="217.761527"/>
     <use style="fill:#00bfbf;" x="211.166942" xlink:href="#mcf4488d8c6" y="319.46451"/>
     <use style="fill:#00bfbf;" x="215.266116" xlink:href="#mcf4488d8c6" y="245.280974"/>
     <use style="fill:#00bfbf;" x="219.365289" xlink:href="#mcf4488d8c6" y="309.925603"/>
     <use style="fill:#00bfbf;" x="223.464463" xlink:href="#mcf4488d8c6" y="226.545524"/>
     <use style="fill:#00bfbf;" x="227.563636" xlink:href="#mcf4488d8c6" y="96.303106"/>
     <use style="fill:#00bfbf;" x="231.66281" xlink:href="#mcf4488d8c6" y="162.927889"/>
     <use style="fill:#00bfbf;" x="235.761983" xlink:href="#mcf4488d8c6" y="259.680351"/>
     <use style="fill:#00bfbf;" x="239.861157" xlink:href="#mcf4488d8c6" y="139.214242"/>
     <use style="fill:#00bfbf;" x="243.960331" xlink:href="#mcf4488d8c6" y="222.883748"/>
     <use style="fill:#00bfbf;" x="248.059504" xlink:href="#mcf4488d8c6" y="275.456676"/>
     <use style="fill:#00bfbf;" x="252.158678" xlink:href="#mcf4488d8c6" y="231.720049"/>
     <use style="fill:#00bfbf;" x="256.257851" xlink:href="#mcf4488d8c6" y="314.711608"/>
     <use style="fill:#00bfbf;" x="260.357025" xlink:href="#mcf4488d8c6" y="237.625022"/>
     <use style="fill:#00bfbf;" x="264.456198" xlink:href="#mcf4488d8c6" y="208.522693"/>
     <use style="fill:#00bfbf;" x="268.555372" xlink:href="#mcf4488d8c6" y="211.733984"/>
     <use style="fill:#00bfbf;" x="272.654545" xlink:href="#mcf4488d8c6" y="223.768962"/>
     <use style="fill:#00bfbf;" x="276.753719" xlink:href="#mcf4488d8c6" y="211.234708"/>
     <use style="fill:#00bfbf;" x="280.852893" xlink:href="#mcf4488d8c6" y="202.450923"/>
     <use style="fill:#00bfbf;" x="284.952066" xlink:href="#mcf4488d8c6" y="182.017123"/>
     <use style="fill:#00bfbf;" x="289.05124" xlink:href="#mcf4488d8c6" y="279.949563"/>
     <use style="fill:#00bfbf;" x="293.150413" xlink:href="#mcf4488d8c6" y="163.245066"/>
     <use style="fill:#00bfbf;" x="297.249587" xlink:href="#mcf4488d8c6" y="180.494563"/>
     <use style="fill:#00bfbf;" x="301.34876" xlink:href="#mcf4488d8c6" y="204.50025"/>
     <use style="fill:#00bfbf;" x="305.447934" xlink:href="#mcf4488d8c6" y="170.478608"/>
     <use style="fill:#00bfbf;" x="309.547107" xlink:href="#mcf4488d8c6" y="221.314081"/>
     <use style="fill:#00bfbf;" x="313.646281" xlink:href="#mcf4488d8c6" y="168.922926"/>
     <use style="fill:#00bfbf;" x="317.745455" xlink:href="#mcf4488d8c6" y="257.598109"/>
     <use style="fill:#00bfbf;" x="321.844628" xlink:href="#mcf4488d8c6" y="241.962249"/>
     <use style="fill:#00bfbf;" x="325.943802" xlink:href="#mcf4488d8c6" y="186.13113"/>
     <use style="fill:#00bfbf;" x="330.042975" xlink:href="#mcf4488d8c6" y="208.879642"/>
     <use style="fill:#00bfbf;" x="334.142149" xlink:href="#mcf4488d8c6" y="227.746915"/>
     <use style="fill:#00bfbf;" x="338.241322" xlink:href="#mcf4488d8c6" y="190.383081"/>
     <use style="fill:#00bfbf;" x="342.340496" xlink:href="#mcf4488d8c6" y="207.25899"/>
     <use style="fill:#00bfbf;" x="346.439669" xlink:href="#mcf4488d8c6" y="221.091529"/>
     <use style="fill:#00bfbf;" x="350.538843" xlink:href="#mcf4488d8c6" y="252.74435"/>
     <use style="fill:#00bfbf;" x="354.638017" xlink:href="#mcf4488d8c6" y="216.650342"/>
     <use style="fill:#00bfbf;" x="358.73719" xlink:href="#mcf4488d8c6" y="234.244472"/>
     <use style="fill:#00bfbf;" x="362.836364" xlink:href="#mcf4488d8c6" y="215.105606"/>
     <use style="fill:#00bfbf;" x="366.935537" xlink:href="#mcf4488d8c6" y="249.582731"/>
     <use style="fill:#00bfbf;" x="371.034711" xlink:href="#mcf4488d8c6" y="222.289084"/>
     <use style="fill:#00bfbf;" x="375.133884" xlink:href="#mcf4488d8c6" y="212.497033"/>
     <use style="fill:#00bfbf;" x="379.233058" xlink:href="#mcf4488d8c6" y="198.964922"/>
     <use style="fill:#00bfbf;" x="383.332231" xlink:href="#mcf4488d8c6" y="233.377805"/>
     <use style="fill:#00bfbf;" x="387.431405" xlink:href="#mcf4488d8c6" y="266.839548"/>
     <use style="fill:#00bfbf;" x="391.530579" xlink:href="#mcf4488d8c6" y="235.176098"/>
     <use style="fill:#00bfbf;" x="395.629752" xlink:href="#mcf4488d8c6" y="254.180088"/>
     <use style="fill:#00bfbf;" x="399.728926" xlink:href="#mcf4488d8c6" y="229.988362"/>
     <use style="fill:#00bfbf;" x="403.828099" xlink:href="#mcf4488d8c6" y="210.886834"/>
     <use style="fill:#00bfbf;" x="407.927273" xlink:href="#mcf4488d8c6" y="228.02452"/>
     <use style="fill:#00bfbf;" x="412.026446" xlink:href="#mcf4488d8c6" y="263.366293"/>
     <use style="fill:#00bfbf;" x="416.12562" xlink:href="#mcf4488d8c6" y="189.226042"/>
     <use style="fill:#00bfbf;" x="420.224793" xlink:href="#mcf4488d8c6" y="211.76058"/>
     <use style="fill:#00bfbf;" x="424.323967" xlink:href="#mcf4488d8c6" y="232.001851"/>
     <use style="fill:#00bfbf;" x="428.42314" xlink:href="#mcf4488d8c6" y="254.349509"/>
     <use style="fill:#00bfbf;" x="432.522314" xlink:href="#mcf4488d8c6" y="221.760416"/>
     <use style="fill:#00bfbf;" x="436.621488" xlink:href="#mcf4488d8c6" y="214.335392"/>
     <use style="fill:#00bfbf;" x="440.720661" xlink:href="#mcf4488d8c6" y="190.183856"/>
     <use style="fill:#00bfbf;" x="444.819835" xlink:href="#mcf4488d8c6" y="295.794756"/>
     <use style="fill:#00bfbf;" x="448.919008" xlink:href="#mcf4488d8c6" y="187.281337"/>
     <use style="fill:#00bfbf;" x="453.018182" xlink:href="#mcf4488d8c6" y="190.012664"/>
     <use style="fill:#00bfbf;" x="457.117355" xlink:href="#mcf4488d8c6" y="174.528432"/>
     <use style="fill:#00bfbf;" x="461.216529" xlink:href="#mcf4488d8c6" y="246.568386"/>
     <use style="fill:#00bfbf;" x="465.315702" xlink:href="#mcf4488d8c6" y="194.251432"/>
     <use style="fill:#00bfbf;" x="469.414876" xlink:href="#mcf4488d8c6" y="203.654511"/>
     <use style="fill:#00bfbf;" x="473.51405" xlink:href="#mcf4488d8c6" y="255.764522"/>
     <use style="fill:#00bfbf;" x="477.613223" xlink:href="#mcf4488d8c6" y="283.80849"/>
     <use style="fill:#00bfbf;" x="481.712397" xlink:href="#mcf4488d8c6" y="277.164049"/>
     <use style="fill:#00bfbf;" x="485.81157" xlink:href="#mcf4488d8c6" y="192.271673"/>
     <use style="fill:#00bfbf;" x="489.910744" xlink:href="#mcf4488d8c6" y="271.692177"/>
     <use style="fill:#00bfbf;" x="494.009917" xlink:href="#mcf4488d8c6" y="233.543102"/>
     <use style="fill:#00bfbf;" x="498.109091" xlink:href="#mcf4488d8c6" y="209.522005"/>
    </g>
   </g>
   <g id="line2d_28">
    <path clip-path="url(#p0d588de89d)" d="M 92.290909 277.077196 
L 96.390083 267.131775 
L 100.489256 273.359301 
L 104.58843 269.127872 
L 108.687603 269.273983 
L 112.786777 264.809719 
L 116.88595 265.26848 
L 120.985124 273.459224 
L 125.084298 263.183842 
L 129.183471 258.245181 
L 133.282645 269.919792 
L 137.381818 263.295869 
L 141.480992 267.508266 
L 145.580165 266.094183 
L 149.679339 262.201456 
L 153.778512 264.65347 
L 157.877686 272.444077 
L 161.97686 274.927199 
L 166.076033 271.195609 
L 170.175207 269.406336 
L 174.27438 268.045772 
L 178.373554 276.37237 
L 182.472727 276.499923 
L 186.571901 263.64536 
L 190.671074 275.515015 
L 194.770248 271.960663 
L 198.869421 265.417822 
L 202.968595 274.710162 
L 207.067769 265.837726 
L 211.166942 276.749332 
L 215.266116 260.201997 
L 219.365289 273.608164 
L 223.464463 264.777534 
L 227.563636 249.516045 
L 231.66281 253.578157 
L 235.761983 275.672293 
L 239.861157 259.486992 
L 243.960331 268.628495 
L 248.059504 268.179994 
L 252.158678 266.442043 
L 256.257851 271.819794 
L 260.357025 264.128781 
L 264.456198 270.404617 
L 268.555372 270.285571 
L 272.654545 263.329241 
L 276.753719 267.232032 
L 280.852893 262.270516 
L 284.952066 260.452495 
L 289.05124 270.710852 
L 293.150413 261.364833 
L 297.249587 260.958348 
L 301.34876 259.240315 
L 305.447934 261.767749 
L 309.547107 257.109017 
L 313.646281 260.467325 
L 317.745455 267.153083 
L 321.844628 266.744648 
L 325.943802 262.981064 
L 330.042975 266.143562 
L 334.142149 266.651884 
L 338.241322 258.909366 
L 342.340496 263.488302 
L 346.439669 263.111525 
L 350.538843 272.402604 
L 354.638017 262.526163 
L 358.73719 268.234316 
L 362.836364 262.903819 
L 366.935537 262.485057 
L 371.034711 267.226037 
L 375.133884 264.739724 
L 379.233058 263.611844 
L 383.332231 269.159009 
L 387.431405 267.848474 
L 391.530579 265.388349 
L 395.629752 270.408611 
L 399.728926 266.087291 
L 403.828099 266.444324 
L 407.927273 266.655623 
L 412.026446 269.47408 
L 416.12562 265.660098 
L 420.224793 263.824315 
L 424.323967 265.926746 
L 428.42314 266.103353 
L 432.522314 262.42012 
L 436.621488 265.84515 
L 440.720661 261.968541 
L 444.819835 276.487285 
L 448.919008 260.2677 
L 453.018182 264.225333 
L 457.117355 260.507687 
L 461.216529 266.067982 
L 465.315702 260.416083 
L 469.414876 261.676091 
L 473.51405 269.274422 
L 477.613223 267.612883 
L 481.712397 275.680929 
L 485.81157 259.08633 
L 489.910744 266.817083 
L 494.009917 271.254064 
L 498.109091 259.07892 
" style="fill:none;stroke:#008000;stroke-linecap:round;stroke-width:1.75;"/>
    <defs>
     <path d="M 0 3.5 
C 0.928211 3.5 1.81853 3.131218 2.474874 2.474874 
C 3.131218 1.81853 3.5 0.928211 3.5 0 
C 3.5 -0.928211 3.131218 -1.81853 2.474874 -2.474874 
C 1.81853 -3.131218 0.928211 -3.5 0 -3.5 
C -0.928211 -3.5 -1.81853 -3.131218 -2.474874 -2.474874 
C -3.131218 -1.81853 -3.5 -0.928211 -3.5 0 
C -3.5 0.928211 -3.131218 1.81853 -2.474874 2.474874 
C -1.81853 3.131218 -0.928211 3.5 0 3.5 
z
" id="m8a2bbf1756"/>
    </defs>
    <g clip-path="url(#p0d588de89d)">
     <use style="fill:#008000;" x="92.290909" xlink:href="#m8a2bbf1756" y="277.077196"/>
     <use style="fill:#008000;" x="96.390083" xlink:href="#m8a2bbf1756" y="267.131775"/>
     <use style="fill:#008000;" x="100.489256" xlink:href="#m8a2bbf1756" y="273.359301"/>
     <use style="fill:#008000;" x="104.58843" xlink:href="#m8a2bbf1756" y="269.127872"/>
     <use style="fill:#008000;" x="108.687603" xlink:href="#m8a2bbf1756" y="269.273983"/>
     <use style="fill:#008000;" x="112.786777" xlink:href="#m8a2bbf1756" y="264.809719"/>
     <use style="fill:#008000;" x="116.88595" xlink:href="#m8a2bbf1756" y="265.26848"/>
     <use style="fill:#008000;" x="120.985124" xlink:href="#m8a2bbf1756" y="273.459224"/>
     <use style="fill:#008000;" x="125.084298" xlink:href="#m8a2bbf1756" y="263.183842"/>
     <use style="fill:#008000;" x="129.183471" xlink:href="#m8a2bbf1756" y="258.245181"/>
     <use style="fill:#008000;" x="133.282645" xlink:href="#m8a2bbf1756" y="269.919792"/>
     <use style="fill:#008000;" x="137.381818" xlink:href="#m8a2bbf1756" y="263.295869"/>
     <use style="fill:#008000;" x="141.480992" xlink:href="#m8a2bbf1756" y="267.508266"/>
     <use style="fill:#008000;" x="145.580165" xlink:href="#m8a2bbf1756" y="266.094183"/>
     <use style="fill:#008000;" x="149.679339" xlink:href="#m8a2bbf1756" y="262.201456"/>
     <use style="fill:#008000;" x="153.778512" xlink:href="#m8a2bbf1756" y="264.65347"/>
     <use style="fill:#008000;" x="157.877686" xlink:href="#m8a2bbf1756" y="272.444077"/>
     <use style="fill:#008000;" x="161.97686" xlink:href="#m8a2bbf1756" y="274.927199"/>
     <use style="fill:#008000;" x="166.076033" xlink:href="#m8a2bbf1756" y="271.195609"/>
     <use style="fill:#008000;" x="170.175207" xlink:href="#m8a2bbf1756" y="269.406336"/>
     <use style="fill:#008000;" x="174.27438" xlink:href="#m8a2bbf1756" y="268.045772"/>
     <use style="fill:#008000;" x="178.373554" xlink:href="#m8a2bbf1756" y="276.37237"/>
     <use style="fill:#008000;" x="182.472727" xlink:href="#m8a2bbf1756" y="276.499923"/>
     <use style="fill:#008000;" x="186.571901" xlink:href="#m8a2bbf1756" y="263.64536"/>
     <use style="fill:#008000;" x="190.671074" xlink:href="#m8a2bbf1756" y="275.515015"/>
     <use style="fill:#008000;" x="194.770248" xlink:href="#m8a2bbf1756" y="271.960663"/>
     <use style="fill:#008000;" x="198.869421" xlink:href="#m8a2bbf1756" y="265.417822"/>
     <use style="fill:#008000;" x="202.968595" xlink:href="#m8a2bbf1756" y="274.710162"/>
     <use style="fill:#008000;" x="207.067769" xlink:href="#m8a2bbf1756" y="265.837726"/>
     <use style="fill:#008000;" x="211.166942" xlink:href="#m8a2bbf1756" y="276.749332"/>
     <use style="fill:#008000;" x="215.266116" xlink:href="#m8a2bbf1756" y="260.201997"/>
     <use style="fill:#008000;" x="219.365289" xlink:href="#m8a2bbf1756" y="273.608164"/>
     <use style="fill:#008000;" x="223.464463" xlink:href="#m8a2bbf1756" y="264.777534"/>
     <use style="fill:#008000;" x="227.563636" xlink:href="#m8a2bbf1756" y="249.516045"/>
     <use style="fill:#008000;" x="231.66281" xlink:href="#m8a2bbf1756" y="253.578157"/>
     <use style="fill:#008000;" x="235.761983" xlink:href="#m8a2bbf1756" y="275.672293"/>
     <use style="fill:#008000;" x="239.861157" xlink:href="#m8a2bbf1756" y="259.486992"/>
     <use style="fill:#008000;" x="243.960331" xlink:href="#m8a2bbf1756" y="268.628495"/>
     <use style="fill:#008000;" x="248.059504" xlink:href="#m8a2bbf1756" y="268.179994"/>
     <use style="fill:#008000;" x="252.158678" xlink:href="#m8a2bbf1756" y="266.442043"/>
     <use style="fill:#008000;" x="256.257851" xlink:href="#m8a2bbf1756" y="271.819794"/>
     <use style="fill:#008000;" x="260.357025" xlink:href="#m8a2bbf1756" y="264.128781"/>
     <use style="fill:#008000;" x="264.456198" xlink:href="#m8a2bbf1756" y="270.404617"/>
     <use style="fill:#008000;" x="268.555372" xlink:href="#m8a2bbf1756" y="270.285571"/>
     <use style="fill:#008000;" x="272.654545" xlink:href="#m8a2bbf1756" y="263.329241"/>
     <use style="fill:#008000;" x="276.753719" xlink:href="#m8a2bbf1756" y="267.232032"/>
     <use style="fill:#008000;" x="280.852893" xlink:href="#m8a2bbf1756" y="262.270516"/>
     <use style="fill:#008000;" x="284.952066" xlink:href="#m8a2bbf1756" y="260.452495"/>
     <use style="fill:#008000;" x="289.05124" xlink:href="#m8a2bbf1756" y="270.710852"/>
     <use style="fill:#008000;" x="293.150413" xlink:href="#m8a2bbf1756" y="261.364833"/>
     <use style="fill:#008000;" x="297.249587" xlink:href="#m8a2bbf1756" y="260.958348"/>
     <use style="fill:#008000;" x="301.34876" xlink:href="#m8a2bbf1756" y="259.240315"/>
     <use style="fill:#008000;" x="305.447934" xlink:href="#m8a2bbf1756" y="261.767749"/>
     <use style="fill:#008000;" x="309.547107" xlink:href="#m8a2bbf1756" y="257.109017"/>
     <use style="fill:#008000;" x="313.646281" xlink:href="#m8a2bbf1756" y="260.467325"/>
     <use style="fill:#008000;" x="317.745455" xlink:href="#m8a2bbf1756" y="267.153083"/>
     <use style="fill:#008000;" x="321.844628" xlink:href="#m8a2bbf1756" y="266.744648"/>
     <use style="fill:#008000;" x="325.943802" xlink:href="#m8a2bbf1756" y="262.981064"/>
     <use style="fill:#008000;" x="330.042975" xlink:href="#m8a2bbf1756" y="266.143562"/>
     <use style="fill:#008000;" x="334.142149" xlink:href="#m8a2bbf1756" y="266.651884"/>
     <use style="fill:#008000;" x="338.241322" xlink:href="#m8a2bbf1756" y="258.909366"/>
     <use style="fill:#008000;" x="342.340496" xlink:href="#m8a2bbf1756" y="263.488302"/>
     <use style="fill:#008000;" x="346.439669" xlink:href="#m8a2bbf1756" y="263.111525"/>
     <use style="fill:#008000;" x="350.538843" xlink:href="#m8a2bbf1756" y="272.402604"/>
     <use style="fill:#008000;" x="354.638017" xlink:href="#m8a2bbf1756" y="262.526163"/>
     <use style="fill:#008000;" x="358.73719" xlink:href="#m8a2bbf1756" y="268.234316"/>
     <use style="fill:#008000;" x="362.836364" xlink:href="#m8a2bbf1756" y="262.903819"/>
     <use style="fill:#008000;" x="366.935537" xlink:href="#m8a2bbf1756" y="262.485057"/>
     <use style="fill:#008000;" x="371.034711" xlink:href="#m8a2bbf1756" y="267.226037"/>
     <use style="fill:#008000;" x="375.133884" xlink:href="#m8a2bbf1756" y="264.739724"/>
     <use style="fill:#008000;" x="379.233058" xlink:href="#m8a2bbf1756" y="263.611844"/>
     <use style="fill:#008000;" x="383.332231" xlink:href="#m8a2bbf1756" y="269.159009"/>
     <use style="fill:#008000;" x="387.431405" xlink:href="#m8a2bbf1756" y="267.848474"/>
     <use style="fill:#008000;" x="391.530579" xlink:href="#m8a2bbf1756" y="265.388349"/>
     <use style="fill:#008000;" x="395.629752" xlink:href="#m8a2bbf1756" y="270.408611"/>
     <use style="fill:#008000;" x="399.728926" xlink:href="#m8a2bbf1756" y="266.087291"/>
     <use style="fill:#008000;" x="403.828099" xlink:href="#m8a2bbf1756" y="266.444324"/>
     <use style="fill:#008000;" x="407.927273" xlink:href="#m8a2bbf1756" y="266.655623"/>
     <use style="fill:#008000;" x="412.026446" xlink:href="#m8a2bbf1756" y="269.47408"/>
     <use style="fill:#008000;" x="416.12562" xlink:href="#m8a2bbf1756" y="265.660098"/>
     <use style="fill:#008000;" x="420.224793" xlink:href="#m8a2bbf1756" y="263.824315"/>
     <use style="fill:#008000;" x="424.323967" xlink:href="#m8a2bbf1756" y="265.926746"/>
     <use style="fill:#008000;" x="428.42314" xlink:href="#m8a2bbf1756" y="266.103353"/>
     <use style="fill:#008000;" x="432.522314" xlink:href="#m8a2bbf1756" y="262.42012"/>
     <use style="fill:#008000;" x="436.621488" xlink:href="#m8a2bbf1756" y="265.84515"/>
     <use style="fill:#008000;" x="440.720661" xlink:href="#m8a2bbf1756" y="261.968541"/>
     <use style="fill:#008000;" x="444.819835" xlink:href="#m8a2bbf1756" y="276.487285"/>
     <use style="fill:#008000;" x="448.919008" xlink:href="#m8a2bbf1756" y="260.2677"/>
     <use style="fill:#008000;" x="453.018182" xlink:href="#m8a2bbf1756" y="264.225333"/>
     <use style="fill:#008000;" x="457.117355" xlink:href="#m8a2bbf1756" y="260.507687"/>
     <use style="fill:#008000;" x="461.216529" xlink:href="#m8a2bbf1756" y="266.067982"/>
     <use style="fill:#008000;" x="465.315702" xlink:href="#m8a2bbf1756" y="260.416083"/>
     <use style="fill:#008000;" x="469.414876" xlink:href="#m8a2bbf1756" y="261.676091"/>
     <use style="fill:#008000;" x="473.51405" xlink:href="#m8a2bbf1756" y="269.274422"/>
     <use style="fill:#008000;" x="477.613223" xlink:href="#m8a2bbf1756" y="267.612883"/>
     <use style="fill:#008000;" x="481.712397" xlink:href="#m8a2bbf1756" y="275.680929"/>
     <use style="fill:#008000;" x="485.81157" xlink:href="#m8a2bbf1756" y="259.08633"/>
     <use style="fill:#008000;" x="489.910744" xlink:href="#m8a2bbf1756" y="266.817083"/>
     <use style="fill:#008000;" x="494.009917" xlink:href="#m8a2bbf1756" y="271.254064"/>
     <use style="fill:#008000;" x="498.109091" xlink:href="#m8a2bbf1756" y="259.07892"/>
    </g>
   </g>
   <g id="line2d_29">
    <path clip-path="url(#p0d588de89d)" d="M 92.290909 260.708524 
L 96.390083 262.027095 
L 100.489256 261.003521 
L 104.58843 262.810892 
L 108.687603 261.791992 
L 112.786777 262.846599 
L 116.88595 261.455245 
L 120.985124 259.136044 
L 125.084298 262.200351 
L 129.183471 263.963445 
L 133.282645 261.447915 
L 137.381818 260.79968 
L 141.480992 262.777557 
L 145.580165 260.734071 
L 149.679339 263.228255 
L 153.778512 264.194094 
L 157.877686 260.294362 
L 161.97686 259.639472 
L 166.076033 261.618512 
L 170.175207 259.729965 
L 174.27438 261.8698 
L 178.373554 260.779985 
L 182.472727 259.694159 
L 186.571901 262.111443 
L 190.671074 261.722374 
L 194.770248 261.542119 
L 198.869421 263.055195 
L 202.968595 261.397491 
L 207.067769 266.731321 
L 211.166942 260.140057 
L 215.266116 263.051657 
L 219.365289 258.858245 
L 223.464463 262.859746 
L 227.563636 265.47612 
L 231.66281 266.934868 
L 235.761983 262.673067 
L 239.861157 263.242807 
L 243.960331 263.054524 
L 248.059504 261.993307 
L 252.158678 264.509118 
L 256.257851 264.572859 
L 260.357025 263.623602 
L 264.456198 262.136334 
L 268.555372 260.571342 
L 272.654545 263.789519 
L 276.753719 264.63196 
L 280.852893 263.275371 
L 284.952066 262.781072 
L 289.05124 264.195927 
L 293.150413 265.683441 
L 297.249587 265.341044 
L 301.34876 265.299203 
L 305.447934 264.3715 
L 309.547107 266.122332 
L 313.646281 264.833749 
L 317.745455 264.320367 
L 321.844628 262.714078 
L 325.943802 263.603623 
L 330.042975 263.426633 
L 334.142149 262.31274 
L 338.241322 265.028389 
L 342.340496 264.299613 
L 346.439669 263.654091 
L 350.538843 262.550837 
L 354.638017 263.680919 
L 358.73719 262.086107 
L 362.836364 263.936991 
L 366.935537 265.149158 
L 371.034711 264.852615 
L 375.133884 264.829754 
L 379.233058 262.220466 
L 383.332231 260.673389 
L 387.431405 263.458391 
L 391.530579 263.424487 
L 395.629752 263.135719 
L 399.728926 263.095814 
L 403.828099 263.169302 
L 407.927273 263.726766 
L 412.026446 262.89798 
L 416.12562 262.690178 
L 420.224793 265.46215 
L 424.323967 262.928992 
L 428.42314 263.068155 
L 432.522314 265.192703 
L 436.621488 264.16955 
L 440.720661 265.14952 
L 444.819835 262.098761 
L 448.919008 266.154589 
L 453.018182 264.322348 
L 457.117355 264.237225 
L 461.216529 264.209618 
L 465.315702 266.020358 
L 469.414876 263.560334 
L 473.51405 264.261526 
L 477.613223 261.200652 
L 481.712397 259.842293 
L 485.81157 265.408098 
L 489.910744 263.18505 
L 494.009917 261.99642 
L 498.109091 262.755058 
" style="fill:none;stroke:#0000ff;stroke-linecap:round;stroke-width:1.75;"/>
    <defs>
     <path d="M 0 3.5 
C 0.928211 3.5 1.81853 3.131218 2.474874 2.474874 
C 3.131218 1.81853 3.5 0.928211 3.5 0 
C 3.5 -0.928211 3.131218 -1.81853 2.474874 -2.474874 
C 1.81853 -3.131218 0.928211 -3.5 0 -3.5 
C -0.928211 -3.5 -1.81853 -3.131218 -2.474874 -2.474874 
C -3.131218 -1.81853 -3.5 -0.928211 -3.5 0 
C -3.5 0.928211 -3.131218 1.81853 -2.474874 2.474874 
C -1.81853 3.131218 -0.928211 3.5 0 3.5 
z
" id="mca1e9beb24"/>
    </defs>
    <g clip-path="url(#p0d588de89d)">
     <use style="fill:#0000ff;" x="92.290909" xlink:href="#mca1e9beb24" y="260.708524"/>
     <use style="fill:#0000ff;" x="96.390083" xlink:href="#mca1e9beb24" y="262.027095"/>
     <use style="fill:#0000ff;" x="100.489256" xlink:href="#mca1e9beb24" y="261.003521"/>
     <use style="fill:#0000ff;" x="104.58843" xlink:href="#mca1e9beb24" y="262.810892"/>
     <use style="fill:#0000ff;" x="108.687603" xlink:href="#mca1e9beb24" y="261.791992"/>
     <use style="fill:#0000ff;" x="112.786777" xlink:href="#mca1e9beb24" y="262.846599"/>
     <use style="fill:#0000ff;" x="116.88595" xlink:href="#mca1e9beb24" y="261.455245"/>
     <use style="fill:#0000ff;" x="120.985124" xlink:href="#mca1e9beb24" y="259.136044"/>
     <use style="fill:#0000ff;" x="125.084298" xlink:href="#mca1e9beb24" y="262.200351"/>
     <use style="fill:#0000ff;" x="129.183471" xlink:href="#mca1e9beb24" y="263.963445"/>
     <use style="fill:#0000ff;" x="133.282645" xlink:href="#mca1e9beb24" y="261.447915"/>
     <use style="fill:#0000ff;" x="137.381818" xlink:href="#mca1e9beb24" y="260.79968"/>
     <use style="fill:#0000ff;" x="141.480992" xlink:href="#mca1e9beb24" y="262.777557"/>
     <use style="fill:#0000ff;" x="145.580165" xlink:href="#mca1e9beb24" y="260.734071"/>
     <use style="fill:#0000ff;" x="149.679339" xlink:href="#mca1e9beb24" y="263.228255"/>
     <use style="fill:#0000ff;" x="153.778512" xlink:href="#mca1e9beb24" y="264.194094"/>
     <use style="fill:#0000ff;" x="157.877686" xlink:href="#mca1e9beb24" y="260.294362"/>
     <use style="fill:#0000ff;" x="161.97686" xlink:href="#mca1e9beb24" y="259.639472"/>
     <use style="fill:#0000ff;" x="166.076033" xlink:href="#mca1e9beb24" y="261.618512"/>
     <use style="fill:#0000ff;" x="170.175207" xlink:href="#mca1e9beb24" y="259.729965"/>
     <use style="fill:#0000ff;" x="174.27438" xlink:href="#mca1e9beb24" y="261.8698"/>
     <use style="fill:#0000ff;" x="178.373554" xlink:href="#mca1e9beb24" y="260.779985"/>
     <use style="fill:#0000ff;" x="182.472727" xlink:href="#mca1e9beb24" y="259.694159"/>
     <use style="fill:#0000ff;" x="186.571901" xlink:href="#mca1e9beb24" y="262.111443"/>
     <use style="fill:#0000ff;" x="190.671074" xlink:href="#mca1e9beb24" y="261.722374"/>
     <use style="fill:#0000ff;" x="194.770248" xlink:href="#mca1e9beb24" y="261.542119"/>
     <use style="fill:#0000ff;" x="198.869421" xlink:href="#mca1e9beb24" y="263.055195"/>
     <use style="fill:#0000ff;" x="202.968595" xlink:href="#mca1e9beb24" y="261.397491"/>
     <use style="fill:#0000ff;" x="207.067769" xlink:href="#mca1e9beb24" y="266.731321"/>
     <use style="fill:#0000ff;" x="211.166942" xlink:href="#mca1e9beb24" y="260.140057"/>
     <use style="fill:#0000ff;" x="215.266116" xlink:href="#mca1e9beb24" y="263.051657"/>
     <use style="fill:#0000ff;" x="219.365289" xlink:href="#mca1e9beb24" y="258.858245"/>
     <use style="fill:#0000ff;" x="223.464463" xlink:href="#mca1e9beb24" y="262.859746"/>
     <use style="fill:#0000ff;" x="227.563636" xlink:href="#mca1e9beb24" y="265.47612"/>
     <use style="fill:#0000ff;" x="231.66281" xlink:href="#mca1e9beb24" y="266.934868"/>
     <use style="fill:#0000ff;" x="235.761983" xlink:href="#mca1e9beb24" y="262.673067"/>
     <use style="fill:#0000ff;" x="239.861157" xlink:href="#mca1e9beb24" y="263.242807"/>
     <use style="fill:#0000ff;" x="243.960331" xlink:href="#mca1e9beb24" y="263.054524"/>
     <use style="fill:#0000ff;" x="248.059504" xlink:href="#mca1e9beb24" y="261.993307"/>
     <use style="fill:#0000ff;" x="252.158678" xlink:href="#mca1e9beb24" y="264.509118"/>
     <use style="fill:#0000ff;" x="256.257851" xlink:href="#mca1e9beb24" y="264.572859"/>
     <use style="fill:#0000ff;" x="260.357025" xlink:href="#mca1e9beb24" y="263.623602"/>
     <use style="fill:#0000ff;" x="264.456198" xlink:href="#mca1e9beb24" y="262.136334"/>
     <use style="fill:#0000ff;" x="268.555372" xlink:href="#mca1e9beb24" y="260.571342"/>
     <use style="fill:#0000ff;" x="272.654545" xlink:href="#mca1e9beb24" y="263.789519"/>
     <use style="fill:#0000ff;" x="276.753719" xlink:href="#mca1e9beb24" y="264.63196"/>
     <use style="fill:#0000ff;" x="280.852893" xlink:href="#mca1e9beb24" y="263.275371"/>
     <use style="fill:#0000ff;" x="284.952066" xlink:href="#mca1e9beb24" y="262.781072"/>
     <use style="fill:#0000ff;" x="289.05124" xlink:href="#mca1e9beb24" y="264.195927"/>
     <use style="fill:#0000ff;" x="293.150413" xlink:href="#mca1e9beb24" y="265.683441"/>
     <use style="fill:#0000ff;" x="297.249587" xlink:href="#mca1e9beb24" y="265.341044"/>
     <use style="fill:#0000ff;" x="301.34876" xlink:href="#mca1e9beb24" y="265.299203"/>
     <use style="fill:#0000ff;" x="305.447934" xlink:href="#mca1e9beb24" y="264.3715"/>
     <use style="fill:#0000ff;" x="309.547107" xlink:href="#mca1e9beb24" y="266.122332"/>
     <use style="fill:#0000ff;" x="313.646281" xlink:href="#mca1e9beb24" y="264.833749"/>
     <use style="fill:#0000ff;" x="317.745455" xlink:href="#mca1e9beb24" y="264.320367"/>
     <use style="fill:#0000ff;" x="321.844628" xlink:href="#mca1e9beb24" y="262.714078"/>
     <use style="fill:#0000ff;" x="325.943802" xlink:href="#mca1e9beb24" y="263.603623"/>
     <use style="fill:#0000ff;" x="330.042975" xlink:href="#mca1e9beb24" y="263.426633"/>
     <use style="fill:#0000ff;" x="334.142149" xlink:href="#mca1e9beb24" y="262.31274"/>
     <use style="fill:#0000ff;" x="338.241322" xlink:href="#mca1e9beb24" y="265.028389"/>
     <use style="fill:#0000ff;" x="342.340496" xlink:href="#mca1e9beb24" y="264.299613"/>
     <use style="fill:#0000ff;" x="346.439669" xlink:href="#mca1e9beb24" y="263.654091"/>
     <use style="fill:#0000ff;" x="350.538843" xlink:href="#mca1e9beb24" y="262.550837"/>
     <use style="fill:#0000ff;" x="354.638017" xlink:href="#mca1e9beb24" y="263.680919"/>
     <use style="fill:#0000ff;" x="358.73719" xlink:href="#mca1e9beb24" y="262.086107"/>
     <use style="fill:#0000ff;" x="362.836364" xlink:href="#mca1e9beb24" y="263.936991"/>
     <use style="fill:#0000ff;" x="366.935537" xlink:href="#mca1e9beb24" y="265.149158"/>
     <use style="fill:#0000ff;" x="371.034711" xlink:href="#mca1e9beb24" y="264.852615"/>
     <use style="fill:#0000ff;" x="375.133884" xlink:href="#mca1e9beb24" y="264.829754"/>
     <use style="fill:#0000ff;" x="379.233058" xlink:href="#mca1e9beb24" y="262.220466"/>
     <use style="fill:#0000ff;" x="383.332231" xlink:href="#mca1e9beb24" y="260.673389"/>
     <use style="fill:#0000ff;" x="387.431405" xlink:href="#mca1e9beb24" y="263.458391"/>
     <use style="fill:#0000ff;" x="391.530579" xlink:href="#mca1e9beb24" y="263.424487"/>
     <use style="fill:#0000ff;" x="395.629752" xlink:href="#mca1e9beb24" y="263.135719"/>
     <use style="fill:#0000ff;" x="399.728926" xlink:href="#mca1e9beb24" y="263.095814"/>
     <use style="fill:#0000ff;" x="403.828099" xlink:href="#mca1e9beb24" y="263.169302"/>
     <use style="fill:#0000ff;" x="407.927273" xlink:href="#mca1e9beb24" y="263.726766"/>
     <use style="fill:#0000ff;" x="412.026446" xlink:href="#mca1e9beb24" y="262.89798"/>
     <use style="fill:#0000ff;" x="416.12562" xlink:href="#mca1e9beb24" y="262.690178"/>
     <use style="fill:#0000ff;" x="420.224793" xlink:href="#mca1e9beb24" y="265.46215"/>
     <use style="fill:#0000ff;" x="424.323967" xlink:href="#mca1e9beb24" y="262.928992"/>
     <use style="fill:#0000ff;" x="428.42314" xlink:href="#mca1e9beb24" y="263.068155"/>
     <use style="fill:#0000ff;" x="432.522314" xlink:href="#mca1e9beb24" y="265.192703"/>
     <use style="fill:#0000ff;" x="436.621488" xlink:href="#mca1e9beb24" y="264.16955"/>
     <use style="fill:#0000ff;" x="440.720661" xlink:href="#mca1e9beb24" y="265.14952"/>
     <use style="fill:#0000ff;" x="444.819835" xlink:href="#mca1e9beb24" y="262.098761"/>
     <use style="fill:#0000ff;" x="448.919008" xlink:href="#mca1e9beb24" y="266.154589"/>
     <use style="fill:#0000ff;" x="453.018182" xlink:href="#mca1e9beb24" y="264.322348"/>
     <use style="fill:#0000ff;" x="457.117355" xlink:href="#mca1e9beb24" y="264.237225"/>
     <use style="fill:#0000ff;" x="461.216529" xlink:href="#mca1e9beb24" y="264.209618"/>
     <use style="fill:#0000ff;" x="465.315702" xlink:href="#mca1e9beb24" y="266.020358"/>
     <use style="fill:#0000ff;" x="469.414876" xlink:href="#mca1e9beb24" y="263.560334"/>
     <use style="fill:#0000ff;" x="473.51405" xlink:href="#mca1e9beb24" y="264.261526"/>
     <use style="fill:#0000ff;" x="477.613223" xlink:href="#mca1e9beb24" y="261.200652"/>
     <use style="fill:#0000ff;" x="481.712397" xlink:href="#mca1e9beb24" y="259.842293"/>
     <use style="fill:#0000ff;" x="485.81157" xlink:href="#mca1e9beb24" y="265.408098"/>
     <use style="fill:#0000ff;" x="489.910744" xlink:href="#mca1e9beb24" y="263.18505"/>
     <use style="fill:#0000ff;" x="494.009917" xlink:href="#mca1e9beb24" y="261.99642"/>
     <use style="fill:#0000ff;" x="498.109091" xlink:href="#mca1e9beb24" y="262.755058"/>
    </g>
   </g>
   <g id="line2d_30">
    <path clip-path="url(#p0d588de89d)" d="M 92.290909 68.504803 
L 96.390083 68.500343 
L 100.489256 67.942219 
L 104.58843 68.888327 
L 108.687603 68.354166 
L 112.786777 68.519498 
L 116.88595 72.66748 
L 120.985124 71.560082 
L 125.084298 70.145431 
L 129.183471 70.228337 
L 133.282645 68.890548 
L 137.381818 75.256296 
L 141.480992 69.277573 
L 145.580165 74.026402 
L 149.679339 71.610648 
L 153.778512 68.246323 
L 157.877686 69.191436 
L 161.97686 72.291955 
L 166.076033 70.764192 
L 170.175207 71.499949 
L 174.27438 68.566357 
L 178.373554 68.624976 
L 182.472727 67.421942 
L 186.571901 70.994673 
L 190.671074 69.199293 
L 194.770248 70.169616 
L 198.869421 69.808524 
L 202.968595 67.219615 
L 207.067769 61.38 
L 211.166942 65.543115 
L 215.266116 71.993161 
L 219.365289 71.535871 
L 223.464463 68.526075 
L 227.563636 73.149937 
L 231.66281 65.937382 
L 235.761983 64.196205 
L 239.861157 69.578681 
L 243.960331 64.848175 
L 248.059504 69.485991 
L 252.158678 64.436575 
L 256.257851 64.669013 
L 260.357025 67.730031 
L 264.456198 67.342851 
L 268.555372 70.32665 
L 272.654545 70.730362 
L 276.753719 64.628024 
L 280.852893 69.287947 
L 284.952066 69.897361 
L 289.05124 63.941354 
L 293.150413 65.654448 
L 297.249587 67.57456 
L 301.34876 68.958553 
L 305.447934 68.20715 
L 309.547107 68.854507 
L 313.646281 68.574098 
L 317.745455 66.266642 
L 321.844628 68.181815 
L 325.943802 70.020009 
L 330.042975 68.110465 
L 334.142149 68.177653 
L 338.241322 70.441477 
L 342.340496 68.781548 
L 346.439669 69.182312 
L 350.538843 66.683551 
L 354.638017 72.016905 
L 358.73719 70.20199 
L 362.836364 68.746968 
L 366.935537 67.122314 
L 371.034711 64.783447 
L 375.133884 66.468072 
L 379.233058 71.600826 
L 383.332231 70.617523 
L 387.431405 68.264707 
L 391.530579 68.259852 
L 395.629752 65.27608 
L 399.728926 69.017688 
L 403.828099 66.944134 
L 407.927273 65.757927 
L 412.026446 67.289923 
L 416.12562 69.206878 
L 420.224793 66.462142 
L 424.323967 70.394639 
L 428.42314 68.848009 
L 432.522314 67.432013 
L 436.621488 68.790011 
L 440.720661 68.917036 
L 444.819835 64.545335 
L 448.919008 66.976261 
L 453.018182 67.311657 
L 457.117355 71.648482 
L 461.216529 69.537239 
L 465.315702 66.447933 
L 469.414876 72.510211 
L 473.51405 67.406274 
L 477.613223 72.28011 
L 481.712397 71.224073 
L 485.81157 68.906832 
L 489.910744 69.018362 
L 494.009917 69.319717 
L 498.109091 73.495422 
" style="fill:none;stroke:#000000;stroke-linecap:round;stroke-width:1.75;"/>
    <defs>
     <path d="M 0 3.5 
C 0.928211 3.5 1.81853 3.131218 2.474874 2.474874 
C 3.131218 1.81853 3.5 0.928211 3.5 0 
C 3.5 -0.928211 3.131218 -1.81853 2.474874 -2.474874 
C 1.81853 -3.131218 0.928211 -3.5 0 -3.5 
C -0.928211 -3.5 -1.81853 -3.131218 -2.474874 -2.474874 
C -3.131218 -1.81853 -3.5 -0.928211 -3.5 0 
C -3.5 0.928211 -3.131218 1.81853 -2.474874 2.474874 
C -1.81853 3.131218 -0.928211 3.5 0 3.5 
z
" id="m495c9cc2a7"/>
    </defs>
    <g clip-path="url(#p0d588de89d)">
     <use x="92.290909" xlink:href="#m495c9cc2a7" y="68.504803"/>
     <use x="96.390083" xlink:href="#m495c9cc2a7" y="68.500343"/>
     <use x="100.489256" xlink:href="#m495c9cc2a7" y="67.942219"/>
     <use x="104.58843" xlink:href="#m495c9cc2a7" y="68.888327"/>
     <use x="108.687603" xlink:href="#m495c9cc2a7" y="68.354166"/>
     <use x="112.786777" xlink:href="#m495c9cc2a7" y="68.519498"/>
     <use x="116.88595" xlink:href="#m495c9cc2a7" y="72.66748"/>
     <use x="120.985124" xlink:href="#m495c9cc2a7" y="71.560082"/>
     <use x="125.084298" xlink:href="#m495c9cc2a7" y="70.145431"/>
     <use x="129.183471" xlink:href="#m495c9cc2a7" y="70.228337"/>
     <use x="133.282645" xlink:href="#m495c9cc2a7" y="68.890548"/>
     <use x="137.381818" xlink:href="#m495c9cc2a7" y="75.256296"/>
     <use x="141.480992" xlink:href="#m495c9cc2a7" y="69.277573"/>
     <use x="145.580165" xlink:href="#m495c9cc2a7" y="74.026402"/>
     <use x="149.679339" xlink:href="#m495c9cc2a7" y="71.610648"/>
     <use x="153.778512" xlink:href="#m495c9cc2a7" y="68.246323"/>
     <use x="157.877686" xlink:href="#m495c9cc2a7" y="69.191436"/>
     <use x="161.97686" xlink:href="#m495c9cc2a7" y="72.291955"/>
     <use x="166.076033" xlink:href="#m495c9cc2a7" y="70.764192"/>
     <use x="170.175207" xlink:href="#m495c9cc2a7" y="71.499949"/>
     <use x="174.27438" xlink:href="#m495c9cc2a7" y="68.566357"/>
     <use x="178.373554" xlink:href="#m495c9cc2a7" y="68.624976"/>
     <use x="182.472727" xlink:href="#m495c9cc2a7" y="67.421942"/>
     <use x="186.571901" xlink:href="#m495c9cc2a7" y="70.994673"/>
     <use x="190.671074" xlink:href="#m495c9cc2a7" y="69.199293"/>
     <use x="194.770248" xlink:href="#m495c9cc2a7" y="70.169616"/>
     <use x="198.869421" xlink:href="#m495c9cc2a7" y="69.808524"/>
     <use x="202.968595" xlink:href="#m495c9cc2a7" y="67.219615"/>
     <use x="207.067769" xlink:href="#m495c9cc2a7" y="61.38"/>
     <use x="211.166942" xlink:href="#m495c9cc2a7" y="65.543115"/>
     <use x="215.266116" xlink:href="#m495c9cc2a7" y="71.993161"/>
     <use x="219.365289" xlink:href="#m495c9cc2a7" y="71.535871"/>
     <use x="223.464463" xlink:href="#m495c9cc2a7" y="68.526075"/>
     <use x="227.563636" xlink:href="#m495c9cc2a7" y="73.149937"/>
     <use x="231.66281" xlink:href="#m495c9cc2a7" y="65.937382"/>
     <use x="235.761983" xlink:href="#m495c9cc2a7" y="64.196205"/>
     <use x="239.861157" xlink:href="#m495c9cc2a7" y="69.578681"/>
     <use x="243.960331" xlink:href="#m495c9cc2a7" y="64.848175"/>
     <use x="248.059504" xlink:href="#m495c9cc2a7" y="69.485991"/>
     <use x="252.158678" xlink:href="#m495c9cc2a7" y="64.436575"/>
     <use x="256.257851" xlink:href="#m495c9cc2a7" y="64.669013"/>
     <use x="260.357025" xlink:href="#m495c9cc2a7" y="67.730031"/>
     <use x="264.456198" xlink:href="#m495c9cc2a7" y="67.342851"/>
     <use x="268.555372" xlink:href="#m495c9cc2a7" y="70.32665"/>
     <use x="272.654545" xlink:href="#m495c9cc2a7" y="70.730362"/>
     <use x="276.753719" xlink:href="#m495c9cc2a7" y="64.628024"/>
     <use x="280.852893" xlink:href="#m495c9cc2a7" y="69.287947"/>
     <use x="284.952066" xlink:href="#m495c9cc2a7" y="69.897361"/>
     <use x="289.05124" xlink:href="#m495c9cc2a7" y="63.941354"/>
     <use x="293.150413" xlink:href="#m495c9cc2a7" y="65.654448"/>
     <use x="297.249587" xlink:href="#m495c9cc2a7" y="67.57456"/>
     <use x="301.34876" xlink:href="#m495c9cc2a7" y="68.958553"/>
     <use x="305.447934" xlink:href="#m495c9cc2a7" y="68.20715"/>
     <use x="309.547107" xlink:href="#m495c9cc2a7" y="68.854507"/>
     <use x="313.646281" xlink:href="#m495c9cc2a7" y="68.574098"/>
     <use x="317.745455" xlink:href="#m495c9cc2a7" y="66.266642"/>
     <use x="321.844628" xlink:href="#m495c9cc2a7" y="68.181815"/>
     <use x="325.943802" xlink:href="#m495c9cc2a7" y="70.020009"/>
     <use x="330.042975" xlink:href="#m495c9cc2a7" y="68.110465"/>
     <use x="334.142149" xlink:href="#m495c9cc2a7" y="68.177653"/>
     <use x="338.241322" xlink:href="#m495c9cc2a7" y="70.441477"/>
     <use x="342.340496" xlink:href="#m495c9cc2a7" y="68.781548"/>
     <use x="346.439669" xlink:href="#m495c9cc2a7" y="69.182312"/>
     <use x="350.538843" xlink:href="#m495c9cc2a7" y="66.683551"/>
     <use x="354.638017" xlink:href="#m495c9cc2a7" y="72.016905"/>
     <use x="358.73719" xlink:href="#m495c9cc2a7" y="70.20199"/>
     <use x="362.836364" xlink:href="#m495c9cc2a7" y="68.746968"/>
     <use x="366.935537" xlink:href="#m495c9cc2a7" y="67.122314"/>
     <use x="371.034711" xlink:href="#m495c9cc2a7" y="64.783447"/>
     <use x="375.133884" xlink:href="#m495c9cc2a7" y="66.468072"/>
     <use x="379.233058" xlink:href="#m495c9cc2a7" y="71.600826"/>
     <use x="383.332231" xlink:href="#m495c9cc2a7" y="70.617523"/>
     <use x="387.431405" xlink:href="#m495c9cc2a7" y="68.264707"/>
     <use x="391.530579" xlink:href="#m495c9cc2a7" y="68.259852"/>
     <use x="395.629752" xlink:href="#m495c9cc2a7" y="65.27608"/>
     <use x="399.728926" xlink:href="#m495c9cc2a7" y="69.017688"/>
     <use x="403.828099" xlink:href="#m495c9cc2a7" y="66.944134"/>
     <use x="407.927273" xlink:href="#m495c9cc2a7" y="65.757927"/>
     <use x="412.026446" xlink:href="#m495c9cc2a7" y="67.289923"/>
     <use x="416.12562" xlink:href="#m495c9cc2a7" y="69.206878"/>
     <use x="420.224793" xlink:href="#m495c9cc2a7" y="66.462142"/>
     <use x="424.323967" xlink:href="#m495c9cc2a7" y="70.394639"/>
     <use x="428.42314" xlink:href="#m495c9cc2a7" y="68.848009"/>
     <use x="432.522314" xlink:href="#m495c9cc2a7" y="67.432013"/>
     <use x="436.621488" xlink:href="#m495c9cc2a7" y="68.790011"/>
     <use x="440.720661" xlink:href="#m495c9cc2a7" y="68.917036"/>
     <use x="444.819835" xlink:href="#m495c9cc2a7" y="64.545335"/>
     <use x="448.919008" xlink:href="#m495c9cc2a7" y="66.976261"/>
     <use x="453.018182" xlink:href="#m495c9cc2a7" y="67.311657"/>
     <use x="457.117355" xlink:href="#m495c9cc2a7" y="71.648482"/>
     <use x="461.216529" xlink:href="#m495c9cc2a7" y="69.537239"/>
     <use x="465.315702" xlink:href="#m495c9cc2a7" y="66.447933"/>
     <use x="469.414876" xlink:href="#m495c9cc2a7" y="72.510211"/>
     <use x="473.51405" xlink:href="#m495c9cc2a7" y="67.406274"/>
     <use x="477.613223" xlink:href="#m495c9cc2a7" y="72.28011"/>
     <use x="481.712397" xlink:href="#m495c9cc2a7" y="71.224073"/>
     <use x="485.81157" xlink:href="#m495c9cc2a7" y="68.906832"/>
     <use x="489.910744" xlink:href="#m495c9cc2a7" y="69.018362"/>
     <use x="494.009917" xlink:href="#m495c9cc2a7" y="69.319717"/>
     <use x="498.109091" xlink:href="#m495c9cc2a7" y="73.495422"/>
    </g>
   </g>
   <g id="line2d_31">
    <path clip-path="url(#p0d588de89d)" d="M 92.290909 255.589882 
L 96.390083 253.445795 
L 100.489256 255.144247 
L 104.58843 253.720163 
L 108.687603 254.417812 
L 112.786777 253.311882 
L 116.88595 249.784924 
L 120.985124 253.760262 
L 125.084298 252.326039 
L 129.183471 250.150987 
L 133.282645 253.253246 
L 137.381818 248.973118 
L 141.480992 252.421335 
L 145.580165 251.299828 
L 149.679339 249.511685 
L 153.778512 252.738043 
L 157.877686 254.952484 
L 161.97686 254.280633 
L 166.076033 252.721359 
L 170.175207 252.893875 
L 174.27438 253.709649 
L 178.373554 255.814733 
L 182.472727 256.812422 
L 186.571901 250.693001 
L 190.671074 253.178813 
L 194.770248 253.517905 
L 198.869421 250.553141 
L 202.968595 255.567098 
L 207.067769 256.219765 
L 211.166942 258.228981 
L 215.266116 249.764439 
L 219.365289 255.60029 
L 223.464463 252.032306 
L 227.563636 246.408503 
L 231.66281 251.441313 
L 235.761983 258.463984 
L 239.861157 251.21462 
L 243.960331 256.051079 
L 248.059504 254.958836 
L 252.158678 255.156435 
L 256.257851 256.059504 
L 260.357025 252.740489 
L 264.456198 254.690076 
L 268.555372 253.187528 
L 272.654545 250.483545 
L 276.753719 255.230661 
L 280.852893 251.674808 
L 284.952066 252.523565 
L 289.05124 256.658184 
L 293.150413 252.508395 
L 297.249587 251.719105 
L 301.34876 251.223108 
L 305.447934 252.485152 
L 309.547107 250.094675 
L 313.646281 252.000321 
L 317.745455 254.473751 
L 321.844628 254.620004 
L 325.943802 251.424217 
L 330.042975 254.015254 
L 334.142149 253.896943 
L 338.241322 249.616942 
L 342.340496 252.536076 
L 346.439669 251.713856 
L 350.538843 255.485783 
L 354.638017 250.052747 
L 358.73719 251.925678 
L 362.836364 252.119654 
L 366.935537 252.21186 
L 371.034711 254.684288 
L 375.133884 253.241298 
L 379.233058 250.962356 
L 383.332231 254.270326 
L 387.431405 252.319263 
L 391.530579 252.593859 
L 395.629752 256.40983 
L 399.728926 253.330826 
L 403.828099 253.479577 
L 407.927273 254.782706 
L 412.026446 254.824375 
L 416.12562 253.332846 
L 420.224793 253.223382 
L 424.323967 251.590285 
L 428.42314 252.652914 
L 432.522314 252.576065 
L 436.621488 252.479526 
L 440.720661 250.589363 
L 444.819835 257.725118 
L 448.919008 252.187752 
L 453.018182 252.758386 
L 457.117355 249.396218 
L 461.216529 251.743687 
L 465.315702 253.549397 
L 469.414876 249.134976 
L 473.51405 253.105666 
L 477.613223 252.524833 
L 481.712397 254.312298 
L 485.81157 249.436399 
L 489.910744 253.769087 
L 494.009917 253.754488 
L 498.109091 248.481172 
" style="fill:none;stroke:#bfbf00;stroke-linecap:round;stroke-width:1.75;"/>
    <defs>
     <path d="M 0 3.5 
C 0.928211 3.5 1.81853 3.131218 2.474874 2.474874 
C 3.131218 1.81853 3.5 0.928211 3.5 0 
C 3.5 -0.928211 3.131218 -1.81853 2.474874 -2.474874 
C 1.81853 -3.131218 0.928211 -3.5 0 -3.5 
C -0.928211 -3.5 -1.81853 -3.131218 -2.474874 -2.474874 
C -3.131218 -1.81853 -3.5 -0.928211 -3.5 0 
C -3.5 0.928211 -3.131218 1.81853 -2.474874 2.474874 
C -1.81853 3.131218 -0.928211 3.5 0 3.5 
z
" id="ma7e77e31cb"/>
    </defs>
    <g clip-path="url(#p0d588de89d)">
     <use style="fill:#bfbf00;" x="92.290909" xlink:href="#ma7e77e31cb" y="255.589882"/>
     <use style="fill:#bfbf00;" x="96.390083" xlink:href="#ma7e77e31cb" y="253.445795"/>
     <use style="fill:#bfbf00;" x="100.489256" xlink:href="#ma7e77e31cb" y="255.144247"/>
     <use style="fill:#bfbf00;" x="104.58843" xlink:href="#ma7e77e31cb" y="253.720163"/>
     <use style="fill:#bfbf00;" x="108.687603" xlink:href="#ma7e77e31cb" y="254.417812"/>
     <use style="fill:#bfbf00;" x="112.786777" xlink:href="#ma7e77e31cb" y="253.311882"/>
     <use style="fill:#bfbf00;" x="116.88595" xlink:href="#ma7e77e31cb" y="249.784924"/>
     <use style="fill:#bfbf00;" x="120.985124" xlink:href="#ma7e77e31cb" y="253.760262"/>
     <use style="fill:#bfbf00;" x="125.084298" xlink:href="#ma7e77e31cb" y="252.326039"/>
     <use style="fill:#bfbf00;" x="129.183471" xlink:href="#ma7e77e31cb" y="250.150987"/>
     <use style="fill:#bfbf00;" x="133.282645" xlink:href="#ma7e77e31cb" y="253.253246"/>
     <use style="fill:#bfbf00;" x="137.381818" xlink:href="#ma7e77e31cb" y="248.973118"/>
     <use style="fill:#bfbf00;" x="141.480992" xlink:href="#ma7e77e31cb" y="252.421335"/>
     <use style="fill:#bfbf00;" x="145.580165" xlink:href="#ma7e77e31cb" y="251.299828"/>
     <use style="fill:#bfbf00;" x="149.679339" xlink:href="#ma7e77e31cb" y="249.511685"/>
     <use style="fill:#bfbf00;" x="153.778512" xlink:href="#ma7e77e31cb" y="252.738043"/>
     <use style="fill:#bfbf00;" x="157.877686" xlink:href="#ma7e77e31cb" y="254.952484"/>
     <use style="fill:#bfbf00;" x="161.97686" xlink:href="#ma7e77e31cb" y="254.280633"/>
     <use style="fill:#bfbf00;" x="166.076033" xlink:href="#ma7e77e31cb" y="252.721359"/>
     <use style="fill:#bfbf00;" x="170.175207" xlink:href="#ma7e77e31cb" y="252.893875"/>
     <use style="fill:#bfbf00;" x="174.27438" xlink:href="#ma7e77e31cb" y="253.709649"/>
     <use style="fill:#bfbf00;" x="178.373554" xlink:href="#ma7e77e31cb" y="255.814733"/>
     <use style="fill:#bfbf00;" x="182.472727" xlink:href="#ma7e77e31cb" y="256.812422"/>
     <use style="fill:#bfbf00;" x="186.571901" xlink:href="#ma7e77e31cb" y="250.693001"/>
     <use style="fill:#bfbf00;" x="190.671074" xlink:href="#ma7e77e31cb" y="253.178813"/>
     <use style="fill:#bfbf00;" x="194.770248" xlink:href="#ma7e77e31cb" y="253.517905"/>
     <use style="fill:#bfbf00;" x="198.869421" xlink:href="#ma7e77e31cb" y="250.553141"/>
     <use style="fill:#bfbf00;" x="202.968595" xlink:href="#ma7e77e31cb" y="255.567098"/>
     <use style="fill:#bfbf00;" x="207.067769" xlink:href="#ma7e77e31cb" y="256.219765"/>
     <use style="fill:#bfbf00;" x="211.166942" xlink:href="#ma7e77e31cb" y="258.228981"/>
     <use style="fill:#bfbf00;" x="215.266116" xlink:href="#ma7e77e31cb" y="249.764439"/>
     <use style="fill:#bfbf00;" x="219.365289" xlink:href="#ma7e77e31cb" y="255.60029"/>
     <use style="fill:#bfbf00;" x="223.464463" xlink:href="#ma7e77e31cb" y="252.032306"/>
     <use style="fill:#bfbf00;" x="227.563636" xlink:href="#ma7e77e31cb" y="246.408503"/>
     <use style="fill:#bfbf00;" x="231.66281" xlink:href="#ma7e77e31cb" y="251.441313"/>
     <use style="fill:#bfbf00;" x="235.761983" xlink:href="#ma7e77e31cb" y="258.463984"/>
     <use style="fill:#bfbf00;" x="239.861157" xlink:href="#ma7e77e31cb" y="251.21462"/>
     <use style="fill:#bfbf00;" x="243.960331" xlink:href="#ma7e77e31cb" y="256.051079"/>
     <use style="fill:#bfbf00;" x="248.059504" xlink:href="#ma7e77e31cb" y="254.958836"/>
     <use style="fill:#bfbf00;" x="252.158678" xlink:href="#ma7e77e31cb" y="255.156435"/>
     <use style="fill:#bfbf00;" x="256.257851" xlink:href="#ma7e77e31cb" y="256.059504"/>
     <use style="fill:#bfbf00;" x="260.357025" xlink:href="#ma7e77e31cb" y="252.740489"/>
     <use style="fill:#bfbf00;" x="264.456198" xlink:href="#ma7e77e31cb" y="254.690076"/>
     <use style="fill:#bfbf00;" x="268.555372" xlink:href="#ma7e77e31cb" y="253.187528"/>
     <use style="fill:#bfbf00;" x="272.654545" xlink:href="#ma7e77e31cb" y="250.483545"/>
     <use style="fill:#bfbf00;" x="276.753719" xlink:href="#ma7e77e31cb" y="255.230661"/>
     <use style="fill:#bfbf00;" x="280.852893" xlink:href="#ma7e77e31cb" y="251.674808"/>
     <use style="fill:#bfbf00;" x="284.952066" xlink:href="#ma7e77e31cb" y="252.523565"/>
     <use style="fill:#bfbf00;" x="289.05124" xlink:href="#ma7e77e31cb" y="256.658184"/>
     <use style="fill:#bfbf00;" x="293.150413" xlink:href="#ma7e77e31cb" y="252.508395"/>
     <use style="fill:#bfbf00;" x="297.249587" xlink:href="#ma7e77e31cb" y="251.719105"/>
     <use style="fill:#bfbf00;" x="301.34876" xlink:href="#ma7e77e31cb" y="251.223108"/>
     <use style="fill:#bfbf00;" x="305.447934" xlink:href="#ma7e77e31cb" y="252.485152"/>
     <use style="fill:#bfbf00;" x="309.547107" xlink:href="#ma7e77e31cb" y="250.094675"/>
     <use style="fill:#bfbf00;" x="313.646281" xlink:href="#ma7e77e31cb" y="252.000321"/>
     <use style="fill:#bfbf00;" x="317.745455" xlink:href="#ma7e77e31cb" y="254.473751"/>
     <use style="fill:#bfbf00;" x="321.844628" xlink:href="#ma7e77e31cb" y="254.620004"/>
     <use style="fill:#bfbf00;" x="325.943802" xlink:href="#ma7e77e31cb" y="251.424217"/>
     <use style="fill:#bfbf00;" x="330.042975" xlink:href="#ma7e77e31cb" y="254.015254"/>
     <use style="fill:#bfbf00;" x="334.142149" xlink:href="#ma7e77e31cb" y="253.896943"/>
     <use style="fill:#bfbf00;" x="338.241322" xlink:href="#ma7e77e31cb" y="249.616942"/>
     <use style="fill:#bfbf00;" x="342.340496" xlink:href="#ma7e77e31cb" y="252.536076"/>
     <use style="fill:#bfbf00;" x="346.439669" xlink:href="#ma7e77e31cb" y="251.713856"/>
     <use style="fill:#bfbf00;" x="350.538843" xlink:href="#ma7e77e31cb" y="255.485783"/>
     <use style="fill:#bfbf00;" x="354.638017" xlink:href="#ma7e77e31cb" y="250.052747"/>
     <use style="fill:#bfbf00;" x="358.73719" xlink:href="#ma7e77e31cb" y="251.925678"/>
     <use style="fill:#bfbf00;" x="362.836364" xlink:href="#ma7e77e31cb" y="252.119654"/>
     <use style="fill:#bfbf00;" x="366.935537" xlink:href="#ma7e77e31cb" y="252.21186"/>
     <use style="fill:#bfbf00;" x="371.034711" xlink:href="#ma7e77e31cb" y="254.684288"/>
     <use style="fill:#bfbf00;" x="375.133884" xlink:href="#ma7e77e31cb" y="253.241298"/>
     <use style="fill:#bfbf00;" x="379.233058" xlink:href="#ma7e77e31cb" y="250.962356"/>
     <use style="fill:#bfbf00;" x="383.332231" xlink:href="#ma7e77e31cb" y="254.270326"/>
     <use style="fill:#bfbf00;" x="387.431405" xlink:href="#ma7e77e31cb" y="252.319263"/>
     <use style="fill:#bfbf00;" x="391.530579" xlink:href="#ma7e77e31cb" y="252.593859"/>
     <use style="fill:#bfbf00;" x="395.629752" xlink:href="#ma7e77e31cb" y="256.40983"/>
     <use style="fill:#bfbf00;" x="399.728926" xlink:href="#ma7e77e31cb" y="253.330826"/>
     <use style="fill:#bfbf00;" x="403.828099" xlink:href="#ma7e77e31cb" y="253.479577"/>
     <use style="fill:#bfbf00;" x="407.927273" xlink:href="#ma7e77e31cb" y="254.782706"/>
     <use style="fill:#bfbf00;" x="412.026446" xlink:href="#ma7e77e31cb" y="254.824375"/>
     <use style="fill:#bfbf00;" x="416.12562" xlink:href="#ma7e77e31cb" y="253.332846"/>
     <use style="fill:#bfbf00;" x="420.224793" xlink:href="#ma7e77e31cb" y="253.223382"/>
     <use style="fill:#bfbf00;" x="424.323967" xlink:href="#ma7e77e31cb" y="251.590285"/>
     <use style="fill:#bfbf00;" x="428.42314" xlink:href="#ma7e77e31cb" y="252.652914"/>
     <use style="fill:#bfbf00;" x="432.522314" xlink:href="#ma7e77e31cb" y="252.576065"/>
     <use style="fill:#bfbf00;" x="436.621488" xlink:href="#ma7e77e31cb" y="252.479526"/>
     <use style="fill:#bfbf00;" x="440.720661" xlink:href="#ma7e77e31cb" y="250.589363"/>
     <use style="fill:#bfbf00;" x="444.819835" xlink:href="#ma7e77e31cb" y="257.725118"/>
     <use style="fill:#bfbf00;" x="448.919008" xlink:href="#ma7e77e31cb" y="252.187752"/>
     <use style="fill:#bfbf00;" x="453.018182" xlink:href="#ma7e77e31cb" y="252.758386"/>
     <use style="fill:#bfbf00;" x="457.117355" xlink:href="#ma7e77e31cb" y="249.396218"/>
     <use style="fill:#bfbf00;" x="461.216529" xlink:href="#ma7e77e31cb" y="251.743687"/>
     <use style="fill:#bfbf00;" x="465.315702" xlink:href="#ma7e77e31cb" y="253.549397"/>
     <use style="fill:#bfbf00;" x="469.414876" xlink:href="#ma7e77e31cb" y="249.134976"/>
     <use style="fill:#bfbf00;" x="473.51405" xlink:href="#ma7e77e31cb" y="253.105666"/>
     <use style="fill:#bfbf00;" x="477.613223" xlink:href="#ma7e77e31cb" y="252.524833"/>
     <use style="fill:#bfbf00;" x="481.712397" xlink:href="#ma7e77e31cb" y="254.312298"/>
     <use style="fill:#bfbf00;" x="485.81157" xlink:href="#ma7e77e31cb" y="249.436399"/>
     <use style="fill:#bfbf00;" x="489.910744" xlink:href="#ma7e77e31cb" y="253.769087"/>
     <use style="fill:#bfbf00;" x="494.009917" xlink:href="#ma7e77e31cb" y="253.754488"/>
     <use style="fill:#bfbf00;" x="498.109091" xlink:href="#ma7e77e31cb" y="248.481172"/>
    </g>
   </g>
   <g id="patch_3">
    <path d="M 72 352.44 
L 72 47.52 
" style="fill:none;"/>
   </g>
   <g id="patch_4">
    <path d="M 518.4 352.44 
L 518.4 47.52 
" style="fill:none;"/>
   </g>
   <g id="patch_5">
    <path d="M 72 352.44 
L 518.4 352.44 
" style="fill:none;"/>
   </g>
   <g id="patch_6">
    <path d="M 72 47.52 
L 518.4 47.52 
" style="fill:none;"/>
   </g>
   <g id="legend_1">
    <g id="line2d_32">
     <path d="M 266.2 281.254063 
L 286.2 281.254063 
" style="fill:none;stroke:#00bfbf;stroke-linecap:round;stroke-width:1.75;"/>
    </g>
    <g id="line2d_33">
     <g>
      <use style="fill:#00bfbf;" x="276.2" xlink:href="#mcf4488d8c6" y="281.254063"/>
     </g>
    </g>
    <g id="text_16">
     <!-- AFINN -->
     <defs>
      <path d="M 8.203125 0 
L 8.203125 71.578125 
L 56.5 71.578125 
L 56.5 63.140625 
L 17.671875 63.140625 
L 17.671875 40.96875 
L 51.265625 40.96875 
L 51.265625 32.515625 
L 17.671875 32.515625 
L 17.671875 0 
z
" id="ArialMT-46"/>
      <path d="M 9.328125 0 
L 9.328125 71.578125 
L 18.796875 71.578125 
L 18.796875 0 
z
" id="ArialMT-49"/>
      <path d="M 7.625 0 
L 7.625 71.578125 
L 17.328125 71.578125 
L 54.9375 15.375 
L 54.9375 71.578125 
L 64.015625 71.578125 
L 64.015625 0 
L 54.296875 0 
L 16.703125 56.25 
L 16.703125 0 
z
" id="ArialMT-4e"/>
     </defs>
     <g style="fill:#262626;" transform="translate(294.2 284.754063)scale(0.1 -0.1)">
      <use xlink:href="#ArialMT-41"/>
      <use x="66.699219" xlink:href="#ArialMT-46"/>
      <use x="127.783203" xlink:href="#ArialMT-49"/>
      <use x="155.566406" xlink:href="#ArialMT-4e"/>
      <use x="227.783203" xlink:href="#ArialMT-4e"/>
     </g>
    </g>
    <g id="line2d_34">
     <path d="M 266.2 295.399375 
L 286.2 295.399375 
" style="fill:none;stroke:#008000;stroke-linecap:round;stroke-width:1.75;"/>
    </g>
    <g id="line2d_35">
     <g>
      <use style="fill:#008000;" x="276.2" xlink:href="#m8a2bbf1756" y="295.399375"/>
     </g>
    </g>
    <g id="text_17">
     <!-- comp -->
     <defs>
      <path d="M 6.59375 -19.875 
L 6.59375 51.859375 
L 14.59375 51.859375 
L 14.59375 45.125 
Q 17.4375 49.078125 21 51.046875 
Q 24.5625 53.03125 29.640625 53.03125 
Q 36.28125 53.03125 41.359375 49.609375 
Q 46.4375 46.1875 49.015625 39.953125 
Q 51.609375 33.734375 51.609375 26.3125 
Q 51.609375 18.359375 48.75 11.984375 
Q 45.90625 5.609375 40.453125 2.21875 
Q 35.015625 -1.171875 29 -1.171875 
Q 24.609375 -1.171875 21.109375 0.6875 
Q 17.625 2.546875 15.375 5.375 
L 15.375 -19.875 
z
M 14.546875 25.640625 
Q 14.546875 15.625 18.59375 10.84375 
Q 22.65625 6.0625 28.421875 6.0625 
Q 34.28125 6.0625 38.453125 11.015625 
Q 42.625 15.96875 42.625 26.375 
Q 42.625 36.28125 38.546875 41.203125 
Q 34.46875 46.140625 28.8125 46.140625 
Q 23.1875 46.140625 18.859375 40.890625 
Q 14.546875 35.640625 14.546875 25.640625 
z
" id="ArialMT-70"/>
     </defs>
     <g style="fill:#262626;" transform="translate(294.2 298.899375)scale(0.1 -0.1)">
      <use xlink:href="#ArialMT-63"/>
      <use x="50" xlink:href="#ArialMT-6f"/>
      <use x="105.615234" xlink:href="#ArialMT-6d"/>
      <use x="188.916016" xlink:href="#ArialMT-70"/>
     </g>
    </g>
    <g id="line2d_36">
     <path d="M 266.2 309.544688 
L 286.2 309.544688 
" style="fill:none;stroke:#0000ff;stroke-linecap:round;stroke-width:1.75;"/>
    </g>
    <g id="line2d_37">
     <g>
      <use style="fill:#0000ff;" x="276.2" xlink:href="#mca1e9beb24" y="309.544688"/>
     </g>
    </g>
    <g id="text_18">
     <!-- neg -->
     <g style="fill:#262626;" transform="translate(294.2 313.044688)scale(0.1 -0.1)">
      <use xlink:href="#ArialMT-6e"/>
      <use x="55.615234" xlink:href="#ArialMT-65"/>
      <use x="111.230469" xlink:href="#ArialMT-67"/>
     </g>
    </g>
    <g id="line2d_38">
     <path d="M 266.2 323.807187 
L 286.2 323.807187 
" style="fill:none;stroke:#000000;stroke-linecap:round;stroke-width:1.75;"/>
    </g>
    <g id="line2d_39">
     <g>
      <use x="276.2" xlink:href="#m495c9cc2a7" y="323.807187"/>
     </g>
    </g>
    <g id="text_19">
     <!-- neu -->
     <g style="fill:#262626;" transform="translate(294.2 327.307187)scale(0.1 -0.1)">
      <use xlink:href="#ArialMT-6e"/>
      <use x="55.615234" xlink:href="#ArialMT-65"/>
      <use x="111.230469" xlink:href="#ArialMT-75"/>
     </g>
    </g>
    <g id="line2d_40">
     <path d="M 266.2 337.9525 
L 286.2 337.9525 
" style="fill:none;stroke:#bfbf00;stroke-linecap:round;stroke-width:1.75;"/>
    </g>
    <g id="line2d_41">
     <g>
      <use style="fill:#bfbf00;" x="276.2" xlink:href="#ma7e77e31cb" y="337.9525"/>
     </g>
    </g>
    <g id="text_20">
     <!-- pos -->
     <g style="fill:#262626;" transform="translate(294.2 341.4525)scale(0.1 -0.1)">
      <use xlink:href="#ArialMT-70"/>
      <use x="55.615234" xlink:href="#ArialMT-6f"/>
      <use x="111.230469" xlink:href="#ArialMT-73"/>
     </g>
    </g>
   </g>
  </g>
 </g>
 <defs>
  <clipPath id="p0d588de89d">
   <rect height="304.92" width="446.4" x="72" y="47.52"/>
  </clipPath>
 </defs>
</svg>
