<?xml version="1.0" encoding="utf-8" standalone="no"?>
<!DOCTYPE svg PUBLIC "-//W3C//DTD SVG 1.1//EN"
  "http://www.w3.org/Graphics/SVG/1.1/DTD/svg11.dtd">
<!-- Created with matplotlib (http://matplotlib.org/) -->
<svg height="396pt" version="1.1" viewBox="0 0 576 396" width="576pt" xmlns="http://www.w3.org/2000/svg" xmlns:xlink="http://www.w3.org/1999/xlink">
 <defs>
  <style type="text/css">
*{stroke-linecap:butt;stroke-linejoin:round;}
  </style>
 </defs>
 <g id="figure_1">
  <g id="patch_1">
   <path d="M 0 396 
L 576 396 
L 576 0 
L 0 0 
z
" style="fill:#ffffff;"/>
  </g>
  <g id="axes_1">
   <g id="patch_2">
    <path d="M 72 346.5 
L 518.4 346.5 
L 518.4 47.52 
L 72 47.52 
z
" style="fill:#eaeaf2;"/>
   </g>
   <g id="matplotlib.axis_1">
    <g id="xtick_1">
     <g id="line2d_1">
      <path clip-path="url(#pf292f5ee1e)" d="M 99.47888 346.5 
L 99.47888 47.52 
" style="fill:none;stroke:#ffffff;stroke-linecap:round;"/>
     </g>
     <g id="line2d_2"/>
     <g id="text_1">
      <!-- −3 -->
      <defs>
       <path d="M 52.828125 31.203125 
L 5.5625 31.203125 
L 5.5625 39.40625 
L 52.828125 39.40625 
z
" id="ArialMT-2212"/>
       <path d="M 4.203125 18.890625 
L 12.984375 20.0625 
Q 14.5 12.59375 18.140625 9.296875 
Q 21.78125 6 27 6 
Q 33.203125 6 37.46875 10.296875 
Q 41.75 14.59375 41.75 20.953125 
Q 41.75 27 37.796875 30.921875 
Q 33.84375 34.859375 27.734375 34.859375 
Q 25.25 34.859375 21.53125 33.890625 
L 22.515625 41.609375 
Q 23.390625 41.5 23.921875 41.5 
Q 29.546875 41.5 34.03125 44.421875 
Q 38.53125 47.359375 38.53125 53.46875 
Q 38.53125 58.296875 35.25 61.46875 
Q 31.984375 64.65625 26.8125 64.65625 
Q 21.6875 64.65625 18.265625 61.421875 
Q 14.84375 58.203125 13.875 51.765625 
L 5.078125 53.328125 
Q 6.6875 62.15625 12.390625 67.015625 
Q 18.109375 71.875 26.609375 71.875 
Q 32.46875 71.875 37.390625 69.359375 
Q 42.328125 66.84375 44.9375 62.5 
Q 47.5625 58.15625 47.5625 53.265625 
Q 47.5625 48.640625 45.0625 44.828125 
Q 42.578125 41.015625 37.703125 38.765625 
Q 44.046875 37.3125 47.5625 32.6875 
Q 51.078125 28.078125 51.078125 21.140625 
Q 51.078125 11.765625 44.234375 5.25 
Q 37.40625 -1.265625 26.953125 -1.265625 
Q 17.53125 -1.265625 11.296875 4.34375 
Q 5.078125 9.96875 4.203125 18.890625 
z
" id="ArialMT-33"/>
      </defs>
      <g style="fill:#262626;" transform="translate(93.778099 360.657812)scale(0.1 -0.1)">
       <use xlink:href="#ArialMT-2212"/>
       <use x="58.398438" xlink:href="#ArialMT-33"/>
      </g>
     </g>
    </g>
    <g id="xtick_2">
     <g id="line2d_3">
      <path clip-path="url(#pf292f5ee1e)" d="M 164.719253 346.5 
L 164.719253 47.52 
" style="fill:none;stroke:#ffffff;stroke-linecap:round;"/>
     </g>
     <g id="line2d_4"/>
     <g id="text_2">
      <!-- −2 -->
      <defs>
       <path d="M 50.34375 8.453125 
L 50.34375 0 
L 3.03125 0 
Q 2.9375 3.171875 4.046875 6.109375 
Q 5.859375 10.9375 9.828125 15.625 
Q 13.8125 20.3125 21.34375 26.46875 
Q 33.015625 36.03125 37.109375 41.625 
Q 41.21875 47.21875 41.21875 52.203125 
Q 41.21875 57.421875 37.46875 61 
Q 33.734375 64.59375 27.734375 64.59375 
Q 21.390625 64.59375 17.578125 60.78125 
Q 13.765625 56.984375 13.71875 50.25 
L 4.6875 51.171875 
Q 5.609375 61.28125 11.65625 66.578125 
Q 17.71875 71.875 27.9375 71.875 
Q 38.234375 71.875 44.234375 66.15625 
Q 50.25 60.453125 50.25 52 
Q 50.25 47.703125 48.484375 43.546875 
Q 46.734375 39.40625 42.65625 34.8125 
Q 38.578125 30.21875 29.109375 22.21875 
Q 21.1875 15.578125 18.9375 13.203125 
Q 16.703125 10.84375 15.234375 8.453125 
z
" id="ArialMT-32"/>
      </defs>
      <g style="fill:#262626;" transform="translate(159.018472 360.657812)scale(0.1 -0.1)">
       <use xlink:href="#ArialMT-2212"/>
       <use x="58.398438" xlink:href="#ArialMT-32"/>
      </g>
     </g>
    </g>
    <g id="xtick_3">
     <g id="line2d_5">
      <path clip-path="url(#pf292f5ee1e)" d="M 229.959627 346.5 
L 229.959627 47.52 
" style="fill:none;stroke:#ffffff;stroke-linecap:round;"/>
     </g>
     <g id="line2d_6"/>
     <g id="text_3">
      <!-- −1 -->
      <defs>
       <path d="M 37.25 0 
L 28.46875 0 
L 28.46875 56 
Q 25.296875 52.984375 20.140625 49.953125 
Q 14.984375 46.921875 10.890625 45.40625 
L 10.890625 53.90625 
Q 18.265625 57.375 23.78125 62.296875 
Q 29.296875 67.234375 31.59375 71.875 
L 37.25 71.875 
z
" id="ArialMT-31"/>
      </defs>
      <g style="fill:#262626;" transform="translate(224.258845 360.657812)scale(0.1 -0.1)">
       <use xlink:href="#ArialMT-2212"/>
       <use x="58.398438" xlink:href="#ArialMT-31"/>
      </g>
     </g>
    </g>
    <g id="xtick_4">
     <g id="line2d_7">
      <path clip-path="url(#pf292f5ee1e)" d="M 295.2 346.5 
L 295.2 47.52 
" style="fill:none;stroke:#ffffff;stroke-linecap:round;"/>
     </g>
     <g id="line2d_8"/>
     <g id="text_4">
      <!-- 0 -->
      <defs>
       <path d="M 4.15625 35.296875 
Q 4.15625 48 6.765625 55.734375 
Q 9.375 63.484375 14.515625 67.671875 
Q 19.671875 71.875 27.484375 71.875 
Q 33.25 71.875 37.59375 69.546875 
Q 41.9375 67.234375 44.765625 62.859375 
Q 47.609375 58.5 49.21875 52.21875 
Q 50.828125 45.953125 50.828125 35.296875 
Q 50.828125 22.703125 48.234375 14.96875 
Q 45.65625 7.234375 40.5 3 
Q 35.359375 -1.21875 27.484375 -1.21875 
Q 17.140625 -1.21875 11.234375 6.203125 
Q 4.15625 15.140625 4.15625 35.296875 
z
M 13.1875 35.296875 
Q 13.1875 17.671875 17.3125 11.828125 
Q 21.4375 6 27.484375 6 
Q 33.546875 6 37.671875 11.859375 
Q 41.796875 17.71875 41.796875 35.296875 
Q 41.796875 52.984375 37.671875 58.78125 
Q 33.546875 64.59375 27.390625 64.59375 
Q 21.34375 64.59375 17.71875 59.46875 
Q 13.1875 52.9375 13.1875 35.296875 
z
" id="ArialMT-30"/>
      </defs>
      <g style="fill:#262626;" transform="translate(292.419531 360.657812)scale(0.1 -0.1)">
       <use xlink:href="#ArialMT-30"/>
      </g>
     </g>
    </g>
    <g id="xtick_5">
     <g id="line2d_9">
      <path clip-path="url(#pf292f5ee1e)" d="M 360.440373 346.5 
L 360.440373 47.52 
" style="fill:none;stroke:#ffffff;stroke-linecap:round;"/>
     </g>
     <g id="line2d_10"/>
     <g id="text_5">
      <!-- 1 -->
      <g style="fill:#262626;" transform="translate(357.659905 360.657812)scale(0.1 -0.1)">
       <use xlink:href="#ArialMT-31"/>
      </g>
     </g>
    </g>
    <g id="xtick_6">
     <g id="line2d_11">
      <path clip-path="url(#pf292f5ee1e)" d="M 425.680747 346.5 
L 425.680747 47.52 
" style="fill:none;stroke:#ffffff;stroke-linecap:round;"/>
     </g>
     <g id="line2d_12"/>
     <g id="text_6">
      <!-- 2 -->
      <g style="fill:#262626;" transform="translate(422.900278 360.657812)scale(0.1 -0.1)">
       <use xlink:href="#ArialMT-32"/>
      </g>
     </g>
    </g>
    <g id="xtick_7">
     <g id="line2d_13">
      <path clip-path="url(#pf292f5ee1e)" d="M 490.92112 346.5 
L 490.92112 47.52 
" style="fill:none;stroke:#ffffff;stroke-linecap:round;"/>
     </g>
     <g id="line2d_14"/>
     <g id="text_7">
      <!-- 3 -->
      <g style="fill:#262626;" transform="translate(488.140651 360.657812)scale(0.1 -0.1)">
       <use xlink:href="#ArialMT-33"/>
      </g>
     </g>
    </g>
    <g id="text_8">
     <!-- Journal Phase, $\delta$ [radians] -->
     <defs>
      <path d="M 2.875 20.3125 
L 11.421875 21.484375 
Q 11.765625 13.28125 14.5 10.25 
Q 17.234375 7.234375 22.078125 7.234375 
Q 25.640625 7.234375 28.21875 8.859375 
Q 30.8125 10.5 31.78125 13.296875 
Q 32.765625 16.109375 32.765625 22.265625 
L 32.765625 71.578125 
L 42.234375 71.578125 
L 42.234375 22.796875 
Q 42.234375 13.8125 40.0625 8.875 
Q 37.890625 3.953125 33.171875 1.359375 
Q 28.46875 -1.21875 22.125 -1.21875 
Q 12.703125 -1.21875 7.6875 4.203125 
Q 2.6875 9.625 2.875 20.3125 
z
" id="ArialMT-4a"/>
      <path d="M 3.328125 25.921875 
Q 3.328125 40.328125 11.328125 47.265625 
Q 18.015625 53.03125 27.640625 53.03125 
Q 38.328125 53.03125 45.109375 46.015625 
Q 51.90625 39.015625 51.90625 26.65625 
Q 51.90625 16.65625 48.90625 10.90625 
Q 45.90625 5.171875 40.15625 2 
Q 34.421875 -1.171875 27.640625 -1.171875 
Q 16.75 -1.171875 10.03125 5.8125 
Q 3.328125 12.796875 3.328125 25.921875 
z
M 12.359375 25.921875 
Q 12.359375 15.96875 16.703125 11.015625 
Q 21.046875 6.0625 27.640625 6.0625 
Q 34.1875 6.0625 38.53125 11.03125 
Q 42.875 16.015625 42.875 26.21875 
Q 42.875 35.84375 38.5 40.796875 
Q 34.125 45.75 27.640625 45.75 
Q 21.046875 45.75 16.703125 40.8125 
Q 12.359375 35.890625 12.359375 25.921875 
z
" id="ArialMT-6f"/>
      <path d="M 40.578125 0 
L 40.578125 7.625 
Q 34.515625 -1.171875 24.125 -1.171875 
Q 19.53125 -1.171875 15.546875 0.578125 
Q 11.578125 2.34375 9.640625 5 
Q 7.71875 7.671875 6.9375 11.53125 
Q 6.390625 14.109375 6.390625 19.734375 
L 6.390625 51.859375 
L 15.1875 51.859375 
L 15.1875 23.09375 
Q 15.1875 16.21875 15.71875 13.8125 
Q 16.546875 10.359375 19.234375 8.375 
Q 21.921875 6.390625 25.875 6.390625 
Q 29.828125 6.390625 33.296875 8.421875 
Q 36.765625 10.453125 38.203125 13.9375 
Q 39.65625 17.4375 39.65625 24.078125 
L 39.65625 51.859375 
L 48.4375 51.859375 
L 48.4375 0 
z
" id="ArialMT-75"/>
      <path d="M 6.5 0 
L 6.5 51.859375 
L 14.40625 51.859375 
L 14.40625 44 
Q 17.4375 49.515625 20 51.265625 
Q 22.5625 53.03125 25.640625 53.03125 
Q 30.078125 53.03125 34.671875 50.203125 
L 31.640625 42.046875 
Q 28.421875 43.953125 25.203125 43.953125 
Q 22.3125 43.953125 20.015625 42.21875 
Q 17.71875 40.484375 16.75 37.40625 
Q 15.28125 32.71875 15.28125 27.15625 
L 15.28125 0 
z
" id="ArialMT-72"/>
      <path d="M 6.59375 0 
L 6.59375 51.859375 
L 14.5 51.859375 
L 14.5 44.484375 
Q 20.21875 53.03125 31 53.03125 
Q 35.6875 53.03125 39.625 51.34375 
Q 43.5625 49.65625 45.515625 46.921875 
Q 47.46875 44.1875 48.25 40.4375 
Q 48.734375 37.984375 48.734375 31.890625 
L 48.734375 0 
L 39.9375 0 
L 39.9375 31.546875 
Q 39.9375 36.921875 38.90625 39.578125 
Q 37.890625 42.234375 35.28125 43.8125 
Q 32.671875 45.40625 29.15625 45.40625 
Q 23.53125 45.40625 19.453125 41.84375 
Q 15.375 38.28125 15.375 28.328125 
L 15.375 0 
z
" id="ArialMT-6e"/>
      <path d="M 40.4375 6.390625 
Q 35.546875 2.25 31.03125 0.53125 
Q 26.515625 -1.171875 21.34375 -1.171875 
Q 12.796875 -1.171875 8.203125 3 
Q 3.609375 7.171875 3.609375 13.671875 
Q 3.609375 17.484375 5.34375 20.625 
Q 7.078125 23.78125 9.890625 25.6875 
Q 12.703125 27.59375 16.21875 28.5625 
Q 18.796875 29.25 24.03125 29.890625 
Q 34.671875 31.15625 39.703125 32.90625 
Q 39.75 34.71875 39.75 35.203125 
Q 39.75 40.578125 37.25 42.78125 
Q 33.890625 45.75 27.25 45.75 
Q 21.046875 45.75 18.09375 43.578125 
Q 15.140625 41.40625 13.71875 35.890625 
L 5.125 37.0625 
Q 6.296875 42.578125 8.984375 45.96875 
Q 11.671875 49.359375 16.75 51.1875 
Q 21.828125 53.03125 28.515625 53.03125 
Q 35.15625 53.03125 39.296875 51.46875 
Q 43.453125 49.90625 45.40625 47.53125 
Q 47.359375 45.171875 48.140625 41.546875 
Q 48.578125 39.3125 48.578125 33.453125 
L 48.578125 21.734375 
Q 48.578125 9.46875 49.140625 6.21875 
Q 49.703125 2.984375 51.375 0 
L 42.1875 0 
Q 40.828125 2.734375 40.4375 6.390625 
z
M 39.703125 26.03125 
Q 34.90625 24.078125 25.34375 22.703125 
Q 19.921875 21.921875 17.671875 20.9375 
Q 15.4375 19.96875 14.203125 18.09375 
Q 12.984375 16.21875 12.984375 13.921875 
Q 12.984375 10.40625 15.640625 8.0625 
Q 18.3125 5.71875 23.4375 5.71875 
Q 28.515625 5.71875 32.46875 7.9375 
Q 36.421875 10.15625 38.28125 14.015625 
Q 39.703125 17 39.703125 22.796875 
z
" id="ArialMT-61"/>
      <path d="M 6.390625 0 
L 6.390625 71.578125 
L 15.1875 71.578125 
L 15.1875 0 
z
" id="ArialMT-6c"/>
      <path id="ArialMT-20"/>
      <path d="M 7.71875 0 
L 7.71875 71.578125 
L 34.71875 71.578125 
Q 41.84375 71.578125 45.609375 70.90625 
Q 50.875 70.015625 54.4375 67.546875 
Q 58.015625 65.09375 60.1875 60.640625 
Q 62.359375 56.203125 62.359375 50.875 
Q 62.359375 41.75 56.546875 35.421875 
Q 50.734375 29.109375 35.546875 29.109375 
L 17.1875 29.109375 
L 17.1875 0 
z
M 17.1875 37.546875 
L 35.6875 37.546875 
Q 44.875 37.546875 48.734375 40.96875 
Q 52.59375 44.390625 52.59375 50.59375 
Q 52.59375 55.078125 50.3125 58.265625 
Q 48.046875 61.46875 44.34375 62.5 
Q 41.9375 63.140625 35.5 63.140625 
L 17.1875 63.140625 
z
" id="ArialMT-50"/>
      <path d="M 6.59375 0 
L 6.59375 71.578125 
L 15.375 71.578125 
L 15.375 45.90625 
Q 21.53125 53.03125 30.90625 53.03125 
Q 36.671875 53.03125 40.921875 50.75 
Q 45.171875 48.484375 47 44.484375 
Q 48.828125 40.484375 48.828125 32.859375 
L 48.828125 0 
L 40.046875 0 
L 40.046875 32.859375 
Q 40.046875 39.453125 37.1875 42.453125 
Q 34.328125 45.453125 29.109375 45.453125 
Q 25.203125 45.453125 21.75 43.421875 
Q 18.3125 41.40625 16.84375 37.9375 
Q 15.375 34.46875 15.375 28.375 
L 15.375 0 
z
" id="ArialMT-68"/>
      <path d="M 3.078125 15.484375 
L 11.765625 16.84375 
Q 12.5 11.625 15.84375 8.84375 
Q 19.1875 6.0625 25.203125 6.0625 
Q 31.25 6.0625 34.171875 8.515625 
Q 37.109375 10.984375 37.109375 14.3125 
Q 37.109375 17.28125 34.515625 19 
Q 32.71875 20.171875 25.53125 21.96875 
Q 15.875 24.421875 12.140625 26.203125 
Q 8.40625 27.984375 6.46875 31.125 
Q 4.546875 34.28125 4.546875 38.09375 
Q 4.546875 41.546875 6.125 44.5 
Q 7.71875 47.46875 10.453125 49.421875 
Q 12.5 50.921875 16.03125 51.96875 
Q 19.578125 53.03125 23.640625 53.03125 
Q 29.734375 53.03125 34.34375 51.265625 
Q 38.96875 49.515625 41.15625 46.5 
Q 43.359375 43.5 44.1875 38.484375 
L 35.59375 37.3125 
Q 35.015625 41.3125 32.203125 43.546875 
Q 29.390625 45.796875 24.265625 45.796875 
Q 18.21875 45.796875 15.625 43.796875 
Q 13.03125 41.796875 13.03125 39.109375 
Q 13.03125 37.40625 14.109375 36.03125 
Q 15.1875 34.625 17.484375 33.6875 
Q 18.796875 33.203125 25.25 31.453125 
Q 34.578125 28.953125 38.25 27.359375 
Q 41.9375 25.78125 44.03125 22.75 
Q 46.140625 19.734375 46.140625 15.234375 
Q 46.140625 10.84375 43.578125 6.953125 
Q 41.015625 3.078125 36.171875 0.953125 
Q 31.34375 -1.171875 25.25 -1.171875 
Q 15.140625 -1.171875 9.84375 3.03125 
Q 4.546875 7.234375 3.078125 15.484375 
z
" id="ArialMT-73"/>
      <path d="M 42.09375 16.703125 
L 51.171875 15.578125 
Q 49.03125 7.625 43.21875 3.21875 
Q 37.40625 -1.171875 28.375 -1.171875 
Q 17 -1.171875 10.328125 5.828125 
Q 3.65625 12.84375 3.65625 25.484375 
Q 3.65625 38.578125 10.390625 45.796875 
Q 17.140625 53.03125 27.875 53.03125 
Q 38.28125 53.03125 44.875 45.953125 
Q 51.46875 38.875 51.46875 26.03125 
Q 51.46875 25.25 51.421875 23.6875 
L 12.75 23.6875 
Q 13.234375 15.140625 17.578125 10.59375 
Q 21.921875 6.0625 28.421875 6.0625 
Q 33.25 6.0625 36.671875 8.59375 
Q 40.09375 11.140625 42.09375 16.703125 
z
M 13.234375 30.90625 
L 42.1875 30.90625 
Q 41.609375 37.453125 38.875 40.71875 
Q 34.671875 45.796875 27.984375 45.796875 
Q 21.921875 45.796875 17.796875 41.75 
Q 13.671875 37.703125 13.234375 30.90625 
z
" id="ArialMT-65"/>
      <path d="M 8.890625 0 
L 8.890625 10.015625 
L 18.890625 10.015625 
L 18.890625 0 
Q 18.890625 -5.515625 16.9375 -8.90625 
Q 14.984375 -12.3125 10.75 -14.15625 
L 8.296875 -10.40625 
Q 11.078125 -9.1875 12.390625 -6.8125 
Q 13.71875 -4.4375 13.875 0 
z
" id="ArialMT-2c"/>
      <path d="M 54.25 63.328125 
Q 49.953125 66.75 38.28125 66.75 
Q 25.921875 66.75 24.8125 61.03125 
Q 23.921875 56.546875 36.375 54.203125 
Q 46.140625 52.390625 50.828125 46.921875 
Q 56.5 40.328125 53.859375 26.8125 
Q 51.3125 13.875 43.171875 6.25 
Q 34.96875 -1.421875 23.25 -1.421875 
Q 11.578125 -1.421875 6.34375 6.25 
Q 1.125 13.875 3.765625 27.296875 
Q 5.671875 37.25 13.921875 45.3125 
Q 17.140625 48.4375 21.140625 50.203125 
Q 14.265625 54.046875 15.625 60.9375 
Q 18.21875 74.21875 39.75 74.21875 
Q 50.53125 74.21875 55.71875 70.796875 
z
M 27.390625 47.75 
Q 23.828125 46.34375 20.40625 42.78125 
Q 15.140625 37.25 13.234375 27.296875 
Q 11.28125 17.390625 14.359375 11.8125 
Q 17.484375 6.203125 24.75 6.203125 
Q 31.9375 6.203125 37.203125 11.859375 
Q 42.53125 17.53125 44.34375 26.8125 
Q 46.1875 36.53125 42.671875 41.21875 
Q 38.921875 46.234375 32.859375 46.78125 
Q 29.78125 47.078125 27.390625 47.75 
z
" id="DejaVuSans-Oblique-3b4"/>
      <path d="M 6.78125 -19.875 
L 6.78125 71.578125 
L 26.171875 71.578125 
L 26.171875 64.3125 
L 15.578125 64.3125 
L 15.578125 -12.59375 
L 26.171875 -12.59375 
L 26.171875 -19.875 
z
" id="ArialMT-5b"/>
      <path d="M 40.234375 0 
L 40.234375 6.546875 
Q 35.296875 -1.171875 25.734375 -1.171875 
Q 19.53125 -1.171875 14.328125 2.25 
Q 9.125 5.671875 6.265625 11.796875 
Q 3.421875 17.921875 3.421875 25.875 
Q 3.421875 33.640625 6 39.96875 
Q 8.59375 46.296875 13.765625 49.65625 
Q 18.953125 53.03125 25.34375 53.03125 
Q 30.03125 53.03125 33.6875 51.046875 
Q 37.359375 49.078125 39.65625 45.90625 
L 39.65625 71.578125 
L 48.390625 71.578125 
L 48.390625 0 
z
M 12.453125 25.875 
Q 12.453125 15.921875 16.640625 10.984375 
Q 20.84375 6.0625 26.5625 6.0625 
Q 32.328125 6.0625 36.34375 10.765625 
Q 40.375 15.484375 40.375 25.140625 
Q 40.375 35.796875 36.265625 40.765625 
Q 32.171875 45.75 26.171875 45.75 
Q 20.3125 45.75 16.375 40.96875 
Q 12.453125 36.1875 12.453125 25.875 
z
" id="ArialMT-64"/>
      <path d="M 6.640625 61.46875 
L 6.640625 71.578125 
L 15.4375 71.578125 
L 15.4375 61.46875 
z
M 6.640625 0 
L 6.640625 51.859375 
L 15.4375 51.859375 
L 15.4375 0 
z
" id="ArialMT-69"/>
      <path d="M 21.296875 -19.875 
L 1.90625 -19.875 
L 1.90625 -12.59375 
L 12.5 -12.59375 
L 12.5 64.3125 
L 1.90625 64.3125 
L 1.90625 71.578125 
L 21.296875 71.578125 
z
" id="ArialMT-5d"/>
     </defs>
     <g style="fill:#262626;" transform="translate(230.96 374.895312)scale(0.11 -0.11)">
      <use transform="translate(0 0.78125)" xlink:href="#ArialMT-4a"/>
      <use transform="translate(50 0.78125)" xlink:href="#ArialMT-6f"/>
      <use transform="translate(105.615234 0.78125)" xlink:href="#ArialMT-75"/>
      <use transform="translate(161.230469 0.78125)" xlink:href="#ArialMT-72"/>
      <use transform="translate(194.53125 0.78125)" xlink:href="#ArialMT-6e"/>
      <use transform="translate(250.146484 0.78125)" xlink:href="#ArialMT-61"/>
      <use transform="translate(305.761719 0.78125)" xlink:href="#ArialMT-6c"/>
      <use transform="translate(327.978516 0.78125)" xlink:href="#ArialMT-20"/>
      <use transform="translate(355.761719 0.78125)" xlink:href="#ArialMT-50"/>
      <use transform="translate(422.460938 0.78125)" xlink:href="#ArialMT-68"/>
      <use transform="translate(478.076172 0.78125)" xlink:href="#ArialMT-61"/>
      <use transform="translate(533.691406 0.78125)" xlink:href="#ArialMT-73"/>
      <use transform="translate(583.691406 0.78125)" xlink:href="#ArialMT-65"/>
      <use transform="translate(639.306641 0.78125)" xlink:href="#ArialMT-2c"/>
      <use transform="translate(667.089844 0.78125)" xlink:href="#ArialMT-20"/>
      <use transform="translate(694.873047 0.78125)" xlink:href="#DejaVuSans-Oblique-3b4"/>
      <use transform="translate(756.054688 0.78125)" xlink:href="#ArialMT-20"/>
      <use transform="translate(783.837891 0.78125)" xlink:href="#ArialMT-5b"/>
      <use transform="translate(811.621094 0.78125)" xlink:href="#ArialMT-72"/>
      <use transform="translate(844.921875 0.78125)" xlink:href="#ArialMT-61"/>
      <use transform="translate(900.537109 0.78125)" xlink:href="#ArialMT-64"/>
      <use transform="translate(956.152344 0.78125)" xlink:href="#ArialMT-69"/>
      <use transform="translate(978.369141 0.78125)" xlink:href="#ArialMT-61"/>
      <use transform="translate(1033.984375 0.78125)" xlink:href="#ArialMT-6e"/>
      <use transform="translate(1089.599609 0.78125)" xlink:href="#ArialMT-73"/>
      <use transform="translate(1139.599609 0.78125)" xlink:href="#ArialMT-5d"/>
     </g>
    </g>
   </g>
   <g id="matplotlib.axis_2">
    <g id="ytick_1">
     <g id="line2d_15">
      <path clip-path="url(#pf292f5ee1e)" d="M 72 320.149214 
L 518.4 320.149214 
" style="fill:none;stroke:#ffffff;stroke-linecap:round;"/>
     </g>
     <g id="line2d_16"/>
     <g id="text_9">
      <!-- 0.0 -->
      <defs>
       <path d="M 9.078125 0 
L 9.078125 10.015625 
L 19.09375 10.015625 
L 19.09375 0 
z
" id="ArialMT-2e"/>
      </defs>
      <g style="fill:#262626;" transform="translate(51.1 323.72812)scale(0.1 -0.1)">
       <use xlink:href="#ArialMT-30"/>
       <use x="55.615234" xlink:href="#ArialMT-2e"/>
       <use x="83.398438" xlink:href="#ArialMT-30"/>
      </g>
     </g>
    </g>
    <g id="ytick_2">
     <g id="line2d_17">
      <path clip-path="url(#pf292f5ee1e)" d="M 72 257.647689 
L 518.4 257.647689 
" style="fill:none;stroke:#ffffff;stroke-linecap:round;"/>
     </g>
     <g id="line2d_18"/>
     <g id="text_10">
      <!-- 0.2 -->
      <g style="fill:#262626;" transform="translate(51.1 261.226596)scale(0.1 -0.1)">
       <use xlink:href="#ArialMT-30"/>
       <use x="55.615234" xlink:href="#ArialMT-2e"/>
       <use x="83.398438" xlink:href="#ArialMT-32"/>
      </g>
     </g>
    </g>
    <g id="ytick_3">
     <g id="line2d_19">
      <path clip-path="url(#pf292f5ee1e)" d="M 72 195.146165 
L 518.4 195.146165 
" style="fill:none;stroke:#ffffff;stroke-linecap:round;"/>
     </g>
     <g id="line2d_20"/>
     <g id="text_11">
      <!-- 0.4 -->
      <defs>
       <path d="M 32.328125 0 
L 32.328125 17.140625 
L 1.265625 17.140625 
L 1.265625 25.203125 
L 33.9375 71.578125 
L 41.109375 71.578125 
L 41.109375 25.203125 
L 50.78125 25.203125 
L 50.78125 17.140625 
L 41.109375 17.140625 
L 41.109375 0 
z
M 32.328125 25.203125 
L 32.328125 57.46875 
L 9.90625 25.203125 
z
" id="ArialMT-34"/>
      </defs>
      <g style="fill:#262626;" transform="translate(51.1 198.725071)scale(0.1 -0.1)">
       <use xlink:href="#ArialMT-30"/>
       <use x="55.615234" xlink:href="#ArialMT-2e"/>
       <use x="83.398438" xlink:href="#ArialMT-34"/>
      </g>
     </g>
    </g>
    <g id="ytick_4">
     <g id="line2d_21">
      <path clip-path="url(#pf292f5ee1e)" d="M 72 132.64464 
L 518.4 132.64464 
" style="fill:none;stroke:#ffffff;stroke-linecap:round;"/>
     </g>
     <g id="line2d_22"/>
     <g id="text_12">
      <!-- 0.6 -->
      <defs>
       <path d="M 49.75 54.046875 
L 41.015625 53.375 
Q 39.84375 58.546875 37.703125 60.890625 
Q 34.125 64.65625 28.90625 64.65625 
Q 24.703125 64.65625 21.53125 62.3125 
Q 17.390625 59.28125 14.984375 53.46875 
Q 12.59375 47.65625 12.5 36.921875 
Q 15.671875 41.75 20.265625 44.09375 
Q 24.859375 46.4375 29.890625 46.4375 
Q 38.671875 46.4375 44.84375 39.96875 
Q 51.03125 33.5 51.03125 23.25 
Q 51.03125 16.5 48.125 10.71875 
Q 45.21875 4.9375 40.140625 1.859375 
Q 35.0625 -1.21875 28.609375 -1.21875 
Q 17.625 -1.21875 10.6875 6.859375 
Q 3.765625 14.9375 3.765625 33.5 
Q 3.765625 54.25 11.421875 63.671875 
Q 18.109375 71.875 29.4375 71.875 
Q 37.890625 71.875 43.28125 67.140625 
Q 48.6875 62.40625 49.75 54.046875 
z
M 13.875 23.1875 
Q 13.875 18.65625 15.796875 14.5 
Q 17.71875 10.359375 21.1875 8.171875 
Q 24.65625 6 28.46875 6 
Q 34.03125 6 38.03125 10.484375 
Q 42.046875 14.984375 42.046875 22.703125 
Q 42.046875 30.125 38.078125 34.390625 
Q 34.125 38.671875 28.125 38.671875 
Q 22.171875 38.671875 18.015625 34.390625 
Q 13.875 30.125 13.875 23.1875 
z
" id="ArialMT-36"/>
      </defs>
      <g style="fill:#262626;" transform="translate(51.1 136.223547)scale(0.1 -0.1)">
       <use xlink:href="#ArialMT-30"/>
       <use x="55.615234" xlink:href="#ArialMT-2e"/>
       <use x="83.398438" xlink:href="#ArialMT-36"/>
      </g>
     </g>
    </g>
    <g id="ytick_5">
     <g id="line2d_23">
      <path clip-path="url(#pf292f5ee1e)" d="M 72 70.143116 
L 518.4 70.143116 
" style="fill:none;stroke:#ffffff;stroke-linecap:round;"/>
     </g>
     <g id="line2d_24"/>
     <g id="text_13">
      <!-- 0.8 -->
      <defs>
       <path d="M 17.671875 38.8125 
Q 12.203125 40.828125 9.5625 44.53125 
Q 6.9375 48.25 6.9375 53.421875 
Q 6.9375 61.234375 12.546875 66.546875 
Q 18.171875 71.875 27.484375 71.875 
Q 36.859375 71.875 42.578125 66.421875 
Q 48.296875 60.984375 48.296875 53.171875 
Q 48.296875 48.1875 45.671875 44.5 
Q 43.0625 40.828125 37.75 38.8125 
Q 44.34375 36.671875 47.78125 31.875 
Q 51.21875 27.09375 51.21875 20.453125 
Q 51.21875 11.28125 44.71875 5.03125 
Q 38.234375 -1.21875 27.640625 -1.21875 
Q 17.046875 -1.21875 10.546875 5.046875 
Q 4.046875 11.328125 4.046875 20.703125 
Q 4.046875 27.6875 7.59375 32.390625 
Q 11.140625 37.109375 17.671875 38.8125 
z
M 15.921875 53.71875 
Q 15.921875 48.640625 19.1875 45.40625 
Q 22.46875 42.1875 27.6875 42.1875 
Q 32.765625 42.1875 36.015625 45.375 
Q 39.265625 48.578125 39.265625 53.21875 
Q 39.265625 58.0625 35.90625 61.359375 
Q 32.5625 64.65625 27.59375 64.65625 
Q 22.5625 64.65625 19.234375 61.421875 
Q 15.921875 58.203125 15.921875 53.71875 
z
M 13.09375 20.65625 
Q 13.09375 16.890625 14.875 13.375 
Q 16.65625 9.859375 20.171875 7.921875 
Q 23.6875 6 27.734375 6 
Q 34.03125 6 38.125 10.046875 
Q 42.234375 14.109375 42.234375 20.359375 
Q 42.234375 26.703125 38.015625 30.859375 
Q 33.796875 35.015625 27.4375 35.015625 
Q 21.234375 35.015625 17.15625 30.90625 
Q 13.09375 26.8125 13.09375 20.65625 
z
" id="ArialMT-38"/>
      </defs>
      <g style="fill:#262626;" transform="translate(51.1 73.722022)scale(0.1 -0.1)">
       <use xlink:href="#ArialMT-30"/>
       <use x="55.615234" xlink:href="#ArialMT-2e"/>
       <use x="83.398438" xlink:href="#ArialMT-38"/>
      </g>
     </g>
    </g>
    <g id="text_14">
     <!-- Smoothed Average Sentiment Score, $\overline{\Sigma}$ [dimensionless] -->
     <defs>
      <path d="M 4.5 23 
L 13.421875 23.78125 
Q 14.0625 18.40625 16.375 14.96875 
Q 18.703125 11.53125 23.578125 9.40625 
Q 28.46875 7.28125 34.578125 7.28125 
Q 39.984375 7.28125 44.140625 8.890625 
Q 48.296875 10.5 50.3125 13.296875 
Q 52.34375 16.109375 52.34375 19.4375 
Q 52.34375 22.796875 50.390625 25.3125 
Q 48.4375 27.828125 43.953125 29.546875 
Q 41.0625 30.671875 31.203125 33.03125 
Q 21.34375 35.40625 17.390625 37.5 
Q 12.25 40.1875 9.734375 44.15625 
Q 7.234375 48.140625 7.234375 53.078125 
Q 7.234375 58.5 10.296875 63.203125 
Q 13.375 67.921875 19.28125 70.359375 
Q 25.203125 72.796875 32.421875 72.796875 
Q 40.375 72.796875 46.453125 70.234375 
Q 52.546875 67.671875 55.8125 62.6875 
Q 59.078125 57.71875 59.328125 51.421875 
L 50.25 50.734375 
Q 49.515625 57.515625 45.28125 60.984375 
Q 41.0625 64.453125 32.8125 64.453125 
Q 24.21875 64.453125 20.28125 61.296875 
Q 16.359375 58.15625 16.359375 53.71875 
Q 16.359375 49.859375 19.140625 47.359375 
Q 21.875 44.875 33.421875 42.265625 
Q 44.96875 39.65625 49.265625 37.703125 
Q 55.515625 34.8125 58.484375 30.390625 
Q 61.46875 25.984375 61.46875 20.21875 
Q 61.46875 14.5 58.203125 9.4375 
Q 54.9375 4.390625 48.796875 1.578125 
Q 42.671875 -1.21875 35.015625 -1.21875 
Q 25.296875 -1.21875 18.71875 1.609375 
Q 12.15625 4.4375 8.421875 10.125 
Q 4.6875 15.828125 4.5 23 
z
" id="ArialMT-53"/>
      <path d="M 6.59375 0 
L 6.59375 51.859375 
L 14.453125 51.859375 
L 14.453125 44.578125 
Q 16.890625 48.390625 20.9375 50.703125 
Q 25 53.03125 30.171875 53.03125 
Q 35.9375 53.03125 39.625 50.640625 
Q 43.3125 48.25 44.828125 43.953125 
Q 50.984375 53.03125 60.84375 53.03125 
Q 68.5625 53.03125 72.703125 48.75 
Q 76.859375 44.484375 76.859375 35.59375 
L 76.859375 0 
L 68.109375 0 
L 68.109375 32.671875 
Q 68.109375 37.9375 67.25 40.25 
Q 66.40625 42.578125 64.15625 43.984375 
Q 61.921875 45.40625 58.890625 45.40625 
Q 53.421875 45.40625 49.796875 41.765625 
Q 46.1875 38.140625 46.1875 30.125 
L 46.1875 0 
L 37.40625 0 
L 37.40625 33.6875 
Q 37.40625 39.546875 35.25 42.46875 
Q 33.109375 45.40625 28.21875 45.40625 
Q 24.515625 45.40625 21.359375 43.453125 
Q 18.21875 41.5 16.796875 37.734375 
Q 15.375 33.984375 15.375 26.90625 
L 15.375 0 
z
" id="ArialMT-6d"/>
      <path d="M 25.78125 7.859375 
L 27.046875 0.09375 
Q 23.34375 -0.6875 20.40625 -0.6875 
Q 15.625 -0.6875 12.984375 0.828125 
Q 10.359375 2.34375 9.28125 4.8125 
Q 8.203125 7.28125 8.203125 15.1875 
L 8.203125 45.015625 
L 1.765625 45.015625 
L 1.765625 51.859375 
L 8.203125 51.859375 
L 8.203125 64.703125 
L 16.9375 69.96875 
L 16.9375 51.859375 
L 25.78125 51.859375 
L 25.78125 45.015625 
L 16.9375 45.015625 
L 16.9375 14.703125 
Q 16.9375 10.9375 17.40625 9.859375 
Q 17.875 8.796875 18.921875 8.15625 
Q 19.96875 7.515625 21.921875 7.515625 
Q 23.390625 7.515625 25.78125 7.859375 
z
" id="ArialMT-74"/>
      <path d="M -0.140625 0 
L 27.34375 71.578125 
L 37.546875 71.578125 
L 66.84375 0 
L 56.0625 0 
L 47.703125 21.6875 
L 17.78125 21.6875 
L 9.90625 0 
z
M 20.515625 29.390625 
L 44.78125 29.390625 
L 37.3125 49.21875 
Q 33.890625 58.25 32.234375 64.0625 
Q 30.859375 57.171875 28.375 50.390625 
z
" id="ArialMT-41"/>
      <path d="M 21 0 
L 1.265625 51.859375 
L 10.546875 51.859375 
L 21.6875 20.796875 
Q 23.484375 15.765625 25 10.359375 
Q 26.171875 14.453125 28.265625 20.21875 
L 39.796875 51.859375 
L 48.828125 51.859375 
L 29.203125 0 
z
" id="ArialMT-76"/>
      <path d="M 4.984375 -4.296875 
L 13.53125 -5.5625 
Q 14.0625 -9.515625 16.5 -11.328125 
Q 19.78125 -13.765625 25.4375 -13.765625 
Q 31.546875 -13.765625 34.859375 -11.328125 
Q 38.1875 -8.890625 39.359375 -4.5 
Q 40.046875 -1.8125 39.984375 6.78125 
Q 34.234375 0 25.640625 0 
Q 14.9375 0 9.078125 7.71875 
Q 3.21875 15.4375 3.21875 26.21875 
Q 3.21875 33.640625 5.90625 39.90625 
Q 8.59375 46.1875 13.6875 49.609375 
Q 18.796875 53.03125 25.6875 53.03125 
Q 34.859375 53.03125 40.828125 45.609375 
L 40.828125 51.859375 
L 48.921875 51.859375 
L 48.921875 7.03125 
Q 48.921875 -5.078125 46.453125 -10.125 
Q 44 -15.1875 38.640625 -18.109375 
Q 33.296875 -21.046875 25.484375 -21.046875 
Q 16.21875 -21.046875 10.5 -16.875 
Q 4.78125 -12.703125 4.984375 -4.296875 
z
M 12.25 26.859375 
Q 12.25 16.65625 16.296875 11.96875 
Q 20.359375 7.28125 26.46875 7.28125 
Q 32.515625 7.28125 36.609375 11.9375 
Q 40.71875 16.609375 40.71875 26.5625 
Q 40.71875 36.078125 36.5 40.90625 
Q 32.28125 45.75 26.3125 45.75 
Q 20.453125 45.75 16.34375 40.984375 
Q 12.25 36.234375 12.25 26.859375 
z
" id="ArialMT-67"/>
      <path d="M 40.4375 19 
L 49.078125 17.875 
Q 47.65625 8.9375 41.8125 3.875 
Q 35.984375 -1.171875 27.484375 -1.171875 
Q 16.84375 -1.171875 10.375 5.78125 
Q 3.90625 12.75 3.90625 25.734375 
Q 3.90625 34.125 6.6875 40.421875 
Q 9.46875 46.734375 15.15625 49.875 
Q 20.84375 53.03125 27.546875 53.03125 
Q 35.984375 53.03125 41.359375 48.75 
Q 46.734375 44.484375 48.25 36.625 
L 39.703125 35.296875 
Q 38.484375 40.53125 35.375 43.15625 
Q 32.28125 45.796875 27.875 45.796875 
Q 21.234375 45.796875 17.078125 41.03125 
Q 12.9375 36.28125 12.9375 25.984375 
Q 12.9375 15.53125 16.9375 10.796875 
Q 20.953125 6.0625 27.390625 6.0625 
Q 32.5625 6.0625 36.03125 9.234375 
Q 39.5 12.40625 40.4375 19 
z
" id="ArialMT-63"/>
      <path d="M 21.140625 8.296875 
L 56.78125 8.296875 
L 56.78125 0 
L 9.8125 0 
L 9.8125 8.296875 
L 33.203125 38.765625 
L 9.8125 64.59375 
L 9.8125 72.90625 
L 55.90625 72.90625 
L 55.90625 64.59375 
L 21.140625 64.59375 
L 44.53125 38.96875 
z
" id="DejaVuSans-3a3"/>
     </defs>
     <g style="fill:#262626;" transform="translate(44.68 332.255)rotate(-90)scale(0.11 -0.11)">
      <use transform="translate(0 0.34375)" xlink:href="#ArialMT-53"/>
      <use transform="translate(66.699219 0.34375)" xlink:href="#ArialMT-6d"/>
      <use transform="translate(150 0.34375)" xlink:href="#ArialMT-6f"/>
      <use transform="translate(205.615234 0.34375)" xlink:href="#ArialMT-6f"/>
      <use transform="translate(261.230469 0.34375)" xlink:href="#ArialMT-74"/>
      <use transform="translate(289.013672 0.34375)" xlink:href="#ArialMT-68"/>
      <use transform="translate(344.628906 0.34375)" xlink:href="#ArialMT-65"/>
      <use transform="translate(400.244141 0.34375)" xlink:href="#ArialMT-64"/>
      <use transform="translate(455.859375 0.34375)" xlink:href="#ArialMT-20"/>
      <use transform="translate(483.642578 0.34375)" xlink:href="#ArialMT-41"/>
      <use transform="translate(550.341797 0.34375)" xlink:href="#ArialMT-76"/>
      <use transform="translate(600.341797 0.34375)" xlink:href="#ArialMT-65"/>
      <use transform="translate(655.957031 0.34375)" xlink:href="#ArialMT-72"/>
      <use transform="translate(689.257812 0.34375)" xlink:href="#ArialMT-61"/>
      <use transform="translate(744.873047 0.34375)" xlink:href="#ArialMT-67"/>
      <use transform="translate(800.488281 0.34375)" xlink:href="#ArialMT-65"/>
      <use transform="translate(856.103516 0.34375)" xlink:href="#ArialMT-20"/>
      <use transform="translate(883.886719 0.34375)" xlink:href="#ArialMT-53"/>
      <use transform="translate(950.585938 0.34375)" xlink:href="#ArialMT-65"/>
      <use transform="translate(1006.201172 0.34375)" xlink:href="#ArialMT-6e"/>
      <use transform="translate(1061.816406 0.34375)" xlink:href="#ArialMT-74"/>
      <use transform="translate(1089.599609 0.34375)" xlink:href="#ArialMT-69"/>
      <use transform="translate(1111.816406 0.34375)" xlink:href="#ArialMT-6d"/>
      <use transform="translate(1195.117188 0.34375)" xlink:href="#ArialMT-65"/>
      <use transform="translate(1250.732422 0.34375)" xlink:href="#ArialMT-6e"/>
      <use transform="translate(1306.347656 0.34375)" xlink:href="#ArialMT-74"/>
      <use transform="translate(1334.130859 0.34375)" xlink:href="#ArialMT-20"/>
      <use transform="translate(1361.914062 0.34375)" xlink:href="#ArialMT-53"/>
      <use transform="translate(1428.613281 0.34375)" xlink:href="#ArialMT-63"/>
      <use transform="translate(1478.613281 0.34375)" xlink:href="#ArialMT-6f"/>
      <use transform="translate(1534.228516 0.34375)" xlink:href="#ArialMT-72"/>
      <use transform="translate(1567.529297 0.34375)" xlink:href="#ArialMT-65"/>
      <use transform="translate(1623.144531 0.34375)" xlink:href="#ArialMT-2c"/>
      <use transform="translate(1650.927734 0.34375)" xlink:href="#ArialMT-20"/>
      <use transform="translate(1678.710938 0.84375)" xlink:href="#DejaVuSans-3a3"/>
      <use transform="translate(1741.894531 0.34375)" xlink:href="#ArialMT-20"/>
      <use transform="translate(1769.677734 0.34375)" xlink:href="#ArialMT-5b"/>
      <use transform="translate(1797.460938 0.34375)" xlink:href="#ArialMT-64"/>
      <use transform="translate(1853.076172 0.34375)" xlink:href="#ArialMT-69"/>
      <use transform="translate(1875.292969 0.34375)" xlink:href="#ArialMT-6d"/>
      <use transform="translate(1958.59375 0.34375)" xlink:href="#ArialMT-65"/>
      <use transform="translate(2014.208984 0.34375)" xlink:href="#ArialMT-6e"/>
      <use transform="translate(2069.824219 0.34375)" xlink:href="#ArialMT-73"/>
      <use transform="translate(2119.824219 0.34375)" xlink:href="#ArialMT-69"/>
      <use transform="translate(2142.041016 0.34375)" xlink:href="#ArialMT-6f"/>
      <use transform="translate(2197.65625 0.34375)" xlink:href="#ArialMT-6e"/>
      <use transform="translate(2253.271484 0.34375)" xlink:href="#ArialMT-6c"/>
      <use transform="translate(2275.488281 0.34375)" xlink:href="#ArialMT-65"/>
      <use transform="translate(2331.103516 0.34375)" xlink:href="#ArialMT-73"/>
      <use transform="translate(2381.103516 0.34375)" xlink:href="#ArialMT-73"/>
      <use transform="translate(2431.103516 0.34375)" xlink:href="#ArialMT-5d"/>
      <path d="M 1678.710938 85.5 
L 1678.710938 91.75 
L 1741.894531 91.75 
L 1741.894531 85.5 
L 1678.710938 85.5 
z
"/>
     </g>
    </g>
   </g>
   <g id="line2d_25">
    <path clip-path="url(#pf292f5ee1e)" d="M 92.290909 292.806832 
L 96.390083 291.765764 
L 100.489256 292.28813 
L 104.58843 300.756875 
L 108.687603 292.246861 
L 112.786777 293.703057 
L 116.88595 275.810736 
L 120.985124 284.350447 
L 125.084298 275.9043 
L 129.183471 272.240608 
L 133.282645 271.58399 
L 137.381818 254.658499 
L 141.480992 253.204976 
L 145.580165 279.608663 
L 149.679339 273.908681 
L 153.778512 285.400036 
L 157.877686 289.770907 
L 161.97686 287.526256 
L 166.076033 303.971642 
L 170.175207 310.96785 
L 174.27438 302.464518 
L 178.373554 310.945218 
L 182.472727 320.474553 
L 186.571901 332.91 
L 190.671074 331.876447 
L 194.770248 320.388509 
L 198.869421 326.707917 
L 202.968595 322.750739 
L 207.067769 322.594992 
L 211.166942 303.276874 
L 215.266116 265.947575 
L 219.365289 253.379424 
L 223.464463 260.607491 
L 227.563636 229.526917 
L 231.66281 225.664961 
L 235.761983 219.72148 
L 239.861157 220.613724 
L 243.960331 258.273926 
L 248.059504 271.153961 
L 252.158678 262.332841 
L 256.257851 274.837428 
L 260.357025 274.990065 
L 264.456198 263.916264 
L 268.555372 258.869386 
L 272.654545 235.98886 
L 276.753719 243.286886 
L 280.852893 235.47966 
L 284.952066 230.093043 
L 289.05124 226.770536 
L 293.150413 219.742957 
L 297.249587 222.995534 
L 301.34876 220.7377 
L 305.447934 216.883636 
L 309.547107 230.456849 
L 313.646281 231.428763 
L 317.745455 232.183902 
L 321.844628 242.058683 
L 325.943802 236.725247 
L 330.042975 243.335539 
L 334.142149 237.040705 
L 338.241322 238.899864 
L 342.340496 244.162295 
L 346.439669 248.535956 
L 350.538843 246.356213 
L 354.638017 256.564016 
L 358.73719 259.155656 
L 362.836364 257.673706 
L 366.935537 248.400514 
L 371.034711 251.284832 
L 375.133884 256.905204 
L 379.233058 260.365962 
L 383.332231 261.158685 
L 387.431405 262.486272 
L 391.530579 262.208625 
L 395.629752 267.219375 
L 399.728926 272.390293 
L 403.828099 259.007388 
L 407.927273 254.969847 
L 412.026446 251.145651 
L 416.12562 255.346247 
L 420.224793 257.22118 
L 424.323967 254.860762 
L 428.42314 242.241906 
L 432.522314 260.617561 
L 436.621488 256.396603 
L 440.720661 249.156402 
L 444.819835 235.392845 
L 448.919008 239.670486 
L 453.018182 236.207407 
L 457.117355 238.530153 
L 461.216529 231.627736 
L 465.315702 248.271924 
L 469.414876 263.299447 
L 473.51405 266.358916 
L 477.613223 270.691014 
L 481.712397 277.466081 
L 485.81157 278.477814 
L 489.910744 292.403008 
L 494.009917 285.232893 
L 498.109091 283.684434 
" style="fill:none;stroke:#00bfbf;stroke-linecap:round;stroke-width:1.75;"/>
    <defs>
     <path d="M 0 3.5 
C 0.928211 3.5 1.81853 3.131218 2.474874 2.474874 
C 3.131218 1.81853 3.5 0.928211 3.5 0 
C 3.5 -0.928211 3.131218 -1.81853 2.474874 -2.474874 
C 1.81853 -3.131218 0.928211 -3.5 0 -3.5 
C -0.928211 -3.5 -1.81853 -3.131218 -2.474874 -2.474874 
C -3.131218 -1.81853 -3.5 -0.928211 -3.5 0 
C -3.5 0.928211 -3.131218 1.81853 -2.474874 2.474874 
C -1.81853 3.131218 -0.928211 3.5 0 3.5 
z
" id="m635804727a"/>
    </defs>
    <g clip-path="url(#pf292f5ee1e)">
     <use style="fill:#00bfbf;" x="92.290909" xlink:href="#m635804727a" y="292.806832"/>
     <use style="fill:#00bfbf;" x="96.390083" xlink:href="#m635804727a" y="291.765764"/>
     <use style="fill:#00bfbf;" x="100.489256" xlink:href="#m635804727a" y="292.28813"/>
     <use style="fill:#00bfbf;" x="104.58843" xlink:href="#m635804727a" y="300.756875"/>
     <use style="fill:#00bfbf;" x="108.687603" xlink:href="#m635804727a" y="292.246861"/>
     <use style="fill:#00bfbf;" x="112.786777" xlink:href="#m635804727a" y="293.703057"/>
     <use style="fill:#00bfbf;" x="116.88595" xlink:href="#m635804727a" y="275.810736"/>
     <use style="fill:#00bfbf;" x="120.985124" xlink:href="#m635804727a" y="284.350447"/>
     <use style="fill:#00bfbf;" x="125.084298" xlink:href="#m635804727a" y="275.9043"/>
     <use style="fill:#00bfbf;" x="129.183471" xlink:href="#m635804727a" y="272.240608"/>
     <use style="fill:#00bfbf;" x="133.282645" xlink:href="#m635804727a" y="271.58399"/>
     <use style="fill:#00bfbf;" x="137.381818" xlink:href="#m635804727a" y="254.658499"/>
     <use style="fill:#00bfbf;" x="141.480992" xlink:href="#m635804727a" y="253.204976"/>
     <use style="fill:#00bfbf;" x="145.580165" xlink:href="#m635804727a" y="279.608663"/>
     <use style="fill:#00bfbf;" x="149.679339" xlink:href="#m635804727a" y="273.908681"/>
     <use style="fill:#00bfbf;" x="153.778512" xlink:href="#m635804727a" y="285.400036"/>
     <use style="fill:#00bfbf;" x="157.877686" xlink:href="#m635804727a" y="289.770907"/>
     <use style="fill:#00bfbf;" x="161.97686" xlink:href="#m635804727a" y="287.526256"/>
     <use style="fill:#00bfbf;" x="166.076033" xlink:href="#m635804727a" y="303.971642"/>
     <use style="fill:#00bfbf;" x="170.175207" xlink:href="#m635804727a" y="310.96785"/>
     <use style="fill:#00bfbf;" x="174.27438" xlink:href="#m635804727a" y="302.464518"/>
     <use style="fill:#00bfbf;" x="178.373554" xlink:href="#m635804727a" y="310.945218"/>
     <use style="fill:#00bfbf;" x="182.472727" xlink:href="#m635804727a" y="320.474553"/>
     <use style="fill:#00bfbf;" x="186.571901" xlink:href="#m635804727a" y="332.91"/>
     <use style="fill:#00bfbf;" x="190.671074" xlink:href="#m635804727a" y="331.876447"/>
     <use style="fill:#00bfbf;" x="194.770248" xlink:href="#m635804727a" y="320.388509"/>
     <use style="fill:#00bfbf;" x="198.869421" xlink:href="#m635804727a" y="326.707917"/>
     <use style="fill:#00bfbf;" x="202.968595" xlink:href="#m635804727a" y="322.750739"/>
     <use style="fill:#00bfbf;" x="207.067769" xlink:href="#m635804727a" y="322.594992"/>
     <use style="fill:#00bfbf;" x="211.166942" xlink:href="#m635804727a" y="303.276874"/>
     <use style="fill:#00bfbf;" x="215.266116" xlink:href="#m635804727a" y="265.947575"/>
     <use style="fill:#00bfbf;" x="219.365289" xlink:href="#m635804727a" y="253.379424"/>
     <use style="fill:#00bfbf;" x="223.464463" xlink:href="#m635804727a" y="260.607491"/>
     <use style="fill:#00bfbf;" x="227.563636" xlink:href="#m635804727a" y="229.526917"/>
     <use style="fill:#00bfbf;" x="231.66281" xlink:href="#m635804727a" y="225.664961"/>
     <use style="fill:#00bfbf;" x="235.761983" xlink:href="#m635804727a" y="219.72148"/>
     <use style="fill:#00bfbf;" x="239.861157" xlink:href="#m635804727a" y="220.613724"/>
     <use style="fill:#00bfbf;" x="243.960331" xlink:href="#m635804727a" y="258.273926"/>
     <use style="fill:#00bfbf;" x="248.059504" xlink:href="#m635804727a" y="271.153961"/>
     <use style="fill:#00bfbf;" x="252.158678" xlink:href="#m635804727a" y="262.332841"/>
     <use style="fill:#00bfbf;" x="256.257851" xlink:href="#m635804727a" y="274.837428"/>
     <use style="fill:#00bfbf;" x="260.357025" xlink:href="#m635804727a" y="274.990065"/>
     <use style="fill:#00bfbf;" x="264.456198" xlink:href="#m635804727a" y="263.916264"/>
     <use style="fill:#00bfbf;" x="268.555372" xlink:href="#m635804727a" y="258.869386"/>
     <use style="fill:#00bfbf;" x="272.654545" xlink:href="#m635804727a" y="235.98886"/>
     <use style="fill:#00bfbf;" x="276.753719" xlink:href="#m635804727a" y="243.286886"/>
     <use style="fill:#00bfbf;" x="280.852893" xlink:href="#m635804727a" y="235.47966"/>
     <use style="fill:#00bfbf;" x="284.952066" xlink:href="#m635804727a" y="230.093043"/>
     <use style="fill:#00bfbf;" x="289.05124" xlink:href="#m635804727a" y="226.770536"/>
     <use style="fill:#00bfbf;" x="293.150413" xlink:href="#m635804727a" y="219.742957"/>
     <use style="fill:#00bfbf;" x="297.249587" xlink:href="#m635804727a" y="222.995534"/>
     <use style="fill:#00bfbf;" x="301.34876" xlink:href="#m635804727a" y="220.7377"/>
     <use style="fill:#00bfbf;" x="305.447934" xlink:href="#m635804727a" y="216.883636"/>
     <use style="fill:#00bfbf;" x="309.547107" xlink:href="#m635804727a" y="230.456849"/>
     <use style="fill:#00bfbf;" x="313.646281" xlink:href="#m635804727a" y="231.428763"/>
     <use style="fill:#00bfbf;" x="317.745455" xlink:href="#m635804727a" y="232.183902"/>
     <use style="fill:#00bfbf;" x="321.844628" xlink:href="#m635804727a" y="242.058683"/>
     <use style="fill:#00bfbf;" x="325.943802" xlink:href="#m635804727a" y="236.725247"/>
     <use style="fill:#00bfbf;" x="330.042975" xlink:href="#m635804727a" y="243.335539"/>
     <use style="fill:#00bfbf;" x="334.142149" xlink:href="#m635804727a" y="237.040705"/>
     <use style="fill:#00bfbf;" x="338.241322" xlink:href="#m635804727a" y="238.899864"/>
     <use style="fill:#00bfbf;" x="342.340496" xlink:href="#m635804727a" y="244.162295"/>
     <use style="fill:#00bfbf;" x="346.439669" xlink:href="#m635804727a" y="248.535956"/>
     <use style="fill:#00bfbf;" x="350.538843" xlink:href="#m635804727a" y="246.356213"/>
     <use style="fill:#00bfbf;" x="354.638017" xlink:href="#m635804727a" y="256.564016"/>
     <use style="fill:#00bfbf;" x="358.73719" xlink:href="#m635804727a" y="259.155656"/>
     <use style="fill:#00bfbf;" x="362.836364" xlink:href="#m635804727a" y="257.673706"/>
     <use style="fill:#00bfbf;" x="366.935537" xlink:href="#m635804727a" y="248.400514"/>
     <use style="fill:#00bfbf;" x="371.034711" xlink:href="#m635804727a" y="251.284832"/>
     <use style="fill:#00bfbf;" x="375.133884" xlink:href="#m635804727a" y="256.905204"/>
     <use style="fill:#00bfbf;" x="379.233058" xlink:href="#m635804727a" y="260.365962"/>
     <use style="fill:#00bfbf;" x="383.332231" xlink:href="#m635804727a" y="261.158685"/>
     <use style="fill:#00bfbf;" x="387.431405" xlink:href="#m635804727a" y="262.486272"/>
     <use style="fill:#00bfbf;" x="391.530579" xlink:href="#m635804727a" y="262.208625"/>
     <use style="fill:#00bfbf;" x="395.629752" xlink:href="#m635804727a" y="267.219375"/>
     <use style="fill:#00bfbf;" x="399.728926" xlink:href="#m635804727a" y="272.390293"/>
     <use style="fill:#00bfbf;" x="403.828099" xlink:href="#m635804727a" y="259.007388"/>
     <use style="fill:#00bfbf;" x="407.927273" xlink:href="#m635804727a" y="254.969847"/>
     <use style="fill:#00bfbf;" x="412.026446" xlink:href="#m635804727a" y="251.145651"/>
     <use style="fill:#00bfbf;" x="416.12562" xlink:href="#m635804727a" y="255.346247"/>
     <use style="fill:#00bfbf;" x="420.224793" xlink:href="#m635804727a" y="257.22118"/>
     <use style="fill:#00bfbf;" x="424.323967" xlink:href="#m635804727a" y="254.860762"/>
     <use style="fill:#00bfbf;" x="428.42314" xlink:href="#m635804727a" y="242.241906"/>
     <use style="fill:#00bfbf;" x="432.522314" xlink:href="#m635804727a" y="260.617561"/>
     <use style="fill:#00bfbf;" x="436.621488" xlink:href="#m635804727a" y="256.396603"/>
     <use style="fill:#00bfbf;" x="440.720661" xlink:href="#m635804727a" y="249.156402"/>
     <use style="fill:#00bfbf;" x="444.819835" xlink:href="#m635804727a" y="235.392845"/>
     <use style="fill:#00bfbf;" x="448.919008" xlink:href="#m635804727a" y="239.670486"/>
     <use style="fill:#00bfbf;" x="453.018182" xlink:href="#m635804727a" y="236.207407"/>
     <use style="fill:#00bfbf;" x="457.117355" xlink:href="#m635804727a" y="238.530153"/>
     <use style="fill:#00bfbf;" x="461.216529" xlink:href="#m635804727a" y="231.627736"/>
     <use style="fill:#00bfbf;" x="465.315702" xlink:href="#m635804727a" y="248.271924"/>
     <use style="fill:#00bfbf;" x="469.414876" xlink:href="#m635804727a" y="263.299447"/>
     <use style="fill:#00bfbf;" x="473.51405" xlink:href="#m635804727a" y="266.358916"/>
     <use style="fill:#00bfbf;" x="477.613223" xlink:href="#m635804727a" y="270.691014"/>
     <use style="fill:#00bfbf;" x="481.712397" xlink:href="#m635804727a" y="277.466081"/>
     <use style="fill:#00bfbf;" x="485.81157" xlink:href="#m635804727a" y="278.477814"/>
     <use style="fill:#00bfbf;" x="489.910744" xlink:href="#m635804727a" y="292.403008"/>
     <use style="fill:#00bfbf;" x="494.009917" xlink:href="#m635804727a" y="285.232893"/>
     <use style="fill:#00bfbf;" x="498.109091" xlink:href="#m635804727a" y="283.684434"/>
    </g>
   </g>
   <g id="line2d_26">
    <path clip-path="url(#pf292f5ee1e)" d="M 92.290909 306.08046 
L 96.390083 306.504103 
L 100.489256 305.392904 
L 104.58843 306.46017 
L 108.687603 305.836323 
L 112.786777 305.15558 
L 116.88595 302.549451 
L 120.985124 302.686002 
L 125.084298 301.655195 
L 129.183471 302.120506 
L 133.282645 302.262882 
L 137.381818 300.321704 
L 141.480992 300.575112 
L 145.580165 303.023429 
L 149.679339 303.886857 
L 153.778512 305.24901 
L 157.877686 305.576294 
L 161.97686 305.912807 
L 166.076033 308.356299 
L 170.175207 310.398984 
L 174.27438 308.881821 
L 178.373554 308.983178 
L 182.472727 309.115096 
L 186.571901 308.427356 
L 190.671074 309.576498 
L 194.770248 307.760008 
L 198.869421 307.803013 
L 202.968595 307.209274 
L 207.067769 306.880475 
L 211.166942 305.641888 
L 215.266116 302.899942 
L 219.365289 299.256149 
L 223.464463 300.951924 
L 227.563636 297.975377 
L 231.66281 299.428359 
L 235.761983 298.492379 
L 239.861157 298.77939 
L 243.960331 302.625228 
L 248.059504 304.444473 
L 252.158678 303.536168 
L 256.257851 305.398168 
L 260.357025 304.484417 
L 264.456198 304.32096 
L 268.555372 303.601663 
L 272.654545 301.641598 
L 276.753719 302.776545 
L 280.852893 301.217814 
L 284.952066 299.60952 
L 289.05124 298.904466 
L 293.150413 297.962259 
L 297.249587 297.072261 
L 301.34876 297.074818 
L 305.447934 296.461352 
L 309.547107 297.388994 
L 313.646281 297.737771 
L 317.745455 298.928099 
L 321.844628 299.770271 
L 325.943802 300.080705 
L 330.042975 300.601613 
L 334.142149 299.904726 
L 338.241322 300.880328 
L 342.340496 300.80189 
L 346.439669 301.162399 
L 350.538843 300.516119 
L 354.638017 301.132676 
L 358.73719 301.777174 
L 362.836364 302.057925 
L 366.935537 300.542133 
L 371.034711 301.685835 
L 375.133884 301.619305 
L 379.233058 302.047712 
L 383.332231 303.413972 
L 387.431405 303.217618 
L 391.530579 303.511542 
L 395.629752 304.036381 
L 399.728926 304.090709 
L 403.828099 303.713367 
L 407.927273 303.443681 
L 412.026446 302.670872 
L 416.12562 302.673642 
L 420.224793 301.979748 
L 424.323967 301.839998 
L 428.42314 300.545817 
L 432.522314 302.41275 
L 436.621488 301.799482 
L 440.720661 301.506108 
L 444.819835 300.541246 
L 448.919008 301.170248 
L 453.018182 300.234113 
L 457.117355 300.183686 
L 461.216529 298.939971 
L 465.315702 300.206502 
L 469.414876 302.181791 
L 473.51405 301.936707 
L 477.613223 302.065874 
L 481.712397 303.934669 
L 485.81157 303.486838 
L 489.910744 304.832271 
L 494.009917 304.749314 
L 498.109091 304.348996 
" style="fill:none;stroke:#008000;stroke-linecap:round;stroke-width:1.75;"/>
    <defs>
     <path d="M 0 3.5 
C 0.928211 3.5 1.81853 3.131218 2.474874 2.474874 
C 3.131218 1.81853 3.5 0.928211 3.5 0 
C 3.5 -0.928211 3.131218 -1.81853 2.474874 -2.474874 
C 1.81853 -3.131218 0.928211 -3.5 0 -3.5 
C -0.928211 -3.5 -1.81853 -3.131218 -2.474874 -2.474874 
C -3.131218 -1.81853 -3.5 -0.928211 -3.5 0 
C -3.5 0.928211 -3.131218 1.81853 -2.474874 2.474874 
C -1.81853 3.131218 -0.928211 3.5 0 3.5 
z
" id="md52e26e721"/>
    </defs>
    <g clip-path="url(#pf292f5ee1e)">
     <use style="fill:#008000;" x="92.290909" xlink:href="#md52e26e721" y="306.08046"/>
     <use style="fill:#008000;" x="96.390083" xlink:href="#md52e26e721" y="306.504103"/>
     <use style="fill:#008000;" x="100.489256" xlink:href="#md52e26e721" y="305.392904"/>
     <use style="fill:#008000;" x="104.58843" xlink:href="#md52e26e721" y="306.46017"/>
     <use style="fill:#008000;" x="108.687603" xlink:href="#md52e26e721" y="305.836323"/>
     <use style="fill:#008000;" x="112.786777" xlink:href="#md52e26e721" y="305.15558"/>
     <use style="fill:#008000;" x="116.88595" xlink:href="#md52e26e721" y="302.549451"/>
     <use style="fill:#008000;" x="120.985124" xlink:href="#md52e26e721" y="302.686002"/>
     <use style="fill:#008000;" x="125.084298" xlink:href="#md52e26e721" y="301.655195"/>
     <use style="fill:#008000;" x="129.183471" xlink:href="#md52e26e721" y="302.120506"/>
     <use style="fill:#008000;" x="133.282645" xlink:href="#md52e26e721" y="302.262882"/>
     <use style="fill:#008000;" x="137.381818" xlink:href="#md52e26e721" y="300.321704"/>
     <use style="fill:#008000;" x="141.480992" xlink:href="#md52e26e721" y="300.575112"/>
     <use style="fill:#008000;" x="145.580165" xlink:href="#md52e26e721" y="303.023429"/>
     <use style="fill:#008000;" x="149.679339" xlink:href="#md52e26e721" y="303.886857"/>
     <use style="fill:#008000;" x="153.778512" xlink:href="#md52e26e721" y="305.24901"/>
     <use style="fill:#008000;" x="157.877686" xlink:href="#md52e26e721" y="305.576294"/>
     <use style="fill:#008000;" x="161.97686" xlink:href="#md52e26e721" y="305.912807"/>
     <use style="fill:#008000;" x="166.076033" xlink:href="#md52e26e721" y="308.356299"/>
     <use style="fill:#008000;" x="170.175207" xlink:href="#md52e26e721" y="310.398984"/>
     <use style="fill:#008000;" x="174.27438" xlink:href="#md52e26e721" y="308.881821"/>
     <use style="fill:#008000;" x="178.373554" xlink:href="#md52e26e721" y="308.983178"/>
     <use style="fill:#008000;" x="182.472727" xlink:href="#md52e26e721" y="309.115096"/>
     <use style="fill:#008000;" x="186.571901" xlink:href="#md52e26e721" y="308.427356"/>
     <use style="fill:#008000;" x="190.671074" xlink:href="#md52e26e721" y="309.576498"/>
     <use style="fill:#008000;" x="194.770248" xlink:href="#md52e26e721" y="307.760008"/>
     <use style="fill:#008000;" x="198.869421" xlink:href="#md52e26e721" y="307.803013"/>
     <use style="fill:#008000;" x="202.968595" xlink:href="#md52e26e721" y="307.209274"/>
     <use style="fill:#008000;" x="207.067769" xlink:href="#md52e26e721" y="306.880475"/>
     <use style="fill:#008000;" x="211.166942" xlink:href="#md52e26e721" y="305.641888"/>
     <use style="fill:#008000;" x="215.266116" xlink:href="#md52e26e721" y="302.899942"/>
     <use style="fill:#008000;" x="219.365289" xlink:href="#md52e26e721" y="299.256149"/>
     <use style="fill:#008000;" x="223.464463" xlink:href="#md52e26e721" y="300.951924"/>
     <use style="fill:#008000;" x="227.563636" xlink:href="#md52e26e721" y="297.975377"/>
     <use style="fill:#008000;" x="231.66281" xlink:href="#md52e26e721" y="299.428359"/>
     <use style="fill:#008000;" x="235.761983" xlink:href="#md52e26e721" y="298.492379"/>
     <use style="fill:#008000;" x="239.861157" xlink:href="#md52e26e721" y="298.77939"/>
     <use style="fill:#008000;" x="243.960331" xlink:href="#md52e26e721" y="302.625228"/>
     <use style="fill:#008000;" x="248.059504" xlink:href="#md52e26e721" y="304.444473"/>
     <use style="fill:#008000;" x="252.158678" xlink:href="#md52e26e721" y="303.536168"/>
     <use style="fill:#008000;" x="256.257851" xlink:href="#md52e26e721" y="305.398168"/>
     <use style="fill:#008000;" x="260.357025" xlink:href="#md52e26e721" y="304.484417"/>
     <use style="fill:#008000;" x="264.456198" xlink:href="#md52e26e721" y="304.32096"/>
     <use style="fill:#008000;" x="268.555372" xlink:href="#md52e26e721" y="303.601663"/>
     <use style="fill:#008000;" x="272.654545" xlink:href="#md52e26e721" y="301.641598"/>
     <use style="fill:#008000;" x="276.753719" xlink:href="#md52e26e721" y="302.776545"/>
     <use style="fill:#008000;" x="280.852893" xlink:href="#md52e26e721" y="301.217814"/>
     <use style="fill:#008000;" x="284.952066" xlink:href="#md52e26e721" y="299.60952"/>
     <use style="fill:#008000;" x="289.05124" xlink:href="#md52e26e721" y="298.904466"/>
     <use style="fill:#008000;" x="293.150413" xlink:href="#md52e26e721" y="297.962259"/>
     <use style="fill:#008000;" x="297.249587" xlink:href="#md52e26e721" y="297.072261"/>
     <use style="fill:#008000;" x="301.34876" xlink:href="#md52e26e721" y="297.074818"/>
     <use style="fill:#008000;" x="305.447934" xlink:href="#md52e26e721" y="296.461352"/>
     <use style="fill:#008000;" x="309.547107" xlink:href="#md52e26e721" y="297.388994"/>
     <use style="fill:#008000;" x="313.646281" xlink:href="#md52e26e721" y="297.737771"/>
     <use style="fill:#008000;" x="317.745455" xlink:href="#md52e26e721" y="298.928099"/>
     <use style="fill:#008000;" x="321.844628" xlink:href="#md52e26e721" y="299.770271"/>
     <use style="fill:#008000;" x="325.943802" xlink:href="#md52e26e721" y="300.080705"/>
     <use style="fill:#008000;" x="330.042975" xlink:href="#md52e26e721" y="300.601613"/>
     <use style="fill:#008000;" x="334.142149" xlink:href="#md52e26e721" y="299.904726"/>
     <use style="fill:#008000;" x="338.241322" xlink:href="#md52e26e721" y="300.880328"/>
     <use style="fill:#008000;" x="342.340496" xlink:href="#md52e26e721" y="300.80189"/>
     <use style="fill:#008000;" x="346.439669" xlink:href="#md52e26e721" y="301.162399"/>
     <use style="fill:#008000;" x="350.538843" xlink:href="#md52e26e721" y="300.516119"/>
     <use style="fill:#008000;" x="354.638017" xlink:href="#md52e26e721" y="301.132676"/>
     <use style="fill:#008000;" x="358.73719" xlink:href="#md52e26e721" y="301.777174"/>
     <use style="fill:#008000;" x="362.836364" xlink:href="#md52e26e721" y="302.057925"/>
     <use style="fill:#008000;" x="366.935537" xlink:href="#md52e26e721" y="300.542133"/>
     <use style="fill:#008000;" x="371.034711" xlink:href="#md52e26e721" y="301.685835"/>
     <use style="fill:#008000;" x="375.133884" xlink:href="#md52e26e721" y="301.619305"/>
     <use style="fill:#008000;" x="379.233058" xlink:href="#md52e26e721" y="302.047712"/>
     <use style="fill:#008000;" x="383.332231" xlink:href="#md52e26e721" y="303.413972"/>
     <use style="fill:#008000;" x="387.431405" xlink:href="#md52e26e721" y="303.217618"/>
     <use style="fill:#008000;" x="391.530579" xlink:href="#md52e26e721" y="303.511542"/>
     <use style="fill:#008000;" x="395.629752" xlink:href="#md52e26e721" y="304.036381"/>
     <use style="fill:#008000;" x="399.728926" xlink:href="#md52e26e721" y="304.090709"/>
     <use style="fill:#008000;" x="403.828099" xlink:href="#md52e26e721" y="303.713367"/>
     <use style="fill:#008000;" x="407.927273" xlink:href="#md52e26e721" y="303.443681"/>
     <use style="fill:#008000;" x="412.026446" xlink:href="#md52e26e721" y="302.670872"/>
     <use style="fill:#008000;" x="416.12562" xlink:href="#md52e26e721" y="302.673642"/>
     <use style="fill:#008000;" x="420.224793" xlink:href="#md52e26e721" y="301.979748"/>
     <use style="fill:#008000;" x="424.323967" xlink:href="#md52e26e721" y="301.839998"/>
     <use style="fill:#008000;" x="428.42314" xlink:href="#md52e26e721" y="300.545817"/>
     <use style="fill:#008000;" x="432.522314" xlink:href="#md52e26e721" y="302.41275"/>
     <use style="fill:#008000;" x="436.621488" xlink:href="#md52e26e721" y="301.799482"/>
     <use style="fill:#008000;" x="440.720661" xlink:href="#md52e26e721" y="301.506108"/>
     <use style="fill:#008000;" x="444.819835" xlink:href="#md52e26e721" y="300.541246"/>
     <use style="fill:#008000;" x="448.919008" xlink:href="#md52e26e721" y="301.170248"/>
     <use style="fill:#008000;" x="453.018182" xlink:href="#md52e26e721" y="300.234113"/>
     <use style="fill:#008000;" x="457.117355" xlink:href="#md52e26e721" y="300.183686"/>
     <use style="fill:#008000;" x="461.216529" xlink:href="#md52e26e721" y="298.939971"/>
     <use style="fill:#008000;" x="465.315702" xlink:href="#md52e26e721" y="300.206502"/>
     <use style="fill:#008000;" x="469.414876" xlink:href="#md52e26e721" y="302.181791"/>
     <use style="fill:#008000;" x="473.51405" xlink:href="#md52e26e721" y="301.936707"/>
     <use style="fill:#008000;" x="477.613223" xlink:href="#md52e26e721" y="302.065874"/>
     <use style="fill:#008000;" x="481.712397" xlink:href="#md52e26e721" y="303.934669"/>
     <use style="fill:#008000;" x="485.81157" xlink:href="#md52e26e721" y="303.486838"/>
     <use style="fill:#008000;" x="489.910744" xlink:href="#md52e26e721" y="304.832271"/>
     <use style="fill:#008000;" x="494.009917" xlink:href="#md52e26e721" y="304.749314"/>
     <use style="fill:#008000;" x="498.109091" xlink:href="#md52e26e721" y="304.348996"/>
    </g>
   </g>
   <g id="line2d_27">
    <path clip-path="url(#pf292f5ee1e)" d="M 92.290909 297.569369 
L 96.390083 297.329164 
L 100.489256 297.47576 
L 104.58843 297.251634 
L 108.687603 296.980491 
L 112.786777 297.010365 
L 116.88595 297.520745 
L 120.985124 297.285727 
L 125.084298 297.114622 
L 129.183471 297.102717 
L 133.282645 296.978365 
L 137.381818 297.683986 
L 141.480992 298.027767 
L 145.580165 297.395107 
L 149.679339 297.083277 
L 153.778512 297.224468 
L 157.877686 296.698972 
L 161.97686 296.894805 
L 166.076033 296.47265 
L 170.175207 295.696726 
L 174.27438 296.010045 
L 178.373554 296.3692 
L 182.472727 296.356028 
L 186.571901 296.929397 
L 190.671074 296.847957 
L 194.770248 297.874147 
L 198.869421 297.951033 
L 202.968595 298.113154 
L 207.067769 297.619292 
L 211.166942 297.846491 
L 215.266116 298.263931 
L 219.365289 299.218741 
L 223.464463 298.518976 
L 227.563636 299.053984 
L 231.66281 299.054478 
L 235.761983 299.595057 
L 239.861157 299.879459 
L 243.960331 299.723709 
L 248.059504 299.152747 
L 252.158678 299.060198 
L 256.257851 298.599557 
L 260.357025 298.726292 
L 264.456198 299.181276 
L 268.555372 298.968541 
L 272.654545 298.659583 
L 276.753719 298.758269 
L 280.852893 299.369897 
L 284.952066 300.192337 
L 289.05124 300.452652 
L 293.150413 300.407741 
L 297.249587 300.898643 
L 301.34876 301.252586 
L 305.447934 301.274043 
L 309.547107 300.762035 
L 313.646281 300.462452 
L 317.745455 300.139564 
L 321.844628 299.784572 
L 325.943802 299.595943 
L 330.042975 299.503842 
L 334.142149 299.388956 
L 338.241322 299.360809 
L 342.340496 299.374137 
L 346.439669 299.14299 
L 350.538843 299.423059 
L 354.638017 299.443884 
L 358.73719 299.539238 
L 362.836364 299.741958 
L 366.935537 299.684992 
L 371.034711 299.166403 
L 375.133884 299.403026 
L 379.233058 299.314655 
L 383.332231 298.967477 
L 387.431405 298.664552 
L 391.530579 298.37824 
L 395.629752 298.637972 
L 399.728926 299.021558 
L 403.828099 298.889095 
L 407.927273 299.240449 
L 412.026446 299.204803 
L 416.12562 299.200034 
L 420.224793 299.548929 
L 424.323967 299.625279 
L 428.42314 300.013512 
L 432.522314 299.911534 
L 436.621488 300.030931 
L 440.720661 300.271188 
L 444.819835 300.472771 
L 448.919008 300.303257 
L 453.018182 300.622392 
L 457.117355 300.348369 
L 461.216529 300.721295 
L 465.315702 299.867087 
L 469.414876 299.09459 
L 473.51405 299.296484 
L 477.613223 299.119818 
L 481.712397 298.42597 
L 485.81157 298.287116 
L 489.910744 297.674471 
L 494.009917 297.816975 
L 498.109091 298.017206 
" style="fill:none;stroke:#0000ff;stroke-linecap:round;stroke-width:1.75;"/>
    <defs>
     <path d="M 0 3.5 
C 0.928211 3.5 1.81853 3.131218 2.474874 2.474874 
C 3.131218 1.81853 3.5 0.928211 3.5 0 
C 3.5 -0.928211 3.131218 -1.81853 2.474874 -2.474874 
C 1.81853 -3.131218 0.928211 -3.5 0 -3.5 
C -0.928211 -3.5 -1.81853 -3.131218 -2.474874 -2.474874 
C -3.131218 -1.81853 -3.5 -0.928211 -3.5 0 
C -3.5 0.928211 -3.131218 1.81853 -2.474874 2.474874 
C -1.81853 3.131218 -0.928211 3.5 0 3.5 
z
" id="m0900992834"/>
    </defs>
    <g clip-path="url(#pf292f5ee1e)">
     <use style="fill:#0000ff;" x="92.290909" xlink:href="#m0900992834" y="297.569369"/>
     <use style="fill:#0000ff;" x="96.390083" xlink:href="#m0900992834" y="297.329164"/>
     <use style="fill:#0000ff;" x="100.489256" xlink:href="#m0900992834" y="297.47576"/>
     <use style="fill:#0000ff;" x="104.58843" xlink:href="#m0900992834" y="297.251634"/>
     <use style="fill:#0000ff;" x="108.687603" xlink:href="#m0900992834" y="296.980491"/>
     <use style="fill:#0000ff;" x="112.786777" xlink:href="#m0900992834" y="297.010365"/>
     <use style="fill:#0000ff;" x="116.88595" xlink:href="#m0900992834" y="297.520745"/>
     <use style="fill:#0000ff;" x="120.985124" xlink:href="#m0900992834" y="297.285727"/>
     <use style="fill:#0000ff;" x="125.084298" xlink:href="#m0900992834" y="297.114622"/>
     <use style="fill:#0000ff;" x="129.183471" xlink:href="#m0900992834" y="297.102717"/>
     <use style="fill:#0000ff;" x="133.282645" xlink:href="#m0900992834" y="296.978365"/>
     <use style="fill:#0000ff;" x="137.381818" xlink:href="#m0900992834" y="297.683986"/>
     <use style="fill:#0000ff;" x="141.480992" xlink:href="#m0900992834" y="298.027767"/>
     <use style="fill:#0000ff;" x="145.580165" xlink:href="#m0900992834" y="297.395107"/>
     <use style="fill:#0000ff;" x="149.679339" xlink:href="#m0900992834" y="297.083277"/>
     <use style="fill:#0000ff;" x="153.778512" xlink:href="#m0900992834" y="297.224468"/>
     <use style="fill:#0000ff;" x="157.877686" xlink:href="#m0900992834" y="296.698972"/>
     <use style="fill:#0000ff;" x="161.97686" xlink:href="#m0900992834" y="296.894805"/>
     <use style="fill:#0000ff;" x="166.076033" xlink:href="#m0900992834" y="296.47265"/>
     <use style="fill:#0000ff;" x="170.175207" xlink:href="#m0900992834" y="295.696726"/>
     <use style="fill:#0000ff;" x="174.27438" xlink:href="#m0900992834" y="296.010045"/>
     <use style="fill:#0000ff;" x="178.373554" xlink:href="#m0900992834" y="296.3692"/>
     <use style="fill:#0000ff;" x="182.472727" xlink:href="#m0900992834" y="296.356028"/>
     <use style="fill:#0000ff;" x="186.571901" xlink:href="#m0900992834" y="296.929397"/>
     <use style="fill:#0000ff;" x="190.671074" xlink:href="#m0900992834" y="296.847957"/>
     <use style="fill:#0000ff;" x="194.770248" xlink:href="#m0900992834" y="297.874147"/>
     <use style="fill:#0000ff;" x="198.869421" xlink:href="#m0900992834" y="297.951033"/>
     <use style="fill:#0000ff;" x="202.968595" xlink:href="#m0900992834" y="298.113154"/>
     <use style="fill:#0000ff;" x="207.067769" xlink:href="#m0900992834" y="297.619292"/>
     <use style="fill:#0000ff;" x="211.166942" xlink:href="#m0900992834" y="297.846491"/>
     <use style="fill:#0000ff;" x="215.266116" xlink:href="#m0900992834" y="298.263931"/>
     <use style="fill:#0000ff;" x="219.365289" xlink:href="#m0900992834" y="299.218741"/>
     <use style="fill:#0000ff;" x="223.464463" xlink:href="#m0900992834" y="298.518976"/>
     <use style="fill:#0000ff;" x="227.563636" xlink:href="#m0900992834" y="299.053984"/>
     <use style="fill:#0000ff;" x="231.66281" xlink:href="#m0900992834" y="299.054478"/>
     <use style="fill:#0000ff;" x="235.761983" xlink:href="#m0900992834" y="299.595057"/>
     <use style="fill:#0000ff;" x="239.861157" xlink:href="#m0900992834" y="299.879459"/>
     <use style="fill:#0000ff;" x="243.960331" xlink:href="#m0900992834" y="299.723709"/>
     <use style="fill:#0000ff;" x="248.059504" xlink:href="#m0900992834" y="299.152747"/>
     <use style="fill:#0000ff;" x="252.158678" xlink:href="#m0900992834" y="299.060198"/>
     <use style="fill:#0000ff;" x="256.257851" xlink:href="#m0900992834" y="298.599557"/>
     <use style="fill:#0000ff;" x="260.357025" xlink:href="#m0900992834" y="298.726292"/>
     <use style="fill:#0000ff;" x="264.456198" xlink:href="#m0900992834" y="299.181276"/>
     <use style="fill:#0000ff;" x="268.555372" xlink:href="#m0900992834" y="298.968541"/>
     <use style="fill:#0000ff;" x="272.654545" xlink:href="#m0900992834" y="298.659583"/>
     <use style="fill:#0000ff;" x="276.753719" xlink:href="#m0900992834" y="298.758269"/>
     <use style="fill:#0000ff;" x="280.852893" xlink:href="#m0900992834" y="299.369897"/>
     <use style="fill:#0000ff;" x="284.952066" xlink:href="#m0900992834" y="300.192337"/>
     <use style="fill:#0000ff;" x="289.05124" xlink:href="#m0900992834" y="300.452652"/>
     <use style="fill:#0000ff;" x="293.150413" xlink:href="#m0900992834" y="300.407741"/>
     <use style="fill:#0000ff;" x="297.249587" xlink:href="#m0900992834" y="300.898643"/>
     <use style="fill:#0000ff;" x="301.34876" xlink:href="#m0900992834" y="301.252586"/>
     <use style="fill:#0000ff;" x="305.447934" xlink:href="#m0900992834" y="301.274043"/>
     <use style="fill:#0000ff;" x="309.547107" xlink:href="#m0900992834" y="300.762035"/>
     <use style="fill:#0000ff;" x="313.646281" xlink:href="#m0900992834" y="300.462452"/>
     <use style="fill:#0000ff;" x="317.745455" xlink:href="#m0900992834" y="300.139564"/>
     <use style="fill:#0000ff;" x="321.844628" xlink:href="#m0900992834" y="299.784572"/>
     <use style="fill:#0000ff;" x="325.943802" xlink:href="#m0900992834" y="299.595943"/>
     <use style="fill:#0000ff;" x="330.042975" xlink:href="#m0900992834" y="299.503842"/>
     <use style="fill:#0000ff;" x="334.142149" xlink:href="#m0900992834" y="299.388956"/>
     <use style="fill:#0000ff;" x="338.241322" xlink:href="#m0900992834" y="299.360809"/>
     <use style="fill:#0000ff;" x="342.340496" xlink:href="#m0900992834" y="299.374137"/>
     <use style="fill:#0000ff;" x="346.439669" xlink:href="#m0900992834" y="299.14299"/>
     <use style="fill:#0000ff;" x="350.538843" xlink:href="#m0900992834" y="299.423059"/>
     <use style="fill:#0000ff;" x="354.638017" xlink:href="#m0900992834" y="299.443884"/>
     <use style="fill:#0000ff;" x="358.73719" xlink:href="#m0900992834" y="299.539238"/>
     <use style="fill:#0000ff;" x="362.836364" xlink:href="#m0900992834" y="299.741958"/>
     <use style="fill:#0000ff;" x="366.935537" xlink:href="#m0900992834" y="299.684992"/>
     <use style="fill:#0000ff;" x="371.034711" xlink:href="#m0900992834" y="299.166403"/>
     <use style="fill:#0000ff;" x="375.133884" xlink:href="#m0900992834" y="299.403026"/>
     <use style="fill:#0000ff;" x="379.233058" xlink:href="#m0900992834" y="299.314655"/>
     <use style="fill:#0000ff;" x="383.332231" xlink:href="#m0900992834" y="298.967477"/>
     <use style="fill:#0000ff;" x="387.431405" xlink:href="#m0900992834" y="298.664552"/>
     <use style="fill:#0000ff;" x="391.530579" xlink:href="#m0900992834" y="298.37824"/>
     <use style="fill:#0000ff;" x="395.629752" xlink:href="#m0900992834" y="298.637972"/>
     <use style="fill:#0000ff;" x="399.728926" xlink:href="#m0900992834" y="299.021558"/>
     <use style="fill:#0000ff;" x="403.828099" xlink:href="#m0900992834" y="298.889095"/>
     <use style="fill:#0000ff;" x="407.927273" xlink:href="#m0900992834" y="299.240449"/>
     <use style="fill:#0000ff;" x="412.026446" xlink:href="#m0900992834" y="299.204803"/>
     <use style="fill:#0000ff;" x="416.12562" xlink:href="#m0900992834" y="299.200034"/>
     <use style="fill:#0000ff;" x="420.224793" xlink:href="#m0900992834" y="299.548929"/>
     <use style="fill:#0000ff;" x="424.323967" xlink:href="#m0900992834" y="299.625279"/>
     <use style="fill:#0000ff;" x="428.42314" xlink:href="#m0900992834" y="300.013512"/>
     <use style="fill:#0000ff;" x="432.522314" xlink:href="#m0900992834" y="299.911534"/>
     <use style="fill:#0000ff;" x="436.621488" xlink:href="#m0900992834" y="300.030931"/>
     <use style="fill:#0000ff;" x="440.720661" xlink:href="#m0900992834" y="300.271188"/>
     <use style="fill:#0000ff;" x="444.819835" xlink:href="#m0900992834" y="300.472771"/>
     <use style="fill:#0000ff;" x="448.919008" xlink:href="#m0900992834" y="300.303257"/>
     <use style="fill:#0000ff;" x="453.018182" xlink:href="#m0900992834" y="300.622392"/>
     <use style="fill:#0000ff;" x="457.117355" xlink:href="#m0900992834" y="300.348369"/>
     <use style="fill:#0000ff;" x="461.216529" xlink:href="#m0900992834" y="300.721295"/>
     <use style="fill:#0000ff;" x="465.315702" xlink:href="#m0900992834" y="299.867087"/>
     <use style="fill:#0000ff;" x="469.414876" xlink:href="#m0900992834" y="299.09459"/>
     <use style="fill:#0000ff;" x="473.51405" xlink:href="#m0900992834" y="299.296484"/>
     <use style="fill:#0000ff;" x="477.613223" xlink:href="#m0900992834" y="299.119818"/>
     <use style="fill:#0000ff;" x="481.712397" xlink:href="#m0900992834" y="298.42597"/>
     <use style="fill:#0000ff;" x="485.81157" xlink:href="#m0900992834" y="298.287116"/>
     <use style="fill:#0000ff;" x="489.910744" xlink:href="#m0900992834" y="297.674471"/>
     <use style="fill:#0000ff;" x="494.009917" xlink:href="#m0900992834" y="297.816975"/>
     <use style="fill:#0000ff;" x="498.109091" xlink:href="#m0900992834" y="298.017206"/>
    </g>
   </g>
   <g id="line2d_28">
    <path clip-path="url(#pf292f5ee1e)" d="M 92.290909 64.992638 
L 96.390083 64.878111 
L 100.489256 64.740129 
L 104.58843 64.597367 
L 108.687603 65.124189 
L 112.786777 65.407851 
L 116.88595 65.802047 
L 120.985124 65.80243 
L 125.084298 66.992565 
L 129.183471 67.12328 
L 133.282645 67.357599 
L 137.381818 67.366319 
L 141.480992 67.038855 
L 145.580165 66.860062 
L 149.679339 67.446567 
L 153.778512 66.671993 
L 157.877686 67.055197 
L 161.97686 66.113721 
L 166.076033 65.598902 
L 170.175207 65.456754 
L 174.27438 65.767686 
L 178.373554 65.234418 
L 182.472727 65.131895 
L 186.571901 64.840243 
L 190.671074 64.608024 
L 194.770248 63.358771 
L 198.869421 63.034805 
L 202.968595 63.206974 
L 207.067769 63.609871 
L 211.166942 63.326475 
L 215.266116 63.902635 
L 219.365289 63.68154 
L 223.464463 64.167138 
L 227.563636 64.862992 
L 231.66281 63.630981 
L 235.761983 63.27752 
L 239.861157 62.572367 
L 243.960331 61.11 
L 248.059504 61.419107 
L 252.158678 61.961683 
L 256.257851 62.090655 
L 260.357025 63.104921 
L 264.456198 62.267262 
L 268.555372 63.103784 
L 272.654545 64.005309 
L 276.753719 63.352027 
L 280.852893 63.060896 
L 284.952066 62.586352 
L 289.05124 62.280839 
L 293.150413 62.897988 
L 297.249587 62.82325 
L 301.34876 62.59508 
L 305.447934 62.996029 
L 309.547107 63.431824 
L 313.646281 63.853493 
L 317.745455 63.707257 
L 321.844628 63.702171 
L 325.943802 63.975812 
L 330.042975 64.011583 
L 334.142149 64.514332 
L 338.241322 64.255986 
L 342.340496 64.600311 
L 346.439669 64.960953 
L 350.538843 65.05912 
L 354.638017 64.486796 
L 358.73719 63.797403 
L 362.836364 63.329387 
L 366.935537 64.177273 
L 371.034711 63.935977 
L 375.133884 63.601932 
L 379.233058 63.517938 
L 383.332231 63.199592 
L 387.431405 63.929702 
L 391.530579 64.01179 
L 395.629752 63.004298 
L 399.728926 62.43052 
L 403.828099 62.592978 
L 407.927273 62.282999 
L 412.026446 63.165593 
L 416.12562 63.136335 
L 420.224793 63.22046 
L 424.323967 63.743283 
L 428.42314 64.023846 
L 432.522314 63.220055 
L 436.621488 63.308705 
L 440.720661 62.777106 
L 444.819835 63.259992 
L 448.919008 63.622996 
L 453.018182 63.219152 
L 457.117355 63.838723 
L 461.216529 64.332035 
L 465.315702 65.246578 
L 469.414876 65.921197 
L 473.51405 65.448454 
L 477.613223 65.358984 
L 481.712397 65.854166 
L 485.81157 66.024046 
L 489.910744 66.213465 
L 494.009917 65.56172 
L 498.109091 64.995829 
" style="fill:none;stroke:#000000;stroke-linecap:round;stroke-width:1.75;"/>
    <defs>
     <path d="M 0 3.5 
C 0.928211 3.5 1.81853 3.131218 2.474874 2.474874 
C 3.131218 1.81853 3.5 0.928211 3.5 0 
C 3.5 -0.928211 3.131218 -1.81853 2.474874 -2.474874 
C 1.81853 -3.131218 0.928211 -3.5 0 -3.5 
C -0.928211 -3.5 -1.81853 -3.131218 -2.474874 -2.474874 
C -3.131218 -1.81853 -3.5 -0.928211 -3.5 0 
C -3.5 0.928211 -3.131218 1.81853 -2.474874 2.474874 
C -1.81853 3.131218 -0.928211 3.5 0 3.5 
z
" id="mce3d566fc5"/>
    </defs>
    <g clip-path="url(#pf292f5ee1e)">
     <use x="92.290909" xlink:href="#mce3d566fc5" y="64.992638"/>
     <use x="96.390083" xlink:href="#mce3d566fc5" y="64.878111"/>
     <use x="100.489256" xlink:href="#mce3d566fc5" y="64.740129"/>
     <use x="104.58843" xlink:href="#mce3d566fc5" y="64.597367"/>
     <use x="108.687603" xlink:href="#mce3d566fc5" y="65.124189"/>
     <use x="112.786777" xlink:href="#mce3d566fc5" y="65.407851"/>
     <use x="116.88595" xlink:href="#mce3d566fc5" y="65.802047"/>
     <use x="120.985124" xlink:href="#mce3d566fc5" y="65.80243"/>
     <use x="125.084298" xlink:href="#mce3d566fc5" y="66.992565"/>
     <use x="129.183471" xlink:href="#mce3d566fc5" y="67.12328"/>
     <use x="133.282645" xlink:href="#mce3d566fc5" y="67.357599"/>
     <use x="137.381818" xlink:href="#mce3d566fc5" y="67.366319"/>
     <use x="141.480992" xlink:href="#mce3d566fc5" y="67.038855"/>
     <use x="145.580165" xlink:href="#mce3d566fc5" y="66.860062"/>
     <use x="149.679339" xlink:href="#mce3d566fc5" y="67.446567"/>
     <use x="153.778512" xlink:href="#mce3d566fc5" y="66.671993"/>
     <use x="157.877686" xlink:href="#mce3d566fc5" y="67.055197"/>
     <use x="161.97686" xlink:href="#mce3d566fc5" y="66.113721"/>
     <use x="166.076033" xlink:href="#mce3d566fc5" y="65.598902"/>
     <use x="170.175207" xlink:href="#mce3d566fc5" y="65.456754"/>
     <use x="174.27438" xlink:href="#mce3d566fc5" y="65.767686"/>
     <use x="178.373554" xlink:href="#mce3d566fc5" y="65.234418"/>
     <use x="182.472727" xlink:href="#mce3d566fc5" y="65.131895"/>
     <use x="186.571901" xlink:href="#mce3d566fc5" y="64.840243"/>
     <use x="190.671074" xlink:href="#mce3d566fc5" y="64.608024"/>
     <use x="194.770248" xlink:href="#mce3d566fc5" y="63.358771"/>
     <use x="198.869421" xlink:href="#mce3d566fc5" y="63.034805"/>
     <use x="202.968595" xlink:href="#mce3d566fc5" y="63.206974"/>
     <use x="207.067769" xlink:href="#mce3d566fc5" y="63.609871"/>
     <use x="211.166942" xlink:href="#mce3d566fc5" y="63.326475"/>
     <use x="215.266116" xlink:href="#mce3d566fc5" y="63.902635"/>
     <use x="219.365289" xlink:href="#mce3d566fc5" y="63.68154"/>
     <use x="223.464463" xlink:href="#mce3d566fc5" y="64.167138"/>
     <use x="227.563636" xlink:href="#mce3d566fc5" y="64.862992"/>
     <use x="231.66281" xlink:href="#mce3d566fc5" y="63.630981"/>
     <use x="235.761983" xlink:href="#mce3d566fc5" y="63.27752"/>
     <use x="239.861157" xlink:href="#mce3d566fc5" y="62.572367"/>
     <use x="243.960331" xlink:href="#mce3d566fc5" y="61.11"/>
     <use x="248.059504" xlink:href="#mce3d566fc5" y="61.419107"/>
     <use x="252.158678" xlink:href="#mce3d566fc5" y="61.961683"/>
     <use x="256.257851" xlink:href="#mce3d566fc5" y="62.090655"/>
     <use x="260.357025" xlink:href="#mce3d566fc5" y="63.104921"/>
     <use x="264.456198" xlink:href="#mce3d566fc5" y="62.267262"/>
     <use x="268.555372" xlink:href="#mce3d566fc5" y="63.103784"/>
     <use x="272.654545" xlink:href="#mce3d566fc5" y="64.005309"/>
     <use x="276.753719" xlink:href="#mce3d566fc5" y="63.352027"/>
     <use x="280.852893" xlink:href="#mce3d566fc5" y="63.060896"/>
     <use x="284.952066" xlink:href="#mce3d566fc5" y="62.586352"/>
     <use x="289.05124" xlink:href="#mce3d566fc5" y="62.280839"/>
     <use x="293.150413" xlink:href="#mce3d566fc5" y="62.897988"/>
     <use x="297.249587" xlink:href="#mce3d566fc5" y="62.82325"/>
     <use x="301.34876" xlink:href="#mce3d566fc5" y="62.59508"/>
     <use x="305.447934" xlink:href="#mce3d566fc5" y="62.996029"/>
     <use x="309.547107" xlink:href="#mce3d566fc5" y="63.431824"/>
     <use x="313.646281" xlink:href="#mce3d566fc5" y="63.853493"/>
     <use x="317.745455" xlink:href="#mce3d566fc5" y="63.707257"/>
     <use x="321.844628" xlink:href="#mce3d566fc5" y="63.702171"/>
     <use x="325.943802" xlink:href="#mce3d566fc5" y="63.975812"/>
     <use x="330.042975" xlink:href="#mce3d566fc5" y="64.011583"/>
     <use x="334.142149" xlink:href="#mce3d566fc5" y="64.514332"/>
     <use x="338.241322" xlink:href="#mce3d566fc5" y="64.255986"/>
     <use x="342.340496" xlink:href="#mce3d566fc5" y="64.600311"/>
     <use x="346.439669" xlink:href="#mce3d566fc5" y="64.960953"/>
     <use x="350.538843" xlink:href="#mce3d566fc5" y="65.05912"/>
     <use x="354.638017" xlink:href="#mce3d566fc5" y="64.486796"/>
     <use x="358.73719" xlink:href="#mce3d566fc5" y="63.797403"/>
     <use x="362.836364" xlink:href="#mce3d566fc5" y="63.329387"/>
     <use x="366.935537" xlink:href="#mce3d566fc5" y="64.177273"/>
     <use x="371.034711" xlink:href="#mce3d566fc5" y="63.935977"/>
     <use x="375.133884" xlink:href="#mce3d566fc5" y="63.601932"/>
     <use x="379.233058" xlink:href="#mce3d566fc5" y="63.517938"/>
     <use x="383.332231" xlink:href="#mce3d566fc5" y="63.199592"/>
     <use x="387.431405" xlink:href="#mce3d566fc5" y="63.929702"/>
     <use x="391.530579" xlink:href="#mce3d566fc5" y="64.01179"/>
     <use x="395.629752" xlink:href="#mce3d566fc5" y="63.004298"/>
     <use x="399.728926" xlink:href="#mce3d566fc5" y="62.43052"/>
     <use x="403.828099" xlink:href="#mce3d566fc5" y="62.592978"/>
     <use x="407.927273" xlink:href="#mce3d566fc5" y="62.282999"/>
     <use x="412.026446" xlink:href="#mce3d566fc5" y="63.165593"/>
     <use x="416.12562" xlink:href="#mce3d566fc5" y="63.136335"/>
     <use x="420.224793" xlink:href="#mce3d566fc5" y="63.22046"/>
     <use x="424.323967" xlink:href="#mce3d566fc5" y="63.743283"/>
     <use x="428.42314" xlink:href="#mce3d566fc5" y="64.023846"/>
     <use x="432.522314" xlink:href="#mce3d566fc5" y="63.220055"/>
     <use x="436.621488" xlink:href="#mce3d566fc5" y="63.308705"/>
     <use x="440.720661" xlink:href="#mce3d566fc5" y="62.777106"/>
     <use x="444.819835" xlink:href="#mce3d566fc5" y="63.259992"/>
     <use x="448.919008" xlink:href="#mce3d566fc5" y="63.622996"/>
     <use x="453.018182" xlink:href="#mce3d566fc5" y="63.219152"/>
     <use x="457.117355" xlink:href="#mce3d566fc5" y="63.838723"/>
     <use x="461.216529" xlink:href="#mce3d566fc5" y="64.332035"/>
     <use x="465.315702" xlink:href="#mce3d566fc5" y="65.246578"/>
     <use x="469.414876" xlink:href="#mce3d566fc5" y="65.921197"/>
     <use x="473.51405" xlink:href="#mce3d566fc5" y="65.448454"/>
     <use x="477.613223" xlink:href="#mce3d566fc5" y="65.358984"/>
     <use x="481.712397" xlink:href="#mce3d566fc5" y="65.854166"/>
     <use x="485.81157" xlink:href="#mce3d566fc5" y="66.024046"/>
     <use x="489.910744" xlink:href="#mce3d566fc5" y="66.213465"/>
     <use x="494.009917" xlink:href="#mce3d566fc5" y="65.56172"/>
     <use x="498.109091" xlink:href="#mce3d566fc5" y="64.995829"/>
    </g>
   </g>
   <g id="line2d_29">
    <path clip-path="url(#pf292f5ee1e)" d="M 92.290909 287.123255 
L 96.390083 287.235115 
L 100.489256 287.158796 
L 104.58843 287.383602 
L 108.687603 287.068121 
L 112.786777 286.875041 
L 116.88595 286.014053 
L 120.985124 285.933542 
L 125.084298 284.994713 
L 129.183471 284.841156 
L 133.282645 285.102371 
L 137.381818 284.369789 
L 141.480992 284.44083 
L 145.580165 285.268753 
L 149.679339 285.445906 
L 153.778512 286.092215 
L 157.877686 286.173695 
L 161.97686 286.589221 
L 166.076033 287.676056 
L 170.175207 288.378602 
L 174.27438 287.644139 
L 178.373554 287.454152 
L 182.472727 287.5915 
L 186.571901 287.187887 
L 190.671074 287.508167 
L 194.770248 287.578007 
L 198.869421 287.822264 
L 202.968595 287.662152 
L 207.067769 288.079688 
L 211.166942 287.823526 
L 215.266116 287.108866 
L 219.365289 286.397456 
L 223.464463 286.784427 
L 227.563636 285.57494 
L 231.66281 286.658946 
L 235.761983 286.54834 
L 239.861157 287.087034 
L 243.960331 288.751157 
L 248.059504 288.975174 
L 252.158678 288.324439 
L 256.257851 288.664627 
L 260.357025 287.704617 
L 264.456198 287.751488 
L 268.555372 287.15115 
L 272.654545 286.541448 
L 276.753719 287.216977 
L 280.852893 286.840789 
L 284.952066 286.587589 
L 289.05124 286.715112 
L 293.150413 286.241703 
L 297.249587 285.969241 
L 301.34876 285.879018 
L 305.447934 285.502356 
L 309.547107 285.866461 
L 313.646281 285.815613 
L 317.745455 286.297063 
L 321.844628 286.540499 
L 325.943802 286.458123 
L 330.042975 286.550503 
L 334.142149 286.074615 
L 338.241322 286.223901 
L 342.340496 285.987418 
L 346.439669 285.627112 
L 350.538843 285.320654 
L 354.638017 285.768096 
L 358.73719 286.138512 
L 362.836364 286.401889 
L 366.935537 285.621914 
L 371.034711 286.349152 
L 375.133884 286.417018 
L 379.233058 286.498785 
L 383.332231 287.222641 
L 387.431405 286.989264 
L 391.530579 287.03035 
L 395.629752 287.689094 
L 399.728926 287.784628 
L 403.828099 287.959401 
L 407.927273 288.067949 
L 412.026446 287.236915 
L 416.12562 287.120022 
L 420.224793 286.96423 
L 424.323967 286.567092 
L 428.42314 285.836849 
L 432.522314 286.594209 
L 436.621488 286.415635 
L 440.720661 286.617051 
L 444.819835 286.055498 
L 448.919008 285.911971 
L 453.018182 286.096449 
L 457.117355 285.845669 
L 461.216529 285.049136 
L 465.315702 285.107259 
L 469.414876 285.3752 
L 473.51405 285.382129 
L 477.613223 285.731369 
L 481.712397 285.766733 
L 485.81157 285.653997 
L 489.910744 286.082351 
L 494.009917 286.241152 
L 498.109091 286.384605 
" style="fill:none;stroke:#bfbf00;stroke-linecap:round;stroke-width:1.75;"/>
    <defs>
     <path d="M 0 3.5 
C 0.928211 3.5 1.81853 3.131218 2.474874 2.474874 
C 3.131218 1.81853 3.5 0.928211 3.5 0 
C 3.5 -0.928211 3.131218 -1.81853 2.474874 -2.474874 
C 1.81853 -3.131218 0.928211 -3.5 0 -3.5 
C -0.928211 -3.5 -1.81853 -3.131218 -2.474874 -2.474874 
C -3.131218 -1.81853 -3.5 -0.928211 -3.5 0 
C -3.5 0.928211 -3.131218 1.81853 -2.474874 2.474874 
C -1.81853 3.131218 -0.928211 3.5 0 3.5 
z
" id="mce024311d7"/>
    </defs>
    <g clip-path="url(#pf292f5ee1e)">
     <use style="fill:#bfbf00;" x="92.290909" xlink:href="#mce024311d7" y="287.123255"/>
     <use style="fill:#bfbf00;" x="96.390083" xlink:href="#mce024311d7" y="287.235115"/>
     <use style="fill:#bfbf00;" x="100.489256" xlink:href="#mce024311d7" y="287.158796"/>
     <use style="fill:#bfbf00;" x="104.58843" xlink:href="#mce024311d7" y="287.383602"/>
     <use style="fill:#bfbf00;" x="108.687603" xlink:href="#mce024311d7" y="287.068121"/>
     <use style="fill:#bfbf00;" x="112.786777" xlink:href="#mce024311d7" y="286.875041"/>
     <use style="fill:#bfbf00;" x="116.88595" xlink:href="#mce024311d7" y="286.014053"/>
     <use style="fill:#bfbf00;" x="120.985124" xlink:href="#mce024311d7" y="285.933542"/>
     <use style="fill:#bfbf00;" x="125.084298" xlink:href="#mce024311d7" y="284.994713"/>
     <use style="fill:#bfbf00;" x="129.183471" xlink:href="#mce024311d7" y="284.841156"/>
     <use style="fill:#bfbf00;" x="133.282645" xlink:href="#mce024311d7" y="285.102371"/>
     <use style="fill:#bfbf00;" x="137.381818" xlink:href="#mce024311d7" y="284.369789"/>
     <use style="fill:#bfbf00;" x="141.480992" xlink:href="#mce024311d7" y="284.44083"/>
     <use style="fill:#bfbf00;" x="145.580165" xlink:href="#mce024311d7" y="285.268753"/>
     <use style="fill:#bfbf00;" x="149.679339" xlink:href="#mce024311d7" y="285.445906"/>
     <use style="fill:#bfbf00;" x="153.778512" xlink:href="#mce024311d7" y="286.092215"/>
     <use style="fill:#bfbf00;" x="157.877686" xlink:href="#mce024311d7" y="286.173695"/>
     <use style="fill:#bfbf00;" x="161.97686" xlink:href="#mce024311d7" y="286.589221"/>
     <use style="fill:#bfbf00;" x="166.076033" xlink:href="#mce024311d7" y="287.676056"/>
     <use style="fill:#bfbf00;" x="170.175207" xlink:href="#mce024311d7" y="288.378602"/>
     <use style="fill:#bfbf00;" x="174.27438" xlink:href="#mce024311d7" y="287.644139"/>
     <use style="fill:#bfbf00;" x="178.373554" xlink:href="#mce024311d7" y="287.454152"/>
     <use style="fill:#bfbf00;" x="182.472727" xlink:href="#mce024311d7" y="287.5915"/>
     <use style="fill:#bfbf00;" x="186.571901" xlink:href="#mce024311d7" y="287.187887"/>
     <use style="fill:#bfbf00;" x="190.671074" xlink:href="#mce024311d7" y="287.508167"/>
     <use style="fill:#bfbf00;" x="194.770248" xlink:href="#mce024311d7" y="287.578007"/>
     <use style="fill:#bfbf00;" x="198.869421" xlink:href="#mce024311d7" y="287.822264"/>
     <use style="fill:#bfbf00;" x="202.968595" xlink:href="#mce024311d7" y="287.662152"/>
     <use style="fill:#bfbf00;" x="207.067769" xlink:href="#mce024311d7" y="288.079688"/>
     <use style="fill:#bfbf00;" x="211.166942" xlink:href="#mce024311d7" y="287.823526"/>
     <use style="fill:#bfbf00;" x="215.266116" xlink:href="#mce024311d7" y="287.108866"/>
     <use style="fill:#bfbf00;" x="219.365289" xlink:href="#mce024311d7" y="286.397456"/>
     <use style="fill:#bfbf00;" x="223.464463" xlink:href="#mce024311d7" y="286.784427"/>
     <use style="fill:#bfbf00;" x="227.563636" xlink:href="#mce024311d7" y="285.57494"/>
     <use style="fill:#bfbf00;" x="231.66281" xlink:href="#mce024311d7" y="286.658946"/>
     <use style="fill:#bfbf00;" x="235.761983" xlink:href="#mce024311d7" y="286.54834"/>
     <use style="fill:#bfbf00;" x="239.861157" xlink:href="#mce024311d7" y="287.087034"/>
     <use style="fill:#bfbf00;" x="243.960331" xlink:href="#mce024311d7" y="288.751157"/>
     <use style="fill:#bfbf00;" x="248.059504" xlink:href="#mce024311d7" y="288.975174"/>
     <use style="fill:#bfbf00;" x="252.158678" xlink:href="#mce024311d7" y="288.324439"/>
     <use style="fill:#bfbf00;" x="256.257851" xlink:href="#mce024311d7" y="288.664627"/>
     <use style="fill:#bfbf00;" x="260.357025" xlink:href="#mce024311d7" y="287.704617"/>
     <use style="fill:#bfbf00;" x="264.456198" xlink:href="#mce024311d7" y="287.751488"/>
     <use style="fill:#bfbf00;" x="268.555372" xlink:href="#mce024311d7" y="287.15115"/>
     <use style="fill:#bfbf00;" x="272.654545" xlink:href="#mce024311d7" y="286.541448"/>
     <use style="fill:#bfbf00;" x="276.753719" xlink:href="#mce024311d7" y="287.216977"/>
     <use style="fill:#bfbf00;" x="280.852893" xlink:href="#mce024311d7" y="286.840789"/>
     <use style="fill:#bfbf00;" x="284.952066" xlink:href="#mce024311d7" y="286.587589"/>
     <use style="fill:#bfbf00;" x="289.05124" xlink:href="#mce024311d7" y="286.715112"/>
     <use style="fill:#bfbf00;" x="293.150413" xlink:href="#mce024311d7" y="286.241703"/>
     <use style="fill:#bfbf00;" x="297.249587" xlink:href="#mce024311d7" y="285.969241"/>
     <use style="fill:#bfbf00;" x="301.34876" xlink:href="#mce024311d7" y="285.879018"/>
     <use style="fill:#bfbf00;" x="305.447934" xlink:href="#mce024311d7" y="285.502356"/>
     <use style="fill:#bfbf00;" x="309.547107" xlink:href="#mce024311d7" y="285.866461"/>
     <use style="fill:#bfbf00;" x="313.646281" xlink:href="#mce024311d7" y="285.815613"/>
     <use style="fill:#bfbf00;" x="317.745455" xlink:href="#mce024311d7" y="286.297063"/>
     <use style="fill:#bfbf00;" x="321.844628" xlink:href="#mce024311d7" y="286.540499"/>
     <use style="fill:#bfbf00;" x="325.943802" xlink:href="#mce024311d7" y="286.458123"/>
     <use style="fill:#bfbf00;" x="330.042975" xlink:href="#mce024311d7" y="286.550503"/>
     <use style="fill:#bfbf00;" x="334.142149" xlink:href="#mce024311d7" y="286.074615"/>
     <use style="fill:#bfbf00;" x="338.241322" xlink:href="#mce024311d7" y="286.223901"/>
     <use style="fill:#bfbf00;" x="342.340496" xlink:href="#mce024311d7" y="285.987418"/>
     <use style="fill:#bfbf00;" x="346.439669" xlink:href="#mce024311d7" y="285.627112"/>
     <use style="fill:#bfbf00;" x="350.538843" xlink:href="#mce024311d7" y="285.320654"/>
     <use style="fill:#bfbf00;" x="354.638017" xlink:href="#mce024311d7" y="285.768096"/>
     <use style="fill:#bfbf00;" x="358.73719" xlink:href="#mce024311d7" y="286.138512"/>
     <use style="fill:#bfbf00;" x="362.836364" xlink:href="#mce024311d7" y="286.401889"/>
     <use style="fill:#bfbf00;" x="366.935537" xlink:href="#mce024311d7" y="285.621914"/>
     <use style="fill:#bfbf00;" x="371.034711" xlink:href="#mce024311d7" y="286.349152"/>
     <use style="fill:#bfbf00;" x="375.133884" xlink:href="#mce024311d7" y="286.417018"/>
     <use style="fill:#bfbf00;" x="379.233058" xlink:href="#mce024311d7" y="286.498785"/>
     <use style="fill:#bfbf00;" x="383.332231" xlink:href="#mce024311d7" y="287.222641"/>
     <use style="fill:#bfbf00;" x="387.431405" xlink:href="#mce024311d7" y="286.989264"/>
     <use style="fill:#bfbf00;" x="391.530579" xlink:href="#mce024311d7" y="287.03035"/>
     <use style="fill:#bfbf00;" x="395.629752" xlink:href="#mce024311d7" y="287.689094"/>
     <use style="fill:#bfbf00;" x="399.728926" xlink:href="#mce024311d7" y="287.784628"/>
     <use style="fill:#bfbf00;" x="403.828099" xlink:href="#mce024311d7" y="287.959401"/>
     <use style="fill:#bfbf00;" x="407.927273" xlink:href="#mce024311d7" y="288.067949"/>
     <use style="fill:#bfbf00;" x="412.026446" xlink:href="#mce024311d7" y="287.236915"/>
     <use style="fill:#bfbf00;" x="416.12562" xlink:href="#mce024311d7" y="287.120022"/>
     <use style="fill:#bfbf00;" x="420.224793" xlink:href="#mce024311d7" y="286.96423"/>
     <use style="fill:#bfbf00;" x="424.323967" xlink:href="#mce024311d7" y="286.567092"/>
     <use style="fill:#bfbf00;" x="428.42314" xlink:href="#mce024311d7" y="285.836849"/>
     <use style="fill:#bfbf00;" x="432.522314" xlink:href="#mce024311d7" y="286.594209"/>
     <use style="fill:#bfbf00;" x="436.621488" xlink:href="#mce024311d7" y="286.415635"/>
     <use style="fill:#bfbf00;" x="440.720661" xlink:href="#mce024311d7" y="286.617051"/>
     <use style="fill:#bfbf00;" x="444.819835" xlink:href="#mce024311d7" y="286.055498"/>
     <use style="fill:#bfbf00;" x="448.919008" xlink:href="#mce024311d7" y="285.911971"/>
     <use style="fill:#bfbf00;" x="453.018182" xlink:href="#mce024311d7" y="286.096449"/>
     <use style="fill:#bfbf00;" x="457.117355" xlink:href="#mce024311d7" y="285.845669"/>
     <use style="fill:#bfbf00;" x="461.216529" xlink:href="#mce024311d7" y="285.049136"/>
     <use style="fill:#bfbf00;" x="465.315702" xlink:href="#mce024311d7" y="285.107259"/>
     <use style="fill:#bfbf00;" x="469.414876" xlink:href="#mce024311d7" y="285.3752"/>
     <use style="fill:#bfbf00;" x="473.51405" xlink:href="#mce024311d7" y="285.382129"/>
     <use style="fill:#bfbf00;" x="477.613223" xlink:href="#mce024311d7" y="285.731369"/>
     <use style="fill:#bfbf00;" x="481.712397" xlink:href="#mce024311d7" y="285.766733"/>
     <use style="fill:#bfbf00;" x="485.81157" xlink:href="#mce024311d7" y="285.653997"/>
     <use style="fill:#bfbf00;" x="489.910744" xlink:href="#mce024311d7" y="286.082351"/>
     <use style="fill:#bfbf00;" x="494.009917" xlink:href="#mce024311d7" y="286.241152"/>
     <use style="fill:#bfbf00;" x="498.109091" xlink:href="#mce024311d7" y="286.384605"/>
    </g>
   </g>
   <g id="patch_3">
    <path d="M 72 346.5 
L 72 47.52 
" style="fill:none;"/>
   </g>
   <g id="patch_4">
    <path d="M 518.4 346.5 
L 518.4 47.52 
" style="fill:none;"/>
   </g>
   <g id="patch_5">
    <path d="M 72 346.5 
L 518.4 346.5 
" style="fill:none;"/>
   </g>
   <g id="patch_6">
    <path d="M 72 47.52 
L 518.4 47.52 
" style="fill:none;"/>
   </g>
   <g id="legend_1">
    <g id="line2d_30">
     <path d="M 81 167.745937 
L 101 167.745937 
" style="fill:none;stroke:#00bfbf;stroke-linecap:round;stroke-width:1.75;"/>
    </g>
    <g id="line2d_31">
     <g>
      <use style="fill:#00bfbf;" x="91" xlink:href="#m635804727a" y="167.745937"/>
     </g>
    </g>
    <g id="text_15">
     <!-- AFINN -->
     <defs>
      <path d="M 8.203125 0 
L 8.203125 71.578125 
L 56.5 71.578125 
L 56.5 63.140625 
L 17.671875 63.140625 
L 17.671875 40.96875 
L 51.265625 40.96875 
L 51.265625 32.515625 
L 17.671875 32.515625 
L 17.671875 0 
z
" id="ArialMT-46"/>
      <path d="M 9.328125 0 
L 9.328125 71.578125 
L 18.796875 71.578125 
L 18.796875 0 
z
" id="ArialMT-49"/>
      <path d="M 7.625 0 
L 7.625 71.578125 
L 17.328125 71.578125 
L 54.9375 15.375 
L 54.9375 71.578125 
L 64.015625 71.578125 
L 64.015625 0 
L 54.296875 0 
L 16.703125 56.25 
L 16.703125 0 
z
" id="ArialMT-4e"/>
     </defs>
     <g style="fill:#262626;" transform="translate(109 171.245937)scale(0.1 -0.1)">
      <use xlink:href="#ArialMT-41"/>
      <use x="66.699219" xlink:href="#ArialMT-46"/>
      <use x="127.783203" xlink:href="#ArialMT-49"/>
      <use x="155.566406" xlink:href="#ArialMT-4e"/>
      <use x="227.783203" xlink:href="#ArialMT-4e"/>
     </g>
    </g>
    <g id="line2d_32">
     <path d="M 81 181.89125 
L 101 181.89125 
" style="fill:none;stroke:#008000;stroke-linecap:round;stroke-width:1.75;"/>
    </g>
    <g id="line2d_33">
     <g>
      <use style="fill:#008000;" x="91" xlink:href="#md52e26e721" y="181.89125"/>
     </g>
    </g>
    <g id="text_16">
     <!-- comp -->
     <defs>
      <path d="M 6.59375 -19.875 
L 6.59375 51.859375 
L 14.59375 51.859375 
L 14.59375 45.125 
Q 17.4375 49.078125 21 51.046875 
Q 24.5625 53.03125 29.640625 53.03125 
Q 36.28125 53.03125 41.359375 49.609375 
Q 46.4375 46.1875 49.015625 39.953125 
Q 51.609375 33.734375 51.609375 26.3125 
Q 51.609375 18.359375 48.75 11.984375 
Q 45.90625 5.609375 40.453125 2.21875 
Q 35.015625 -1.171875 29 -1.171875 
Q 24.609375 -1.171875 21.109375 0.6875 
Q 17.625 2.546875 15.375 5.375 
L 15.375 -19.875 
z
M 14.546875 25.640625 
Q 14.546875 15.625 18.59375 10.84375 
Q 22.65625 6.0625 28.421875 6.0625 
Q 34.28125 6.0625 38.453125 11.015625 
Q 42.625 15.96875 42.625 26.375 
Q 42.625 36.28125 38.546875 41.203125 
Q 34.46875 46.140625 28.8125 46.140625 
Q 23.1875 46.140625 18.859375 40.890625 
Q 14.546875 35.640625 14.546875 25.640625 
z
" id="ArialMT-70"/>
     </defs>
     <g style="fill:#262626;" transform="translate(109 185.39125)scale(0.1 -0.1)">
      <use xlink:href="#ArialMT-63"/>
      <use x="50" xlink:href="#ArialMT-6f"/>
      <use x="105.615234" xlink:href="#ArialMT-6d"/>
      <use x="188.916016" xlink:href="#ArialMT-70"/>
     </g>
    </g>
    <g id="line2d_34">
     <path d="M 81 196.036563 
L 101 196.036563 
" style="fill:none;stroke:#0000ff;stroke-linecap:round;stroke-width:1.75;"/>
    </g>
    <g id="line2d_35">
     <g>
      <use style="fill:#0000ff;" x="91" xlink:href="#m0900992834" y="196.036563"/>
     </g>
    </g>
    <g id="text_17">
     <!-- neg -->
     <g style="fill:#262626;" transform="translate(109 199.536563)scale(0.1 -0.1)">
      <use xlink:href="#ArialMT-6e"/>
      <use x="55.615234" xlink:href="#ArialMT-65"/>
      <use x="111.230469" xlink:href="#ArialMT-67"/>
     </g>
    </g>
    <g id="line2d_36">
     <path d="M 81 210.299062 
L 101 210.299062 
" style="fill:none;stroke:#000000;stroke-linecap:round;stroke-width:1.75;"/>
    </g>
    <g id="line2d_37">
     <g>
      <use x="91" xlink:href="#mce3d566fc5" y="210.299062"/>
     </g>
    </g>
    <g id="text_18">
     <!-- neu -->
     <g style="fill:#262626;" transform="translate(109 213.799062)scale(0.1 -0.1)">
      <use xlink:href="#ArialMT-6e"/>
      <use x="55.615234" xlink:href="#ArialMT-65"/>
      <use x="111.230469" xlink:href="#ArialMT-75"/>
     </g>
    </g>
    <g id="line2d_38">
     <path d="M 81 224.444375 
L 101 224.444375 
" style="fill:none;stroke:#bfbf00;stroke-linecap:round;stroke-width:1.75;"/>
    </g>
    <g id="line2d_39">
     <g>
      <use style="fill:#bfbf00;" x="91" xlink:href="#mce024311d7" y="224.444375"/>
     </g>
    </g>
    <g id="text_19">
     <!-- pos -->
     <g style="fill:#262626;" transform="translate(109 227.944375)scale(0.1 -0.1)">
      <use xlink:href="#ArialMT-70"/>
      <use x="55.615234" xlink:href="#ArialMT-6f"/>
      <use x="111.230469" xlink:href="#ArialMT-73"/>
     </g>
    </g>
   </g>
  </g>
 </g>
 <defs>
  <clipPath id="pf292f5ee1e">
   <rect height="298.98" width="446.4" x="72" y="47.52"/>
  </clipPath>
 </defs>
</svg>
